<svg width="50" height="48" viewBox="0 0 50 48" fill="none" xmlns="http://www.w3.org/2000/svg">
<path d="M48.9997 17.5782C48.9997 15.7664 47.5878 14.2841 45.8621 14.2841H41.1555C40.6064 14.2841 40.2927 13.6253 40.6064 13.1312C41.0771 12.3076 41.3124 11.3194 41.0771 10.2488C40.7633 8.6018 39.5867 7.28417 38.0963 6.95476C35.5077 6.3783 33.3113 8.4371 33.3113 10.99C33.3113 11.8135 33.5467 12.4723 33.8604 13.1312C34.1742 13.6253 33.8604 14.2841 33.2329 14.2841H28.5264C26.8006 14.2841 25.3887 15.7664 25.3887 17.5782V23.3428C25.3887 23.9193 26.0162 24.2487 26.4869 23.9193C27.2713 23.4252 28.2126 23.1781 29.2323 23.4252C30.8012 23.7546 32.0562 24.9898 32.37 26.5545C32.9191 29.1898 30.9581 31.578 28.5264 31.578C27.7419 31.578 27.1144 31.3309 26.4869 31.0015C26.0947 30.6721 25.4671 31.0015 25.4671 31.578V36.5191C25.4671 38.3309 26.8791 39.8132 28.6048 39.8132H45.8621C47.5878 39.8132 48.9997 38.3309 48.9997 36.5191V17.5782Z" fill="#2C3246" stroke="#2AC77B" stroke-width="1.125"/>
<path d="M22.1796 15.0219C23.9053 15.0219 25.3173 16.5043 25.3173 18.316L25.3173 23.2571C25.3173 23.8336 25.9448 24.163 26.4155 23.8336C27.1999 23.3395 28.1412 23.0924 29.161 23.3395C30.7298 23.6689 31.9849 24.9042 32.2987 26.4689C32.8477 29.1865 30.8867 31.4923 28.455 31.4923C27.6706 31.4923 27.043 31.2453 26.4155 30.9159C25.9448 30.5865 25.3173 30.9159 25.3173 31.5747L25.3173 36.5158C25.3173 38.3275 23.9053 39.8099 22.1796 39.8099L16.6887 39.8099C16.1396 39.8099 15.8258 39.1511 16.1396 38.6569C16.6102 37.8334 16.8456 36.8452 16.6102 35.7746C16.2965 34.1276 15.1198 32.81 13.6294 32.4806C11.1193 31.9041 8.84447 33.9629 8.84447 36.5158C8.84447 37.3393 9.07979 37.9981 9.39356 38.6569C9.70733 39.0687 9.39356 39.7275 8.84447 39.7275L4.13795 39.7275C2.41222 39.7275 1.00026 38.2452 1.00026 36.4334L1.00026 18.316C1.00026 16.5043 2.41222 15.0219 4.13794 15.0219L22.1796 15.0219Z" fill="#2C3246" stroke="#2AC77B" stroke-width="1.125"/>
</svg>
