<svg width="48" height="51" viewBox="0 0 48 51" fill="none" xmlns="http://www.w3.org/2000/svg">
<path d="M32.3438 5.75H21.375C21.375 6.96688 19.5867 10.175 18.375 10.175C17.1633 10.175 15 6.96688 15 5.75H5.15625C2.73281 5.75 0.75 7.74125 0.75 10.175V45.575C0.75 48.0088 2.73281 50 5.15625 50H32.3438C34.7672 50 36.75 48.0088 36.75 45.575V10.175C36.75 7.74125 34.7672 5.75 32.3438 5.75Z" fill="#2C3246" stroke="#2AC77B" stroke-width="1.125"/>
<mask id="path-2-outside-1_2958_2060" maskUnits="userSpaceOnUse" x="7" y="0" width="23" height="15" fill="black">
<rect fill="white" x="7" width="23" height="15"/>
<path fill-rule="evenodd" clip-rule="evenodd" d="M14.4551 6.55106C14.4614 4.04683 16.427 2 18.8286 2C21.2302 2 23.1958 4.04683 23.2021 6.55106H28.6807V11.1141C28.6807 12.369 27.6967 13.3957 26.494 13.3957H11.1867C9.98404 13.3957 9 12.369 9 11.1141V6.55106H14.4551ZM20.3591 8.18875C19.965 8.5868 19.4288 8.83259 18.8404 8.83259C17.6377 8.83259 16.6536 7.8059 16.6536 6.55106H16.6419C16.6481 5.30168 17.6297 4.28153 18.8286 4.28153C20.0313 4.28153 21.0153 5.30822 21.0153 6.56306C21.0153 7.19778 20.7636 7.77412 20.3591 8.18875Z"/>
</mask>
<path fill-rule="evenodd" clip-rule="evenodd" d="M14.4551 6.55106C14.4614 4.04683 16.427 2 18.8286 2C21.2302 2 23.1958 4.04683 23.2021 6.55106H28.6807V11.1141C28.6807 12.369 27.6967 13.3957 26.494 13.3957H11.1867C9.98404 13.3957 9 12.369 9 11.1141V6.55106H14.4551ZM20.3591 8.18875C19.965 8.5868 19.4288 8.83259 18.8404 8.83259C17.6377 8.83259 16.6536 7.8059 16.6536 6.55106H16.6419C16.6481 5.30168 17.6297 4.28153 18.8286 4.28153C20.0313 4.28153 21.0153 5.30822 21.0153 6.56306C21.0153 7.19778 20.7636 7.77412 20.3591 8.18875Z" fill="#2C3246"/>
<path d="M14.4551 6.55106V7.67606H15.5773L15.5801 6.55387L14.4551 6.55106ZM23.2021 6.55106L22.0771 6.55387L22.0799 7.67606H23.2021V6.55106ZM28.6807 6.55106H29.8057V5.42606H28.6807V6.55106ZM9 6.55106V5.42606H7.875V6.55106H9ZM20.3591 8.18875L21.1585 8.98032L21.1644 8.97433L20.3591 8.18875ZM16.6536 6.55106H17.7786V5.42606H16.6536V6.55106ZM16.6419 6.55106L15.5169 6.54543L15.5112 7.67606H16.6419V6.55106ZM18.8286 0.875C15.7622 0.875 13.3378 3.4693 13.3301 6.54825L15.5801 6.55387C15.5849 4.62437 17.0917 3.125 18.8286 3.125V0.875ZM24.3271 6.54825C24.3194 3.4693 21.8949 0.875 18.8286 0.875V3.125C20.5654 3.125 22.0722 4.62437 22.0771 6.55387L24.3271 6.54825ZM28.6807 5.42606H23.2021V7.67606H28.6807V5.42606ZM29.8057 11.1141V6.55106H27.5557V11.1141H29.8057ZM26.494 14.5207C28.3625 14.5207 29.8057 12.9448 29.8057 11.1141H27.5557C27.5557 11.7931 27.0309 12.2707 26.494 12.2707V14.5207ZM11.1867 14.5207H26.494V12.2707H11.1867V14.5207ZM7.875 11.1141C7.875 12.9448 9.31821 14.5207 11.1867 14.5207V12.2707C10.6499 12.2707 10.125 11.7931 10.125 11.1141H7.875ZM7.875 6.55106V11.1141H10.125V6.55106H7.875ZM14.4551 5.42606H9V7.67606H14.4551V5.42606ZM19.5597 7.39721C19.3613 7.59759 19.1071 7.70759 18.8404 7.70759V9.95759C19.7506 9.95759 20.5687 9.57601 21.1585 8.98029L19.5597 7.39721ZM18.8404 7.70759C18.3035 7.70759 17.7786 7.23005 17.7786 6.55106H15.5286C15.5286 8.38176 16.9718 9.95759 18.8404 9.95759V7.70759ZM16.6536 5.42606H16.6419V7.67606H16.6536V5.42606ZM17.7668 6.55669C17.7702 5.88089 18.2934 5.40653 18.8286 5.40653V3.15653C16.966 3.15653 15.526 4.72247 15.5169 6.54543L17.7668 6.55669ZM18.8286 5.40653C19.3655 5.40653 19.8903 5.88408 19.8903 6.56306H22.1403C22.1403 4.73236 20.6971 3.15653 18.8286 3.15653V5.40653ZM19.8903 6.56306C19.8903 6.89682 19.7585 7.1933 19.5538 7.40318L21.1644 8.97433C21.7686 8.35494 22.1403 7.49873 22.1403 6.56306H19.8903Z" fill="#2AC77B" mask="url(#path-2-outside-1_2958_2060)"/>
<path d="M26.879 20.75L15.3629 31.9063L10.621 27.3125L8.25 29.6094L15.3629 36.5L29.25 23.0469L26.879 20.75Z" stroke="#2AC77B" stroke-width="1.125"/>
</svg>
