<svg width="58" height="48" viewBox="0 0 58 48" fill="none" xmlns="http://www.w3.org/2000/svg">
<path d="M56.9994 15.5078C56.9994 13.3941 55.3521 11.6647 53.3387 11.6647H47.8478C47.2072 11.6647 46.8411 10.8961 47.2072 10.3196C47.7563 9.35887 48.0308 8.20594 47.7563 6.95694C47.3902 5.03539 46.0175 3.49816 44.2787 3.11385C41.2587 2.44131 38.6962 4.84324 38.6962 7.82163C38.6962 8.78241 38.9708 9.55103 39.3368 10.3196C39.7029 10.8961 39.3368 11.6647 38.6047 11.6647H33.1138C31.1004 11.6647 29.4531 13.3941 29.4531 15.5078V22.2332C29.4531 22.9058 30.1853 23.2901 30.7343 22.9058C31.6495 22.3293 32.7477 22.0411 33.9374 22.3293C35.7677 22.7136 37.232 24.1548 37.598 25.9802C38.2386 29.0547 35.9507 31.841 33.1138 31.841C32.1986 31.841 31.4665 31.5527 30.7343 31.1684C30.2768 30.7841 29.5446 31.1684 29.5446 31.841V37.6056C29.5446 39.7193 31.1919 41.4487 33.2053 41.4487H53.3387C55.3521 41.4487 56.9994 39.7193 56.9994 37.6056V15.5078Z" fill="#2C3246" stroke="#2AC77B" stroke-width="1.3125"/>
<path d="M25.7091 12.5256C27.7224 12.5256 29.3697 14.2549 29.3697 16.3687L29.3697 22.1333C29.3697 22.8058 30.1018 23.1901 30.6509 22.8058C31.5661 22.2294 32.6643 21.9411 33.854 22.2294C35.6843 22.6137 37.1485 24.0548 37.5146 25.8803C38.1552 29.0509 35.8673 31.741 33.0303 31.741C32.1152 31.741 31.383 31.4528 30.6509 31.0685C30.1018 30.6842 29.3697 31.0685 29.3697 31.8371L29.3697 37.6017C29.3697 39.7154 27.7224 41.4448 25.7091 41.4448L19.303 41.4448C18.6624 41.4448 18.2963 40.6762 18.6624 40.0997C19.2115 39.139 19.486 37.986 19.2115 36.737C18.8454 34.8155 17.4727 33.2783 15.7339 32.8939C12.8053 32.2214 10.1514 34.6233 10.1514 37.6017C10.1514 38.5625 10.4259 39.3311 10.792 40.0997C11.1581 40.5801 10.792 41.3487 10.1514 41.3487L4.66045 41.3487C2.6471 41.3487 0.999817 39.6194 0.999817 37.5057L0.999817 16.3687C0.999817 14.255 2.6471 12.5256 4.66045 12.5256L25.7091 12.5256Z" fill="#2C3246" stroke="#2AC77B" stroke-width="1.3125"/>
</svg>
