<svg width="44" height="59" viewBox="0 0 44 59" fill="none" xmlns="http://www.w3.org/2000/svg">
<path d="M37.7344 6.375H24.9375C24.9375 7.79469 22.8512 11.5375 21.4375 11.5375C20.0238 11.5375 17.5 7.79469 17.5 6.375H6.01562C3.18828 6.375 0.875 8.69812 0.875 11.5375V52.8375C0.875 55.6769 3.18828 58 6.01562 58H37.7344C40.5617 58 42.875 55.6769 42.875 52.8375V11.5375C42.875 8.69812 40.5617 6.375 37.7344 6.375Z" fill="#2C3246" stroke="#2AC77B" stroke-width="1.3125"/>
<mask id="path-2-outside-1_3109_8334" maskUnits="userSpaceOnUse" x="8.5" y="0" width="27" height="17" fill="black">
<rect fill="white" x="8.5" width="27" height="17"/>
<path fill-rule="evenodd" clip-rule="evenodd" d="M16.8638 7.30957C16.8712 4.38797 19.1644 2 21.9662 2C24.7681 2 27.0613 4.38797 27.0686 7.30957H33.4609V12.6331C33.4609 14.0971 32.3128 15.2949 30.9097 15.2949H13.0512C11.648 15.2949 10.5 14.0971 10.5 12.6331V7.30957H16.8638ZM23.7236 9.24871C23.2666 9.6963 22.6528 9.97136 21.9804 9.97136C20.5773 9.97136 19.4292 8.77355 19.4292 7.30957H19.4151C19.4224 5.85196 20.5676 4.66179 21.9662 4.66179C23.3694 4.66179 24.5175 5.85959 24.5175 7.32357C24.5175 8.07873 24.212 8.76307 23.7236 9.24871Z"/>
</mask>
<path fill-rule="evenodd" clip-rule="evenodd" d="M16.8638 7.30957C16.8712 4.38797 19.1644 2 21.9662 2C24.7681 2 27.0613 4.38797 27.0686 7.30957H33.4609V12.6331C33.4609 14.0971 32.3128 15.2949 30.9097 15.2949H13.0512C11.648 15.2949 10.5 14.0971 10.5 12.6331V7.30957H16.8638ZM23.7236 9.24871C23.2666 9.6963 22.6528 9.97136 21.9804 9.97136C20.5773 9.97136 19.4292 8.77355 19.4292 7.30957H19.4151C19.4224 5.85196 20.5676 4.66179 21.9662 4.66179C23.3694 4.66179 24.5175 5.85959 24.5175 7.32357C24.5175 8.07873 24.212 8.76307 23.7236 9.24871Z" fill="#2C3246"/>
<path d="M16.8638 7.30957V8.62207H18.1731L18.1763 7.31285L16.8638 7.30957ZM27.0686 7.30957L25.7561 7.31285L25.7594 8.62207H27.0686V7.30957ZM33.4609 7.30957H34.7734V5.99707H33.4609V7.30957ZM10.5 7.30957V5.99707H9.1875V7.30957H10.5ZM23.7236 9.24871L24.642 10.1864L24.6491 10.1794L23.7236 9.24871ZM19.4292 7.30957H20.7417V5.99707H19.4292V7.30957ZM19.4151 7.30957L18.1026 7.303L18.096 8.62207H19.4151V7.30957ZM21.9662 0.6875C18.3888 0.6875 15.5603 3.71418 15.5514 7.30629L18.1763 7.31285C18.182 5.06176 19.9399 3.3125 21.9662 3.3125V0.6875ZM28.3811 7.30629C28.3722 3.71418 25.5437 0.6875 21.9662 0.6875V3.3125C23.9925 3.3125 25.7505 5.06176 25.7561 7.31285L28.3811 7.30629ZM33.4609 5.99707H27.0686V8.62207H33.4609V5.99707ZM34.7734 12.6331V7.30957H32.1484V12.6331H34.7734ZM30.9097 16.6074C33.0896 16.6074 34.7734 14.769 34.7734 12.6331H32.1484C32.1484 13.4253 31.536 13.9824 30.9097 13.9824V16.6074ZM13.0512 16.6074H30.9097V13.9824H13.0512V16.6074ZM9.1875 12.6331C9.1875 14.769 10.8712 16.6074 13.0512 16.6074V13.9824C12.4248 13.9824 11.8125 13.4253 11.8125 12.6331H9.1875ZM9.1875 7.30957V12.6331H11.8125V7.30957H9.1875ZM16.8638 5.99707H10.5V8.62207H16.8638V5.99707ZM22.8052 8.31106C22.5758 8.53572 22.2854 8.65886 21.9804 8.65886V11.2839C23.0202 11.2839 23.9574 10.8569 24.642 10.1864L22.8052 8.31106ZM21.9804 8.65886C21.3541 8.65886 20.7417 8.10172 20.7417 7.30957H18.1167C18.1167 9.44538 19.8005 11.2839 21.9804 11.2839V8.65886ZM19.4292 5.99707H19.4151V8.62207H19.4292V5.99707ZM20.7276 7.31614C20.7315 6.52771 21.3419 5.97429 21.9662 5.97429V3.34929C19.7932 3.34929 18.1132 5.17621 18.1026 7.303L20.7276 7.31614ZM21.9662 5.97429C22.5926 5.97429 23.205 6.53142 23.205 7.32357H25.83C25.83 5.18776 24.1462 3.34929 21.9662 3.34929V5.97429ZM23.205 7.32357C23.205 7.72067 23.045 8.07254 22.7981 8.31804L24.6491 10.1794C25.379 9.45359 25.83 8.43679 25.83 7.32357H23.205Z" fill="#2AC77B" mask="url(#path-2-outside-1_3109_8334)"/>
<path d="M31.3589 23.875L17.9234 36.8906L12.3911 31.5313L9.625 34.2109L17.9234 42.25L34.125 26.5547L31.3589 23.875Z" stroke="#2AC77B" stroke-width="1.3125"/>
</svg>
