<svg width="57" height="58" viewBox="0 0 57 58" fill="none" xmlns="http://www.w3.org/2000/svg">
<path d="M1 5.37521L4.25189 5.37515C9.62141 5.37506 14.945 4.38652 19.9567 2.45895L23.7499 1L27.5424 2.45871C32.5546 4.38657 37.8789 5.37516 43.2491 5.37507L46.5 5.37501L46.4999 23.6342C46.4998 35.3156 39.7592 45.9481 29.1943 50.9318L23.7499 53.5L18.3054 50.9317C7.74058 45.9481 1.00004 35.3156 1.00003 23.6343L1 5.37521Z" fill="#2C3246" stroke="#2AC77B" stroke-width="1.3125" stroke-linejoin="round"/>
<circle cx="43" cy="43.875" r="13.125" fill="#2C3246" stroke="#2AC77B" stroke-width="1.3125"/>
<path d="M38.625 43.811L41.5887 46.5L47.375 41.25" stroke="#2AC77B" stroke-width="1.3125" stroke-linecap="round" stroke-linejoin="round"/>
<path d="M25.5 28.7013C27.5391 27.9806 29 26.0359 29 23.75C29 20.8505 26.6495 18.5 23.75 18.5C20.8505 18.5 18.5 20.8505 18.5 23.75C18.5 26.0359 19.9609 27.9806 22 28.7013V33.375C22 34.3415 22.7835 35.125 23.75 35.125C24.7165 35.125 25.5 34.3415 25.5 33.375V28.7013Z" fill="#2C3246" stroke="#2AC77B" stroke-width="1.3125" stroke-linejoin="round"/>
</svg>
