<svg width="56" height="56" viewBox="0 0 56 56" fill="none" xmlns="http://www.w3.org/2000/svg">
<path d="M46.375 55.125H8.75V1.75L34.0605 1.75L46.375 14.0873V55.125Z" fill="#2C3246" stroke="#2AC77B" stroke-width="1.3125" stroke-linejoin="round"/>
<path d="M43.75 15.75H32.375V4.375L43.75 15.75Z" fill="#2C3246" stroke="#2AC77B" stroke-width="1.3125" stroke-linejoin="round"/>
<path fill-rule="evenodd" clip-rule="evenodd" d="M24.1228 48.8003C20.9988 48.0057 18.4117 46.2368 16.6005 43.9062L3.35665 51.5265L1.58155 48.4595L1.59141 48.4539L1.57306 48.4222L11.366 42.7879L11.3842 42.8192L14.8076 40.8495C13.6382 38.0853 13.3721 34.911 14.2611 31.7616C16.3746 24.2743 24.2164 19.7634 31.7764 21.6863C39.3363 23.6092 43.7515 31.2377 41.6381 38.725C39.5246 46.2123 31.6827 50.7232 24.1228 48.8003Z" fill="#2C3246"/>
<path d="M16.6005 43.9062L16.2775 43.3448C16.5658 43.179 16.929 43.2462 17.1279 43.5021L16.6005 43.9062ZM3.35665 51.5265L3.67961 52.0879C3.36198 52.2706 2.96016 52.1685 2.78131 51.8594L3.35665 51.5265ZM1.58155 48.4595L1.0062 48.7925C0.920016 48.6436 0.898192 48.4656 0.945541 48.2978C0.992889 48.13 1.10552 47.9862 1.25858 47.8982L1.58155 48.4595ZM1.59141 48.4539L2.16674 48.1209C2.25293 48.2698 2.27477 48.4478 2.22742 48.6156C2.18007 48.7834 2.06744 48.9272 1.91437 49.0152L1.59141 48.4539ZM1.57306 48.4222L0.997729 48.7551C0.911532 48.6062 0.889699 48.4282 0.937051 48.2604C0.984403 48.0926 1.09705 47.9488 1.25012 47.8608L1.57306 48.4222ZM11.366 42.7879L11.0431 42.2265C11.3607 42.0438 11.7625 42.146 11.9414 42.455L11.366 42.7879ZM11.3842 42.8192L11.7071 43.3806C11.3895 43.5634 10.9877 43.4612 10.8088 43.1522L11.3842 42.8192ZM14.8076 40.8495L15.418 40.5868C15.5458 40.889 15.4224 41.2429 15.1306 41.4108L14.8076 40.8495ZM17.1279 43.5021C18.855 45.7244 21.3211 47.4108 24.3011 48.1688L23.9445 49.4319C20.6765 48.6007 17.9685 46.7492 16.0731 44.3103L17.1279 43.5021ZM3.03369 50.9651L16.2775 43.3448L16.9235 44.4676L3.67961 52.0879L3.03369 50.9651ZM2.1569 48.1266L3.932 51.1935L2.78131 51.8594L1.0062 48.7925L2.1569 48.1266ZM1.91437 49.0152L1.90452 49.0209L1.25858 47.8982L1.26844 47.8925L1.91437 49.0152ZM2.14839 48.0892L2.16674 48.1209L1.01607 48.7868L0.997729 48.7551L2.14839 48.0892ZM11.689 43.3493L1.896 48.9836L1.25012 47.8608L11.0431 42.2265L11.689 43.3493ZM10.8088 43.1522L10.7907 43.1209L11.9414 42.455L11.9595 42.4863L10.8088 43.1522ZM15.1306 41.4108L11.7071 43.3806L11.0612 42.2579L14.4846 40.2881L15.1306 41.4108ZM14.8971 31.9234C14.0495 34.9262 14.3031 37.9513 15.418 40.5868L14.1972 41.1121C12.9734 38.2193 12.6948 34.8957 13.6251 31.5999L14.8971 31.9234ZM31.5981 22.3179C24.3878 20.4839 16.9117 24.7864 14.8971 31.9234L13.6251 31.5999C15.8375 23.7621 24.0451 19.0429 31.9547 21.0547L31.5981 22.3179ZM41.0021 38.5632C43.0166 31.4263 38.8084 24.1518 31.5981 22.3179L31.9547 21.0547C39.8642 23.0665 44.4864 31.049 42.2741 38.8868L41.0021 38.5632ZM24.3011 48.1688C31.5113 50.0027 38.9875 45.7002 41.0021 38.5632L42.2741 38.8868C40.0617 46.7245 31.8541 51.4437 23.9445 49.4319L24.3011 48.1688Z" fill="#2AC77B"/>
<path d="M17.3615 32.5556C15.7312 38.3312 19.1367 44.2187 24.9725 45.703C30.8082 47.1874 36.8585 43.705 38.4888 37.9294C40.1192 32.1538 36.7137 26.2663 30.8779 24.7819C25.0422 23.2976 18.9918 26.78 17.3615 32.5556Z" fill="#2C3246" stroke="#2AC77B" stroke-width="1.3125"/>
</svg>
