<svg width="161" height="106" viewBox="0 0 161 106" fill="none" xmlns="http://www.w3.org/2000/svg">
<mask id="path-1-outside-1_3109_8089" maskUnits="userSpaceOnUse" x="0.666992" y="12.3064" width="160" height="93" fill="black">
<rect fill="white" x="0.666992" y="12.3064" width="160" height="93"/>
<path fill-rule="evenodd" clip-rule="evenodd" d="M44.6378 103.109L3.99625 79.6447C2.36445 78.7004 1.60311 77.425 1.67622 76.1005L1.66699 76.0899V71.2174L4.05632 70.4337L5.15349 71.7785L103.138 15.2035C107.125 12.9109 113.106 12.6597 116.571 14.6493L156.208 37.5342L156.905 34.492L159.539 36.5546V41.5792L159.534 41.595C159.481 43.085 158.369 44.6434 156.248 45.8691L58.0707 102.551C54.0954 104.848 48.0827 105.095 44.6378 103.109Z"/>
</mask>
<path fill-rule="evenodd" clip-rule="evenodd" d="M44.6378 103.109L3.99625 79.6447C2.36445 78.7004 1.60311 77.425 1.67622 76.1005L1.66699 76.0899V71.2174L4.05632 70.4337L5.15349 71.7785L103.138 15.2035C107.125 12.9109 113.106 12.6597 116.571 14.6493L156.208 37.5342L156.905 34.492L159.539 36.5546V41.5792L159.534 41.595C159.481 43.085 158.369 44.6434 156.248 45.8691L58.0707 102.551C54.0954 104.848 48.0827 105.095 44.6378 103.109Z" fill="#3D4255"/>
<path d="M3.99625 79.6447L3.59803 80.3328L3.59873 80.3332L3.99625 79.6447ZM44.6378 103.109L44.2403 103.798L44.2408 103.798L44.6378 103.109ZM1.67622 76.1005L2.47004 76.1443L2.48791 75.8206L2.27432 75.5767L1.67622 76.1005ZM1.66699 76.0899H0.871961V76.3889L1.06889 76.6137L1.66699 76.0899ZM1.66699 71.2174L1.41921 70.4619L0.871961 70.6414V71.2174H1.66699ZM4.05632 70.4337L4.67235 69.9311L4.32725 69.5081L3.80854 69.6782L4.05632 70.4337ZM5.15349 71.7785L4.53746 72.2811L4.96513 72.8053L5.55102 72.467L5.15349 71.7785ZM103.138 15.2035L102.742 14.5143L102.74 14.515L103.138 15.2035ZM116.571 14.6493L116.968 13.9608L116.967 13.9599L116.571 14.6493ZM156.208 37.5342L155.811 38.2228L156.743 38.761L156.983 37.7117L156.208 37.5342ZM156.905 34.492L157.395 33.866L156.409 33.0943L156.13 34.3146L156.905 34.492ZM159.539 36.5546H160.334V36.1673L160.029 35.9286L159.539 36.5546ZM159.539 41.5792L160.291 41.838L160.334 41.7122V41.5792H159.539ZM159.534 41.595L158.782 41.3363L158.743 41.4484L158.739 41.567L159.534 41.595ZM156.248 45.8691L156.645 46.5576L156.645 46.5575L156.248 45.8691ZM58.0707 102.551L57.6732 101.863L57.673 101.863L58.0707 102.551ZM3.59873 80.3332L44.2403 103.798L45.0353 102.421L4.39377 78.9562L3.59873 80.3332ZM0.882396 76.0567C0.788062 77.7658 1.79063 79.2869 3.59803 80.3328L4.39446 78.9566C2.93827 78.1139 2.41816 77.0843 2.47004 76.1443L0.882396 76.0567ZM1.06889 76.6137L1.07812 76.6243L2.27432 75.5767L2.2651 75.5662L1.06889 76.6137ZM0.871961 71.2174V76.0899H2.46202V71.2174H0.871961ZM3.80854 69.6782L1.41921 70.4619L1.91477 71.9728L4.30409 71.1891L3.80854 69.6782ZM5.76952 71.276L4.67235 69.9311L3.44029 70.9363L4.53746 72.2811L5.76952 71.276ZM102.74 14.515L4.75595 71.09L5.55102 72.467L103.536 15.892L102.74 14.515ZM116.967 13.9599C115.065 12.868 112.542 12.4215 110.017 12.5262C107.485 12.6313 104.864 13.2938 102.742 14.5143L103.534 15.8928C105.399 14.8206 107.762 14.2112 110.083 14.1149C112.412 14.0183 114.612 14.441 116.175 15.3388L116.967 13.9599ZM156.606 36.8457L116.968 13.9608L116.173 15.3378L155.811 38.2228L156.606 36.8457ZM156.13 34.3146L155.433 37.3568L156.983 37.7117L157.68 34.6694L156.13 34.3146ZM160.029 35.9286L157.395 33.866L156.415 35.118L159.049 37.1806L160.029 35.9286ZM160.334 41.5792V36.5546H158.744V41.5792H160.334ZM160.285 41.8538L160.291 41.838L158.787 41.3205L158.782 41.3363L160.285 41.8538ZM156.645 46.5575C158.884 45.2643 160.262 43.5017 160.328 41.6231L158.739 41.567C158.7 42.6683 157.855 44.0225 155.85 45.1807L156.645 46.5575ZM58.4682 103.24L156.645 46.5576L155.85 45.1806L57.6732 101.863L58.4682 103.24ZM44.2408 103.798C46.1333 104.889 48.6606 105.335 51.1883 105.23C53.7235 105.125 56.3506 104.463 58.4684 103.24L57.673 101.863C55.8156 102.936 53.4486 103.545 51.1225 103.642C48.7888 103.738 46.5872 103.315 45.0348 102.421L44.2408 103.798Z" fill="#2AC77B" mask="url(#path-1-outside-1_3109_8089)"/>
<path d="M44.6363 98.1288L3.99475 74.6641C0.549808 72.6705 0.984412 69.2056 4.95965 66.909L103.137 10.227C107.124 7.93032 113.105 7.68312 116.569 9.66874L157.211 33.1334C160.652 35.127 160.221 38.5959 156.246 40.8885L58.0692 97.5746C54.0939 99.8672 48.0812 100.118 44.6363 98.1288Z" fill="#3D4255"/>
<path d="M8.89949 79.9395C9.10736 79.8195 9.10718 79.43 8.89908 79.0696C8.69099 78.7092 8.35378 78.5142 8.14591 78.6343C7.93804 78.7543 7.93823 79.1438 8.14632 79.5042C8.35442 79.8646 8.69162 80.0595 8.89949 79.9395Z" fill="#3D4255"/>
<path d="M10.8565 81.0701C11.0644 80.9501 11.0642 80.5606 10.8561 80.2002C10.648 79.8398 10.3108 79.6449 10.1029 79.7649C9.89507 79.8849 9.89525 80.2744 10.1033 80.6348C10.3114 80.9952 10.6487 81.1901 10.8565 81.0701Z" fill="#3D4255"/>
<path d="M12.8116 82.1941C13.0195 82.0741 13.0193 81.6846 12.8112 81.3242C12.6031 80.9637 12.2659 80.7688 12.058 80.8888C11.8501 81.0089 11.8503 81.3983 12.0584 81.7588C12.2665 82.1192 12.6037 82.3141 12.8116 82.1941Z" fill="#3D4255"/>
<path d="M14.7686 83.3296C14.9765 83.2096 14.9763 82.8202 14.7682 82.4597C14.5601 82.0993 14.2229 81.9044 14.0151 82.0244C13.8072 82.1444 13.8074 82.5339 14.0155 82.8943C14.2236 83.2548 14.5608 83.4496 14.7686 83.3296Z" fill="#3D4255"/>
<path d="M31.5694 93.0239C31.7773 92.9038 31.7771 92.5144 31.569 92.1539C31.3609 91.7935 31.0237 91.5986 30.8158 91.7186C30.608 91.8386 30.6082 92.2281 30.8162 92.5885C31.0243 92.949 31.3615 93.1439 31.5694 93.0239Z" fill="#3D4255"/>
<path d="M33.5225 94.1568C33.7304 94.0368 33.7302 93.6474 33.5221 93.2869C33.314 92.9265 32.9768 92.7316 32.769 92.8516C32.5611 92.9716 32.5613 93.3611 32.7694 93.7215C32.9775 94.082 33.3147 94.2769 33.5225 94.1568Z" fill="#3D4255"/>
<path d="M35.4757 95.2834C35.6835 95.1634 35.6833 94.7739 35.4752 94.4134C35.2672 94.053 34.9299 93.8581 34.7221 93.9781C34.5142 94.0981 34.5144 94.4876 34.7225 94.848C34.9306 95.2085 35.2678 95.4034 35.4757 95.2834Z" fill="#3D4255"/>
<path d="M37.4366 96.4153C37.6445 96.2953 37.6443 95.9058 37.4362 95.5454C37.2281 95.1849 36.8909 94.99 36.683 95.11C36.4751 95.23 36.4753 95.6195 36.6834 95.98C36.8915 96.3404 37.2287 96.5353 37.4366 96.4153Z" fill="#3D4255"/>
<path d="M44.4375 97.8994L44.4378 97.8995C46.2453 98.9414 48.6911 99.3817 51.1703 99.2791C53.6533 99.1762 56.2152 98.5271 58.2679 97.3412C58.268 97.3412 58.268 97.3412 58.268 97.3411L156.445 40.6591L156.246 40.3149L156.445 40.6591C158.489 39.4781 159.708 37.9476 159.904 36.3728C160.104 34.767 159.225 33.2671 157.41 32.2158L157.41 32.2155L116.768 8.75085L116.767 8.75039C114.95 7.70706 112.508 7.26648 110.032 7.3697C107.553 7.47307 104.996 8.12336 102.938 9.30886L102.938 9.30906L4.7609 65.9911L4.7608 65.9912C2.71666 67.1721 1.49661 68.7025 1.30017 70.2774C1.09985 71.8834 1.97909 73.3833 3.79564 74.4345L3.79599 74.4347L44.4375 97.8994Z" fill="#3D4255" stroke="#2AC77B" stroke-width="0.795031"/>
<path d="M25.8563 81.7047C24.9261 82.2417 24.9261 83.1124 25.8563 83.6494C26.7866 84.1864 28.2948 84.1863 29.225 83.6493C30.1552 83.1122 30.1551 82.2415 29.2249 81.7046C28.2946 81.1676 26.7865 81.1676 25.8563 81.7047Z" fill="#3D4255" stroke="#2AC77B" stroke-width="0.795031"/>
<path d="M132.508 24.0504C133.514 24.0504 134.33 23.5792 134.33 22.9978C134.33 22.4165 133.514 21.9452 132.508 21.9452C131.501 21.9452 130.686 22.4165 130.686 22.9978C130.686 23.5792 131.501 24.0504 132.508 24.0504Z" fill="#3D4255"/>
<mask id="path-15-outside-2_3109_8089" maskUnits="userSpaceOnUse" x="10.5996" y="9.19275" width="145" height="85" fill="black">
<rect fill="white" x="10.5996" y="9.19275" width="145" height="85"/>
<path fill-rule="evenodd" clip-rule="evenodd" d="M144.991 28.9537L152.853 33.4969C155.261 34.8885 155.261 37.1412 152.853 38.5328L60.6422 91.9486C58.2339 93.3402 54.3265 93.3402 51.9142 91.9486L13.3938 69.708C11.0015 68.3165 11.0015 66.0598 13.3938 64.6682L105.612 11.2364C108.025 9.84487 111.948 9.84487 114.34 11.2364L121.119 15.1535C120.882 15.2629 120.666 15.387 120.473 15.5238C120.031 15.8379 119.73 16.2099 119.595 16.6071C119.46 17.0043 119.496 17.4145 119.701 17.8017C119.905 18.1889 120.271 18.5412 120.766 18.8277L138.64 29.1477C139.136 29.434 139.746 29.6456 140.417 29.7637C141.088 29.8818 141.799 29.9028 142.487 29.825C143.175 29.7471 143.82 29.5727 144.364 29.3171C144.595 29.2085 144.805 29.0866 144.991 28.9537Z"/>
</mask>
<path fill-rule="evenodd" clip-rule="evenodd" d="M144.991 28.9537L152.853 33.4969C155.261 34.8885 155.261 37.1412 152.853 38.5328L60.6422 91.9486C58.2339 93.3402 54.3265 93.3402 51.9142 91.9486L13.3938 69.708C11.0015 68.3165 11.0015 66.0598 13.3938 64.6682L105.612 11.2364C108.025 9.84487 111.948 9.84487 114.34 11.2364L121.119 15.1535C120.882 15.2629 120.666 15.387 120.473 15.5238C120.031 15.8379 119.73 16.2099 119.595 16.6071C119.46 17.0043 119.496 17.4145 119.701 17.8017C119.905 18.1889 120.271 18.5412 120.766 18.8277L138.64 29.1477C139.136 29.434 139.746 29.6456 140.417 29.7637C141.088 29.8818 141.799 29.9028 142.487 29.825C143.175 29.7471 143.82 29.5727 144.364 29.3171C144.595 29.2085 144.805 29.0866 144.991 28.9537Z" fill="#3D4255"/>
<path d="M152.853 33.4969L152.455 34.1853L152.455 34.1853L152.853 33.4969ZM144.991 28.9537L145.389 28.2653L144.945 28.0091L144.529 28.3069L144.991 28.9537ZM152.853 38.5328L152.455 37.8444L152.454 37.8448L152.853 38.5328ZM60.6422 91.9486L61.0399 92.637L61.0407 92.6366L60.6422 91.9486ZM51.9142 91.9486L51.5167 92.6372L51.5169 92.6373L51.9142 91.9486ZM13.3938 69.708L12.9941 70.3953L12.9963 70.3966L13.3938 69.708ZM13.3938 64.6682L12.9953 63.9803L12.9941 63.981L13.3938 64.6682ZM105.612 11.2364L105.215 10.5477L105.214 10.5485L105.612 11.2364ZM114.34 11.2364L113.941 11.9236L113.943 11.9248L114.34 11.2364ZM121.119 15.1535L121.453 15.875L122.843 15.2317L121.516 14.4652L121.119 15.1535ZM120.473 15.5238L120.013 14.8757L120.013 14.8758L120.473 15.5238ZM119.595 16.6071L118.842 16.3518V16.3518L119.595 16.6071ZM119.701 17.8017L118.997 18.1725V18.1725L119.701 17.8017ZM120.766 18.8277L120.368 19.5159L120.368 19.5162L120.766 18.8277ZM138.64 29.1477L139.038 28.4592L139.038 28.4592L138.64 29.1477ZM140.417 29.7637L140.555 28.9807V28.9807L140.417 29.7637ZM142.487 29.825L142.398 29.035L142.487 29.825ZM144.364 29.3171L144.026 28.5976V28.5976L144.364 29.3171ZM153.251 32.8086L145.389 28.2653L144.593 29.642L152.455 34.1853L153.251 32.8086ZM153.25 39.2212C154.599 38.4419 155.454 37.3101 155.454 36.0149C155.454 34.7196 154.599 33.5879 153.25 32.8086L152.455 34.1853C153.515 34.7976 153.864 35.488 153.864 36.0149C153.864 36.5417 153.515 37.2322 152.455 37.8444L153.25 39.2212ZM61.0407 92.6366L153.251 39.2207L152.454 37.8448L60.2437 91.2607L61.0407 92.6366ZM51.5169 92.6373C52.8722 93.4191 54.5976 93.7873 56.2797 93.7873C57.9617 93.7873 59.6864 93.4191 61.0399 92.637L60.2444 91.2603C59.1897 91.8697 57.7566 92.1973 56.2797 92.1973C54.8029 92.1973 53.3684 91.8697 52.3115 91.26L51.5169 92.6373ZM12.9963 70.3966L51.5167 92.6372L52.3117 91.2601L13.7914 69.0195L12.9963 70.3966ZM12.9941 63.981C11.6517 64.7618 10.8046 65.895 10.8046 67.1881C10.8046 68.4813 11.6517 69.6145 12.9941 70.3953L13.7936 69.0208C12.7436 68.4101 12.3946 67.7191 12.3946 67.1881C12.3946 66.6572 12.7436 65.9662 13.7936 65.3555L12.9941 63.981ZM105.214 10.5485L12.9953 63.9803L13.7924 65.3561L106.011 11.9243L105.214 10.5485ZM114.74 10.5492C113.393 9.76564 111.667 9.39772 109.984 9.39772C108.3 9.39772 106.571 9.76575 105.215 10.5477L106.01 11.9251C107.066 11.3155 108.505 10.9878 109.984 10.9878C111.463 10.9878 112.895 11.3156 113.941 11.9236L114.74 10.5492ZM121.516 14.4652L114.738 10.548L113.943 11.9248L120.721 15.8419L121.516 14.4652ZM120.785 14.432C120.509 14.5596 120.249 14.7076 120.013 14.8757L120.934 16.1718C121.082 16.0664 121.255 15.9662 121.453 15.875L120.785 14.432ZM120.013 14.8758C119.474 15.2584 119.044 15.7554 118.842 16.3518L120.348 16.8625C120.415 16.6644 120.588 16.4174 120.934 16.1718L120.013 14.8758ZM118.842 16.3518C118.634 16.9656 118.696 17.6017 118.997 18.1725L120.404 17.4309C120.297 17.2273 120.287 17.043 120.348 16.8624L118.842 16.3518ZM118.997 18.1725C119.29 18.727 119.782 19.177 120.368 19.5159L121.164 18.1396C120.759 17.9054 120.52 17.6508 120.404 17.4309L118.997 18.1725ZM120.368 19.5162L138.243 29.8362L139.038 28.4592L121.163 18.1392L120.368 19.5162ZM138.243 29.8361C138.833 30.1768 139.534 30.4154 140.279 30.5467L140.555 28.9807C139.959 28.8757 139.44 28.6912 139.038 28.4592L138.243 29.8361ZM140.279 30.5467C141.026 30.6782 141.814 30.7012 142.576 30.615L142.398 29.035C141.784 29.1044 141.15 29.0854 140.555 28.9807L140.279 30.5467ZM142.576 30.615C143.338 30.5288 144.068 30.3343 144.702 30.0367L144.026 28.5976C143.571 28.8111 143.013 28.9654 142.398 29.035L142.576 30.615ZM144.702 30.0367C144.972 29.9097 145.224 29.7641 145.453 29.6005L144.529 28.3069C144.386 28.4091 144.218 28.5073 144.026 28.5976L144.702 30.0367Z" fill="#2AC77B" mask="url(#path-15-outside-2_3109_8089)"/>
<mask id="path-17-outside-3_3109_8089" maskUnits="userSpaceOnUse" x="126.65" y="15.113" width="11.9282" height="12.6603" fill="black">
<rect fill="white" x="126.65" y="15.113" width="11.9282" height="12.6603"/>
<path fill-rule="evenodd" clip-rule="evenodd" d="M130.165 19.1861C130.618 19.4478 130.618 19.8721 130.165 20.1338C129.711 20.3954 128.976 20.3954 128.523 20.1338C128.07 19.8721 128.07 19.4478 128.523 19.1861C128.976 18.9244 129.711 18.9244 130.165 19.1861ZM131.101 21.7538C130.648 21.4921 130.648 21.0679 131.101 20.8062C131.554 20.5445 132.289 20.5445 132.743 20.8062L136.494 22.9721C136.948 23.2338 136.948 23.6581 136.494 23.9197C136.041 24.1814 135.306 24.1814 134.853 23.9197L131.101 21.7538Z"/>
</mask>
<path fill-rule="evenodd" clip-rule="evenodd" d="M130.165 19.1861C130.618 19.4478 130.618 19.8721 130.165 20.1338C129.711 20.3954 128.976 20.3954 128.523 20.1338C128.07 19.8721 128.07 19.4478 128.523 19.1861C128.976 18.9244 129.711 18.9244 130.165 19.1861ZM131.101 21.7538C130.648 21.4921 130.648 21.0679 131.101 20.8062C131.554 20.5445 132.289 20.5445 132.743 20.8062L136.494 22.9721C136.948 23.2338 136.948 23.6581 136.494 23.9197C136.041 24.1814 135.306 24.1814 134.853 23.9197L131.101 21.7538Z" fill="#3D4255"/>
<path d="M130.165 20.1338L130.47 20.6633L130.47 20.6633L130.165 20.1338ZM130.165 19.1861L130.47 18.6566L130.47 18.6566L130.165 19.1861ZM128.523 19.1861L128.217 18.6566L128.523 19.1861ZM131.101 20.8062L130.795 20.2766L130.795 20.2766L131.101 20.8062ZM131.101 21.7538L131.407 21.2242L131.101 21.7538ZM132.743 20.8062L133.048 20.2766L132.743 20.8062ZM136.494 22.9721L136.189 23.5017L136.189 23.5017L136.494 22.9721ZM136.494 23.9197L136.189 23.3902L136.189 23.3902L136.494 23.9197ZM134.853 23.9197L134.547 24.4493L134.547 24.4493L134.853 23.9197ZM129.859 19.6042C129.912 19.5734 129.924 19.5539 129.919 19.5606C129.912 19.5704 129.893 19.6054 129.893 19.6599C129.893 19.7144 129.912 19.7495 129.919 19.7592C129.924 19.766 129.912 19.7465 129.859 19.7156L130.47 18.6566C130.808 18.8517 131.116 19.193 131.116 19.6599C131.116 20.1269 130.808 20.4681 130.47 20.6633L129.859 19.6042ZM128.829 19.6042C128.941 19.6688 129.126 19.7186 129.344 19.7186C129.562 19.7186 129.747 19.6688 129.859 19.6042L130.47 20.6633C130.129 20.8604 129.72 20.9415 129.344 20.9415C128.968 20.9415 128.559 20.8604 128.217 20.6633L128.829 19.6042ZM128.829 19.7156C128.775 19.7465 128.764 19.766 128.768 19.7592C128.775 19.7495 128.795 19.7144 128.795 19.6599C128.795 19.6054 128.775 19.5704 128.768 19.5606C128.764 19.5539 128.775 19.5734 128.829 19.6042L128.217 20.6633C127.879 20.4681 127.572 20.1269 127.572 19.6599C127.572 19.193 127.879 18.8517 128.217 18.6566L128.829 19.7156ZM129.859 19.7156C129.747 19.6511 129.562 19.6013 129.344 19.6013C129.126 19.6013 128.941 19.6511 128.829 19.7156L128.217 18.6566C128.559 18.4594 128.968 18.3784 129.344 18.3784C129.72 18.3784 130.129 18.4594 130.47 18.6566L129.859 19.7156ZM131.407 21.3357C131.353 21.3665 131.342 21.3861 131.347 21.3793C131.353 21.3695 131.373 21.3345 131.373 21.28C131.373 21.2255 131.353 21.1904 131.347 21.1807C131.342 21.1739 131.353 21.1934 131.407 21.2242L130.795 22.2833C130.457 22.0882 130.15 21.7469 130.15 21.28C130.15 20.813 130.457 20.4718 130.795 20.2766L131.407 21.3357ZM132.437 21.3357C132.325 21.2712 132.14 21.2214 131.922 21.2214C131.704 21.2214 131.519 21.2712 131.407 21.3357L130.795 20.2766C131.137 20.0795 131.546 19.9985 131.922 19.9985C132.298 19.9985 132.707 20.0795 133.048 20.2766L132.437 21.3357ZM136.189 23.5017L132.437 21.3357L133.048 20.2766L136.8 22.4426L136.189 23.5017ZM136.189 23.3902C136.242 23.3594 136.254 23.3398 136.249 23.3466C136.242 23.3564 136.223 23.3914 136.223 23.4459C136.223 23.5005 136.242 23.5355 136.249 23.5452C136.254 23.552 136.242 23.5325 136.189 23.5017L136.8 22.4426C137.138 22.6377 137.446 22.979 137.446 23.4459C137.446 23.9129 137.138 24.2541 136.8 24.4493L136.189 23.3902ZM135.159 23.3902C135.271 23.4547 135.456 23.5045 135.674 23.5045C135.892 23.5045 136.077 23.4547 136.189 23.3902L136.8 24.4493C136.459 24.6464 136.05 24.7274 135.674 24.7274C135.298 24.7274 134.889 24.6464 134.547 24.4493L135.159 23.3902ZM131.407 21.2242L135.159 23.3902L134.547 24.4493L130.795 22.2833L131.407 21.2242Z" fill="#2AC77B" mask="url(#path-17-outside-3_3109_8089)"/>
<path d="M127.331 75.1969C129.011 76.1661 130.376 75.3876 130.381 73.458L130.437 51.9305C130.442 50.0008 129.085 47.6509 127.406 46.6817L108.669 35.8693C106.989 34.9001 105.624 35.6791 105.619 37.6087L105.563 59.1362C105.558 61.0659 106.915 63.4152 108.594 64.3844L127.331 75.1969Z" fill="#3D4255"/>
<path d="M127.331 75.1969L127.53 74.8526L127.331 75.1969ZM130.381 73.458L129.983 73.457L129.983 73.457L130.381 73.458ZM130.437 51.9305L130.04 51.9294L130.437 51.9305ZM127.406 46.6817L127.605 46.3374L127.406 46.6817ZM108.669 35.8693L108.47 36.2136L108.47 36.2136L108.669 35.8693ZM105.619 37.6087L106.017 37.6097L106.017 37.6097L105.619 37.6087ZM105.563 59.1362L105.165 59.1352L105.165 59.1352L105.563 59.1362ZM108.594 64.3844L108.395 64.7287L108.395 64.7287L108.594 64.3844ZM127.53 74.8526C128.297 75.2956 128.901 75.2893 129.287 75.0692C129.672 74.8496 129.981 74.3371 129.983 73.457L130.778 73.4591C130.776 74.5086 130.399 75.3501 129.681 75.7598C128.963 76.169 128.044 76.0674 127.132 75.5412L127.53 74.8526ZM129.983 73.457L130.04 51.9294L130.835 51.9315L130.778 73.4591L129.983 73.457ZM130.04 51.9294C130.042 51.0514 129.732 50.05 129.209 49.1447C128.686 48.2396 127.972 47.4676 127.207 47.026L127.605 46.3374C128.519 46.865 129.323 47.7527 129.898 48.7471C130.472 49.7415 130.838 50.8799 130.835 51.9315L130.04 51.9294ZM127.207 47.026L108.47 36.2136L108.868 35.525L127.605 46.3374L127.207 47.026ZM108.47 36.2136C107.703 35.7707 107.099 35.777 106.713 35.9972C106.328 36.2169 106.019 36.7296 106.017 37.6097L105.222 37.6077C105.224 36.5581 105.6 35.7166 106.319 35.3067C107.037 34.8973 107.956 34.9988 108.868 35.525L108.47 36.2136ZM106.017 37.6097L105.96 59.1373L105.165 59.1352L105.222 37.6077L106.017 37.6097ZM105.96 59.1373C105.958 60.0153 106.268 61.0165 106.791 61.9217C107.314 62.8267 108.028 63.5985 108.793 64.0401L108.395 64.7287C107.481 64.2011 106.677 63.3137 106.102 62.3193C105.528 61.3251 105.162 60.1868 105.165 59.1352L105.96 59.1373ZM108.793 64.0401L127.53 74.8526L127.132 75.5412L108.395 64.7287L108.793 64.0401Z" fill="#2AC77B"/>
<path d="M129.495 75.4004L134.089 72.726C134.635 72.4088 134.973 71.7343 134.975 70.7761L135.032 49.2485C135.036 47.3189 133.68 44.9687 132 44L113.263 33.1875C112.418 32.6998 111.653 32.6546 111.1 32.9759L106.509 35.6484C107.062 35.3295 127.406 46.6737 127.406 46.6737C129.086 47.6435 130.443 49.9933 130.438 51.9232C130.438 51.9232 130.04 75.0836 129.495 75.4004Z" fill="#3D4255" stroke="#2AC77B" stroke-width="0.795031"/>
<path d="M127.333 75.1951C129.013 76.1643 130.378 75.3859 130.383 73.4563L130.439 51.9287C130.444 49.9991 129.087 47.6492 127.408 46.68L108.671 35.8676C106.991 34.8984 105.626 35.6774 105.621 37.607L105.565 59.1345C105.56 61.0641 106.917 63.4135 108.596 64.3827L127.333 75.1951Z" fill="#3D4255" stroke="#2AC77B" stroke-width="0.795031"/>
<path d="M111.074 50L111 53.6575L118.285 57.7994L118.22 61L124 59.1994L118.423 50.9418L118.359 54.1418L111.074 50Z" fill="#3D4255" stroke="#2AC77B" stroke-width="0.795031" stroke-linejoin="round"/>
<path d="M73.2014 43.2357C73.2017 50.208 70.9409 55.2027 67.2456 57.7272C63.193 60.4957 58.589 62.643 58.589 62.643C46.328 55.3331 28.5494 20.4014 28.5488 5.78266C28.5488 5.78266 36.5564 1.0053 38.9337 0.583847C42.4074 -0.0319656 46.5508 0.877882 50.9998 3.53036C63.2609 10.8402 73.2009 28.6169 73.2014 43.2357Z" fill="#3D4255" stroke="#2AC77B" stroke-width="0.795031"/>
<path d="M66.201 47.2357C66.2016 61.8545 56.2625 67.7795 44.0014 60.4696C31.7403 53.1598 21.8003 35.3831 21.7998 20.7643C21.7993 6.14553 31.7384 0.220489 43.9995 7.53036C56.2605 14.8402 66.2005 32.6169 66.201 47.2357Z" fill="#3D4255" stroke="#2AC77B" stroke-width="0.795031"/>
<path d="M41.4854 20.66L41.4859 34.1112L50.2225 39.1558" stroke="#2AC77B" stroke-width="0.795031" stroke-linecap="round"/>
</svg>
