<svg width="174" height="127" viewBox="0 0 174 127" fill="none" xmlns="http://www.w3.org/2000/svg">
<mask id="path-1-outside-1_7169_2202" maskUnits="userSpaceOnUse" x="13.667" y="33.3064" width="160" height="93" fill="black">
<rect fill="white" x="13.667" y="33.3064" width="160" height="93"/>
<path fill-rule="evenodd" clip-rule="evenodd" d="M57.6378 124.109L16.9962 100.645C15.3644 99.7004 14.6031 98.425 14.6762 97.1005L14.667 97.0899V92.2174L17.0563 91.4337L18.1535 92.7785L116.138 36.2035C120.125 33.9109 126.106 33.6597 129.571 35.6493L169.208 58.5342L169.905 55.492L172.539 57.5546V62.5792L172.534 62.595C172.481 64.085 171.369 65.6434 169.248 66.8691L71.0707 123.551C67.0954 125.848 61.0827 126.095 57.6378 124.109Z"/>
</mask>
<path fill-rule="evenodd" clip-rule="evenodd" d="M57.6378 124.109L16.9962 100.645C15.3644 99.7004 14.6031 98.425 14.6762 97.1005L14.667 97.0899V92.2174L17.0563 91.4337L18.1535 92.7785L116.138 36.2035C120.125 33.9109 126.106 33.6597 129.571 35.6493L169.208 58.5342L169.905 55.492L172.539 57.5546V62.5792L172.534 62.595C172.481 64.085 171.369 65.6434 169.248 66.8691L71.0707 123.551C67.0954 125.848 61.0827 126.095 57.6378 124.109Z" fill="#3D4255"/>
<path d="M16.9962 100.645L16.598 101.333L16.5987 101.333L16.9962 100.645ZM57.6378 124.109L57.2403 124.798L57.2408 124.798L57.6378 124.109ZM14.6762 97.1005L15.47 97.1443L15.4879 96.8206L15.2743 96.5767L14.6762 97.1005ZM14.667 97.0899H13.872V97.3889L14.0689 97.6137L14.667 97.0899ZM14.667 92.2174L14.4192 91.4619L13.872 91.6414V92.2174H14.667ZM17.0563 91.4337L17.6723 90.9311L17.3273 90.5081L16.8085 90.6782L17.0563 91.4337ZM18.1535 92.7785L17.5375 93.2811L17.9651 93.8053L18.551 93.467L18.1535 92.7785ZM116.138 36.2035L115.742 35.5143L115.74 35.515L116.138 36.2035ZM129.571 35.6493L129.968 34.9608L129.967 34.9599L129.571 35.6493ZM169.208 58.5342L168.811 59.2228L169.743 59.761L169.983 58.7117L169.208 58.5342ZM169.905 55.492L170.395 54.866L169.409 54.0943L169.13 55.3146L169.905 55.492ZM172.539 57.5546H173.334V57.1673L173.029 56.9286L172.539 57.5546ZM172.539 62.5792L173.291 62.838L173.334 62.7122V62.5792H172.539ZM172.534 62.595L171.782 62.3363L171.743 62.4484L171.739 62.567L172.534 62.595ZM169.248 66.8691L169.645 67.5576L169.645 67.5575L169.248 66.8691ZM71.0707 123.551L70.6732 122.863L70.673 122.863L71.0707 123.551ZM16.5987 101.333L57.2403 124.798L58.0353 123.421L17.3938 99.9562L16.5987 101.333ZM13.8824 97.0567C13.7881 98.7658 14.7906 100.287 16.598 101.333L17.3945 99.9566C15.9383 99.1139 15.4182 98.0843 15.47 97.1443L13.8824 97.0567ZM14.0689 97.6137L14.0781 97.6243L15.2743 96.5767L15.2651 96.5662L14.0689 97.6137ZM13.872 92.2174V97.0899H15.462V92.2174H13.872ZM16.8085 90.6782L14.4192 91.4619L14.9148 92.9728L17.3041 92.1891L16.8085 90.6782ZM18.7695 92.276L17.6723 90.9311L16.4403 91.9363L17.5375 93.2811L18.7695 92.276ZM115.74 35.515L17.756 92.09L18.551 93.467L116.536 36.892L115.74 35.515ZM129.967 34.9599C128.065 33.868 125.542 33.4215 123.017 33.5262C120.485 33.6313 117.864 34.2938 115.742 35.5143L116.534 36.8928C118.399 35.8206 120.762 35.2112 123.083 35.1149C125.412 35.0183 127.612 35.441 129.175 36.3388L129.967 34.9599ZM169.606 57.8457L129.968 34.9608L129.173 36.3378L168.811 59.2228L169.606 57.8457ZM169.13 55.3146L168.433 58.3568L169.983 58.7117L170.68 55.6694L169.13 55.3146ZM173.029 56.9286L170.395 54.866L169.415 56.118L172.049 58.1806L173.029 56.9286ZM173.334 62.5792V57.5546H171.744V62.5792H173.334ZM173.285 62.8538L173.291 62.838L171.787 62.3205L171.782 62.3363L173.285 62.8538ZM169.645 67.5575C171.884 66.2643 173.262 64.5017 173.328 62.6231L171.739 62.567C171.7 63.6683 170.855 65.0225 168.85 66.1807L169.645 67.5575ZM71.4682 124.24L169.645 67.5576L168.85 66.1806L70.6732 122.863L71.4682 124.24ZM57.2408 124.798C59.1333 125.889 61.6606 126.335 64.1883 126.23C66.7235 126.125 69.3506 125.463 71.4684 124.24L70.673 122.863C68.8156 123.936 66.4486 124.545 64.1225 124.642C61.7888 124.738 59.5872 124.315 58.0348 123.421L57.2408 124.798Z" fill="#2AC77B" mask="url(#path-1-outside-1_7169_2202)"/>
<path d="M57.6363 119.129L16.9947 95.6641C13.5498 93.6705 13.9844 90.2056 17.9597 87.909L116.137 31.227C120.124 28.9303 126.105 28.6831 129.569 30.6687L170.211 54.1334C173.652 56.127 173.221 59.5959 169.246 61.8885L71.0692 118.575C67.0939 120.867 61.0812 121.118 57.6363 119.129Z" fill="#3D4255"/>
<path d="M21.8995 100.939C22.1074 100.819 22.1072 100.43 21.8991 100.07C21.691 99.7092 21.3538 99.5142 21.1459 99.6343C20.938 99.7543 20.9382 100.144 21.1463 100.504C21.3544 100.865 21.6916 101.06 21.8995 100.939Z" fill="#3D4255"/>
<path d="M23.8565 102.07C24.0644 101.95 24.0642 101.561 23.8561 101.2C23.648 100.84 23.3108 100.645 23.1029 100.765C22.8951 100.885 22.8953 101.274 23.1033 101.635C23.3114 101.995 23.6487 102.19 23.8565 102.07Z" fill="#3D4255"/>
<path d="M25.8116 103.194C26.0195 103.074 26.0193 102.685 25.8112 102.324C25.6031 101.964 25.2659 101.769 25.058 101.889C24.8501 102.009 24.8503 102.398 25.0584 102.759C25.2665 103.119 25.6037 103.314 25.8116 103.194Z" fill="#3D4255"/>
<path d="M27.7686 104.33C27.9765 104.21 27.9763 103.82 27.7682 103.46C27.5601 103.099 27.2229 102.904 27.0151 103.024C26.8072 103.144 26.8074 103.534 27.0155 103.894C27.2236 104.255 27.5608 104.45 27.7686 104.33Z" fill="#3D4255"/>
<path d="M44.5694 114.024C44.7773 113.904 44.7771 113.514 44.569 113.154C44.3609 112.794 44.0237 112.599 43.8158 112.719C43.608 112.839 43.6082 113.228 43.8162 113.589C44.0243 113.949 44.3615 114.144 44.5694 114.024Z" fill="#3D4255"/>
<path d="M46.5225 115.157C46.7304 115.037 46.7302 114.647 46.5221 114.287C46.314 113.926 45.9768 113.732 45.769 113.852C45.5611 113.972 45.5613 114.361 45.7694 114.722C45.9775 115.082 46.3147 115.277 46.5225 115.157Z" fill="#3D4255"/>
<path d="M48.4757 116.283C48.6835 116.163 48.6833 115.774 48.4752 115.413C48.2672 115.053 47.9299 114.858 47.7221 114.978C47.5142 115.098 47.5144 115.488 47.7225 115.848C47.9306 116.208 48.2678 116.403 48.4757 116.283Z" fill="#3D4255"/>
<path d="M50.4366 117.415C50.6445 117.295 50.6443 116.906 50.4362 116.545C50.2281 116.185 49.8909 115.99 49.683 116.11C49.4751 116.23 49.4753 116.62 49.6834 116.98C49.8915 117.34 50.2287 117.535 50.4366 117.415Z" fill="#3D4255"/>
<path d="M57.4375 118.899L57.4378 118.9C59.2453 119.941 61.6911 120.382 64.1703 120.279C66.6533 120.176 69.2152 119.527 71.2679 118.341C71.268 118.341 71.268 118.341 71.268 118.341L169.445 61.6591L169.246 61.3149L169.445 61.6591C171.489 60.4781 172.708 58.9476 172.904 57.3728C173.104 55.767 172.225 54.2671 170.41 53.2158L170.41 53.2155L129.768 29.7509L129.767 29.7504C127.95 28.7071 125.508 28.2665 123.032 28.3697C120.553 28.4731 117.996 29.1234 115.938 30.3089L115.938 30.3091L17.7609 86.9911L17.7608 86.9912C15.7167 88.1721 14.4966 89.7025 14.3002 91.2774C14.0999 92.8834 14.9791 94.3833 16.7956 95.4345L16.796 95.4347L57.4375 118.899Z" fill="#3D4255" stroke="#2AC77B" stroke-width="0.795031"/>
<path d="M38.8563 102.705C37.9261 103.242 37.9261 104.112 38.8563 104.649C39.7866 105.186 41.2948 105.186 42.225 104.649C43.1552 104.112 43.1551 103.242 42.2249 102.705C41.2946 102.168 39.7865 102.168 38.8563 102.705Z" fill="#3D4255" stroke="#2AC77B" stroke-width="0.795031"/>
<path d="M145.508 45.0504C146.514 45.0504 147.33 44.5792 147.33 43.9978C147.33 43.4165 146.514 42.9452 145.508 42.9452C144.501 42.9452 143.686 43.4165 143.686 43.9978C143.686 44.5792 144.501 45.0504 145.508 45.0504Z" fill="#3D4255"/>
<mask id="path-15-outside-2_7169_2202" maskUnits="userSpaceOnUse" x="23.5996" y="30.1927" width="145" height="85" fill="black">
<rect fill="white" x="23.5996" y="30.1927" width="145" height="85"/>
<path fill-rule="evenodd" clip-rule="evenodd" d="M157.991 49.9537L165.853 54.4969C168.261 55.8885 168.261 58.1412 165.853 59.5328L73.6422 112.949C71.2339 114.34 67.3265 114.34 64.9142 112.949L26.3938 90.708C24.0015 89.3165 24.0015 87.0598 26.3938 85.6682L118.612 32.2364C121.025 30.8449 124.948 30.8449 127.34 32.2364L134.119 36.1535C133.882 36.2629 133.666 36.387 133.473 36.5238C133.031 36.8379 132.73 37.2099 132.595 37.6071C132.46 38.0043 132.496 38.4145 132.701 38.8017C132.905 39.1889 133.271 39.5412 133.766 39.8277L151.64 50.1477C152.136 50.434 152.746 50.6456 153.417 50.7637C154.088 50.8818 154.799 50.9028 155.487 50.825C156.175 50.7471 156.82 50.5727 157.364 50.3171C157.595 50.2085 157.805 50.0866 157.991 49.9537Z"/>
</mask>
<path fill-rule="evenodd" clip-rule="evenodd" d="M157.991 49.9537L165.853 54.4969C168.261 55.8885 168.261 58.1412 165.853 59.5328L73.6422 112.949C71.2339 114.34 67.3265 114.34 64.9142 112.949L26.3938 90.708C24.0015 89.3165 24.0015 87.0598 26.3938 85.6682L118.612 32.2364C121.025 30.8449 124.948 30.8449 127.34 32.2364L134.119 36.1535C133.882 36.2629 133.666 36.387 133.473 36.5238C133.031 36.8379 132.73 37.2099 132.595 37.6071C132.46 38.0043 132.496 38.4145 132.701 38.8017C132.905 39.1889 133.271 39.5412 133.766 39.8277L151.64 50.1477C152.136 50.434 152.746 50.6456 153.417 50.7637C154.088 50.8818 154.799 50.9028 155.487 50.825C156.175 50.7471 156.82 50.5727 157.364 50.3171C157.595 50.2085 157.805 50.0866 157.991 49.9537Z" fill="#3D4255"/>
<path d="M165.853 54.4969L165.455 55.1853L165.455 55.1853L165.853 54.4969ZM157.991 49.9537L158.389 49.2653L157.945 49.0091L157.529 49.3069L157.991 49.9537ZM165.853 59.5328L165.455 58.8444L165.454 58.8448L165.853 59.5328ZM73.6422 112.949L74.0399 113.637L74.0407 113.637L73.6422 112.949ZM64.9142 112.949L64.5167 113.637L64.5169 113.637L64.9142 112.949ZM26.3938 90.708L25.9941 91.3953L25.9963 91.3966L26.3938 90.708ZM26.3938 85.6682L25.9953 84.9803L25.9941 84.981L26.3938 85.6682ZM118.612 32.2364L118.215 31.5477L118.214 31.5485L118.612 32.2364ZM127.34 32.2364L126.941 32.9236L126.943 32.9248L127.34 32.2364ZM134.119 36.1535L134.453 36.875L135.843 36.2317L134.516 35.4652L134.119 36.1535ZM133.473 36.5238L133.013 35.8757L133.013 35.8758L133.473 36.5238ZM132.595 37.6071L131.842 37.3518V37.3518L132.595 37.6071ZM132.701 38.8017L131.997 39.1725V39.1725L132.701 38.8017ZM133.766 39.8277L133.368 40.5159L133.368 40.5162L133.766 39.8277ZM151.64 50.1477L152.038 49.4592L152.038 49.4592L151.64 50.1477ZM153.417 50.7637L153.555 49.9807V49.9807L153.417 50.7637ZM155.487 50.825L155.398 50.035L155.487 50.825ZM157.364 50.3171L157.026 49.5976V49.5976L157.364 50.3171ZM166.251 53.8086L158.389 49.2653L157.593 50.642L165.455 55.1853L166.251 53.8086ZM166.25 60.2212C167.599 59.4419 168.454 58.3101 168.454 57.0149C168.454 55.7196 167.599 54.5879 166.25 53.8086L165.455 55.1853C166.515 55.7976 166.864 56.488 166.864 57.0149C166.864 57.5417 166.515 58.2322 165.455 58.8444L166.25 60.2212ZM74.0407 113.637L166.251 60.2207L165.454 58.8448L73.2437 112.261L74.0407 113.637ZM64.5169 113.637C65.8722 114.419 67.5976 114.787 69.2797 114.787C70.9617 114.787 72.6864 114.419 74.0399 113.637L73.2444 112.26C72.1897 112.87 70.7566 113.197 69.2797 113.197C67.8029 113.197 66.3684 112.87 65.3115 112.26L64.5169 113.637ZM25.9963 91.3966L64.5167 113.637L65.3117 112.26L26.7914 90.0195L25.9963 91.3966ZM25.9941 84.981C24.6517 85.7618 23.8046 86.895 23.8046 88.1881C23.8046 89.4813 24.6517 90.6145 25.9941 91.3953L26.7936 90.0208C25.7436 89.4101 25.3946 88.7191 25.3946 88.1881C25.3946 87.6572 25.7436 86.9662 26.7936 86.3555L25.9941 84.981ZM118.214 31.5485L25.9953 84.9803L26.7924 86.3561L119.011 32.9243L118.214 31.5485ZM127.74 31.5492C126.393 30.7656 124.667 30.3977 122.984 30.3977C121.3 30.3977 119.571 30.7658 118.215 31.5477L119.01 32.9251C120.066 32.3155 121.505 31.9878 122.984 31.9878C124.463 31.9878 125.895 32.3156 126.941 32.9236L127.74 31.5492ZM134.516 35.4652L127.738 31.548L126.943 32.9248L133.721 36.8419L134.516 35.4652ZM133.785 35.432C133.509 35.5596 133.249 35.7076 133.013 35.8757L133.934 37.1718C134.082 37.0664 134.255 36.9662 134.453 36.875L133.785 35.432ZM133.013 35.8758C132.474 36.2584 132.044 36.7554 131.842 37.3518L133.348 37.8625C133.415 37.6644 133.588 37.4174 133.934 37.1718L133.013 35.8758ZM131.842 37.3518C131.634 37.9656 131.696 38.6017 131.997 39.1725L133.404 38.4309C133.297 38.2273 133.287 38.043 133.348 37.8624L131.842 37.3518ZM131.997 39.1725C132.29 39.727 132.782 40.177 133.368 40.5159L134.164 39.1396C133.759 38.9054 133.52 38.6508 133.404 38.4309L131.997 39.1725ZM133.368 40.5162L151.243 50.8362L152.038 49.4592L134.163 39.1392L133.368 40.5162ZM151.243 50.8361C151.833 51.1768 152.534 51.4154 153.279 51.5467L153.555 49.9807C152.959 49.8757 152.44 49.6912 152.038 49.4592L151.243 50.8361ZM153.279 51.5467C154.026 51.6782 154.814 51.7012 155.576 51.615L155.398 50.035C154.784 50.1044 154.15 50.0854 153.555 49.9807L153.279 51.5467ZM155.576 51.615C156.338 51.5288 157.068 51.3343 157.702 51.0367L157.026 49.5976C156.571 49.8111 156.013 49.9654 155.398 50.035L155.576 51.615ZM157.702 51.0367C157.972 50.9097 158.224 50.7641 158.453 50.6005L157.529 49.3069C157.386 49.4091 157.218 49.5073 157.026 49.5976L157.702 51.0367Z" fill="#2AC77B" mask="url(#path-15-outside-2_7169_2202)"/>
<mask id="path-17-outside-3_7169_2202" maskUnits="userSpaceOnUse" x="139.65" y="36.113" width="11.9282" height="12.6603" fill="black">
<rect fill="white" x="139.65" y="36.113" width="11.9282" height="12.6603"/>
<path fill-rule="evenodd" clip-rule="evenodd" d="M143.165 40.1861C143.618 40.4478 143.618 40.8721 143.165 41.1338C142.711 41.3954 141.976 41.3954 141.523 41.1338C141.07 40.8721 141.07 40.4478 141.523 40.1861C141.976 39.9244 142.711 39.9244 143.165 40.1861ZM144.101 42.7538C143.648 42.4921 143.648 42.0679 144.101 41.8062C144.554 41.5445 145.289 41.5445 145.743 41.8062L149.494 43.9721C149.948 44.2338 149.948 44.6581 149.494 44.9197C149.041 45.1814 148.306 45.1814 147.853 44.9197L144.101 42.7538Z"/>
</mask>
<path fill-rule="evenodd" clip-rule="evenodd" d="M143.165 40.1861C143.618 40.4478 143.618 40.8721 143.165 41.1338C142.711 41.3954 141.976 41.3954 141.523 41.1338C141.07 40.8721 141.07 40.4478 141.523 40.1861C141.976 39.9244 142.711 39.9244 143.165 40.1861ZM144.101 42.7538C143.648 42.4921 143.648 42.0679 144.101 41.8062C144.554 41.5445 145.289 41.5445 145.743 41.8062L149.494 43.9721C149.948 44.2338 149.948 44.6581 149.494 44.9197C149.041 45.1814 148.306 45.1814 147.853 44.9197L144.101 42.7538Z" fill="#3D4255"/>
<path d="M143.165 41.1338L143.47 41.6633L143.47 41.6633L143.165 41.1338ZM143.165 40.1861L143.47 39.6566L143.47 39.6566L143.165 40.1861ZM141.523 40.1861L141.217 39.6566L141.523 40.1861ZM144.101 41.8062L143.795 41.2766L143.795 41.2766L144.101 41.8062ZM144.101 42.7538L144.407 42.2242L144.101 42.7538ZM145.743 41.8062L146.048 41.2766L145.743 41.8062ZM149.494 43.9721L149.189 44.5017L149.189 44.5017L149.494 43.9721ZM149.494 44.9197L149.189 44.3902L149.189 44.3902L149.494 44.9197ZM147.853 44.9197L147.547 45.4493L147.547 45.4493L147.853 44.9197ZM142.859 40.6042C142.912 40.5734 142.924 40.5539 142.919 40.5606C142.912 40.5704 142.893 40.6054 142.893 40.6599C142.893 40.7144 142.912 40.7495 142.919 40.7592C142.924 40.766 142.912 40.7465 142.859 40.7156L143.47 39.6566C143.808 39.8517 144.116 40.193 144.116 40.6599C144.116 41.1269 143.808 41.4681 143.47 41.6633L142.859 40.6042ZM141.829 40.6042C141.941 40.6688 142.126 40.7186 142.344 40.7186C142.562 40.7186 142.747 40.6688 142.859 40.6042L143.47 41.6633C143.129 41.8604 142.72 41.9415 142.344 41.9415C141.968 41.9415 141.559 41.8604 141.217 41.6633L141.829 40.6042ZM141.829 40.7156C141.775 40.7465 141.764 40.766 141.768 40.7592C141.775 40.7495 141.795 40.7144 141.795 40.6599C141.795 40.6054 141.775 40.5704 141.768 40.5606C141.764 40.5539 141.775 40.5734 141.829 40.6042L141.217 41.6633C140.879 41.4681 140.572 41.1269 140.572 40.6599C140.572 40.193 140.879 39.8517 141.217 39.6566L141.829 40.7156ZM142.859 40.7156C142.747 40.6511 142.562 40.6013 142.344 40.6013C142.126 40.6013 141.941 40.6511 141.829 40.7156L141.217 39.6566C141.559 39.4594 141.968 39.3784 142.344 39.3784C142.72 39.3784 143.129 39.4594 143.47 39.6566L142.859 40.7156ZM144.407 42.3357C144.353 42.3665 144.342 42.3861 144.347 42.3793C144.353 42.3695 144.373 42.3345 144.373 42.28C144.373 42.2255 144.353 42.1904 144.347 42.1807C144.342 42.1739 144.353 42.1934 144.407 42.2242L143.795 43.2833C143.457 43.0882 143.15 42.7469 143.15 42.28C143.15 41.813 143.457 41.4718 143.795 41.2766L144.407 42.3357ZM145.437 42.3357C145.325 42.2712 145.14 42.2214 144.922 42.2214C144.704 42.2214 144.519 42.2712 144.407 42.3357L143.795 41.2766C144.137 41.0795 144.546 40.9985 144.922 40.9985C145.298 40.9985 145.707 41.0795 146.048 41.2766L145.437 42.3357ZM149.189 44.5017L145.437 42.3357L146.048 41.2766L149.8 43.4426L149.189 44.5017ZM149.189 44.3902C149.242 44.3594 149.254 44.3398 149.249 44.3466C149.242 44.3564 149.223 44.3914 149.223 44.4459C149.223 44.5005 149.242 44.5355 149.249 44.5452C149.254 44.552 149.242 44.5325 149.189 44.5017L149.8 43.4426C150.138 43.6377 150.446 43.979 150.446 44.4459C150.446 44.9129 150.138 45.2541 149.8 45.4493L149.189 44.3902ZM148.159 44.3902C148.271 44.4547 148.456 44.5045 148.674 44.5045C148.892 44.5045 149.077 44.4547 149.189 44.3902L149.8 45.4493C149.459 45.6464 149.05 45.7274 148.674 45.7274C148.298 45.7274 147.889 45.6464 147.547 45.4493L148.159 44.3902ZM144.407 42.2242L148.159 44.3902L147.547 45.4493L143.795 43.2833L144.407 42.2242Z" fill="#2AC77B" mask="url(#path-17-outside-3_7169_2202)"/>
<path d="M140.331 96.1969C142.011 97.1661 143.376 96.3876 143.381 94.458L143.437 72.9305C143.442 71.0008 142.085 68.6509 140.406 67.6817L121.669 56.8693C119.989 55.9001 118.624 56.6791 118.619 58.6087L118.563 80.1362C118.558 82.0659 119.915 84.4152 121.594 85.3844L140.331 96.1969Z" fill="#3D4255"/>
<path d="M140.331 96.1969L140.53 95.8526L140.331 96.1969ZM143.381 94.458L142.983 94.457L142.983 94.457L143.381 94.458ZM143.437 72.9305L143.04 72.9294L143.437 72.9305ZM140.406 67.6817L140.605 67.3374L140.406 67.6817ZM121.669 56.8693L121.47 57.2136L121.47 57.2136L121.669 56.8693ZM118.619 58.6087L119.017 58.6097L119.017 58.6097L118.619 58.6087ZM118.563 80.1362L118.165 80.1352L118.165 80.1352L118.563 80.1362ZM121.594 85.3844L121.395 85.7287L121.395 85.7287L121.594 85.3844ZM140.53 95.8526C141.297 96.2956 141.901 96.2893 142.287 96.0692C142.672 95.8496 142.981 95.3371 142.983 94.457L143.778 94.4591C143.776 95.5086 143.399 96.3501 142.681 96.7598C141.963 97.169 141.044 97.0674 140.132 96.5412L140.53 95.8526ZM142.983 94.457L143.04 72.9294L143.835 72.9315L143.778 94.4591L142.983 94.457ZM143.04 72.9294C143.042 72.0514 142.732 71.05 142.209 70.1447C141.686 69.2396 140.972 68.4676 140.207 68.026L140.605 67.3374C141.519 67.865 142.323 68.7527 142.898 69.7471C143.472 70.7415 143.838 71.8799 143.835 72.9315L143.04 72.9294ZM140.207 68.026L121.47 57.2136L121.868 56.525L140.605 67.3374L140.207 68.026ZM121.47 57.2136C120.703 56.7707 120.099 56.777 119.713 56.9972C119.328 57.2169 119.019 57.7296 119.017 58.6097L118.222 58.6077C118.224 57.5581 118.6 56.7166 119.319 56.3067C120.037 55.8973 120.956 55.9988 121.868 56.525L121.47 57.2136ZM119.017 58.6097L118.96 80.1373L118.165 80.1352L118.222 58.6077L119.017 58.6097ZM118.96 80.1373C118.958 81.0153 119.268 82.0165 119.791 82.9217C120.314 83.8267 121.028 84.5985 121.793 85.0401L121.395 85.7287C120.481 85.2011 119.677 84.3137 119.102 83.3193C118.528 82.3251 118.162 81.1868 118.165 80.1352L118.96 80.1373ZM121.793 85.0401L140.53 95.8526L140.132 96.5412L121.395 85.7287L121.793 85.0401Z" fill="#2AC77B"/>
<path d="M142.495 96.4004L147.089 93.726C147.635 93.4088 147.973 92.7343 147.975 91.7761L148.032 70.2485C148.036 68.3189 146.68 65.9687 145 65L126.263 54.1875C125.418 53.6998 124.653 53.6546 124.1 53.9759L119.509 56.6484C120.062 56.3295 140.406 67.6737 140.406 67.6737C142.086 68.6435 143.443 70.9933 143.438 72.9232C143.438 72.9232 143.04 96.0836 142.495 96.4004Z" fill="#3D4255" stroke="#2AC77B" stroke-width="0.795031"/>
<path d="M140.333 96.1951C142.013 97.1643 143.378 96.3859 143.383 94.4563L143.439 72.9287C143.444 70.9991 142.087 68.6492 140.408 67.68L121.671 56.8676C119.991 55.8984 118.626 56.6774 118.621 58.607L118.565 80.1345C118.56 82.0641 119.917 84.4135 121.596 85.3827L140.333 96.1951Z" fill="#3D4255" stroke="#2AC77B" stroke-width="0.795031"/>
<path d="M131 76.5322C129.338 75.5726 127.991 73.239 127.991 71.32C127.991 69.4009 129.338 68.6231 131 69.5827C132.662 70.5423 134.009 72.8759 134.009 74.795C134.009 76.714 132.662 77.4918 131 76.5322Z" fill="#3D4255"/>
<path d="M131.001 78.2697C134.016 80.0107 136.471 83.7635 136.472 86.6406C136.472 86.8352 136.339 86.9116 136.171 86.8143L125.831 80.8443C125.663 80.747 125.53 80.5177 125.53 80.3231C125.53 77.446 127.986 76.5288 131.001 78.2697Z" fill="#3D4255"/>
<path d="M131 76.5322C129.338 75.5726 127.991 73.239 127.991 71.32C127.991 69.4009 129.338 68.6231 131 69.5827C132.662 70.5423 134.009 72.8759 134.009 74.795C134.009 76.714 132.662 77.4918 131 76.5322Z" stroke="#2AC77B" stroke-width="0.795031"/>
<path d="M131.001 78.2697C134.016 80.0107 136.471 83.7635 136.472 86.6406C136.472 86.8352 136.339 86.9116 136.171 86.8143L125.831 80.8443C125.663 80.747 125.53 80.5177 125.53 80.3231C125.53 77.446 127.986 76.5288 131.001 78.2697Z" stroke="#2AC77B" stroke-width="0.795031"/>
<path d="M90.1775 77.5713L34.5305 67.4164L34.5 60.4999L40.5 60.3775L20.9951 49.1165L21 42.4999L41.0789 37.5207L63.6947 50.5777L72.5872 45.4443L90.1775 70.6928V77.5713Z" fill="#3D4255" stroke="#2AC77B" stroke-width="0.795031" stroke-linejoin="round"/>
<path d="M90.1766 70.5712L34.5295 60.4164L43.6095 55.1732L20.9941 42.1164L41.0779 30.5206L63.6937 43.5777L72.5862 38.4442L90.1766 70.5712Z" fill="#3D4255" stroke="#2AC77B" stroke-width="0.795031" stroke-linejoin="round"/>
</svg>
