<svg width="161" height="116" viewBox="0 0 161 116" fill="none" xmlns="http://www.w3.org/2000/svg">
<mask id="path-1-outside-1_3109_8039" maskUnits="userSpaceOnUse" x="0.666992" y="22.3064" width="160" height="93" fill="black">
<rect fill="white" x="0.666992" y="22.3064" width="160" height="93"/>
<path fill-rule="evenodd" clip-rule="evenodd" d="M44.6378 113.109L3.99625 89.6447C2.36445 88.7004 1.60311 87.425 1.67622 86.1005L1.66699 86.0899V81.2174L4.05632 80.4337L5.15349 81.7785L103.138 25.2035C107.125 22.9109 113.106 22.6597 116.571 24.6493L156.208 47.5342L156.905 44.492L159.539 46.5546V51.5792L159.534 51.595C159.481 53.085 158.369 54.6434 156.248 55.8691L58.0707 112.551C54.0954 114.848 48.0827 115.095 44.6378 113.109Z"/>
</mask>
<path fill-rule="evenodd" clip-rule="evenodd" d="M44.6378 113.109L3.99625 89.6447C2.36445 88.7004 1.60311 87.425 1.67622 86.1005L1.66699 86.0899V81.2174L4.05632 80.4337L5.15349 81.7785L103.138 25.2035C107.125 22.9109 113.106 22.6597 116.571 24.6493L156.208 47.5342L156.905 44.492L159.539 46.5546V51.5792L159.534 51.595C159.481 53.085 158.369 54.6434 156.248 55.8691L58.0707 112.551C54.0954 114.848 48.0827 115.095 44.6378 113.109Z" fill="#3D4255"/>
<path d="M3.99625 89.6447L3.59803 90.3328L3.59873 90.3332L3.99625 89.6447ZM44.6378 113.109L44.2403 113.798L44.2408 113.798L44.6378 113.109ZM1.67622 86.1005L2.47004 86.1443L2.48791 85.8206L2.27432 85.5767L1.67622 86.1005ZM1.66699 86.0899H0.871961V86.3889L1.06889 86.6137L1.66699 86.0899ZM1.66699 81.2174L1.41921 80.4619L0.871961 80.6414V81.2174H1.66699ZM4.05632 80.4337L4.67235 79.9311L4.32725 79.5081L3.80854 79.6782L4.05632 80.4337ZM5.15349 81.7785L4.53746 82.2811L4.96513 82.8053L5.55102 82.467L5.15349 81.7785ZM103.138 25.2035L102.742 24.5143L102.74 24.515L103.138 25.2035ZM116.571 24.6493L116.968 23.9608L116.967 23.9599L116.571 24.6493ZM156.208 47.5342L155.811 48.2228L156.743 48.761L156.983 47.7117L156.208 47.5342ZM156.905 44.492L157.395 43.866L156.409 43.0943L156.13 44.3146L156.905 44.492ZM159.539 46.5546H160.334V46.1673L160.029 45.9286L159.539 46.5546ZM159.539 51.5792L160.291 51.838L160.334 51.7122V51.5792H159.539ZM159.534 51.595L158.782 51.3363L158.743 51.4484L158.739 51.567L159.534 51.595ZM156.248 55.8691L156.645 56.5576L156.645 56.5575L156.248 55.8691ZM58.0707 112.551L57.6732 111.863L57.673 111.863L58.0707 112.551ZM3.59873 90.3332L44.2403 113.798L45.0353 112.421L4.39377 88.9562L3.59873 90.3332ZM0.882396 86.0567C0.788062 87.7658 1.79063 89.2869 3.59803 90.3328L4.39446 88.9566C2.93827 88.1139 2.41816 87.0843 2.47004 86.1443L0.882396 86.0567ZM1.06889 86.6137L1.07812 86.6243L2.27432 85.5767L2.2651 85.5662L1.06889 86.6137ZM0.871961 81.2174V86.0899H2.46202V81.2174H0.871961ZM3.80854 79.6782L1.41921 80.4619L1.91477 81.9728L4.30409 81.1891L3.80854 79.6782ZM5.76952 81.276L4.67235 79.9311L3.44029 80.9363L4.53746 82.2811L5.76952 81.276ZM102.74 24.515L4.75595 81.09L5.55102 82.467L103.536 25.892L102.74 24.515ZM116.967 23.9599C115.065 22.868 112.542 22.4215 110.017 22.5262C107.485 22.6313 104.864 23.2938 102.742 24.5143L103.534 25.8928C105.399 24.8206 107.762 24.2112 110.083 24.1149C112.412 24.0183 114.612 24.441 116.175 25.3388L116.967 23.9599ZM156.606 46.8457L116.968 23.9608L116.173 25.3378L155.811 48.2228L156.606 46.8457ZM156.13 44.3146L155.433 47.3568L156.983 47.7117L157.68 44.6694L156.13 44.3146ZM160.029 45.9286L157.395 43.866L156.415 45.118L159.049 47.1806L160.029 45.9286ZM160.334 51.5792V46.5546H158.744V51.5792H160.334ZM160.285 51.8538L160.291 51.838L158.787 51.3205L158.782 51.3363L160.285 51.8538ZM156.645 56.5575C158.884 55.2643 160.262 53.5017 160.328 51.6231L158.739 51.567C158.7 52.6683 157.855 54.0225 155.85 55.1807L156.645 56.5575ZM58.4682 113.24L156.645 56.5576L155.85 55.1806L57.6732 111.863L58.4682 113.24ZM44.2408 113.798C46.1333 114.889 48.6606 115.335 51.1883 115.23C53.7235 115.125 56.3506 114.463 58.4684 113.24L57.673 111.863C55.8156 112.936 53.4486 113.545 51.1225 113.642C48.7888 113.738 46.5872 113.315 45.0348 112.421L44.2408 113.798Z" fill="#2AC77B" mask="url(#path-1-outside-1_3109_8039)"/>
<path d="M44.6363 108.129L3.99475 84.6641C0.549808 82.6705 0.984412 79.2056 4.95965 76.909L103.137 20.227C107.124 17.9303 113.105 17.6831 116.569 19.6687L157.211 43.1334C160.652 45.127 160.221 48.5959 156.246 50.8885L58.0692 107.575C54.0939 109.867 48.0812 110.118 44.6363 108.129Z" fill="#3D4255"/>
<path d="M8.89949 89.9395C9.10736 89.8195 9.10718 89.43 8.89908 89.0696C8.69099 88.7092 8.35378 88.5142 8.14591 88.6343C7.93804 88.7543 7.93823 89.1438 8.14632 89.5042C8.35442 89.8646 8.69162 90.0595 8.89949 89.9395Z" fill="#3D4255"/>
<path d="M10.8565 91.0701C11.0644 90.9501 11.0642 90.5606 10.8561 90.2002C10.648 89.8398 10.3108 89.6449 10.1029 89.7649C9.89507 89.8849 9.89525 90.2744 10.1033 90.6348C10.3114 90.9952 10.6487 91.1901 10.8565 91.0701Z" fill="#3D4255"/>
<path d="M12.8116 92.1941C13.0195 92.0741 13.0193 91.6846 12.8112 91.3242C12.6031 90.9637 12.2659 90.7688 12.058 90.8888C11.8501 91.0089 11.8503 91.3983 12.0584 91.7588C12.2665 92.1192 12.6037 92.3141 12.8116 92.1941Z" fill="#3D4255"/>
<path d="M14.7686 93.3296C14.9765 93.2096 14.9763 92.8202 14.7682 92.4597C14.5601 92.0993 14.2229 91.9044 14.0151 92.0244C13.8072 92.1444 13.8074 92.5339 14.0155 92.8943C14.2236 93.2548 14.5608 93.4496 14.7686 93.3296Z" fill="#3D4255"/>
<path d="M31.5694 103.024C31.7773 102.904 31.7771 102.514 31.569 102.154C31.3609 101.794 31.0237 101.599 30.8158 101.719C30.608 101.839 30.6082 102.228 30.8162 102.589C31.0243 102.949 31.3615 103.144 31.5694 103.024Z" fill="#3D4255"/>
<path d="M33.5225 104.157C33.7304 104.037 33.7302 103.647 33.5221 103.287C33.314 102.926 32.9768 102.732 32.769 102.852C32.5611 102.972 32.5613 103.361 32.7694 103.722C32.9775 104.082 33.3147 104.277 33.5225 104.157Z" fill="#3D4255"/>
<path d="M35.4757 105.283C35.6835 105.163 35.6833 104.774 35.4752 104.413C35.2672 104.053 34.9299 103.858 34.7221 103.978C34.5142 104.098 34.5144 104.488 34.7225 104.848C34.9306 105.208 35.2678 105.403 35.4757 105.283Z" fill="#3D4255"/>
<path d="M37.4366 106.415C37.6445 106.295 37.6443 105.906 37.4362 105.545C37.2281 105.185 36.8909 104.99 36.683 105.11C36.4751 105.23 36.4753 105.62 36.6834 105.98C36.8915 106.34 37.2287 106.535 37.4366 106.415Z" fill="#3D4255"/>
<path d="M44.4375 107.899L44.4378 107.9C46.2453 108.941 48.6911 109.382 51.1703 109.279C53.6533 109.176 56.2152 108.527 58.2679 107.341C58.268 107.341 58.268 107.341 58.268 107.341L156.445 50.6591L156.246 50.3149L156.445 50.6591C158.489 49.4781 159.708 47.9476 159.904 46.3728C160.104 44.767 159.225 43.2671 157.41 42.2158L157.41 42.2155L116.768 18.7509L116.767 18.7504C114.95 17.7071 112.508 17.2665 110.032 17.3697C107.553 17.4731 104.996 18.1234 102.938 19.3089L102.938 19.3091L4.7609 75.9911L4.7608 75.9912C2.71666 77.1721 1.49661 78.7025 1.30017 80.2774C1.09985 81.8834 1.97909 83.3833 3.79564 84.4345L3.79599 84.4347L44.4375 107.899Z" fill="#3D4255" stroke="#2AC77B" stroke-width="0.795031"/>
<path d="M25.8563 91.7047C24.9261 92.2417 24.9261 93.1124 25.8563 93.6494C26.7866 94.1864 28.2948 94.1863 29.225 93.6493C30.1552 93.1122 30.1551 92.2415 29.2249 91.7046C28.2946 91.1676 26.7865 91.1676 25.8563 91.7047Z" fill="#3D4255" stroke="#2AC77B" stroke-width="0.795031"/>
<path d="M132.508 34.0504C133.514 34.0504 134.33 33.5792 134.33 32.9978C134.33 32.4165 133.514 31.9452 132.508 31.9452C131.501 31.9452 130.686 32.4165 130.686 32.9978C130.686 33.5792 131.501 34.0504 132.508 34.0504Z" fill="#3D4255"/>
<mask id="path-15-outside-2_3109_8039" maskUnits="userSpaceOnUse" x="10.5996" y="19.1927" width="145" height="85" fill="black">
<rect fill="white" x="10.5996" y="19.1927" width="145" height="85"/>
<path fill-rule="evenodd" clip-rule="evenodd" d="M144.991 38.9537L152.853 43.4969C155.261 44.8885 155.261 47.1412 152.853 48.5328L60.6422 101.949C58.2339 103.34 54.3265 103.34 51.9142 101.949L13.3938 79.708C11.0015 78.3165 11.0015 76.0598 13.3938 74.6682L105.612 21.2364C108.025 19.8449 111.948 19.8449 114.34 21.2364L121.119 25.1535C120.882 25.2629 120.666 25.387 120.473 25.5238C120.031 25.8379 119.73 26.2099 119.595 26.6071C119.46 27.0043 119.496 27.4145 119.701 27.8017C119.905 28.1889 120.271 28.5412 120.766 28.8277L138.64 39.1477C139.136 39.434 139.746 39.6456 140.417 39.7637C141.088 39.8818 141.799 39.9028 142.487 39.825C143.175 39.7471 143.82 39.5727 144.364 39.3171C144.595 39.2085 144.805 39.0866 144.991 38.9537Z"/>
</mask>
<path fill-rule="evenodd" clip-rule="evenodd" d="M144.991 38.9537L152.853 43.4969C155.261 44.8885 155.261 47.1412 152.853 48.5328L60.6422 101.949C58.2339 103.34 54.3265 103.34 51.9142 101.949L13.3938 79.708C11.0015 78.3165 11.0015 76.0598 13.3938 74.6682L105.612 21.2364C108.025 19.8449 111.948 19.8449 114.34 21.2364L121.119 25.1535C120.882 25.2629 120.666 25.387 120.473 25.5238C120.031 25.8379 119.73 26.2099 119.595 26.6071C119.46 27.0043 119.496 27.4145 119.701 27.8017C119.905 28.1889 120.271 28.5412 120.766 28.8277L138.64 39.1477C139.136 39.434 139.746 39.6456 140.417 39.7637C141.088 39.8818 141.799 39.9028 142.487 39.825C143.175 39.7471 143.82 39.5727 144.364 39.3171C144.595 39.2085 144.805 39.0866 144.991 38.9537Z" fill="#3D4255"/>
<path d="M152.853 43.4969L152.455 44.1853L152.455 44.1853L152.853 43.4969ZM144.991 38.9537L145.389 38.2653L144.945 38.0091L144.529 38.3069L144.991 38.9537ZM152.853 48.5328L152.455 47.8444L152.454 47.8448L152.853 48.5328ZM60.6422 101.949L61.0399 102.637L61.0407 102.637L60.6422 101.949ZM51.9142 101.949L51.5167 102.637L51.5169 102.637L51.9142 101.949ZM13.3938 79.708L12.9941 80.3953L12.9963 80.3966L13.3938 79.708ZM13.3938 74.6682L12.9953 73.9803L12.9941 73.981L13.3938 74.6682ZM105.612 21.2364L105.215 20.5477L105.214 20.5485L105.612 21.2364ZM114.34 21.2364L113.941 21.9236L113.943 21.9248L114.34 21.2364ZM121.119 25.1535L121.453 25.875L122.843 25.2317L121.516 24.4652L121.119 25.1535ZM120.473 25.5238L120.013 24.8757L120.013 24.8758L120.473 25.5238ZM119.595 26.6071L118.842 26.3518V26.3518L119.595 26.6071ZM119.701 27.8017L118.997 28.1725V28.1725L119.701 27.8017ZM120.766 28.8277L120.368 29.5159L120.368 29.5162L120.766 28.8277ZM138.64 39.1477L139.038 38.4592L139.038 38.4592L138.64 39.1477ZM140.417 39.7637L140.555 38.9807V38.9807L140.417 39.7637ZM142.487 39.825L142.398 39.035L142.487 39.825ZM144.364 39.3171L144.026 38.5976V38.5976L144.364 39.3171ZM153.251 42.8086L145.389 38.2653L144.593 39.642L152.455 44.1853L153.251 42.8086ZM153.25 49.2212C154.599 48.4419 155.454 47.3101 155.454 46.0149C155.454 44.7196 154.599 43.5879 153.25 42.8086L152.455 44.1853C153.515 44.7976 153.864 45.488 153.864 46.0149C153.864 46.5417 153.515 47.2322 152.455 47.8444L153.25 49.2212ZM61.0407 102.637L153.251 49.2207L152.454 47.8448L60.2437 101.261L61.0407 102.637ZM51.5169 102.637C52.8722 103.419 54.5976 103.787 56.2797 103.787C57.9617 103.787 59.6864 103.419 61.0399 102.637L60.2444 101.26C59.1897 101.87 57.7566 102.197 56.2797 102.197C54.8029 102.197 53.3684 101.87 52.3115 101.26L51.5169 102.637ZM12.9963 80.3966L51.5167 102.637L52.3117 101.26L13.7914 79.0195L12.9963 80.3966ZM12.9941 73.981C11.6517 74.7618 10.8046 75.895 10.8046 77.1881C10.8046 78.4813 11.6517 79.6145 12.9941 80.3953L13.7936 79.0208C12.7436 78.4101 12.3946 77.7191 12.3946 77.1881C12.3946 76.6572 12.7436 75.9662 13.7936 75.3555L12.9941 73.981ZM105.214 20.5485L12.9953 73.9803L13.7924 75.3561L106.011 21.9243L105.214 20.5485ZM114.74 20.5492C113.393 19.7656 111.667 19.3977 109.984 19.3977C108.3 19.3977 106.571 19.7658 105.215 20.5477L106.01 21.9251C107.066 21.3155 108.505 20.9878 109.984 20.9878C111.463 20.9878 112.895 21.3156 113.941 21.9236L114.74 20.5492ZM121.516 24.4652L114.738 20.548L113.943 21.9248L120.721 25.8419L121.516 24.4652ZM120.785 24.432C120.509 24.5596 120.249 24.7076 120.013 24.8757L120.934 26.1718C121.082 26.0664 121.255 25.9662 121.453 25.875L120.785 24.432ZM120.013 24.8758C119.474 25.2584 119.044 25.7554 118.842 26.3518L120.348 26.8625C120.415 26.6644 120.588 26.4174 120.934 26.1718L120.013 24.8758ZM118.842 26.3518C118.634 26.9656 118.696 27.6017 118.997 28.1725L120.404 27.4309C120.297 27.2273 120.287 27.043 120.348 26.8624L118.842 26.3518ZM118.997 28.1725C119.29 28.727 119.782 29.177 120.368 29.5159L121.164 28.1396C120.759 27.9054 120.52 27.6508 120.404 27.4309L118.997 28.1725ZM120.368 29.5162L138.243 39.8362L139.038 38.4592L121.163 28.1392L120.368 29.5162ZM138.243 39.8361C138.833 40.1768 139.534 40.4154 140.279 40.5467L140.555 38.9807C139.959 38.8757 139.44 38.6912 139.038 38.4592L138.243 39.8361ZM140.279 40.5467C141.026 40.6782 141.814 40.7012 142.576 40.615L142.398 39.035C141.784 39.1044 141.15 39.0854 140.555 38.9807L140.279 40.5467ZM142.576 40.615C143.338 40.5288 144.068 40.3343 144.702 40.0367L144.026 38.5976C143.571 38.8111 143.013 38.9654 142.398 39.035L142.576 40.615ZM144.702 40.0367C144.972 39.9097 145.224 39.7641 145.453 39.6005L144.529 38.3069C144.386 38.4091 144.218 38.5073 144.026 38.5976L144.702 40.0367Z" fill="#2AC77B" mask="url(#path-15-outside-2_3109_8039)"/>
<mask id="path-17-outside-3_3109_8039" maskUnits="userSpaceOnUse" x="126.65" y="25.113" width="11.9282" height="12.6603" fill="black">
<rect fill="white" x="126.65" y="25.113" width="11.9282" height="12.6603"/>
<path fill-rule="evenodd" clip-rule="evenodd" d="M130.165 29.1861C130.618 29.4478 130.618 29.8721 130.165 30.1338C129.711 30.3954 128.976 30.3954 128.523 30.1338C128.07 29.8721 128.07 29.4478 128.523 29.1861C128.976 28.9244 129.711 28.9244 130.165 29.1861ZM131.101 31.7538C130.648 31.4921 130.648 31.0679 131.101 30.8062C131.554 30.5445 132.289 30.5445 132.743 30.8062L136.494 32.9721C136.948 33.2338 136.948 33.6581 136.494 33.9197C136.041 34.1814 135.306 34.1814 134.853 33.9197L131.101 31.7538Z"/>
</mask>
<path fill-rule="evenodd" clip-rule="evenodd" d="M130.165 29.1861C130.618 29.4478 130.618 29.8721 130.165 30.1338C129.711 30.3954 128.976 30.3954 128.523 30.1338C128.07 29.8721 128.07 29.4478 128.523 29.1861C128.976 28.9244 129.711 28.9244 130.165 29.1861ZM131.101 31.7538C130.648 31.4921 130.648 31.0679 131.101 30.8062C131.554 30.5445 132.289 30.5445 132.743 30.8062L136.494 32.9721C136.948 33.2338 136.948 33.6581 136.494 33.9197C136.041 34.1814 135.306 34.1814 134.853 33.9197L131.101 31.7538Z" fill="#3D4255"/>
<path d="M130.165 30.1338L130.47 30.6633L130.47 30.6633L130.165 30.1338ZM130.165 29.1861L130.47 28.6566L130.47 28.6566L130.165 29.1861ZM128.523 29.1861L128.217 28.6566L128.523 29.1861ZM131.101 30.8062L130.795 30.2766L130.795 30.2766L131.101 30.8062ZM131.101 31.7538L131.407 31.2242L131.101 31.7538ZM132.743 30.8062L133.048 30.2766L132.743 30.8062ZM136.494 32.9721L136.189 33.5017L136.189 33.5017L136.494 32.9721ZM136.494 33.9197L136.189 33.3902L136.189 33.3902L136.494 33.9197ZM134.853 33.9197L134.547 34.4493L134.547 34.4493L134.853 33.9197ZM129.859 29.6042C129.912 29.5734 129.924 29.5539 129.919 29.5606C129.912 29.5704 129.893 29.6054 129.893 29.6599C129.893 29.7144 129.912 29.7495 129.919 29.7592C129.924 29.766 129.912 29.7465 129.859 29.7156L130.47 28.6566C130.808 28.8517 131.116 29.193 131.116 29.6599C131.116 30.1269 130.808 30.4681 130.47 30.6633L129.859 29.6042ZM128.829 29.6042C128.941 29.6688 129.126 29.7186 129.344 29.7186C129.562 29.7186 129.747 29.6688 129.859 29.6042L130.47 30.6633C130.129 30.8604 129.72 30.9415 129.344 30.9415C128.968 30.9415 128.559 30.8604 128.217 30.6633L128.829 29.6042ZM128.829 29.7156C128.775 29.7465 128.764 29.766 128.768 29.7592C128.775 29.7495 128.795 29.7144 128.795 29.6599C128.795 29.6054 128.775 29.5704 128.768 29.5606C128.764 29.5539 128.775 29.5734 128.829 29.6042L128.217 30.6633C127.879 30.4681 127.572 30.1269 127.572 29.6599C127.572 29.193 127.879 28.8517 128.217 28.6566L128.829 29.7156ZM129.859 29.7156C129.747 29.6511 129.562 29.6013 129.344 29.6013C129.126 29.6013 128.941 29.6511 128.829 29.7156L128.217 28.6566C128.559 28.4594 128.968 28.3784 129.344 28.3784C129.72 28.3784 130.129 28.4594 130.47 28.6566L129.859 29.7156ZM131.407 31.3357C131.353 31.3665 131.342 31.3861 131.347 31.3793C131.353 31.3695 131.373 31.3345 131.373 31.28C131.373 31.2255 131.353 31.1904 131.347 31.1807C131.342 31.1739 131.353 31.1934 131.407 31.2242L130.795 32.2833C130.457 32.0882 130.15 31.7469 130.15 31.28C130.15 30.813 130.457 30.4718 130.795 30.2766L131.407 31.3357ZM132.437 31.3357C132.325 31.2712 132.14 31.2214 131.922 31.2214C131.704 31.2214 131.519 31.2712 131.407 31.3357L130.795 30.2766C131.137 30.0795 131.546 29.9985 131.922 29.9985C132.298 29.9985 132.707 30.0795 133.048 30.2766L132.437 31.3357ZM136.189 33.5017L132.437 31.3357L133.048 30.2766L136.8 32.4426L136.189 33.5017ZM136.189 33.3902C136.242 33.3594 136.254 33.3398 136.249 33.3466C136.242 33.3564 136.223 33.3914 136.223 33.4459C136.223 33.5005 136.242 33.5355 136.249 33.5452C136.254 33.552 136.242 33.5325 136.189 33.5017L136.8 32.4426C137.138 32.6377 137.446 32.979 137.446 33.4459C137.446 33.9129 137.138 34.2541 136.8 34.4493L136.189 33.3902ZM135.159 33.3902C135.271 33.4547 135.456 33.5045 135.674 33.5045C135.892 33.5045 136.077 33.4547 136.189 33.3902L136.8 34.4493C136.459 34.6464 136.05 34.7274 135.674 34.7274C135.298 34.7274 134.889 34.6464 134.547 34.4493L135.159 33.3902ZM131.407 31.2242L135.159 33.3902L134.547 34.4493L130.795 32.2833L131.407 31.2242Z" fill="#2AC77B" mask="url(#path-17-outside-3_3109_8039)"/>
<path d="M59.8223 78.3338C62.6702 79.9772 64.9852 78.6573 64.9937 75.3853L65.0894 38.8821C65.0979 35.6101 62.7969 31.6255 59.949 29.9821L28.1777 11.6479C25.3298 10.0045 23.0148 11.3254 23.0063 14.5973L22.9106 51.1006C22.902 54.3725 25.2031 58.3562 28.0509 59.9996L59.8223 78.3338Z" fill="#3D4255"/>
<path d="M59.8223 78.3338L60.021 77.9895L59.8223 78.3338ZM64.9937 75.3853L64.5962 75.3843L64.5962 75.3843L64.9937 75.3853ZM65.0894 38.8821L64.6919 38.881L65.0894 38.8821ZM59.949 29.9821L60.1477 29.6378L59.949 29.9821ZM28.1777 11.6479L27.979 11.9922L27.979 11.9922L28.1777 11.6479ZM23.0063 14.5973L23.4038 14.5984L23.4038 14.5984L23.0063 14.5973ZM22.9106 51.1006L22.5131 51.0995L22.5131 51.0995L22.9106 51.1006ZM28.0509 59.9996L27.8523 60.3439L27.8523 60.3439L28.0509 59.9996ZM60.021 77.9895C61.3728 78.7696 62.5059 78.7965 63.2759 78.3575C64.0449 77.919 64.5921 76.9355 64.5962 75.3843L65.3912 75.3864C65.3867 77.1071 64.7722 78.4195 63.6696 79.0482C62.568 79.6763 61.1197 79.5414 59.6236 78.6781L60.021 77.9895ZM64.5962 75.3843L64.6919 38.881L65.4869 38.8831L65.3912 75.3864L64.5962 75.3843ZM64.6919 38.881C64.6959 37.3318 64.1506 35.5862 63.2461 34.0201C62.3417 32.4542 61.0998 31.1051 59.7504 30.3264L60.1477 29.6378C61.6461 30.5024 62.9786 31.9673 63.9346 33.6225C64.8905 35.2776 65.4914 37.1604 65.4869 38.8831L64.6919 38.881ZM59.7504 30.3264L27.979 11.9922L28.3763 11.3036L60.1477 29.6378L59.7504 30.3264ZM27.979 11.9922C26.6272 11.2122 25.4942 11.1855 24.7242 11.6247C23.9551 12.0634 23.4078 13.0471 23.4038 14.5984L22.6087 14.5963C22.6133 12.8756 23.2278 11.563 24.3303 10.9341C25.4319 10.3057 26.8803 10.4403 28.3764 11.3036L27.979 11.9922ZM23.4038 14.5984L23.3081 51.1016L22.5131 51.0995L22.6087 14.5963L23.4038 14.5984ZM23.3081 51.1016C23.304 52.6508 23.8494 54.3962 24.7538 55.962C25.6582 57.5277 26.9002 58.8766 28.2496 59.6553L27.8523 60.3439C26.3539 59.4792 25.0214 58.0146 24.0654 56.3596C23.1095 54.7047 22.5086 52.8223 22.5131 51.0995L23.3081 51.1016ZM28.2496 59.6553L60.021 77.9895L59.6236 78.6781L27.8523 60.3439L28.2496 59.6553Z" fill="#2AC77B"/>
<path d="M63.4919 78.679L68.6319 75.6647C69.558 75.1268 70.1312 73.9829 70.135 72.3582L70.2313 35.8549C70.2393 32.583 67.9388 28.5979 65.0906 26.9553L33.3197 8.62112C31.8864 7.7941 30.5891 7.71742 29.6508 8.26232L24.5163 11.2734C25.4526 10.7326 59.95 29.9685 59.95 29.9685C62.7977 31.6128 65.0993 35.5973 65.0902 38.8698C65.0902 38.8698 64.4169 78.1417 63.4919 78.679Z" fill="#3D4255" stroke="#2AC77B" stroke-width="0.795031"/>
<path d="M59.8256 78.3309C62.6735 79.9743 64.9885 78.6544 64.997 75.3824L65.0927 38.8792C65.1012 35.6072 62.8002 31.6226 59.9523 29.9792L28.181 11.6451C25.3332 10.0017 23.0181 11.3225 23.0096 14.5945L22.9139 51.0977C22.9053 54.3697 25.2064 58.3533 28.0543 59.9967L59.8256 78.3309Z" fill="#3D4255" stroke="#2AC77B" stroke-width="0.795031"/>
<path d="M53.0702 40.8302L34.3411 30.016C33.0535 29.2725 32 29.9338 32.0001 31.4855L32.0006 45.5919C32.0007 47.1435 33.0543 49.0214 34.3419 49.7649L53.0709 60.579C54.3585 61.3225 55.412 60.6612 55.4119 59.1096L55.4114 45.0032C55.4114 43.4515 54.3578 41.5736 53.0702 40.8302Z" fill="#3D4255" stroke="#2AC77B" stroke-width="0.795031"/>
<path d="M32 32.6633L55.3783 46.1619L55.3784 49.6885L32.0001 36.1899L32 32.6633Z" fill="#3D4255" stroke="#2AC77B" stroke-width="0.795031"/>
<path fill-rule="evenodd" clip-rule="evenodd" d="M34.8814 43.3728L37.5226 44.8979C37.7302 45.0177 37.8999 44.9123 37.8999 44.6635L37.8998 42.4024C37.8998 42.1537 37.73 41.8521 37.5225 41.7323L34.8812 40.2072C34.6737 40.0874 34.5039 40.1929 34.5039 40.4416L34.504 42.7027C34.504 42.9515 34.6738 43.253 34.8814 43.3728ZM39.7395 46.178L42.3808 47.703C42.5883 47.8229 42.7581 47.7174 42.7581 47.4687L42.758 45.2076C42.758 44.9588 42.5882 44.6573 42.3807 44.5375L39.7394 43.0124C39.5319 42.8926 39.3621 42.998 39.3621 43.2468L39.3622 45.5079C39.3622 45.7566 39.532 46.0581 39.7395 46.178Z" fill="#3D4255"/>
<path d="M37.5226 44.8979L37.5226 44.5004L37.5226 44.8979ZM34.8814 43.3728L34.8814 43.7703L34.8814 43.3728ZM42.3807 44.5375L42.3807 44.935L42.3807 44.5375ZM39.7394 43.0124L39.7394 42.6149L39.7394 43.0124ZM39.3621 43.2468L39.7063 43.4455L39.3621 43.2468ZM39.3622 45.5079L39.0179 45.3091L39.3622 45.5079ZM37.5226 44.5004L34.8813 42.9753L34.8814 43.7703L37.5226 45.2954L37.5226 44.5004ZM37.5557 44.4648C37.5557 44.4834 37.5495 44.4948 37.5412 44.5C37.533 44.505 37.5263 44.5025 37.5226 44.5004L37.5226 45.2954C37.9323 45.5319 38.2442 45.3165 38.2442 44.8623L37.5557 44.4648ZM37.5556 42.2036L37.5557 44.4648L38.2442 44.8623L38.2441 42.6012L37.5556 42.2036ZM37.5225 42.1298C37.5262 42.132 37.5329 42.1372 37.5411 42.1517C37.5494 42.1665 37.5556 42.1851 37.5556 42.2036L38.2441 42.6012C38.2441 42.147 37.9321 41.5713 37.5225 41.3348L37.5225 42.1298ZM34.8812 40.6048L37.5225 42.1298L37.5225 41.3348L34.8812 39.8097L34.8812 40.6048ZM34.8482 40.6404C34.8482 40.6218 34.8543 40.6104 34.8627 40.6052C34.8708 40.6001 34.8775 40.6026 34.8812 40.6048L34.8812 39.8097C34.4716 39.5732 34.1597 39.7886 34.1597 40.2428L34.8482 40.6404ZM34.8483 42.9015L34.8482 40.6404L34.1597 40.2428L34.1598 42.504L34.8483 42.9015ZM34.8813 42.9753C34.8776 42.9732 34.8709 42.968 34.8628 42.9534C34.8544 42.9386 34.8483 42.9201 34.8483 42.9015L34.1598 42.504C34.1598 42.9582 34.4718 43.5338 34.8814 43.7703L34.8813 42.9753ZM42.3808 47.3055L39.7395 45.7805L39.7395 46.5755L42.3808 48.1006L42.3808 47.3055ZM42.4138 47.2699C42.4138 47.2885 42.4077 47.2999 42.3993 47.3051C42.3912 47.3102 42.3845 47.3077 42.3808 47.3055L42.3808 48.1006C42.7904 48.3371 43.1024 48.1217 43.1023 47.6675L42.4138 47.2699ZM42.4137 45.0088L42.4138 47.2699L43.1023 47.6675L43.1022 45.4063L42.4137 45.0088ZM42.3807 44.935C42.3844 44.9371 42.3911 44.9423 42.3992 44.9568C42.4076 44.9717 42.4137 44.9902 42.4137 45.0088L43.1022 45.4063C43.1022 44.9521 42.7903 44.3765 42.3806 44.14L42.3807 44.935ZM39.7394 43.4099L42.3807 44.935L42.3806 44.14L39.7394 42.6149L39.7394 43.4099ZM39.7063 43.4455C39.7063 43.4269 39.7125 43.4155 39.7208 43.4103C39.729 43.4052 39.7357 43.4078 39.7394 43.4099L39.7394 42.6149C39.3297 42.3784 39.0178 42.5938 39.0178 43.048L39.7063 43.4455ZM39.7064 45.7066L39.7063 43.4455L39.0178 43.048L39.0179 45.3091L39.7064 45.7066ZM39.7395 45.7805C39.7358 45.7783 39.7291 45.7731 39.7209 45.7586C39.7126 45.7438 39.7064 45.7252 39.7064 45.7066L39.0179 45.3091C39.0179 45.7633 39.3299 46.339 39.7395 46.5755L39.7395 45.7805Z" fill="#2AC77B"/>
<path d="M127.331 85.1969C129.011 86.1661 130.376 85.3876 130.381 83.458L130.437 61.9305C130.442 60.0008 129.085 57.6509 127.406 56.6817L108.669 45.8693C106.989 44.9001 105.624 45.6791 105.619 47.6087L105.563 69.1362C105.558 71.0659 106.915 73.4152 108.594 74.3844L127.331 85.1969Z" fill="#3D4255"/>
<path d="M127.331 85.1969L127.53 84.8526L127.331 85.1969ZM130.381 83.458L129.983 83.457L129.983 83.457L130.381 83.458ZM130.437 61.9305L130.04 61.9294L130.437 61.9305ZM127.406 56.6817L127.605 56.3374L127.406 56.6817ZM108.669 45.8693L108.47 46.2136L108.47 46.2136L108.669 45.8693ZM105.619 47.6087L106.017 47.6097L106.017 47.6097L105.619 47.6087ZM105.563 69.1362L105.165 69.1352L105.165 69.1352L105.563 69.1362ZM108.594 74.3844L108.395 74.7287L108.395 74.7287L108.594 74.3844ZM127.53 84.8526C128.297 85.2956 128.901 85.2893 129.287 85.0692C129.672 84.8496 129.981 84.3371 129.983 83.457L130.778 83.4591C130.776 84.5086 130.399 85.3501 129.681 85.7598C128.963 86.169 128.044 86.0674 127.132 85.5412L127.53 84.8526ZM129.983 83.457L130.04 61.9294L130.835 61.9315L130.778 83.4591L129.983 83.457ZM130.04 61.9294C130.042 61.0514 129.732 60.05 129.209 59.1447C128.686 58.2396 127.972 57.4676 127.207 57.026L127.605 56.3374C128.519 56.865 129.323 57.7527 129.898 58.7471C130.472 59.7415 130.838 60.8799 130.835 61.9315L130.04 61.9294ZM127.207 57.026L108.47 46.2136L108.868 45.525L127.605 56.3374L127.207 57.026ZM108.47 46.2136C107.703 45.7707 107.099 45.777 106.713 45.9972C106.328 46.2169 106.019 46.7296 106.017 47.6097L105.222 47.6077C105.224 46.5581 105.6 45.7166 106.319 45.3067C107.037 44.8973 107.956 44.9988 108.868 45.525L108.47 46.2136ZM106.017 47.6097L105.96 69.1373L105.165 69.1352L105.222 47.6077L106.017 47.6097ZM105.96 69.1373C105.958 70.0153 106.268 71.0165 106.791 71.9217C107.314 72.8267 108.028 73.5985 108.793 74.0401L108.395 74.7287C107.481 74.2011 106.677 73.3137 106.102 72.3193C105.528 71.3251 105.162 70.1868 105.165 69.1352L105.96 69.1373ZM108.793 74.0401L127.53 84.8526L127.132 85.5412L108.395 74.7287L108.793 74.0401Z" fill="#2AC77B"/>
<path d="M129.495 85.4004L134.089 82.726C134.635 82.4088 134.973 81.7343 134.975 80.7761L135.032 59.2485C135.036 57.3189 133.68 54.9687 132 54L113.263 43.1875C112.418 42.6998 111.653 42.6546 111.1 42.9759L106.509 45.6484C107.062 45.3295 127.406 56.6737 127.406 56.6737C129.086 57.6435 130.443 59.9933 130.438 61.9232C130.438 61.9232 130.04 85.0836 129.495 85.4004Z" fill="#3D4255" stroke="#2AC77B" stroke-width="0.795031"/>
<path d="M127.333 85.1951C129.013 86.1643 130.378 85.3859 130.383 83.4563L130.439 61.9287C130.444 59.9991 129.087 57.6492 127.408 56.68L108.671 45.8676C106.991 44.8984 105.626 45.6774 105.621 47.607L105.565 69.1345C105.56 71.0641 106.917 73.4135 108.596 74.3827L127.333 85.1951Z" fill="#3D4255" stroke="#2AC77B" stroke-width="0.795031"/>
<path d="M118.667 68.2315L118.667 71.3025C118.667 72.147 119.266 73.1835 119.997 73.6058L122.657 75.1414C123.388 75.5637 123.986 75.2182 123.986 74.3737L123.986 71.3027C123.986 70.4582 123.388 69.4217 122.656 68.9994L119.997 67.4638C119.265 67.0415 118.667 67.387 118.667 68.2315Z" stroke="#2AC77B" stroke-width="0.795031"/>
<path d="M112.018 64.3925L112.019 67.4635C112.019 68.308 112.617 69.3445 113.348 69.7668L116.008 71.3024C116.739 71.7247 117.338 71.3792 117.338 70.5347L117.337 67.4637C117.337 66.6192 116.739 65.5827 116.008 65.1604L113.348 63.6248C112.617 63.2025 112.018 63.548 112.018 64.3925Z" stroke="#2AC77B" stroke-width="0.795031"/>
<path d="M119.997 65.9283L122.656 67.4639C123.388 67.8862 123.986 67.5407 123.986 66.6962L123.986 63.6252C123.986 62.7807 123.387 61.7442 122.656 61.3219L119.997 59.7863C119.265 59.364 118.667 59.7095 118.667 60.554L118.667 63.625C118.667 64.4695 119.265 65.506 119.997 65.9283Z" stroke="#2AC77B" stroke-width="0.795031"/>
<path d="M114 56.324L112.679 55.561C112.309 55.3474 112.018 55.5152 112.018 55.9425L112.018 57.4683C112.018 57.8955 112.309 58.399 112.679 58.6126L114 59.3756C114.37 59.5892 114.661 59.4214 114.661 58.9941L114.661 57.4684C114.661 57.0411 114.37 56.5376 114 56.324Z" stroke="#2AC77B" stroke-width="0.795031"/>
<path d="M114.661 60.5199L114.661 62.0457C114.661 62.473 114.952 62.9765 115.322 63.1901L116.643 63.9531C117.013 64.1667 117.304 63.9989 117.304 63.5716L117.304 62.0458C117.304 61.6186 117.013 61.1151 116.643 60.9015L115.322 60.1385C114.952 59.9249 114.661 60.0927 114.661 60.5199Z" stroke="#2AC77B" stroke-width="0.795031"/>
</svg>
