<svg width="161" height="129" viewBox="0 0 161 129" fill="none" xmlns="http://www.w3.org/2000/svg">
<mask id="path-1-outside-1_3109_7994" maskUnits="userSpaceOnUse" x="0.666992" y="28.3064" width="160" height="93" fill="black">
<rect fill="white" x="0.666992" y="28.3064" width="160" height="93"/>
<path fill-rule="evenodd" clip-rule="evenodd" d="M44.6378 119.109L3.99625 95.6447C2.36445 94.7004 1.60311 93.425 1.67622 92.1005L1.66699 92.0899V87.2174L4.05632 86.4337L5.15349 87.7785L103.138 31.2035C107.125 28.9109 113.106 28.6597 116.571 30.6493L156.208 53.5342L156.905 50.492L159.539 52.5546V57.5792L159.534 57.595C159.481 59.085 158.369 60.6434 156.248 61.8691L58.0707 118.551C54.0954 120.848 48.0827 121.095 44.6378 119.109Z"/>
</mask>
<path fill-rule="evenodd" clip-rule="evenodd" d="M44.6378 119.109L3.99625 95.6447C2.36445 94.7004 1.60311 93.425 1.67622 92.1005L1.66699 92.0899V87.2174L4.05632 86.4337L5.15349 87.7785L103.138 31.2035C107.125 28.9109 113.106 28.6597 116.571 30.6493L156.208 53.5342L156.905 50.492L159.539 52.5546V57.5792L159.534 57.595C159.481 59.085 158.369 60.6434 156.248 61.8691L58.0707 118.551C54.0954 120.848 48.0827 121.095 44.6378 119.109Z" fill="#3D4255"/>
<path d="M3.99625 95.6447L3.59803 96.3328L3.59873 96.3332L3.99625 95.6447ZM44.6378 119.109L44.2403 119.798L44.2408 119.798L44.6378 119.109ZM1.67622 92.1005L2.47004 92.1443L2.48791 91.8206L2.27432 91.5767L1.67622 92.1005ZM1.66699 92.0899H0.871961V92.3889L1.06889 92.6137L1.66699 92.0899ZM1.66699 87.2174L1.41921 86.4619L0.871961 86.6414V87.2174H1.66699ZM4.05632 86.4337L4.67235 85.9311L4.32725 85.5081L3.80854 85.6782L4.05632 86.4337ZM5.15349 87.7785L4.53746 88.2811L4.96513 88.8053L5.55102 88.467L5.15349 87.7785ZM103.138 31.2035L102.742 30.5143L102.74 30.515L103.138 31.2035ZM116.571 30.6493L116.968 29.9608L116.967 29.9599L116.571 30.6493ZM156.208 53.5342L155.811 54.2228L156.743 54.761L156.983 53.7117L156.208 53.5342ZM156.905 50.492L157.395 49.866L156.409 49.0943L156.13 50.3146L156.905 50.492ZM159.539 52.5546H160.334V52.1673L160.029 51.9286L159.539 52.5546ZM159.539 57.5792L160.291 57.838L160.334 57.7122V57.5792H159.539ZM159.534 57.595L158.782 57.3363L158.743 57.4484L158.739 57.567L159.534 57.595ZM156.248 61.8691L156.645 62.5576L156.645 62.5575L156.248 61.8691ZM58.0707 118.551L57.6732 117.863L57.673 117.863L58.0707 118.551ZM3.59873 96.3332L44.2403 119.798L45.0353 118.421L4.39377 94.9562L3.59873 96.3332ZM0.882396 92.0567C0.788062 93.7658 1.79063 95.2869 3.59803 96.3328L4.39446 94.9566C2.93827 94.1139 2.41816 93.0843 2.47004 92.1443L0.882396 92.0567ZM1.06889 92.6137L1.07812 92.6243L2.27432 91.5767L2.2651 91.5662L1.06889 92.6137ZM0.871961 87.2174V92.0899H2.46202V87.2174H0.871961ZM3.80854 85.6782L1.41921 86.4619L1.91477 87.9728L4.30409 87.1891L3.80854 85.6782ZM5.76952 87.276L4.67235 85.9311L3.44029 86.9363L4.53746 88.2811L5.76952 87.276ZM102.74 30.515L4.75595 87.09L5.55102 88.467L103.536 31.892L102.74 30.515ZM116.967 29.9599C115.065 28.868 112.542 28.4215 110.017 28.5262C107.485 28.6313 104.864 29.2938 102.742 30.5143L103.534 31.8928C105.399 30.8206 107.762 30.2112 110.083 30.1149C112.412 30.0183 114.612 30.441 116.175 31.3388L116.967 29.9599ZM156.606 52.8457L116.968 29.9608L116.173 31.3378L155.811 54.2228L156.606 52.8457ZM156.13 50.3146L155.433 53.3568L156.983 53.7117L157.68 50.6694L156.13 50.3146ZM160.029 51.9286L157.395 49.866L156.415 51.118L159.049 53.1806L160.029 51.9286ZM160.334 57.5792V52.5546H158.744V57.5792H160.334ZM160.285 57.8538L160.291 57.838L158.787 57.3205L158.782 57.3363L160.285 57.8538ZM156.645 62.5575C158.884 61.2643 160.262 59.5017 160.328 57.6231L158.739 57.567C158.7 58.6683 157.855 60.0225 155.85 61.1807L156.645 62.5575ZM58.4682 119.24L156.645 62.5576L155.85 61.1806L57.6732 117.863L58.4682 119.24ZM44.2408 119.798C46.1333 120.889 48.6606 121.335 51.1883 121.23C53.7235 121.125 56.3506 120.463 58.4684 119.24L57.673 117.863C55.8156 118.936 53.4486 119.545 51.1225 119.642C48.7888 119.738 46.5872 119.315 45.0348 118.421L44.2408 119.798Z" fill="#2AC77B" mask="url(#path-1-outside-1_3109_7994)"/>
<path d="M44.6363 114.129L3.99475 90.6641C0.549808 88.6705 0.984412 85.2056 4.95965 82.909L103.137 26.227C107.124 23.9303 113.105 23.6831 116.569 25.6687L157.211 49.1334C160.652 51.127 160.221 54.5959 156.246 56.8885L58.0692 113.575C54.0939 115.867 48.0812 116.118 44.6363 114.129Z" fill="#3D4255"/>
<path d="M8.89949 95.9395C9.10736 95.8195 9.10718 95.43 8.89908 95.0696C8.69099 94.7092 8.35378 94.5142 8.14591 94.6343C7.93804 94.7543 7.93823 95.1438 8.14632 95.5042C8.35442 95.8646 8.69162 96.0595 8.89949 95.9395Z" fill="#3D4255"/>
<path d="M10.8565 97.0701C11.0644 96.9501 11.0642 96.5606 10.8561 96.2002C10.648 95.8398 10.3108 95.6449 10.1029 95.7649C9.89507 95.8849 9.89525 96.2744 10.1033 96.6348C10.3114 96.9952 10.6487 97.1901 10.8565 97.0701Z" fill="#3D4255"/>
<path d="M12.8116 98.1941C13.0195 98.0741 13.0193 97.6846 12.8112 97.3242C12.6031 96.9637 12.2659 96.7688 12.058 96.8888C11.8501 97.0089 11.8503 97.3983 12.0584 97.7588C12.2665 98.1192 12.6037 98.3141 12.8116 98.1941Z" fill="#3D4255"/>
<path d="M14.7686 99.3296C14.9765 99.2096 14.9763 98.8202 14.7682 98.4597C14.5601 98.0993 14.2229 97.9044 14.0151 98.0244C13.8072 98.1444 13.8074 98.5339 14.0155 98.8943C14.2236 99.2548 14.5608 99.4496 14.7686 99.3296Z" fill="#3D4255"/>
<path d="M31.5694 109.024C31.7773 108.904 31.7771 108.514 31.569 108.154C31.3609 107.794 31.0237 107.599 30.8158 107.719C30.608 107.839 30.6082 108.228 30.8162 108.589C31.0243 108.949 31.3615 109.144 31.5694 109.024Z" fill="#3D4255"/>
<path d="M33.5225 110.157C33.7304 110.037 33.7302 109.647 33.5221 109.287C33.314 108.926 32.9768 108.732 32.769 108.852C32.5611 108.972 32.5613 109.361 32.7694 109.722C32.9775 110.082 33.3147 110.277 33.5225 110.157Z" fill="#3D4255"/>
<path d="M35.4757 111.283C35.6835 111.163 35.6833 110.774 35.4752 110.413C35.2672 110.053 34.9299 109.858 34.7221 109.978C34.5142 110.098 34.5144 110.488 34.7225 110.848C34.9306 111.208 35.2678 111.403 35.4757 111.283Z" fill="#3D4255"/>
<path d="M37.4366 112.415C37.6445 112.295 37.6443 111.906 37.4362 111.545C37.2281 111.185 36.8909 110.99 36.683 111.11C36.4751 111.23 36.4753 111.62 36.6834 111.98C36.8915 112.34 37.2287 112.535 37.4366 112.415Z" fill="#3D4255"/>
<path d="M44.4375 113.899L44.4378 113.9C46.2453 114.941 48.6911 115.382 51.1703 115.279C53.6533 115.176 56.2152 114.527 58.2679 113.341C58.268 113.341 58.268 113.341 58.268 113.341L156.445 56.6591L156.246 56.3149L156.445 56.6591C158.489 55.4781 159.708 53.9476 159.904 52.3728C160.104 50.767 159.225 49.2671 157.41 48.2158L157.41 48.2155L116.768 24.7509L116.767 24.7504C114.95 23.7071 112.508 23.2665 110.032 23.3697C107.553 23.4731 104.996 24.1234 102.938 25.3089L102.938 25.3091L4.7609 81.9911L4.7608 81.9912C2.71666 83.1721 1.49661 84.7025 1.30017 86.2774C1.09985 87.8834 1.97909 89.3833 3.79564 90.4345L3.79599 90.4347L44.4375 113.899Z" fill="#3D4255" stroke="#2AC77B" stroke-width="0.795031"/>
<path d="M25.8563 97.7047C24.9261 98.2417 24.9261 99.1124 25.8563 99.6494C26.7866 100.186 28.2948 100.186 29.225 99.6493C30.1552 99.1122 30.1551 98.2415 29.2249 97.7046C28.2946 97.1676 26.7865 97.1676 25.8563 97.7047Z" fill="#3D4255" stroke="#2AC77B" stroke-width="0.795031"/>
<path d="M132.508 40.0504C133.514 40.0504 134.33 39.5792 134.33 38.9978C134.33 38.4165 133.514 37.9452 132.508 37.9452C131.501 37.9452 130.686 38.4165 130.686 38.9978C130.686 39.5792 131.501 40.0504 132.508 40.0504Z" fill="#3D4255"/>
<mask id="path-15-outside-2_3109_7994" maskUnits="userSpaceOnUse" x="10.5996" y="25.1927" width="145" height="85" fill="black">
<rect fill="white" x="10.5996" y="25.1927" width="145" height="85"/>
<path fill-rule="evenodd" clip-rule="evenodd" d="M144.991 44.9537L152.853 49.4969C155.261 50.8885 155.261 53.1412 152.853 54.5328L60.6422 107.949C58.2339 109.34 54.3265 109.34 51.9142 107.949L13.3938 85.708C11.0015 84.3165 11.0015 82.0598 13.3938 80.6682L105.612 27.2364C108.025 25.8449 111.948 25.8449 114.34 27.2364L121.119 31.1535C120.882 31.2629 120.666 31.387 120.473 31.5238C120.031 31.8379 119.73 32.2099 119.595 32.6071C119.46 33.0043 119.496 33.4145 119.701 33.8017C119.905 34.1889 120.271 34.5412 120.766 34.8277L138.64 45.1477C139.136 45.434 139.746 45.6456 140.417 45.7637C141.088 45.8818 141.799 45.9028 142.487 45.825C143.175 45.7471 143.82 45.5727 144.364 45.3171C144.595 45.2085 144.805 45.0866 144.991 44.9537Z"/>
</mask>
<path fill-rule="evenodd" clip-rule="evenodd" d="M144.991 44.9537L152.853 49.4969C155.261 50.8885 155.261 53.1412 152.853 54.5328L60.6422 107.949C58.2339 109.34 54.3265 109.34 51.9142 107.949L13.3938 85.708C11.0015 84.3165 11.0015 82.0598 13.3938 80.6682L105.612 27.2364C108.025 25.8449 111.948 25.8449 114.34 27.2364L121.119 31.1535C120.882 31.2629 120.666 31.387 120.473 31.5238C120.031 31.8379 119.73 32.2099 119.595 32.6071C119.46 33.0043 119.496 33.4145 119.701 33.8017C119.905 34.1889 120.271 34.5412 120.766 34.8277L138.64 45.1477C139.136 45.434 139.746 45.6456 140.417 45.7637C141.088 45.8818 141.799 45.9028 142.487 45.825C143.175 45.7471 143.82 45.5727 144.364 45.3171C144.595 45.2085 144.805 45.0866 144.991 44.9537Z" fill="#3D4255"/>
<path d="M152.853 49.4969L152.455 50.1853L152.455 50.1853L152.853 49.4969ZM144.991 44.9537L145.389 44.2653L144.945 44.0091L144.529 44.3069L144.991 44.9537ZM152.853 54.5328L152.455 53.8444L152.454 53.8448L152.853 54.5328ZM60.6422 107.949L61.0399 108.637L61.0407 108.637L60.6422 107.949ZM51.9142 107.949L51.5167 108.637L51.5169 108.637L51.9142 107.949ZM13.3938 85.708L12.9941 86.3953L12.9963 86.3966L13.3938 85.708ZM13.3938 80.6682L12.9953 79.9803L12.9941 79.981L13.3938 80.6682ZM105.612 27.2364L105.215 26.5477L105.214 26.5485L105.612 27.2364ZM114.34 27.2364L113.941 27.9236L113.943 27.9248L114.34 27.2364ZM121.119 31.1535L121.453 31.875L122.843 31.2317L121.516 30.4652L121.119 31.1535ZM120.473 31.5238L120.013 30.8757L120.013 30.8758L120.473 31.5238ZM119.595 32.6071L118.842 32.3518V32.3518L119.595 32.6071ZM119.701 33.8017L118.997 34.1725V34.1725L119.701 33.8017ZM120.766 34.8277L120.368 35.5159L120.368 35.5162L120.766 34.8277ZM138.64 45.1477L139.038 44.4592L139.038 44.4592L138.64 45.1477ZM140.417 45.7637L140.555 44.9807V44.9807L140.417 45.7637ZM142.487 45.825L142.398 45.035L142.487 45.825ZM144.364 45.3171L144.026 44.5976V44.5976L144.364 45.3171ZM153.251 48.8086L145.389 44.2653L144.593 45.642L152.455 50.1853L153.251 48.8086ZM153.25 55.2212C154.599 54.4419 155.454 53.3101 155.454 52.0149C155.454 50.7196 154.599 49.5879 153.25 48.8086L152.455 50.1853C153.515 50.7976 153.864 51.488 153.864 52.0149C153.864 52.5417 153.515 53.2322 152.455 53.8444L153.25 55.2212ZM61.0407 108.637L153.251 55.2207L152.454 53.8448L60.2437 107.261L61.0407 108.637ZM51.5169 108.637C52.8722 109.419 54.5976 109.787 56.2797 109.787C57.9617 109.787 59.6864 109.419 61.0399 108.637L60.2444 107.26C59.1897 107.87 57.7566 108.197 56.2797 108.197C54.8029 108.197 53.3684 107.87 52.3115 107.26L51.5169 108.637ZM12.9963 86.3966L51.5167 108.637L52.3117 107.26L13.7914 85.0195L12.9963 86.3966ZM12.9941 79.981C11.6517 80.7618 10.8046 81.895 10.8046 83.1881C10.8046 84.4813 11.6517 85.6145 12.9941 86.3953L13.7936 85.0208C12.7436 84.4101 12.3946 83.7191 12.3946 83.1881C12.3946 82.6572 12.7436 81.9662 13.7936 81.3555L12.9941 79.981ZM105.214 26.5485L12.9953 79.9803L13.7924 81.3561L106.011 27.9243L105.214 26.5485ZM114.74 26.5492C113.393 25.7656 111.667 25.3977 109.984 25.3977C108.3 25.3977 106.571 25.7658 105.215 26.5477L106.01 27.9251C107.066 27.3155 108.505 26.9878 109.984 26.9878C111.463 26.9878 112.895 27.3156 113.941 27.9236L114.74 26.5492ZM121.516 30.4652L114.738 26.548L113.943 27.9248L120.721 31.8419L121.516 30.4652ZM120.785 30.432C120.509 30.5596 120.249 30.7076 120.013 30.8757L120.934 32.1718C121.082 32.0664 121.255 31.9662 121.453 31.875L120.785 30.432ZM120.013 30.8758C119.474 31.2584 119.044 31.7554 118.842 32.3518L120.348 32.8625C120.415 32.6644 120.588 32.4174 120.934 32.1718L120.013 30.8758ZM118.842 32.3518C118.634 32.9656 118.696 33.6017 118.997 34.1725L120.404 33.4309C120.297 33.2273 120.287 33.043 120.348 32.8624L118.842 32.3518ZM118.997 34.1725C119.29 34.727 119.782 35.177 120.368 35.5159L121.164 34.1396C120.759 33.9054 120.52 33.6508 120.404 33.4309L118.997 34.1725ZM120.368 35.5162L138.243 45.8362L139.038 44.4592L121.163 34.1392L120.368 35.5162ZM138.243 45.8361C138.833 46.1768 139.534 46.4154 140.279 46.5467L140.555 44.9807C139.959 44.8757 139.44 44.6912 139.038 44.4592L138.243 45.8361ZM140.279 46.5467C141.026 46.6782 141.814 46.7012 142.576 46.615L142.398 45.035C141.784 45.1044 141.15 45.0854 140.555 44.9807L140.279 46.5467ZM142.576 46.615C143.338 46.5288 144.068 46.3343 144.702 46.0367L144.026 44.5976C143.571 44.8111 143.013 44.9654 142.398 45.035L142.576 46.615ZM144.702 46.0367C144.972 45.9097 145.224 45.7641 145.453 45.6005L144.529 44.3069C144.386 44.4091 144.218 44.5073 144.026 44.5976L144.702 46.0367Z" fill="#2AC77B" mask="url(#path-15-outside-2_3109_7994)"/>
<mask id="path-17-outside-3_3109_7994" maskUnits="userSpaceOnUse" x="126.65" y="31.113" width="11.9282" height="12.6603" fill="black">
<rect fill="white" x="126.65" y="31.113" width="11.9282" height="12.6603"/>
<path fill-rule="evenodd" clip-rule="evenodd" d="M130.165 35.1861C130.618 35.4478 130.618 35.8721 130.165 36.1338C129.711 36.3954 128.976 36.3954 128.523 36.1338C128.07 35.8721 128.07 35.4478 128.523 35.1861C128.976 34.9244 129.711 34.9244 130.165 35.1861ZM131.101 37.7538C130.648 37.4921 130.648 37.0679 131.101 36.8062C131.554 36.5445 132.289 36.5445 132.743 36.8062L136.494 38.9721C136.948 39.2338 136.948 39.6581 136.494 39.9197C136.041 40.1814 135.306 40.1814 134.853 39.9197L131.101 37.7538Z"/>
</mask>
<path fill-rule="evenodd" clip-rule="evenodd" d="M130.165 35.1861C130.618 35.4478 130.618 35.8721 130.165 36.1338C129.711 36.3954 128.976 36.3954 128.523 36.1338C128.07 35.8721 128.07 35.4478 128.523 35.1861C128.976 34.9244 129.711 34.9244 130.165 35.1861ZM131.101 37.7538C130.648 37.4921 130.648 37.0679 131.101 36.8062C131.554 36.5445 132.289 36.5445 132.743 36.8062L136.494 38.9721C136.948 39.2338 136.948 39.6581 136.494 39.9197C136.041 40.1814 135.306 40.1814 134.853 39.9197L131.101 37.7538Z" fill="#3D4255"/>
<path d="M130.165 36.1338L130.47 36.6633L130.47 36.6633L130.165 36.1338ZM130.165 35.1861L130.47 34.6566L130.47 34.6566L130.165 35.1861ZM128.523 35.1861L128.217 34.6566L128.523 35.1861ZM131.101 36.8062L130.795 36.2766L130.795 36.2766L131.101 36.8062ZM131.101 37.7538L131.407 37.2242L131.101 37.7538ZM132.743 36.8062L133.048 36.2766L132.743 36.8062ZM136.494 38.9721L136.189 39.5017L136.189 39.5017L136.494 38.9721ZM136.494 39.9197L136.189 39.3902L136.189 39.3902L136.494 39.9197ZM134.853 39.9197L134.547 40.4493L134.547 40.4493L134.853 39.9197ZM129.859 35.6042C129.912 35.5734 129.924 35.5539 129.919 35.5606C129.912 35.5704 129.893 35.6054 129.893 35.6599C129.893 35.7144 129.912 35.7495 129.919 35.7592C129.924 35.766 129.912 35.7465 129.859 35.7156L130.47 34.6566C130.808 34.8517 131.116 35.193 131.116 35.6599C131.116 36.1269 130.808 36.4681 130.47 36.6633L129.859 35.6042ZM128.829 35.6042C128.941 35.6688 129.126 35.7186 129.344 35.7186C129.562 35.7186 129.747 35.6688 129.859 35.6042L130.47 36.6633C130.129 36.8604 129.72 36.9415 129.344 36.9415C128.968 36.9415 128.559 36.8604 128.217 36.6633L128.829 35.6042ZM128.829 35.7156C128.775 35.7465 128.764 35.766 128.768 35.7592C128.775 35.7495 128.795 35.7144 128.795 35.6599C128.795 35.6054 128.775 35.5704 128.768 35.5606C128.764 35.5539 128.775 35.5734 128.829 35.6042L128.217 36.6633C127.879 36.4681 127.572 36.1269 127.572 35.6599C127.572 35.193 127.879 34.8517 128.217 34.6566L128.829 35.7156ZM129.859 35.7156C129.747 35.6511 129.562 35.6013 129.344 35.6013C129.126 35.6013 128.941 35.6511 128.829 35.7156L128.217 34.6566C128.559 34.4594 128.968 34.3784 129.344 34.3784C129.72 34.3784 130.129 34.4594 130.47 34.6566L129.859 35.7156ZM131.407 37.3357C131.353 37.3665 131.342 37.3861 131.347 37.3793C131.353 37.3695 131.373 37.3345 131.373 37.28C131.373 37.2255 131.353 37.1904 131.347 37.1807C131.342 37.1739 131.353 37.1934 131.407 37.2242L130.795 38.2833C130.457 38.0882 130.15 37.7469 130.15 37.28C130.15 36.813 130.457 36.4718 130.795 36.2766L131.407 37.3357ZM132.437 37.3357C132.325 37.2712 132.14 37.2214 131.922 37.2214C131.704 37.2214 131.519 37.2712 131.407 37.3357L130.795 36.2766C131.137 36.0795 131.546 35.9985 131.922 35.9985C132.298 35.9985 132.707 36.0795 133.048 36.2766L132.437 37.3357ZM136.189 39.5017L132.437 37.3357L133.048 36.2766L136.8 38.4426L136.189 39.5017ZM136.189 39.3902C136.242 39.3594 136.254 39.3398 136.249 39.3466C136.242 39.3564 136.223 39.3914 136.223 39.4459C136.223 39.5005 136.242 39.5355 136.249 39.5452C136.254 39.552 136.242 39.5325 136.189 39.5017L136.8 38.4426C137.138 38.6377 137.446 38.979 137.446 39.4459C137.446 39.9129 137.138 40.2541 136.8 40.4493L136.189 39.3902ZM135.159 39.3902C135.271 39.4547 135.456 39.5045 135.674 39.5045C135.892 39.5045 136.077 39.4547 136.189 39.3902L136.8 40.4493C136.459 40.6464 136.05 40.7274 135.674 40.7274C135.298 40.7274 134.889 40.6464 134.547 40.4493L135.159 39.3902ZM131.407 37.2242L135.159 39.3902L134.547 40.4493L130.795 38.2833L131.407 37.2242Z" fill="#2AC77B" mask="url(#path-17-outside-3_3109_7994)"/>
<path d="M127.331 91.1969C129.011 92.1661 130.376 91.3876 130.381 89.458L130.437 67.9305C130.442 66.0008 129.085 63.6509 127.406 62.6817L108.669 51.8693C106.989 50.9001 105.624 51.6791 105.619 53.6087L105.563 75.1362C105.558 77.0659 106.915 79.4152 108.594 80.3844L127.331 91.1969Z" fill="#3D4255"/>
<path d="M127.331 91.1969L127.53 90.8526L127.331 91.1969ZM130.381 89.458L129.983 89.457L129.983 89.457L130.381 89.458ZM130.437 67.9305L130.04 67.9294L130.437 67.9305ZM127.406 62.6817L127.605 62.3374L127.406 62.6817ZM108.669 51.8693L108.47 52.2136L108.47 52.2136L108.669 51.8693ZM105.619 53.6087L106.017 53.6097L106.017 53.6097L105.619 53.6087ZM105.563 75.1362L105.165 75.1352L105.165 75.1352L105.563 75.1362ZM108.594 80.3844L108.395 80.7287L108.395 80.7287L108.594 80.3844ZM127.53 90.8526C128.297 91.2956 128.901 91.2893 129.287 91.0692C129.672 90.8496 129.981 90.3371 129.983 89.457L130.778 89.4591C130.776 90.5086 130.399 91.3501 129.681 91.7598C128.963 92.169 128.044 92.0674 127.132 91.5412L127.53 90.8526ZM129.983 89.457L130.04 67.9294L130.835 67.9315L130.778 89.4591L129.983 89.457ZM130.04 67.9294C130.042 67.0514 129.732 66.05 129.209 65.1447C128.686 64.2396 127.972 63.4676 127.207 63.026L127.605 62.3374C128.519 62.865 129.323 63.7527 129.898 64.7471C130.472 65.7415 130.838 66.8799 130.835 67.9315L130.04 67.9294ZM127.207 63.026L108.47 52.2136L108.868 51.525L127.605 62.3374L127.207 63.026ZM108.47 52.2136C107.703 51.7707 107.099 51.777 106.713 51.9972C106.328 52.2169 106.019 52.7296 106.017 53.6097L105.222 53.6077C105.224 52.5581 105.6 51.7166 106.319 51.3067C107.037 50.8973 107.956 50.9988 108.868 51.525L108.47 52.2136ZM106.017 53.6097L105.96 75.1373L105.165 75.1352L105.222 53.6077L106.017 53.6097ZM105.96 75.1373C105.958 76.0153 106.268 77.0165 106.791 77.9217C107.314 78.8267 108.028 79.5985 108.793 80.0401L108.395 80.7287C107.481 80.2011 106.677 79.3137 106.102 78.3193C105.528 77.3251 105.162 76.1868 105.165 75.1352L105.96 75.1373ZM108.793 80.0401L127.53 90.8526L127.132 91.5412L108.395 80.7287L108.793 80.0401Z" fill="#2AC77B"/>
<path d="M129.495 91.4004L134.089 88.726C134.635 88.4088 134.973 87.7343 134.975 86.7761L135.032 65.2485C135.036 63.3189 133.68 60.9687 132 60L113.263 49.1875C112.418 48.6998 111.653 48.6546 111.1 48.9759L106.509 51.6484C107.062 51.3295 127.406 62.6737 127.406 62.6737C129.086 63.6435 130.443 65.9933 130.438 67.9232C130.438 67.9232 130.04 91.0836 129.495 91.4004Z" fill="#3D4255" stroke="#2AC77B" stroke-width="0.795031"/>
<path d="M127.333 91.1951C129.013 92.1643 130.378 91.3859 130.383 89.4563L130.439 67.9287C130.444 65.9991 129.087 63.6492 127.408 62.68L108.671 51.8676C106.991 50.8984 105.626 51.6774 105.621 53.607L105.565 75.1345C105.56 77.0641 106.917 79.4135 108.596 80.3827L127.333 91.1951Z" fill="#3D4255" stroke="#2AC77B" stroke-width="0.795031"/>
<path d="M118 71.5322C116.338 70.5726 114.991 68.239 114.991 66.32C114.991 64.4009 116.338 63.6231 118 64.5827C119.662 65.5423 121.009 67.8759 121.009 69.795C121.009 71.714 119.662 72.4918 118 71.5322Z" fill="#3D4255"/>
<path d="M118.001 73.2697C121.016 75.0107 123.471 78.7635 123.472 81.6406C123.472 81.8352 123.339 81.9116 123.171 81.8143L112.831 75.8443C112.663 75.747 112.53 75.5177 112.53 75.3231C112.53 72.446 114.986 71.5288 118.001 73.2697Z" fill="#3D4255"/>
<path d="M118 71.5322C116.338 70.5726 114.991 68.239 114.991 66.32C114.991 64.4009 116.338 63.6231 118 64.5827C119.662 65.5423 121.009 67.8759 121.009 69.795C121.009 71.714 119.662 72.4918 118 71.5322Z" stroke="#2AC77B" stroke-width="0.795031"/>
<path d="M118.001 73.2697C121.016 75.0107 123.471 78.7635 123.472 81.6406C123.472 81.8352 123.339 81.9116 123.171 81.8143L112.831 75.8443C112.663 75.747 112.53 75.5177 112.53 75.3231C112.53 72.446 114.986 71.5288 118.001 73.2697Z" stroke="#2AC77B" stroke-width="0.795031"/>
<path d="M77.1775 72.5714L21.5305 62.4165L21.5 55.5L27.5 55.3775L7.99512 44.1165L8 37.5L28.0789 32.5208L50.6947 45.5778L59.5872 40.4444L77.1775 65.6929V72.5714Z" fill="#3D4255" stroke="#2AC77B" stroke-width="0.795031" stroke-linejoin="round"/>
<path d="M77.1766 65.5713L21.5295 55.4164L30.6095 50.1733L7.99414 37.1165L28.0779 25.5207L50.6937 38.5777L59.5862 33.4443L77.1766 65.5713Z" fill="#3D4255" stroke="#2AC77B" stroke-width="0.795031" stroke-linejoin="round"/>
</svg>
