<svg width="718" height="489" viewBox="0 0 718 489" fill="none" xmlns="http://www.w3.org/2000/svg">
<circle cx="353" cy="213" r="212" transform="rotate(-180 353 213)" stroke="url(#paint0_linear_7169_2199)" stroke-opacity="0.56"/>
<ellipse cx="353" cy="213" rx="154" ry="154" transform="rotate(180 353 213)" stroke="url(#paint1_linear_7169_2199)" stroke-opacity="0.56"/>
<ellipse cx="353" cy="213" rx="93" ry="93" transform="rotate(180 353 213)" stroke="url(#paint2_linear_7169_2199)" stroke-opacity="0.56"/>
<path d="M253.381 453.674V467.893H250.451V453.674H253.381ZM259.045 459.749V462.034H252.58V459.749H259.045ZM259.729 453.674V455.969H252.58V453.674H259.729ZM269.279 453.674H272.199V463.069C272.199 464.163 271.965 465.084 271.496 465.833C271.034 466.581 270.393 467.144 269.572 467.522C268.758 467.9 267.821 468.089 266.76 468.089C265.699 468.089 264.755 467.9 263.928 467.522C263.107 467.144 262.463 466.581 261.994 465.833C261.532 465.084 261.301 464.163 261.301 463.069V453.674H264.23V463.069C264.23 463.707 264.331 464.228 264.533 464.631C264.735 465.035 265.025 465.331 265.402 465.52C265.786 465.709 266.239 465.803 266.76 465.803C267.294 465.803 267.746 465.709 268.117 465.52C268.495 465.331 268.781 465.035 268.977 464.631C269.178 464.228 269.279 463.707 269.279 463.069V453.674ZM286.184 453.674V467.893H283.254L277.541 458.362V467.893H274.611V453.674H277.541L283.264 463.215V453.674H286.184ZM293.098 467.893H290.002L290.021 465.608H293.098C293.866 465.608 294.514 465.436 295.041 465.09C295.568 464.739 295.965 464.228 296.232 463.557C296.506 462.887 296.643 462.076 296.643 461.126V460.432C296.643 459.703 296.564 459.062 296.408 458.508C296.258 457.955 296.034 457.49 295.734 457.112C295.435 456.734 295.067 456.451 294.631 456.262C294.195 456.067 293.693 455.969 293.127 455.969H289.943V453.674H293.127C294.077 453.674 294.947 453.837 295.734 454.163C296.529 454.482 297.215 454.941 297.795 455.54C298.374 456.139 298.82 456.855 299.133 457.688C299.452 458.515 299.611 459.436 299.611 460.452V461.126C299.611 462.135 299.452 463.056 299.133 463.889C298.82 464.723 298.374 465.439 297.795 466.038C297.222 466.63 296.535 467.089 295.734 467.415C294.94 467.734 294.061 467.893 293.098 467.893ZM291.662 453.674V467.893H288.732V453.674H291.662ZM309.143 464.172C309.143 463.919 309.104 463.691 309.025 463.489C308.954 463.281 308.817 463.092 308.615 462.922C308.413 462.747 308.13 462.574 307.766 462.405C307.401 462.236 306.929 462.06 306.35 461.878C305.705 461.669 305.093 461.435 304.514 461.174C303.941 460.914 303.433 460.611 302.99 460.266C302.554 459.915 302.209 459.508 301.955 459.046C301.708 458.583 301.584 458.046 301.584 457.434C301.584 456.842 301.714 456.305 301.975 455.823C302.235 455.335 302.6 454.918 303.068 454.573C303.537 454.221 304.09 453.951 304.729 453.762C305.373 453.574 306.079 453.479 306.848 453.479C307.896 453.479 308.811 453.668 309.592 454.046C310.373 454.423 310.979 454.941 311.408 455.598C311.844 456.256 312.062 457.008 312.062 457.854H309.152C309.152 457.437 309.064 457.073 308.889 456.76C308.719 456.441 308.459 456.191 308.107 456.008C307.762 455.826 307.326 455.735 306.799 455.735C306.291 455.735 305.868 455.813 305.529 455.969C305.191 456.119 304.937 456.324 304.768 456.585C304.598 456.839 304.514 457.125 304.514 457.444C304.514 457.685 304.572 457.903 304.689 458.098C304.813 458.294 304.995 458.476 305.236 458.645C305.477 458.814 305.773 458.974 306.125 459.124C306.477 459.273 306.883 459.42 307.346 459.563C308.12 459.797 308.801 460.061 309.387 460.354C309.979 460.647 310.474 460.976 310.871 461.34C311.268 461.705 311.568 462.118 311.77 462.581C311.971 463.043 312.072 463.567 312.072 464.153C312.072 464.771 311.952 465.325 311.711 465.813C311.47 466.301 311.122 466.715 310.666 467.053C310.21 467.392 309.667 467.649 309.035 467.825C308.404 468.001 307.697 468.089 306.916 468.089C306.213 468.089 305.52 467.997 304.836 467.815C304.152 467.626 303.531 467.343 302.971 466.965C302.417 466.588 301.975 466.106 301.643 465.52C301.311 464.934 301.145 464.241 301.145 463.44H304.084C304.084 463.883 304.152 464.257 304.289 464.563C304.426 464.869 304.618 465.116 304.865 465.305C305.119 465.494 305.419 465.631 305.764 465.715C306.115 465.8 306.499 465.842 306.916 465.842C307.424 465.842 307.84 465.771 308.166 465.628C308.498 465.484 308.742 465.286 308.898 465.032C309.061 464.778 309.143 464.491 309.143 464.172ZM324.826 456.106L320.959 467.893H317.844L323.127 453.674H325.109L324.826 456.106ZM328.039 467.893L324.162 456.106L323.85 453.674H325.852L331.164 467.893H328.039ZM327.863 462.6V464.895H320.354V462.6H327.863ZM332.482 453.674H337.785C338.872 453.674 339.807 453.837 340.588 454.163C341.376 454.488 341.981 454.97 342.404 455.608C342.827 456.246 343.039 457.031 343.039 457.962C343.039 458.723 342.909 459.378 342.648 459.924C342.395 460.465 342.033 460.917 341.564 461.282C341.102 461.64 340.559 461.926 339.934 462.141L339.006 462.63H334.396L334.377 460.344H337.805C338.319 460.344 338.745 460.253 339.084 460.071C339.423 459.889 339.676 459.635 339.846 459.309C340.021 458.984 340.109 458.606 340.109 458.176C340.109 457.721 340.025 457.327 339.855 456.995C339.686 456.663 339.429 456.409 339.084 456.233C338.739 456.057 338.306 455.969 337.785 455.969H335.412V467.893H332.482V453.674ZM340.432 467.893L337.189 461.555L340.285 461.536L343.566 467.756V467.893H340.432ZM354.836 465.608V467.893H347.268V465.608H354.836ZM348.225 453.674V467.893H345.295V453.674H348.225ZM353.85 459.465V461.692H347.268V459.465H353.85ZM354.826 453.674V455.969H347.268V453.674H354.826ZM361.525 453.674H366.828C367.915 453.674 368.85 453.837 369.631 454.163C370.419 454.488 371.024 454.97 371.447 455.608C371.87 456.246 372.082 457.031 372.082 457.962C372.082 458.723 371.952 459.378 371.691 459.924C371.438 460.465 371.076 460.917 370.607 461.282C370.145 461.64 369.602 461.926 368.977 462.141L368.049 462.63H363.439L363.42 460.344H366.848C367.362 460.344 367.788 460.253 368.127 460.071C368.465 459.889 368.719 459.635 368.889 459.309C369.064 458.984 369.152 458.606 369.152 458.176C369.152 457.721 369.068 457.327 368.898 456.995C368.729 456.663 368.472 456.409 368.127 456.233C367.782 456.057 367.349 455.969 366.828 455.969H364.455V467.893H361.525V453.674ZM369.475 467.893L366.232 461.555L369.328 461.536L372.609 467.756V467.893H369.475ZM383.879 465.608V467.893H376.311V465.608H383.879ZM377.268 453.674V467.893H374.338V453.674H377.268ZM382.893 459.465V461.692H376.311V459.465H382.893ZM383.869 453.674V455.969H376.311V453.674H383.869ZM393.83 463.176H396.75C396.691 464.133 396.428 464.983 395.959 465.725C395.497 466.467 394.849 467.047 394.016 467.464C393.189 467.88 392.193 468.089 391.027 468.089C390.116 468.089 389.299 467.932 388.576 467.62C387.854 467.301 387.235 466.845 386.721 466.253C386.213 465.66 385.826 464.944 385.559 464.104C385.292 463.264 385.158 462.324 385.158 461.282V460.296C385.158 459.254 385.295 458.313 385.568 457.473C385.848 456.627 386.245 455.908 386.76 455.315C387.281 454.723 387.902 454.267 388.625 453.948C389.348 453.629 390.155 453.469 391.047 453.469C392.232 453.469 393.231 453.684 394.045 454.114C394.865 454.544 395.5 455.136 395.949 455.891C396.405 456.646 396.678 457.506 396.77 458.469H393.84C393.807 457.896 393.693 457.411 393.498 457.014C393.303 456.611 393.007 456.308 392.609 456.106C392.219 455.898 391.698 455.794 391.047 455.794C390.559 455.794 390.132 455.885 389.768 456.067C389.403 456.249 389.097 456.526 388.85 456.897C388.602 457.268 388.417 457.737 388.293 458.303C388.176 458.863 388.117 459.521 388.117 460.276V461.282C388.117 462.018 388.173 462.665 388.283 463.225C388.394 463.779 388.563 464.247 388.791 464.631C389.025 465.009 389.325 465.296 389.689 465.491C390.061 465.68 390.507 465.774 391.027 465.774C391.639 465.774 392.144 465.676 392.541 465.481C392.938 465.286 393.241 464.996 393.449 464.612C393.664 464.228 393.791 463.749 393.83 463.176ZM408.215 465.608V467.893H400.646V465.608H408.215ZM401.604 453.674V467.893H398.674V453.674H401.604ZM407.229 459.465V461.692H400.646V459.465H407.229ZM408.205 453.674V455.969H400.646V453.674H408.205ZM413.039 453.674V467.893H410.119V453.674H413.039ZM420.91 464.924L424.26 453.674H427.521L422.57 467.893H420.422L420.91 464.924ZM417.824 453.674L421.164 464.924L421.672 467.893H419.504L414.582 453.674H417.824ZM438.391 465.608V467.893H430.822V465.608H438.391ZM431.779 453.674V467.893H428.85V453.674H431.779ZM437.404 459.465V461.692H430.822V459.465H437.404ZM438.381 453.674V455.969H430.822V453.674H438.381ZM444.465 467.893H441.369L441.389 465.608H444.465C445.233 465.608 445.881 465.436 446.408 465.09C446.936 464.739 447.333 464.228 447.6 463.557C447.873 462.887 448.01 462.076 448.01 461.126V460.432C448.01 459.703 447.932 459.062 447.775 458.508C447.626 457.955 447.401 457.49 447.102 457.112C446.802 456.734 446.434 456.451 445.998 456.262C445.562 456.067 445.061 455.969 444.494 455.969H441.311V453.674H444.494C445.445 453.674 446.314 453.837 447.102 454.163C447.896 454.482 448.583 454.941 449.162 455.54C449.742 456.139 450.188 456.855 450.5 457.688C450.819 458.515 450.979 459.436 450.979 460.452V461.126C450.979 462.135 450.819 463.056 450.5 463.889C450.188 464.723 449.742 465.439 449.162 466.038C448.589 466.63 447.902 467.089 447.102 467.415C446.307 467.734 445.428 467.893 444.465 467.893ZM443.029 453.674V467.893H440.1V453.674H443.029ZM235.51 473.674V487.893H232.59V473.674H235.51ZM249.826 473.674V487.893H246.896L241.184 478.362V487.893H238.254V473.674H241.184L246.906 483.215V473.674H249.826ZM263.918 473.645V487.893H261.105V476.887L257.727 477.962V475.745L263.615 473.645H263.918ZM278.117 479.534V481.995C278.117 483.062 278.003 483.984 277.775 484.758C277.548 485.527 277.219 486.158 276.789 486.653C276.366 487.141 275.861 487.503 275.275 487.737C274.689 487.971 274.038 488.089 273.322 488.089C272.749 488.089 272.215 488.017 271.721 487.874C271.226 487.724 270.78 487.493 270.383 487.18C269.992 486.868 269.654 486.474 269.367 485.999C269.087 485.517 268.872 484.944 268.723 484.28C268.573 483.616 268.498 482.854 268.498 481.995V479.534C268.498 478.466 268.612 477.551 268.84 476.79C269.074 476.021 269.403 475.393 269.826 474.905C270.256 474.417 270.764 474.059 271.35 473.831C271.936 473.596 272.587 473.479 273.303 473.479C273.876 473.479 274.406 473.554 274.895 473.704C275.389 473.847 275.835 474.072 276.232 474.378C276.63 474.684 276.968 475.077 277.248 475.559C277.528 476.034 277.743 476.604 277.893 477.268C278.042 477.926 278.117 478.681 278.117 479.534ZM275.295 482.366V479.153C275.295 478.639 275.266 478.189 275.207 477.805C275.155 477.421 275.074 477.096 274.963 476.829C274.852 476.555 274.715 476.334 274.553 476.165C274.39 475.995 274.204 475.872 273.996 475.794C273.788 475.715 273.557 475.676 273.303 475.676C272.984 475.676 272.701 475.738 272.453 475.862C272.212 475.986 272.007 476.184 271.838 476.458C271.669 476.725 271.538 477.083 271.447 477.532C271.363 477.975 271.32 478.515 271.32 479.153V482.366C271.32 482.88 271.346 483.333 271.398 483.723C271.457 484.114 271.542 484.449 271.652 484.729C271.77 485.003 271.906 485.227 272.062 485.403C272.225 485.572 272.411 485.696 272.619 485.774C272.834 485.852 273.068 485.891 273.322 485.891C273.635 485.891 273.911 485.829 274.152 485.706C274.4 485.575 274.608 485.374 274.777 485.1C274.953 484.82 275.083 484.456 275.168 484.006C275.253 483.557 275.295 483.01 275.295 482.366ZM292.707 484.172C292.707 483.919 292.668 483.691 292.59 483.489C292.518 483.281 292.382 483.092 292.18 482.922C291.978 482.747 291.695 482.574 291.33 482.405C290.965 482.236 290.493 482.06 289.914 481.878C289.27 481.669 288.658 481.435 288.078 481.174C287.505 480.914 286.997 480.611 286.555 480.266C286.118 479.915 285.773 479.508 285.52 479.046C285.272 478.583 285.148 478.046 285.148 477.434C285.148 476.842 285.279 476.305 285.539 475.823C285.799 475.335 286.164 474.918 286.633 474.573C287.102 474.221 287.655 473.951 288.293 473.762C288.938 473.574 289.644 473.479 290.412 473.479C291.46 473.479 292.375 473.668 293.156 474.046C293.938 474.423 294.543 474.941 294.973 475.598C295.409 476.256 295.627 477.008 295.627 477.854H292.717C292.717 477.437 292.629 477.073 292.453 476.76C292.284 476.441 292.023 476.191 291.672 476.008C291.327 475.826 290.891 475.735 290.363 475.735C289.855 475.735 289.432 475.813 289.094 475.969C288.755 476.119 288.501 476.324 288.332 476.585C288.163 476.839 288.078 477.125 288.078 477.444C288.078 477.685 288.137 477.903 288.254 478.098C288.378 478.294 288.56 478.476 288.801 478.645C289.042 478.814 289.338 478.974 289.689 479.124C290.041 479.273 290.448 479.42 290.91 479.563C291.685 479.797 292.365 480.061 292.951 480.354C293.544 480.647 294.038 480.976 294.436 481.34C294.833 481.705 295.132 482.118 295.334 482.581C295.536 483.043 295.637 483.567 295.637 484.153C295.637 484.771 295.516 485.325 295.275 485.813C295.035 486.301 294.686 486.715 294.23 487.053C293.775 487.392 293.231 487.649 292.6 487.825C291.968 488.001 291.262 488.089 290.48 488.089C289.777 488.089 289.084 487.997 288.4 487.815C287.717 487.626 287.095 487.343 286.535 486.965C285.982 486.588 285.539 486.106 285.207 485.52C284.875 484.934 284.709 484.241 284.709 483.44H287.648C287.648 483.883 287.717 484.257 287.854 484.563C287.99 484.869 288.182 485.116 288.43 485.305C288.684 485.494 288.983 485.631 289.328 485.715C289.68 485.8 290.064 485.842 290.48 485.842C290.988 485.842 291.405 485.771 291.73 485.628C292.062 485.484 292.307 485.286 292.463 485.032C292.626 484.778 292.707 484.491 292.707 484.172ZM307.17 485.608V487.893H299.602V485.608H307.17ZM300.559 473.674V487.893H297.629V473.674H300.559ZM306.184 479.465V481.692H299.602V479.465H306.184ZM307.16 473.674V475.969H299.602V473.674H307.16ZM317.121 483.176H320.041C319.982 484.133 319.719 484.983 319.25 485.725C318.788 486.467 318.14 487.047 317.307 487.464C316.48 487.88 315.484 488.089 314.318 488.089C313.407 488.089 312.59 487.932 311.867 487.62C311.145 487.301 310.526 486.845 310.012 486.253C309.504 485.66 309.117 484.944 308.85 484.104C308.583 483.264 308.449 482.324 308.449 481.282V480.296C308.449 479.254 308.586 478.313 308.859 477.473C309.139 476.627 309.536 475.908 310.051 475.315C310.572 474.723 311.193 474.267 311.916 473.948C312.639 473.629 313.446 473.469 314.338 473.469C315.523 473.469 316.522 473.684 317.336 474.114C318.156 474.544 318.791 475.136 319.24 475.891C319.696 476.646 319.969 477.506 320.061 478.469H317.131C317.098 477.896 316.984 477.411 316.789 477.014C316.594 476.611 316.298 476.308 315.9 476.106C315.51 475.898 314.989 475.794 314.338 475.794C313.85 475.794 313.423 475.885 313.059 476.067C312.694 476.249 312.388 476.526 312.141 476.897C311.893 477.268 311.708 477.737 311.584 478.303C311.467 478.863 311.408 479.521 311.408 480.276V481.282C311.408 482.018 311.464 482.665 311.574 483.225C311.685 483.779 311.854 484.247 312.082 484.631C312.316 485.009 312.616 485.296 312.98 485.491C313.352 485.68 313.798 485.774 314.318 485.774C314.93 485.774 315.435 485.676 315.832 485.481C316.229 485.286 316.532 484.996 316.74 484.612C316.955 484.228 317.082 483.749 317.121 483.176ZM333.645 480.452V481.126C333.645 482.206 333.498 483.176 333.205 484.036C332.912 484.895 332.499 485.628 331.965 486.233C331.431 486.832 330.793 487.291 330.051 487.61C329.315 487.929 328.498 488.089 327.6 488.089C326.708 488.089 325.891 487.929 325.148 487.61C324.413 487.291 323.775 486.832 323.234 486.233C322.694 485.628 322.274 484.895 321.975 484.036C321.682 483.176 321.535 482.206 321.535 481.126V480.452C321.535 479.365 321.682 478.394 321.975 477.542C322.268 476.682 322.681 475.95 323.215 475.344C323.755 474.739 324.393 474.277 325.129 473.958C325.871 473.639 326.688 473.479 327.58 473.479C328.479 473.479 329.296 473.639 330.031 473.958C330.773 474.277 331.411 474.739 331.945 475.344C332.486 475.95 332.902 476.682 333.195 477.542C333.495 478.394 333.645 479.365 333.645 480.452ZM330.686 481.126V480.432C330.686 479.677 330.617 479.013 330.48 478.44C330.344 477.867 330.142 477.385 329.875 476.995C329.608 476.604 329.283 476.311 328.898 476.116C328.514 475.914 328.075 475.813 327.58 475.813C327.085 475.813 326.646 475.914 326.262 476.116C325.884 476.311 325.562 476.604 325.295 476.995C325.035 477.385 324.836 477.867 324.699 478.44C324.562 479.013 324.494 479.677 324.494 480.432V481.126C324.494 481.874 324.562 482.538 324.699 483.118C324.836 483.691 325.038 484.176 325.305 484.573C325.572 484.964 325.897 485.26 326.281 485.462C326.665 485.663 327.105 485.764 327.6 485.764C328.094 485.764 328.534 485.663 328.918 485.462C329.302 485.26 329.624 484.964 329.885 484.573C330.145 484.176 330.344 483.691 330.48 483.118C330.617 482.538 330.686 481.874 330.686 481.126ZM347.326 473.674V487.893H344.396L338.684 478.362V487.893H335.754V473.674H338.684L344.406 483.215V473.674H347.326ZM354.24 487.893H351.145L351.164 485.608H354.24C355.008 485.608 355.656 485.436 356.184 485.09C356.711 484.739 357.108 484.228 357.375 483.557C357.648 482.887 357.785 482.076 357.785 481.126V480.432C357.785 479.703 357.707 479.062 357.551 478.508C357.401 477.955 357.176 477.49 356.877 477.112C356.577 476.734 356.21 476.451 355.773 476.262C355.337 476.067 354.836 475.969 354.27 475.969H351.086V473.674H354.27C355.22 473.674 356.089 473.837 356.877 474.163C357.671 474.482 358.358 474.941 358.938 475.54C359.517 476.139 359.963 476.855 360.275 477.688C360.594 478.515 360.754 479.436 360.754 480.452V481.126C360.754 482.135 360.594 483.056 360.275 483.889C359.963 484.723 359.517 485.439 358.938 486.038C358.365 486.63 357.678 487.089 356.877 487.415C356.083 487.734 355.204 487.893 354.24 487.893ZM352.805 473.674V487.893H349.875V473.674H352.805ZM370.285 484.172C370.285 483.919 370.246 483.691 370.168 483.489C370.096 483.281 369.96 483.092 369.758 482.922C369.556 482.747 369.273 482.574 368.908 482.405C368.544 482.236 368.072 482.06 367.492 481.878C366.848 481.669 366.236 481.435 365.656 481.174C365.083 480.914 364.576 480.611 364.133 480.266C363.697 479.915 363.352 479.508 363.098 479.046C362.85 478.583 362.727 478.046 362.727 477.434C362.727 476.842 362.857 476.305 363.117 475.823C363.378 475.335 363.742 474.918 364.211 474.573C364.68 474.221 365.233 473.951 365.871 473.762C366.516 473.574 367.222 473.479 367.99 473.479C369.038 473.479 369.953 473.668 370.734 474.046C371.516 474.423 372.121 474.941 372.551 475.598C372.987 476.256 373.205 477.008 373.205 477.854H370.295C370.295 477.437 370.207 477.073 370.031 476.76C369.862 476.441 369.602 476.191 369.25 476.008C368.905 475.826 368.469 475.735 367.941 475.735C367.434 475.735 367.01 475.813 366.672 475.969C366.333 476.119 366.079 476.324 365.91 476.585C365.741 476.839 365.656 477.125 365.656 477.444C365.656 477.685 365.715 477.903 365.832 478.098C365.956 478.294 366.138 478.476 366.379 478.645C366.62 478.814 366.916 478.974 367.268 479.124C367.619 479.273 368.026 479.42 368.488 479.563C369.263 479.797 369.943 480.061 370.529 480.354C371.122 480.647 371.617 480.976 372.014 481.34C372.411 481.705 372.71 482.118 372.912 482.581C373.114 483.043 373.215 483.567 373.215 484.153C373.215 484.771 373.094 485.325 372.854 485.813C372.613 486.301 372.264 486.715 371.809 487.053C371.353 487.392 370.809 487.649 370.178 487.825C369.546 488.001 368.84 488.089 368.059 488.089C367.355 488.089 366.662 487.997 365.979 487.815C365.295 487.626 364.673 487.343 364.113 486.965C363.56 486.588 363.117 486.106 362.785 485.52C362.453 484.934 362.287 484.241 362.287 483.44H365.227C365.227 483.883 365.295 484.257 365.432 484.563C365.568 484.869 365.76 485.116 366.008 485.305C366.262 485.494 366.561 485.631 366.906 485.715C367.258 485.8 367.642 485.842 368.059 485.842C368.566 485.842 368.983 485.771 369.309 485.628C369.641 485.484 369.885 485.286 370.041 485.032C370.204 484.778 370.285 484.491 370.285 484.172ZM391.867 480.452V481.126C391.867 482.206 391.721 483.176 391.428 484.036C391.135 484.895 390.721 485.628 390.188 486.233C389.654 486.832 389.016 487.291 388.273 487.61C387.538 487.929 386.721 488.089 385.822 488.089C384.93 488.089 384.113 487.929 383.371 487.61C382.635 487.291 381.997 486.832 381.457 486.233C380.917 485.628 380.497 484.895 380.197 484.036C379.904 483.176 379.758 482.206 379.758 481.126V480.452C379.758 479.365 379.904 478.394 380.197 477.542C380.49 476.682 380.904 475.95 381.438 475.344C381.978 474.739 382.616 474.277 383.352 473.958C384.094 473.639 384.911 473.479 385.803 473.479C386.701 473.479 387.518 473.639 388.254 473.958C388.996 474.277 389.634 474.739 390.168 475.344C390.708 475.95 391.125 476.682 391.418 477.542C391.717 478.394 391.867 479.365 391.867 480.452ZM388.908 481.126V480.432C388.908 479.677 388.84 479.013 388.703 478.44C388.566 477.867 388.365 477.385 388.098 476.995C387.831 476.604 387.505 476.311 387.121 476.116C386.737 475.914 386.298 475.813 385.803 475.813C385.308 475.813 384.868 475.914 384.484 476.116C384.107 476.311 383.785 476.604 383.518 476.995C383.257 477.385 383.059 477.867 382.922 478.44C382.785 479.013 382.717 479.677 382.717 480.432V481.126C382.717 481.874 382.785 482.538 382.922 483.118C383.059 483.691 383.26 484.176 383.527 484.573C383.794 484.964 384.12 485.26 384.504 485.462C384.888 485.663 385.327 485.764 385.822 485.764C386.317 485.764 386.757 485.663 387.141 485.462C387.525 485.26 387.847 484.964 388.107 484.573C388.368 484.176 388.566 483.691 388.703 483.118C388.84 482.538 388.908 481.874 388.908 481.126ZM393.977 473.674H399.279C400.367 473.674 401.301 473.837 402.082 474.163C402.87 474.488 403.475 474.97 403.898 475.608C404.322 476.246 404.533 477.031 404.533 477.962C404.533 478.723 404.403 479.378 404.143 479.924C403.889 480.465 403.527 480.917 403.059 481.282C402.596 481.64 402.053 481.926 401.428 482.141L400.5 482.63H395.891L395.871 480.344H399.299C399.813 480.344 400.24 480.253 400.578 480.071C400.917 479.889 401.171 479.635 401.34 479.309C401.516 478.984 401.604 478.606 401.604 478.176C401.604 477.721 401.519 477.327 401.35 476.995C401.18 476.663 400.923 476.409 400.578 476.233C400.233 476.057 399.8 475.969 399.279 475.969H396.906V487.893H393.977V473.674ZM401.926 487.893L398.684 481.555L401.779 481.536L405.061 487.756V487.893H401.926ZM419.621 473.674H422.541V483.069C422.541 484.163 422.307 485.084 421.838 485.833C421.376 486.581 420.734 487.144 419.914 487.522C419.1 487.9 418.163 488.089 417.102 488.089C416.04 488.089 415.096 487.9 414.27 487.522C413.449 487.144 412.805 486.581 412.336 485.833C411.874 485.084 411.643 484.163 411.643 483.069V473.674H414.572V483.069C414.572 483.707 414.673 484.228 414.875 484.631C415.077 485.035 415.367 485.331 415.744 485.52C416.128 485.709 416.581 485.803 417.102 485.803C417.635 485.803 418.088 485.709 418.459 485.52C418.837 485.331 419.123 485.035 419.318 484.631C419.52 484.228 419.621 483.707 419.621 483.069V473.674ZM436.525 473.674V487.893H433.596L427.883 478.362V487.893H424.953V473.674H427.883L433.605 483.215V473.674H436.525ZM443.439 487.893H440.344L440.363 485.608H443.439C444.208 485.608 444.855 485.436 445.383 485.09C445.91 484.739 446.307 484.228 446.574 483.557C446.848 482.887 446.984 482.076 446.984 481.126V480.432C446.984 479.703 446.906 479.062 446.75 478.508C446.6 477.955 446.376 477.49 446.076 477.112C445.777 476.734 445.409 476.451 444.973 476.262C444.536 476.067 444.035 475.969 443.469 475.969H440.285V473.674H443.469C444.419 473.674 445.288 473.837 446.076 474.163C446.87 474.482 447.557 474.941 448.137 475.54C448.716 476.139 449.162 476.855 449.475 477.688C449.794 478.515 449.953 479.436 449.953 480.452V481.126C449.953 482.135 449.794 483.056 449.475 483.889C449.162 484.723 448.716 485.439 448.137 486.038C447.564 486.63 446.877 487.089 446.076 487.415C445.282 487.734 444.403 487.893 443.439 487.893ZM442.004 473.674V487.893H439.074V473.674H442.004ZM461.623 485.608V487.893H454.055V485.608H461.623ZM455.012 473.674V487.893H452.082V473.674H455.012ZM460.637 479.465V481.692H454.055V479.465H460.637ZM461.613 473.674V475.969H454.055V473.674H461.613ZM463.332 473.674H468.635C469.722 473.674 470.656 473.837 471.438 474.163C472.225 474.488 472.831 474.97 473.254 475.608C473.677 476.246 473.889 477.031 473.889 477.962C473.889 478.723 473.758 479.378 473.498 479.924C473.244 480.465 472.883 480.917 472.414 481.282C471.952 481.64 471.408 481.926 470.783 482.141L469.855 482.63H465.246L465.227 480.344H468.654C469.169 480.344 469.595 480.253 469.934 480.071C470.272 479.889 470.526 479.635 470.695 479.309C470.871 478.984 470.959 478.606 470.959 478.176C470.959 477.721 470.874 477.327 470.705 476.995C470.536 476.663 470.279 476.409 469.934 476.233C469.589 476.057 469.156 475.969 468.635 475.969H466.262V487.893H463.332V473.674ZM471.281 487.893L468.039 481.555L471.135 481.536L474.416 487.756V487.893H471.281Z" fill="#2AC77B"/>
<path d="M58.9648 360.559V361.232C58.9648 362.313 58.8184 363.283 58.5254 364.143C58.2324 365.002 57.819 365.734 57.2852 366.34C56.7513 366.939 56.1133 367.398 55.3711 367.717C54.6354 368.036 53.8184 368.195 52.9199 368.195C52.028 368.195 51.2109 368.036 50.4688 367.717C49.7331 367.398 49.0951 366.939 48.5547 366.34C48.0143 365.734 47.5944 365.002 47.2949 364.143C47.002 363.283 46.8555 362.313 46.8555 361.232V360.559C46.8555 359.471 47.002 358.501 47.2949 357.648C47.5879 356.789 48.0013 356.057 48.5352 355.451C49.0755 354.846 49.7135 354.383 50.4492 354.064C51.1914 353.745 52.0085 353.586 52.9004 353.586C53.7988 353.586 54.6159 353.745 55.3516 354.064C56.0938 354.383 56.7318 354.846 57.2656 355.451C57.806 356.057 58.2227 356.789 58.5156 357.648C58.8151 358.501 58.9648 359.471 58.9648 360.559ZM56.0059 361.232V360.539C56.0059 359.784 55.9375 359.12 55.8008 358.547C55.6641 357.974 55.4622 357.492 55.1953 357.102C54.9284 356.711 54.6029 356.418 54.2188 356.223C53.8346 356.021 53.3952 355.92 52.9004 355.92C52.4056 355.92 51.9661 356.021 51.582 356.223C51.2044 356.418 50.8822 356.711 50.6152 357.102C50.3548 357.492 50.1562 357.974 50.0195 358.547C49.8828 359.12 49.8145 359.784 49.8145 360.539V361.232C49.8145 361.981 49.8828 362.645 50.0195 363.225C50.1562 363.798 50.3581 364.283 50.625 364.68C50.8919 365.07 51.2174 365.367 51.6016 365.568C51.9857 365.77 52.4251 365.871 52.9199 365.871C53.4147 365.871 53.8542 365.77 54.2383 365.568C54.6224 365.367 54.9447 365.07 55.2051 364.68C55.4655 364.283 55.6641 363.798 55.8008 363.225C55.9375 362.645 56.0059 361.981 56.0059 361.232ZM68.9258 353.781H71.8457V363.176C71.8457 364.27 71.6113 365.191 71.1426 365.939C70.6803 366.688 70.0391 367.251 69.2188 367.629C68.4049 368.007 67.4674 368.195 66.4062 368.195C65.3451 368.195 64.401 368.007 63.5742 367.629C62.7539 367.251 62.1094 366.688 61.6406 365.939C61.1784 365.191 60.9473 364.27 60.9473 363.176V353.781H63.877V363.176C63.877 363.814 63.9779 364.335 64.1797 364.738C64.3815 365.142 64.6712 365.438 65.0488 365.627C65.4329 365.816 65.8854 365.91 66.4062 365.91C66.9401 365.91 67.3926 365.816 67.7637 365.627C68.1413 365.438 68.4277 365.142 68.623 364.738C68.8249 364.335 68.9258 363.814 68.9258 363.176V353.781ZM80.6152 353.781V368H77.6953V353.781H80.6152ZM84.9902 353.781V356.076H73.3887V353.781H84.9902ZM93.9062 364.279C93.9062 364.025 93.8672 363.798 93.7891 363.596C93.7174 363.387 93.5807 363.199 93.3789 363.029C93.1771 362.854 92.8939 362.681 92.5293 362.512C92.1647 362.342 91.6927 362.167 91.1133 361.984C90.4688 361.776 89.8568 361.542 89.2773 361.281C88.7044 361.021 88.1966 360.718 87.7539 360.373C87.3177 360.021 86.9727 359.615 86.7188 359.152C86.4714 358.69 86.3477 358.153 86.3477 357.541C86.3477 356.949 86.4779 356.411 86.7383 355.93C86.9987 355.441 87.3633 355.025 87.832 354.68C88.3008 354.328 88.8542 354.058 89.4922 353.869C90.1367 353.68 90.8431 353.586 91.6113 353.586C92.6595 353.586 93.5742 353.775 94.3555 354.152C95.1367 354.53 95.7422 355.048 96.1719 355.705C96.6081 356.363 96.8262 357.115 96.8262 357.961H93.916C93.916 357.544 93.8281 357.18 93.6523 356.867C93.4831 356.548 93.2227 356.298 92.8711 356.115C92.526 355.933 92.0898 355.842 91.5625 355.842C91.0547 355.842 90.6315 355.92 90.293 356.076C89.9544 356.226 89.7005 356.431 89.5312 356.691C89.362 356.945 89.2773 357.232 89.2773 357.551C89.2773 357.792 89.3359 358.01 89.4531 358.205C89.5768 358.4 89.7591 358.583 90 358.752C90.2409 358.921 90.5371 359.081 90.8887 359.23C91.2402 359.38 91.6471 359.527 92.1094 359.67C92.8841 359.904 93.5645 360.168 94.1504 360.461C94.7428 360.754 95.2376 361.083 95.6348 361.447C96.0319 361.812 96.3314 362.225 96.5332 362.688C96.735 363.15 96.8359 363.674 96.8359 364.26C96.8359 364.878 96.7155 365.432 96.4746 365.92C96.2337 366.408 95.8854 366.822 95.4297 367.16C94.974 367.499 94.4303 367.756 93.7988 367.932C93.1673 368.107 92.4609 368.195 91.6797 368.195C90.9766 368.195 90.2832 368.104 89.5996 367.922C88.916 367.733 88.2943 367.45 87.7344 367.072C87.181 366.695 86.7383 366.213 86.4062 365.627C86.0742 365.041 85.9082 364.348 85.9082 363.547H88.8477C88.8477 363.99 88.916 364.364 89.0527 364.67C89.1895 364.976 89.3815 365.223 89.6289 365.412C89.8828 365.601 90.1823 365.738 90.5273 365.822C90.8789 365.907 91.263 365.949 91.6797 365.949C92.1875 365.949 92.6042 365.878 92.9297 365.734C93.2617 365.591 93.5059 365.393 93.6621 365.139C93.8249 364.885 93.9062 364.598 93.9062 364.279ZM101.943 353.781V368H99.0234V353.781H101.943ZM109.053 368H105.957L105.977 365.715H109.053C109.821 365.715 110.469 365.542 110.996 365.197C111.523 364.846 111.921 364.335 112.188 363.664C112.461 362.993 112.598 362.183 112.598 361.232V360.539C112.598 359.81 112.52 359.169 112.363 358.615C112.214 358.062 111.989 357.596 111.689 357.219C111.39 356.841 111.022 356.558 110.586 356.369C110.15 356.174 109.648 356.076 109.082 356.076H105.898V353.781H109.082C110.033 353.781 110.902 353.944 111.689 354.27C112.484 354.589 113.171 355.048 113.75 355.646C114.329 356.245 114.775 356.962 115.088 357.795C115.407 358.622 115.566 359.543 115.566 360.559V361.232C115.566 362.242 115.407 363.163 115.088 363.996C114.775 364.829 114.329 365.546 113.75 366.145C113.177 366.737 112.49 367.196 111.689 367.521C110.895 367.84 110.016 368 109.053 368ZM107.617 353.781V368H104.688V353.781H107.617ZM127.236 365.715V368H119.668V365.715H127.236ZM120.625 353.781V368H117.695V353.781H120.625ZM126.25 359.572V361.799H119.668V359.572H126.25ZM127.227 353.781V356.076H119.668V353.781H127.227ZM142.168 363.283H145.088C145.029 364.24 144.766 365.09 144.297 365.832C143.835 366.574 143.187 367.154 142.354 367.57C141.527 367.987 140.531 368.195 139.365 368.195C138.454 368.195 137.637 368.039 136.914 367.727C136.191 367.408 135.573 366.952 135.059 366.359C134.551 365.767 134.163 365.051 133.896 364.211C133.63 363.371 133.496 362.43 133.496 361.389V360.402C133.496 359.361 133.633 358.42 133.906 357.58C134.186 356.734 134.583 356.014 135.098 355.422C135.618 354.829 136.24 354.374 136.963 354.055C137.686 353.736 138.493 353.576 139.385 353.576C140.57 353.576 141.569 353.791 142.383 354.221C143.203 354.65 143.838 355.243 144.287 355.998C144.743 356.753 145.016 357.613 145.107 358.576H142.178C142.145 358.003 142.031 357.518 141.836 357.121C141.641 356.717 141.344 356.415 140.947 356.213C140.557 356.005 140.036 355.9 139.385 355.9C138.896 355.9 138.47 355.992 138.105 356.174C137.741 356.356 137.435 356.633 137.188 357.004C136.94 357.375 136.755 357.844 136.631 358.41C136.514 358.97 136.455 359.628 136.455 360.383V361.389C136.455 362.124 136.51 362.772 136.621 363.332C136.732 363.885 136.901 364.354 137.129 364.738C137.363 365.116 137.663 365.402 138.027 365.598C138.398 365.786 138.844 365.881 139.365 365.881C139.977 365.881 140.482 365.783 140.879 365.588C141.276 365.393 141.579 365.103 141.787 364.719C142.002 364.335 142.129 363.856 142.168 363.283ZM152.793 356.213L148.926 368H145.811L151.094 353.781H153.076L152.793 356.213ZM156.006 368L152.129 356.213L151.816 353.781H153.818L159.131 368H156.006ZM155.83 362.707V365.002H148.32V362.707H155.83ZM160.449 353.781H165.752C166.839 353.781 167.773 353.944 168.555 354.27C169.342 354.595 169.948 355.077 170.371 355.715C170.794 356.353 171.006 357.137 171.006 358.068C171.006 358.83 170.876 359.484 170.615 360.031C170.361 360.572 170 361.024 169.531 361.389C169.069 361.747 168.525 362.033 167.9 362.248L166.973 362.736H162.363L162.344 360.451H165.771C166.286 360.451 166.712 360.36 167.051 360.178C167.389 359.995 167.643 359.742 167.812 359.416C167.988 359.09 168.076 358.713 168.076 358.283C168.076 357.827 167.992 357.434 167.822 357.102C167.653 356.77 167.396 356.516 167.051 356.34C166.706 356.164 166.273 356.076 165.752 356.076H163.379V368H160.449V353.781ZM168.398 368L165.156 361.662L168.252 361.643L171.533 367.863V368H168.398ZM177.627 368H174.531L174.551 365.715H177.627C178.395 365.715 179.043 365.542 179.57 365.197C180.098 364.846 180.495 364.335 180.762 363.664C181.035 362.993 181.172 362.183 181.172 361.232V360.539C181.172 359.81 181.094 359.169 180.938 358.615C180.788 358.062 180.563 357.596 180.264 357.219C179.964 356.841 179.596 356.558 179.16 356.369C178.724 356.174 178.223 356.076 177.656 356.076H174.473V353.781H177.656C178.607 353.781 179.476 353.944 180.264 354.27C181.058 354.589 181.745 355.048 182.324 355.646C182.904 356.245 183.35 356.962 183.662 357.795C183.981 358.622 184.141 359.543 184.141 360.559V361.232C184.141 362.242 183.981 363.163 183.662 363.996C183.35 364.829 182.904 365.546 182.324 366.145C181.751 366.737 181.064 367.196 180.264 367.521C179.469 367.84 178.59 368 177.627 368ZM176.191 353.781V368H173.262V353.781H176.191ZM30.3418 373.781V388H27.4121L21.6992 378.469V388H18.7695V373.781H21.6992L27.4219 383.322V373.781H30.3418ZM42.4316 385.715V388H34.8633V385.715H42.4316ZM35.8203 373.781V388H32.8906V373.781H35.8203ZM41.4453 379.572V381.799H34.8633V379.572H41.4453ZM42.4219 373.781V376.076H34.8633V373.781H42.4219ZM50.6934 373.781V388H47.7734V373.781H50.6934ZM55.0684 373.781V376.076H43.4668V373.781H55.0684ZM60.3223 385.744L63.1543 373.781H64.7363L65.0977 375.773L62.0801 388H60.3809L60.3223 385.744ZM58.8672 373.781L61.2109 385.744L61.0156 388H59.1211L55.9668 373.781H58.8672ZM67.5879 385.695L69.9023 373.781H72.8027L69.6582 388H67.7637L67.5879 385.695ZM65.625 373.781L68.4766 385.793L68.3984 388H66.6992L63.6621 375.764L64.0527 373.781H65.625ZM86.0742 380.559V381.232C86.0742 382.313 85.9277 383.283 85.6348 384.143C85.3418 385.002 84.9284 385.734 84.3945 386.34C83.8607 386.939 83.2227 387.398 82.4805 387.717C81.7448 388.036 80.9277 388.195 80.0293 388.195C79.1374 388.195 78.3203 388.036 77.5781 387.717C76.8424 387.398 76.2044 386.939 75.6641 386.34C75.1237 385.734 74.7038 385.002 74.4043 384.143C74.1113 383.283 73.9648 382.313 73.9648 381.232V380.559C73.9648 379.471 74.1113 378.501 74.4043 377.648C74.6973 376.789 75.1107 376.057 75.6445 375.451C76.1849 374.846 76.8229 374.383 77.5586 374.064C78.3008 373.745 79.1178 373.586 80.0098 373.586C80.9082 373.586 81.7253 373.745 82.4609 374.064C83.2031 374.383 83.8411 374.846 84.375 375.451C84.9154 376.057 85.332 376.789 85.625 377.648C85.9245 378.501 86.0742 379.471 86.0742 380.559ZM83.1152 381.232V380.539C83.1152 379.784 83.0469 379.12 82.9102 378.547C82.7734 377.974 82.5716 377.492 82.3047 377.102C82.0378 376.711 81.7122 376.418 81.3281 376.223C80.944 376.021 80.5046 375.92 80.0098 375.92C79.515 375.92 79.0755 376.021 78.6914 376.223C78.3138 376.418 77.9915 376.711 77.7246 377.102C77.4642 377.492 77.2656 377.974 77.1289 378.547C76.9922 379.12 76.9238 379.784 76.9238 380.539V381.232C76.9238 381.981 76.9922 382.645 77.1289 383.225C77.2656 383.798 77.4674 384.283 77.7344 384.68C78.0013 385.07 78.3268 385.367 78.7109 385.568C79.0951 385.77 79.5345 385.871 80.0293 385.871C80.5241 385.871 80.9635 385.77 81.3477 385.568C81.7318 385.367 82.054 385.07 82.3145 384.68C82.5749 384.283 82.7734 383.798 82.9102 383.225C83.0469 382.645 83.1152 381.981 83.1152 381.232ZM88.1836 373.781H93.4863C94.5736 373.781 95.5078 373.944 96.2891 374.27C97.0768 374.595 97.6823 375.077 98.1055 375.715C98.5286 376.353 98.7402 377.137 98.7402 378.068C98.7402 378.83 98.61 379.484 98.3496 380.031C98.0957 380.572 97.7344 381.024 97.2656 381.389C96.8034 381.747 96.2598 382.033 95.6348 382.248L94.707 382.736H90.0977L90.0781 380.451H93.5059C94.0202 380.451 94.4466 380.36 94.7852 380.178C95.1237 379.995 95.3776 379.742 95.5469 379.416C95.7227 379.09 95.8105 378.713 95.8105 378.283C95.8105 377.827 95.7259 377.434 95.5566 377.102C95.3874 376.77 95.1302 376.516 94.7852 376.34C94.4401 376.164 94.0072 376.076 93.4863 376.076H91.1133V388H88.1836V373.781ZM96.1328 388L92.8906 381.662L95.9863 381.643L99.2676 387.863V388H96.1328ZM103.926 373.781V388H100.996V373.781H103.926ZM112.441 373.781L106.807 380.803L103.555 384.299L103.027 381.525L105.225 378.518L108.848 373.781H112.441ZM109.111 388L104.922 381.428L107.09 379.611L112.578 388H109.111ZM121.113 384.279C121.113 384.025 121.074 383.798 120.996 383.596C120.924 383.387 120.788 383.199 120.586 383.029C120.384 382.854 120.101 382.681 119.736 382.512C119.372 382.342 118.9 382.167 118.32 381.984C117.676 381.776 117.064 381.542 116.484 381.281C115.911 381.021 115.404 380.718 114.961 380.373C114.525 380.021 114.18 379.615 113.926 379.152C113.678 378.69 113.555 378.153 113.555 377.541C113.555 376.949 113.685 376.411 113.945 375.93C114.206 375.441 114.57 375.025 115.039 374.68C115.508 374.328 116.061 374.058 116.699 373.869C117.344 373.68 118.05 373.586 118.818 373.586C119.867 373.586 120.781 373.775 121.562 374.152C122.344 374.53 122.949 375.048 123.379 375.705C123.815 376.363 124.033 377.115 124.033 377.961H121.123C121.123 377.544 121.035 377.18 120.859 376.867C120.69 376.548 120.43 376.298 120.078 376.115C119.733 375.933 119.297 375.842 118.77 375.842C118.262 375.842 117.839 375.92 117.5 376.076C117.161 376.226 116.908 376.431 116.738 376.691C116.569 376.945 116.484 377.232 116.484 377.551C116.484 377.792 116.543 378.01 116.66 378.205C116.784 378.4 116.966 378.583 117.207 378.752C117.448 378.921 117.744 379.081 118.096 379.23C118.447 379.38 118.854 379.527 119.316 379.67C120.091 379.904 120.771 380.168 121.357 380.461C121.95 380.754 122.445 381.083 122.842 381.447C123.239 381.812 123.538 382.225 123.74 382.688C123.942 383.15 124.043 383.674 124.043 384.26C124.043 384.878 123.923 385.432 123.682 385.92C123.441 386.408 123.092 386.822 122.637 387.16C122.181 387.499 121.637 387.756 121.006 387.932C120.374 388.107 119.668 388.195 118.887 388.195C118.184 388.195 117.49 388.104 116.807 387.922C116.123 387.733 115.501 387.45 114.941 387.072C114.388 386.695 113.945 386.213 113.613 385.627C113.281 385.041 113.115 384.348 113.115 383.547H116.055C116.055 383.99 116.123 384.364 116.26 384.67C116.396 384.976 116.589 385.223 116.836 385.412C117.09 385.601 117.389 385.738 117.734 385.822C118.086 385.907 118.47 385.949 118.887 385.949C119.395 385.949 119.811 385.878 120.137 385.734C120.469 385.591 120.713 385.393 120.869 385.139C121.032 384.885 121.113 384.598 121.113 384.279ZM131.016 373.781H136.318C137.406 373.781 138.34 373.944 139.121 374.27C139.909 374.595 140.514 375.077 140.938 375.715C141.361 376.353 141.572 377.137 141.572 378.068C141.572 378.83 141.442 379.484 141.182 380.031C140.928 380.572 140.566 381.024 140.098 381.389C139.635 381.747 139.092 382.033 138.467 382.248L137.539 382.736H132.93L132.91 380.451H136.338C136.852 380.451 137.279 380.36 137.617 380.178C137.956 379.995 138.21 379.742 138.379 379.416C138.555 379.09 138.643 378.713 138.643 378.283C138.643 377.827 138.558 377.434 138.389 377.102C138.219 376.77 137.962 376.516 137.617 376.34C137.272 376.164 136.839 376.076 136.318 376.076H133.945V388H131.016V373.781ZM138.965 388L135.723 381.662L138.818 381.643L142.1 387.863V388H138.965ZM149.609 376.213L145.742 388H142.627L147.91 373.781H149.893L149.609 376.213ZM152.822 388L148.945 376.213L148.633 373.781H150.635L155.947 388H152.822ZM152.646 382.707V385.002H145.137V382.707H152.646ZM160.381 373.781V388H157.461V373.781H160.381ZM172.266 385.715V388H165.107V385.715H172.266ZM166.055 373.781V388H163.125V373.781H166.055ZM181.348 384.279C181.348 384.025 181.309 383.798 181.23 383.596C181.159 383.387 181.022 383.199 180.82 383.029C180.618 382.854 180.335 382.681 179.971 382.512C179.606 382.342 179.134 382.167 178.555 381.984C177.91 381.776 177.298 381.542 176.719 381.281C176.146 381.021 175.638 380.718 175.195 380.373C174.759 380.021 174.414 379.615 174.16 379.152C173.913 378.69 173.789 378.153 173.789 377.541C173.789 376.949 173.919 376.411 174.18 375.93C174.44 375.441 174.805 375.025 175.273 374.68C175.742 374.328 176.296 374.058 176.934 373.869C177.578 373.68 178.285 373.586 179.053 373.586C180.101 373.586 181.016 373.775 181.797 374.152C182.578 374.53 183.184 375.048 183.613 375.705C184.049 376.363 184.268 377.115 184.268 377.961H181.357C181.357 377.544 181.27 377.18 181.094 376.867C180.924 376.548 180.664 376.298 180.312 376.115C179.967 375.933 179.531 375.842 179.004 375.842C178.496 375.842 178.073 375.92 177.734 376.076C177.396 376.226 177.142 376.431 176.973 376.691C176.803 376.945 176.719 377.232 176.719 377.551C176.719 377.792 176.777 378.01 176.895 378.205C177.018 378.4 177.201 378.583 177.441 378.752C177.682 378.921 177.979 379.081 178.33 379.23C178.682 379.38 179.089 379.527 179.551 379.67C180.326 379.904 181.006 380.168 181.592 380.461C182.184 380.754 182.679 381.083 183.076 381.447C183.473 381.812 183.773 382.225 183.975 382.688C184.176 383.15 184.277 383.674 184.277 384.26C184.277 384.878 184.157 385.432 183.916 385.92C183.675 386.408 183.327 386.822 182.871 387.16C182.415 387.499 181.872 387.756 181.24 387.932C180.609 388.107 179.902 388.195 179.121 388.195C178.418 388.195 177.725 388.104 177.041 387.922C176.357 387.733 175.736 387.45 175.176 387.072C174.622 386.695 174.18 386.213 173.848 385.627C173.516 385.041 173.35 384.348 173.35 383.547H176.289C176.289 383.99 176.357 384.364 176.494 384.67C176.631 384.976 176.823 385.223 177.07 385.412C177.324 385.601 177.624 385.738 177.969 385.822C178.32 385.907 178.704 385.949 179.121 385.949C179.629 385.949 180.046 385.878 180.371 385.734C180.703 385.591 180.947 385.393 181.104 385.139C181.266 384.885 181.348 384.598 181.348 384.279Z" fill="#2AC77B"/>
<path d="M536.326 365.803V368H526.6V366.125L531.199 361.193C531.661 360.679 532.026 360.227 532.293 359.836C532.56 359.439 532.752 359.084 532.869 358.771C532.993 358.452 533.055 358.15 533.055 357.863C533.055 357.434 532.983 357.066 532.84 356.76C532.697 356.447 532.485 356.206 532.205 356.037C531.932 355.868 531.593 355.783 531.189 355.783C530.76 355.783 530.389 355.887 530.076 356.096C529.77 356.304 529.536 356.594 529.373 356.965C529.217 357.336 529.139 357.756 529.139 358.225H526.316C526.316 357.378 526.518 356.604 526.922 355.9C527.326 355.191 527.895 354.628 528.631 354.211C529.367 353.788 530.239 353.576 531.248 353.576C532.244 353.576 533.084 353.739 533.768 354.064C534.458 354.383 534.979 354.846 535.33 355.451C535.688 356.05 535.867 356.766 535.867 357.6C535.867 358.068 535.792 358.527 535.643 358.977C535.493 359.419 535.278 359.862 534.998 360.305C534.725 360.741 534.393 361.184 534.002 361.633C533.611 362.082 533.178 362.548 532.703 363.029L530.232 365.803H536.326ZM548.045 362.688V364.895H537.801L537.664 363.186L543.592 353.781H545.828L543.406 357.834L540.457 362.688H548.045ZM546.434 353.781V368H543.621V353.781H546.434ZM555.76 353.781L550.545 369.221H548.455L553.67 353.781H555.76ZM566.648 353.781V355.295L561.15 368H558.182L563.68 355.979H556.6V353.781H566.648ZM574.666 353.781L569.451 369.221H567.361L572.576 353.781H574.666ZM578.777 359.67H580.281C580.763 359.67 581.16 359.589 581.473 359.426C581.785 359.257 582.016 359.022 582.166 358.723C582.322 358.417 582.4 358.062 582.4 357.658C582.4 357.294 582.329 356.971 582.186 356.691C582.049 356.405 581.837 356.184 581.551 356.027C581.264 355.865 580.903 355.783 580.467 355.783C580.122 355.783 579.803 355.852 579.51 355.988C579.217 356.125 578.982 356.317 578.807 356.564C578.631 356.812 578.543 357.111 578.543 357.463H575.721C575.721 356.682 575.929 356.001 576.346 355.422C576.769 354.842 577.335 354.39 578.045 354.064C578.755 353.739 579.536 353.576 580.389 353.576C581.352 353.576 582.195 353.732 582.918 354.045C583.641 354.351 584.204 354.803 584.607 355.402C585.011 356.001 585.213 356.743 585.213 357.629C585.213 358.078 585.109 358.514 584.9 358.938C584.692 359.354 584.393 359.732 584.002 360.07C583.618 360.402 583.149 360.669 582.596 360.871C582.042 361.066 581.421 361.164 580.73 361.164H578.777V359.67ZM578.777 361.809V360.354H580.73C581.505 360.354 582.186 360.441 582.771 360.617C583.357 360.793 583.849 361.047 584.246 361.379C584.643 361.704 584.943 362.092 585.145 362.541C585.346 362.984 585.447 363.475 585.447 364.016C585.447 364.68 585.32 365.272 585.066 365.793C584.812 366.307 584.454 366.743 583.992 367.102C583.536 367.46 583.003 367.733 582.391 367.922C581.779 368.104 581.111 368.195 580.389 368.195C579.79 368.195 579.201 368.114 578.621 367.951C578.048 367.782 577.527 367.531 577.059 367.199C576.596 366.861 576.225 366.438 575.945 365.93C575.672 365.415 575.535 364.807 575.535 364.104H578.357C578.357 364.468 578.449 364.794 578.631 365.08C578.813 365.367 579.064 365.591 579.383 365.754C579.708 365.917 580.07 365.998 580.467 365.998C580.916 365.998 581.3 365.917 581.619 365.754C581.945 365.585 582.192 365.35 582.361 365.051C582.537 364.745 582.625 364.39 582.625 363.986C582.625 363.465 582.531 363.049 582.342 362.736C582.153 362.417 581.883 362.183 581.531 362.033C581.18 361.883 580.763 361.809 580.281 361.809H578.777ZM594.637 353.635H595.047V355.881H594.881C594.139 355.881 593.478 355.992 592.898 356.213C592.319 356.434 591.827 356.75 591.424 357.16C591.027 357.564 590.721 358.052 590.506 358.625C590.298 359.198 590.193 359.839 590.193 360.549V362.912C590.193 363.42 590.242 363.869 590.34 364.26C590.444 364.644 590.59 364.966 590.779 365.227C590.975 365.48 591.202 365.673 591.463 365.803C591.723 365.926 592.016 365.988 592.342 365.988C592.648 365.988 592.924 365.923 593.172 365.793C593.426 365.663 593.641 365.48 593.816 365.246C593.999 365.005 594.135 364.725 594.227 364.406C594.324 364.081 594.373 363.726 594.373 363.342C594.373 362.958 594.324 362.603 594.227 362.277C594.135 361.952 593.999 361.672 593.816 361.438C593.634 361.197 593.413 361.011 593.152 360.881C592.892 360.751 592.599 360.686 592.273 360.686C591.831 360.686 591.44 360.79 591.102 360.998C590.77 361.2 590.509 361.46 590.32 361.779C590.132 362.098 590.031 362.434 590.018 362.785L589.168 362.238C589.188 361.737 589.292 361.262 589.48 360.812C589.676 360.363 589.943 359.966 590.281 359.621C590.626 359.27 591.04 358.996 591.521 358.801C592.003 358.599 592.547 358.498 593.152 358.498C593.816 358.498 594.399 358.625 594.9 358.879C595.408 359.133 595.831 359.481 596.17 359.924C596.508 360.367 596.762 360.878 596.932 361.457C597.101 362.036 597.186 362.655 597.186 363.312C597.186 364.003 597.072 364.644 596.844 365.236C596.622 365.829 596.3 366.346 595.877 366.789C595.46 367.232 594.959 367.577 594.373 367.824C593.787 368.072 593.13 368.195 592.4 368.195C591.645 368.195 590.958 368.059 590.34 367.785C589.728 367.505 589.201 367.115 588.758 366.613C588.315 366.112 587.973 365.516 587.732 364.826C587.498 364.136 587.381 363.381 587.381 362.561V361.467C587.381 360.321 587.547 359.273 587.879 358.322C588.217 357.365 588.702 356.538 589.334 355.842C589.965 355.139 590.727 354.595 591.619 354.211C592.511 353.827 593.517 353.635 594.637 353.635ZM601.512 361.525L599.266 360.988L600.076 353.781H608.064V356.057H602.391L602.039 359.211C602.228 359.1 602.514 358.983 602.898 358.859C603.283 358.729 603.712 358.664 604.188 358.664C604.878 358.664 605.49 358.771 606.023 358.986C606.557 359.201 607.01 359.514 607.381 359.924C607.758 360.334 608.045 360.835 608.24 361.428C608.436 362.02 608.533 362.691 608.533 363.439C608.533 364.071 608.436 364.673 608.24 365.246C608.045 365.812 607.749 366.32 607.352 366.77C606.954 367.212 606.456 367.561 605.857 367.814C605.258 368.068 604.549 368.195 603.729 368.195C603.117 368.195 602.524 368.104 601.951 367.922C601.385 367.74 600.874 367.469 600.418 367.111C599.969 366.753 599.607 366.32 599.334 365.812C599.067 365.298 598.927 364.712 598.914 364.055H601.707C601.746 364.458 601.85 364.807 602.02 365.1C602.195 365.386 602.426 365.607 602.713 365.764C602.999 365.92 603.335 365.998 603.719 365.998C604.077 365.998 604.383 365.93 604.637 365.793C604.891 365.656 605.096 365.467 605.252 365.227C605.408 364.979 605.522 364.693 605.594 364.367C605.672 364.035 605.711 363.677 605.711 363.293C605.711 362.909 605.665 362.561 605.574 362.248C605.483 361.936 605.343 361.665 605.154 361.438C604.965 361.21 604.725 361.034 604.432 360.91C604.145 360.786 603.81 360.725 603.426 360.725C602.905 360.725 602.501 360.806 602.215 360.969C601.935 361.132 601.701 361.317 601.512 361.525ZM619.637 358.967L617.264 362.902L615.096 362.893V362.766L617.83 358.967H619.637ZM617.264 362.814L619.637 366.76H617.83L615.096 362.951V362.824L617.264 362.814ZM623.416 358.967L621.043 362.902L618.875 362.893V362.766L621.609 358.967H623.416ZM621.043 362.814L623.416 366.76H621.609L618.875 362.951V362.824L621.043 362.814ZM631.404 356.213L627.537 368H624.422L629.705 353.781H631.688L631.404 356.213ZM634.617 368L630.74 356.213L630.428 353.781H632.43L637.742 368H634.617ZM634.441 362.707V365.002H626.932V362.707H634.441ZM648.201 365.715V368H641.043V365.715H648.201ZM641.99 353.781V368H639.061V353.781H641.99ZM652.234 365.744L655.066 353.781H656.648L657.01 355.773L653.992 368H652.293L652.234 365.744ZM650.779 353.781L653.123 365.744L652.928 368H651.033L647.879 353.781H650.779ZM659.5 365.695L661.814 353.781H664.715L661.57 368H659.676L659.5 365.695ZM657.537 353.781L660.389 365.793L660.311 368H658.611L655.574 355.764L655.965 353.781H657.537ZM671.658 356.213L667.791 368H664.676L669.959 353.781H671.941L671.658 356.213ZM674.871 368L670.994 356.213L670.682 353.781H672.684L677.996 368H674.871ZM674.695 362.707V365.002H667.186V362.707H674.695ZM679.979 353.781L682.947 360.266L685.916 353.781H689.109L684.432 362.824V368H681.463V362.824L676.775 353.781H679.979ZM697.654 364.279C697.654 364.025 697.615 363.798 697.537 363.596C697.465 363.387 697.329 363.199 697.127 363.029C696.925 362.854 696.642 362.681 696.277 362.512C695.913 362.342 695.441 362.167 694.861 361.984C694.217 361.776 693.605 361.542 693.025 361.281C692.452 361.021 691.945 360.718 691.502 360.373C691.066 360.021 690.721 359.615 690.467 359.152C690.219 358.69 690.096 358.153 690.096 357.541C690.096 356.949 690.226 356.411 690.486 355.93C690.747 355.441 691.111 355.025 691.58 354.68C692.049 354.328 692.602 354.058 693.24 353.869C693.885 353.68 694.591 353.586 695.359 353.586C696.408 353.586 697.322 353.775 698.104 354.152C698.885 354.53 699.49 355.048 699.92 355.705C700.356 356.363 700.574 357.115 700.574 357.961H697.664C697.664 357.544 697.576 357.18 697.4 356.867C697.231 356.548 696.971 356.298 696.619 356.115C696.274 355.933 695.838 355.842 695.311 355.842C694.803 355.842 694.38 355.92 694.041 356.076C693.702 356.226 693.449 356.431 693.279 356.691C693.11 356.945 693.025 357.232 693.025 357.551C693.025 357.792 693.084 358.01 693.201 358.205C693.325 358.4 693.507 358.583 693.748 358.752C693.989 358.921 694.285 359.081 694.637 359.23C694.988 359.38 695.395 359.527 695.857 359.67C696.632 359.904 697.312 360.168 697.898 360.461C698.491 360.754 698.986 361.083 699.383 361.447C699.78 361.812 700.079 362.225 700.281 362.688C700.483 363.15 700.584 363.674 700.584 364.26C700.584 364.878 700.464 365.432 700.223 365.92C699.982 366.408 699.633 366.822 699.178 367.16C698.722 367.499 698.178 367.756 697.547 367.932C696.915 368.107 696.209 368.195 695.428 368.195C694.725 368.195 694.031 368.104 693.348 367.922C692.664 367.733 692.042 367.45 691.482 367.072C690.929 366.695 690.486 366.213 690.154 365.627C689.822 365.041 689.656 364.348 689.656 363.547H692.596C692.596 363.99 692.664 364.364 692.801 364.67C692.938 364.976 693.13 365.223 693.377 365.412C693.631 365.601 693.93 365.738 694.275 365.822C694.627 365.907 695.011 365.949 695.428 365.949C695.936 365.949 696.352 365.878 696.678 365.734C697.01 365.591 697.254 365.393 697.41 365.139C697.573 364.885 697.654 364.598 697.654 364.279ZM538.572 380.559V381.232C538.572 382.313 538.426 383.283 538.133 384.143C537.84 385.002 537.426 385.734 536.893 386.34C536.359 386.939 535.721 387.398 534.979 387.717C534.243 388.036 533.426 388.195 532.527 388.195C531.635 388.195 530.818 388.036 530.076 387.717C529.34 387.398 528.702 386.939 528.162 386.34C527.622 385.734 527.202 385.002 526.902 384.143C526.609 383.283 526.463 382.313 526.463 381.232V380.559C526.463 379.471 526.609 378.501 526.902 377.648C527.195 376.789 527.609 376.057 528.143 375.451C528.683 374.846 529.321 374.383 530.057 374.064C530.799 373.745 531.616 373.586 532.508 373.586C533.406 373.586 534.223 373.745 534.959 374.064C535.701 374.383 536.339 374.846 536.873 375.451C537.413 376.057 537.83 376.789 538.123 377.648C538.423 378.501 538.572 379.471 538.572 380.559ZM535.613 381.232V380.539C535.613 379.784 535.545 379.12 535.408 378.547C535.271 377.974 535.07 377.492 534.803 377.102C534.536 376.711 534.21 376.418 533.826 376.223C533.442 376.021 533.003 375.92 532.508 375.92C532.013 375.92 531.574 376.021 531.189 376.223C530.812 376.418 530.49 376.711 530.223 377.102C529.962 377.492 529.764 377.974 529.627 378.547C529.49 379.12 529.422 379.784 529.422 380.539V381.232C529.422 381.981 529.49 382.645 529.627 383.225C529.764 383.798 529.965 384.283 530.232 384.68C530.499 385.07 530.825 385.367 531.209 385.568C531.593 385.77 532.033 385.871 532.527 385.871C533.022 385.871 533.462 385.77 533.846 385.568C534.23 385.367 534.552 385.07 534.812 384.68C535.073 384.283 535.271 383.798 535.408 383.225C535.545 382.645 535.613 381.981 535.613 381.232ZM552.254 373.781V388H549.324L543.611 378.469V388H540.682V373.781H543.611L549.334 383.322V373.781H552.254ZM554.373 386.76L556.746 382.814L558.924 382.824V382.951L556.189 386.76H554.373ZM554.373 378.967H556.189L558.924 382.766V382.893L556.746 382.902L554.373 378.967ZM558.201 386.76L560.574 382.814L562.752 382.824V382.951L560.018 386.76H558.201ZM558.201 378.967H560.018L562.752 382.766V382.893L560.574 382.902L558.201 378.967ZM575.564 376.213L571.697 388H568.582L573.865 373.781H575.848L575.564 376.213ZM578.777 388L574.9 376.213L574.588 373.781H576.59L581.902 388H578.777ZM578.602 382.707V385.002H571.092V382.707H578.602ZM587.547 385.031L590.896 373.781H594.158L589.207 388H587.059L587.547 385.031ZM584.461 373.781L587.801 385.031L588.309 388H586.141L581.219 373.781H584.461ZM598.602 373.781V388H595.682V373.781H598.602ZM607.303 376.213L603.436 388H600.32L605.604 373.781H607.586L607.303 376.213ZM610.516 388L606.639 376.213L606.326 373.781H608.328L613.641 388H610.516ZM610.34 382.707V385.002H602.83V382.707H610.34ZM620.525 381.76H616.873L616.854 379.748H619.92C620.46 379.748 620.903 379.68 621.248 379.543C621.593 379.4 621.85 379.195 622.02 378.928C622.195 378.654 622.283 378.322 622.283 377.932C622.283 377.489 622.199 377.131 622.029 376.857C621.867 376.584 621.609 376.385 621.258 376.262C620.913 376.138 620.467 376.076 619.92 376.076H617.889V388H614.959V373.781H619.92C620.747 373.781 621.486 373.859 622.137 374.016C622.794 374.172 623.351 374.41 623.807 374.729C624.262 375.048 624.611 375.451 624.852 375.939C625.092 376.421 625.213 376.994 625.213 377.658C625.213 378.244 625.079 378.785 624.812 379.279C624.552 379.774 624.139 380.178 623.572 380.49C623.012 380.803 622.28 380.975 621.375 381.008L620.525 381.76ZM620.398 388H616.072L617.215 385.715H620.398C620.913 385.715 621.333 385.633 621.658 385.471C621.984 385.301 622.225 385.074 622.381 384.787C622.537 384.501 622.615 384.172 622.615 383.801C622.615 383.384 622.544 383.023 622.4 382.717C622.264 382.411 622.042 382.176 621.736 382.014C621.43 381.844 621.027 381.76 620.525 381.76H617.703L617.723 379.748H621.238L621.912 380.539C622.778 380.526 623.475 380.679 624.002 380.998C624.536 381.311 624.923 381.717 625.164 382.219C625.411 382.72 625.535 383.257 625.535 383.83C625.535 384.742 625.337 385.51 624.939 386.135C624.542 386.753 623.96 387.219 623.191 387.531C622.43 387.844 621.499 388 620.398 388ZM630.848 373.781V388H627.928V373.781H630.848ZM642.732 385.715V388H635.574V385.715H642.732ZM636.521 373.781V388H633.592V373.781H636.521ZM647.527 373.781V388H644.607V373.781H647.527ZM656.336 373.781V388H653.416V373.781H656.336ZM660.711 373.781V376.076H649.109V373.781H660.711ZM664.49 373.781L667.459 380.266L670.428 373.781H673.621L668.943 382.824V388H665.975V382.824L661.287 373.781H664.49Z" fill="#2AC77B"/>
<circle cx="353" cy="213" r="74" fill="#3D4255"/>
<path d="M371.139 212.714C371.139 217.791 367.024 221.907 361.947 221.907C356.87 221.907 352.754 217.791 352.754 212.714C352.754 207.637 356.87 203.521 361.947 203.521C367.024 203.521 371.139 207.637 371.139 212.714Z" fill="#2AC77B"/>
<path fill-rule="evenodd" clip-rule="evenodd" d="M361.949 198.397H343.563C335.657 198.397 329.247 204.807 329.247 212.714C329.247 220.62 335.657 227.03 343.563 227.03H361.949C369.856 227.03 376.266 220.62 376.266 212.714C376.266 204.807 369.856 198.397 361.949 198.397ZM343.563 193.273C332.827 193.273 324.123 201.977 324.123 212.714C324.123 223.45 332.827 232.154 343.563 232.154H361.949C372.686 232.154 381.389 223.45 381.389 212.714C381.389 201.977 372.686 193.273 361.949 193.273H343.563Z" fill="#F7FAFB"/>
<circle cx="353" cy="425" r="12" fill="#2AC77B"/>
<circle cx="215.273" cy="371.633" r="12" fill="#2AC77B"/>
<circle cx="495" cy="371.633" r="12" fill="#2AC77B"/>
<defs>
<linearGradient id="paint0_linear_7169_2199" x1="353" y1="-0.500034" x2="353" y2="288" gradientUnits="userSpaceOnUse">
<stop stop-color="#2AC77B"/>
<stop offset="1" stop-color="#2AC77B" stop-opacity="0"/>
</linearGradient>
<linearGradient id="paint1_linear_7169_2199" x1="353" y1="123.291" x2="353" y2="261" gradientUnits="userSpaceOnUse">
<stop stop-color="#2AC77B"/>
<stop offset="1" stop-color="#2AC77B" stop-opacity="0"/>
</linearGradient>
<linearGradient id="paint2_linear_7169_2199" x1="353" y1="158.825" x2="353" y2="225.5" gradientUnits="userSpaceOnUse">
<stop stop-color="#2AC77B"/>
<stop offset="1" stop-color="#2AC77B" stop-opacity="0"/>
</linearGradient>
</defs>
</svg>
