<svg width="246" height="273" viewBox="0 0 246 273" fill="none" xmlns="http://www.w3.org/2000/svg">
<ellipse cx="121" cy="104.5" rx="103" ry="103.5" transform="rotate(180 121 104.5)" stroke="url(#paint0_linear_7169_2201)" stroke-opacity="0.32"/>
<ellipse cx="121" cy="104.5" rx="65" ry="64.5" transform="rotate(180 121 104.5)" stroke="url(#paint1_linear_7169_2201)" stroke-opacity="0.56"/>
<path d="M93.6914 227.469V236H91.9336V227.469H93.6914ZM97.0898 231.113V232.484H93.2109V231.113H97.0898ZM97.5 227.469V228.846H93.2109V227.469H97.5ZM103.23 227.469H104.982V233.105C104.982 233.762 104.842 234.314 104.561 234.764C104.283 235.213 103.898 235.551 103.406 235.777C102.918 236.004 102.355 236.117 101.719 236.117C101.082 236.117 100.516 236.004 100.02 235.777C99.5273 235.551 99.1406 235.213 98.8594 234.764C98.582 234.314 98.4434 233.762 98.4434 233.105V227.469H100.201V233.105C100.201 233.488 100.262 233.801 100.383 234.043C100.504 234.285 100.678 234.463 100.904 234.576C101.135 234.689 101.406 234.746 101.719 234.746C102.039 234.746 102.311 234.689 102.533 234.576C102.76 234.463 102.932 234.285 103.049 234.043C103.17 233.801 103.23 233.488 103.23 233.105V227.469ZM113.373 227.469V236H111.615L108.188 230.281V236H106.43V227.469H108.188L111.621 233.193V227.469H113.373ZM117.521 236H115.664L115.676 234.629H117.521C117.982 234.629 118.371 234.525 118.688 234.318C119.004 234.107 119.242 233.801 119.402 233.398C119.566 232.996 119.648 232.51 119.648 231.939V231.523C119.648 231.086 119.602 230.701 119.508 230.369C119.418 230.037 119.283 229.758 119.104 229.531C118.924 229.305 118.703 229.135 118.441 229.021C118.18 228.904 117.879 228.846 117.539 228.846H115.629V227.469H117.539C118.109 227.469 118.631 227.566 119.104 227.762C119.58 227.953 119.992 228.229 120.34 228.588C120.688 228.947 120.955 229.377 121.143 229.877C121.334 230.373 121.43 230.926 121.43 231.535V231.939C121.43 232.545 121.334 233.098 121.143 233.598C120.955 234.098 120.688 234.527 120.34 234.887C119.996 235.242 119.584 235.518 119.104 235.713C118.627 235.904 118.1 236 117.521 236ZM116.66 227.469V236H114.902V227.469H116.66ZM127.148 233.768C127.148 233.615 127.125 233.479 127.078 233.357C127.035 233.232 126.953 233.119 126.832 233.018C126.711 232.912 126.541 232.809 126.322 232.707C126.104 232.605 125.82 232.5 125.473 232.391C125.086 232.266 124.719 232.125 124.371 231.969C124.027 231.813 123.723 231.631 123.457 231.424C123.195 231.213 122.988 230.969 122.836 230.691C122.688 230.414 122.613 230.092 122.613 229.725C122.613 229.369 122.691 229.047 122.848 228.758C123.004 228.465 123.223 228.215 123.504 228.008C123.785 227.797 124.117 227.635 124.5 227.521C124.887 227.408 125.311 227.352 125.771 227.352C126.4 227.352 126.949 227.465 127.418 227.691C127.887 227.918 128.25 228.229 128.508 228.623C128.77 229.018 128.9 229.469 128.9 229.977H127.154C127.154 229.727 127.102 229.508 126.996 229.32C126.895 229.129 126.738 228.979 126.527 228.869C126.32 228.76 126.059 228.705 125.742 228.705C125.438 228.705 125.184 228.752 124.98 228.846C124.777 228.936 124.625 229.059 124.523 229.215C124.422 229.367 124.371 229.539 124.371 229.73C124.371 229.875 124.406 230.006 124.477 230.123C124.551 230.24 124.66 230.35 124.805 230.451C124.949 230.553 125.127 230.648 125.338 230.738C125.549 230.828 125.793 230.916 126.07 231.002C126.535 231.143 126.943 231.301 127.295 231.477C127.65 231.652 127.947 231.85 128.186 232.068C128.424 232.287 128.604 232.535 128.725 232.813C128.846 233.09 128.906 233.404 128.906 233.756C128.906 234.127 128.834 234.459 128.689 234.752C128.545 235.045 128.336 235.293 128.062 235.496C127.789 235.699 127.463 235.854 127.084 235.959C126.705 236.064 126.281 236.117 125.812 236.117C125.391 236.117 124.975 236.063 124.564 235.953C124.154 235.84 123.781 235.67 123.445 235.443C123.113 235.217 122.848 234.928 122.648 234.576C122.449 234.225 122.35 233.809 122.35 233.328H124.113C124.113 233.594 124.154 233.818 124.236 234.002C124.318 234.186 124.434 234.334 124.582 234.447C124.734 234.561 124.914 234.643 125.121 234.693C125.332 234.744 125.562 234.77 125.812 234.77C126.117 234.77 126.367 234.727 126.562 234.641C126.762 234.555 126.908 234.436 127.002 234.283C127.1 234.131 127.148 233.959 127.148 233.768ZM136.559 228.928L134.238 236H132.369L135.539 227.469H136.729L136.559 228.928ZM138.486 236L136.16 228.928L135.973 227.469H137.174L140.361 236H138.486ZM138.381 232.824V234.201H133.875V232.824H138.381ZM141.152 227.469H144.334C144.986 227.469 145.547 227.566 146.016 227.762C146.488 227.957 146.852 228.246 147.105 228.629C147.359 229.012 147.486 229.482 147.486 230.041C147.486 230.498 147.408 230.891 147.252 231.219C147.1 231.543 146.883 231.814 146.602 232.033C146.324 232.248 145.998 232.42 145.623 232.549L145.066 232.842H142.301L142.289 231.471H144.346C144.654 231.471 144.91 231.416 145.113 231.307C145.316 231.197 145.469 231.045 145.57 230.85C145.676 230.654 145.729 230.428 145.729 230.17C145.729 229.896 145.678 229.66 145.576 229.461C145.475 229.262 145.32 229.109 145.113 229.004C144.906 228.898 144.646 228.846 144.334 228.846H142.91V236H141.152V227.469ZM145.922 236L143.977 232.197L145.834 232.186L147.803 235.918V236H145.922ZM154.564 234.629V236H150.023V234.629H154.564ZM150.598 227.469V236H148.84V227.469H150.598ZM153.973 230.943V232.279H150.023V230.943H153.973ZM154.559 227.469V228.846H150.023V227.469H154.559ZM96.2871 239.469H99.4688C100.121 239.469 100.682 239.566 101.15 239.762C101.623 239.957 101.986 240.246 102.24 240.629C102.494 241.012 102.621 241.482 102.621 242.041C102.621 242.498 102.543 242.891 102.387 243.219C102.234 243.543 102.018 243.814 101.736 244.033C101.459 244.248 101.133 244.42 100.758 244.549L100.201 244.842H97.4355L97.4238 243.471H99.4805C99.7891 243.471 100.045 243.416 100.248 243.307C100.451 243.197 100.604 243.045 100.705 242.85C100.811 242.654 100.863 242.428 100.863 242.17C100.863 241.896 100.812 241.66 100.711 241.461C100.609 241.262 100.455 241.109 100.248 241.004C100.041 240.898 99.7812 240.846 99.4688 240.846H98.0449V248H96.2871V239.469ZM101.057 248L99.1113 244.197L100.969 244.186L102.938 247.918V248H101.057ZM109.699 246.629V248H105.158V246.629H109.699ZM105.732 239.469V248H103.975V239.469H105.732ZM109.107 242.943V244.279H105.158V242.943H109.107ZM109.693 239.469V240.846H105.158V239.469H109.693ZM115.67 245.17H117.422C117.387 245.744 117.229 246.254 116.947 246.699C116.67 247.145 116.281 247.492 115.781 247.742C115.285 247.992 114.688 248.117 113.988 248.117C113.441 248.117 112.951 248.023 112.518 247.836C112.084 247.645 111.713 247.371 111.404 247.016C111.1 246.66 110.867 246.23 110.707 245.727C110.547 245.223 110.467 244.658 110.467 244.033V243.441C110.467 242.816 110.549 242.252 110.713 241.748C110.881 241.24 111.119 240.809 111.428 240.453C111.74 240.098 112.113 239.824 112.547 239.633C112.98 239.441 113.465 239.346 114 239.346C114.711 239.346 115.311 239.475 115.799 239.732C116.291 239.99 116.672 240.346 116.941 240.799C117.215 241.252 117.379 241.768 117.434 242.346H115.676C115.656 242.002 115.588 241.711 115.471 241.473C115.354 241.23 115.176 241.049 114.938 240.928C114.703 240.803 114.391 240.74 114 240.74C113.707 240.74 113.451 240.795 113.232 240.904C113.014 241.014 112.83 241.18 112.682 241.402C112.533 241.625 112.422 241.906 112.348 242.246C112.277 242.582 112.242 242.977 112.242 243.43V244.033C112.242 244.475 112.275 244.863 112.342 245.199C112.408 245.531 112.51 245.813 112.646 246.043C112.787 246.27 112.967 246.441 113.186 246.559C113.408 246.672 113.676 246.729 113.988 246.729C114.355 246.729 114.658 246.67 114.896 246.553C115.135 246.436 115.316 246.262 115.441 246.031C115.57 245.801 115.646 245.514 115.67 245.17ZM124.301 246.629V248H119.76V246.629H124.301ZM120.334 239.469V248H118.576V239.469H120.334ZM123.709 242.943V244.279H119.76V242.943H123.709ZM124.295 239.469V240.846H119.76V239.469H124.295ZM127.195 239.469V248H125.443V239.469H127.195ZM131.918 246.219L133.928 239.469H135.885L132.914 248H131.625L131.918 246.219ZM130.066 239.469L132.07 246.219L132.375 248H131.074L128.121 239.469H130.066ZM142.406 246.629V248H137.865V246.629H142.406ZM138.439 239.469V248H136.682V239.469H138.439ZM141.814 242.943V244.279H137.865V242.943H141.814ZM142.4 239.469V240.846H137.865V239.469H142.4ZM146.051 248H144.193L144.205 246.629H146.051C146.512 246.629 146.9 246.525 147.217 246.318C147.533 246.107 147.771 245.801 147.932 245.398C148.096 244.996 148.178 244.51 148.178 243.939V243.523C148.178 243.086 148.131 242.701 148.037 242.369C147.947 242.037 147.812 241.758 147.633 241.531C147.453 241.305 147.232 241.135 146.971 241.021C146.709 240.904 146.408 240.846 146.068 240.846H144.158V239.469H146.068C146.639 239.469 147.16 239.566 147.633 239.762C148.109 239.953 148.521 240.229 148.869 240.588C149.217 240.947 149.484 241.377 149.672 241.877C149.863 242.373 149.959 242.926 149.959 243.535V243.939C149.959 244.545 149.863 245.098 149.672 245.598C149.484 246.098 149.217 246.527 148.869 246.887C148.525 247.242 148.113 247.518 147.633 247.713C147.156 247.904 146.629 248 146.051 248ZM145.189 239.469V248H143.432V239.469H145.189ZM82.7871 251.469V260H81.0352V251.469H82.7871ZM91.377 251.469V260H89.6191L86.1914 254.281V260H84.4336V251.469H86.1914L89.625 257.193V251.469H91.377ZM99.832 251.451V260H98.1445V253.396L96.1172 254.041V252.711L99.6504 251.451H99.832ZM108.352 254.984V256.461C108.352 257.102 108.283 257.654 108.146 258.119C108.01 258.58 107.812 258.959 107.555 259.256C107.301 259.549 106.998 259.766 106.646 259.906C106.295 260.047 105.904 260.117 105.475 260.117C105.131 260.117 104.811 260.074 104.514 259.988C104.217 259.898 103.949 259.76 103.711 259.572C103.477 259.385 103.273 259.148 103.102 258.863C102.934 258.574 102.805 258.23 102.715 257.832C102.625 257.434 102.58 256.977 102.58 256.461V254.984C102.58 254.344 102.648 253.795 102.785 253.338C102.926 252.877 103.123 252.5 103.377 252.207C103.635 251.914 103.939 251.699 104.291 251.563C104.643 251.422 105.033 251.352 105.463 251.352C105.807 251.352 106.125 251.396 106.418 251.486C106.715 251.572 106.982 251.707 107.221 251.891C107.459 252.074 107.662 252.311 107.83 252.6C107.998 252.885 108.127 253.227 108.217 253.625C108.307 254.02 108.352 254.473 108.352 254.984ZM106.658 256.684V254.756C106.658 254.447 106.641 254.178 106.605 253.947C106.574 253.717 106.525 253.521 106.459 253.361C106.393 253.197 106.311 253.064 106.213 252.963C106.115 252.861 106.004 252.787 105.879 252.74C105.754 252.693 105.615 252.67 105.463 252.67C105.271 252.67 105.102 252.707 104.953 252.781C104.809 252.855 104.686 252.975 104.584 253.139C104.482 253.299 104.404 253.514 104.35 253.783C104.299 254.049 104.273 254.373 104.273 254.756V256.684C104.273 256.992 104.289 257.264 104.32 257.498C104.355 257.732 104.406 257.934 104.473 258.102C104.543 258.266 104.625 258.4 104.719 258.506C104.816 258.607 104.928 258.682 105.053 258.729C105.182 258.775 105.322 258.799 105.475 258.799C105.662 258.799 105.828 258.762 105.973 258.688C106.121 258.609 106.246 258.488 106.348 258.324C106.453 258.156 106.531 257.938 106.582 257.668C106.633 257.398 106.658 257.07 106.658 256.684ZM117.105 257.768C117.105 257.615 117.082 257.479 117.035 257.357C116.992 257.232 116.91 257.119 116.789 257.018C116.668 256.912 116.498 256.809 116.279 256.707C116.061 256.605 115.777 256.5 115.43 256.391C115.043 256.266 114.676 256.125 114.328 255.969C113.984 255.813 113.68 255.631 113.414 255.424C113.152 255.213 112.945 254.969 112.793 254.691C112.645 254.414 112.57 254.092 112.57 253.725C112.57 253.369 112.648 253.047 112.805 252.758C112.961 252.465 113.18 252.215 113.461 252.008C113.742 251.797 114.074 251.635 114.457 251.521C114.844 251.408 115.268 251.352 115.729 251.352C116.357 251.352 116.906 251.465 117.375 251.691C117.844 251.918 118.207 252.229 118.465 252.623C118.727 253.018 118.857 253.469 118.857 253.977H117.111C117.111 253.727 117.059 253.508 116.953 253.32C116.852 253.129 116.695 252.979 116.484 252.869C116.277 252.76 116.016 252.705 115.699 252.705C115.395 252.705 115.141 252.752 114.938 252.846C114.734 252.936 114.582 253.059 114.48 253.215C114.379 253.367 114.328 253.539 114.328 253.73C114.328 253.875 114.363 254.006 114.434 254.123C114.508 254.24 114.617 254.35 114.762 254.451C114.906 254.553 115.084 254.648 115.295 254.738C115.506 254.828 115.75 254.916 116.027 255.002C116.492 255.143 116.9 255.301 117.252 255.477C117.607 255.652 117.904 255.85 118.143 256.068C118.381 256.287 118.561 256.535 118.682 256.813C118.803 257.09 118.863 257.404 118.863 257.756C118.863 258.127 118.791 258.459 118.646 258.752C118.502 259.045 118.293 259.293 118.02 259.496C117.746 259.699 117.42 259.854 117.041 259.959C116.662 260.064 116.238 260.117 115.77 260.117C115.348 260.117 114.932 260.063 114.521 259.953C114.111 259.84 113.738 259.67 113.402 259.443C113.07 259.217 112.805 258.928 112.605 258.576C112.406 258.225 112.307 257.809 112.307 257.328H114.07C114.07 257.594 114.111 257.818 114.193 258.002C114.275 258.186 114.391 258.334 114.539 258.447C114.691 258.561 114.871 258.643 115.078 258.693C115.289 258.744 115.52 258.77 115.77 258.77C116.074 258.77 116.324 258.727 116.52 258.641C116.719 258.555 116.865 258.436 116.959 258.283C117.057 258.131 117.105 257.959 117.105 257.768ZM125.783 258.629V260H121.242V258.629H125.783ZM121.816 251.469V260H120.059V251.469H121.816ZM125.191 254.943V256.279H121.242V254.943H125.191ZM125.777 251.469V252.846H121.242V251.469H125.777ZM131.754 257.17H133.506C133.471 257.744 133.312 258.254 133.031 258.699C132.754 259.145 132.365 259.492 131.865 259.742C131.369 259.992 130.771 260.117 130.072 260.117C129.525 260.117 129.035 260.023 128.602 259.836C128.168 259.645 127.797 259.371 127.488 259.016C127.184 258.66 126.951 258.23 126.791 257.727C126.631 257.223 126.551 256.658 126.551 256.033V255.441C126.551 254.816 126.633 254.252 126.797 253.748C126.965 253.24 127.203 252.809 127.512 252.453C127.824 252.098 128.197 251.824 128.631 251.633C129.064 251.441 129.549 251.346 130.084 251.346C130.795 251.346 131.395 251.475 131.883 251.732C132.375 251.99 132.756 252.346 133.025 252.799C133.299 253.252 133.463 253.768 133.518 254.346H131.76C131.74 254.002 131.672 253.711 131.555 253.473C131.438 253.23 131.26 253.049 131.021 252.928C130.787 252.803 130.475 252.74 130.084 252.74C129.791 252.74 129.535 252.795 129.316 252.904C129.098 253.014 128.914 253.18 128.766 253.402C128.617 253.625 128.506 253.906 128.432 254.246C128.361 254.582 128.326 254.977 128.326 255.43V256.033C128.326 256.475 128.359 256.863 128.426 257.199C128.492 257.531 128.594 257.813 128.73 258.043C128.871 258.27 129.051 258.441 129.27 258.559C129.492 258.672 129.76 258.729 130.072 258.729C130.439 258.729 130.742 258.67 130.98 258.553C131.219 258.436 131.4 258.262 131.525 258.031C131.654 257.801 131.73 257.514 131.754 257.17ZM141.668 255.535V255.939C141.668 256.588 141.58 257.17 141.404 257.686C141.229 258.201 140.98 258.641 140.66 259.004C140.34 259.363 139.957 259.639 139.512 259.83C139.07 260.021 138.58 260.117 138.041 260.117C137.506 260.117 137.016 260.021 136.57 259.83C136.129 259.639 135.746 259.363 135.422 259.004C135.098 258.641 134.846 258.201 134.666 257.686C134.49 257.17 134.402 256.588 134.402 255.939V255.535C134.402 254.883 134.49 254.301 134.666 253.789C134.842 253.273 135.09 252.834 135.41 252.471C135.734 252.107 136.117 251.83 136.559 251.639C137.004 251.447 137.494 251.352 138.029 251.352C138.568 251.352 139.059 251.447 139.5 251.639C139.945 251.83 140.328 252.107 140.648 252.471C140.973 252.834 141.223 253.273 141.398 253.789C141.578 254.301 141.668 254.883 141.668 255.535ZM139.893 255.939V255.523C139.893 255.07 139.852 254.672 139.77 254.328C139.688 253.984 139.566 253.695 139.406 253.461C139.246 253.227 139.051 253.051 138.82 252.934C138.59 252.813 138.326 252.752 138.029 252.752C137.732 252.752 137.469 252.813 137.238 252.934C137.012 253.051 136.818 253.227 136.658 253.461C136.502 253.695 136.383 253.984 136.301 254.328C136.219 254.672 136.178 255.07 136.178 255.523V255.939C136.178 256.389 136.219 256.787 136.301 257.135C136.383 257.479 136.504 257.77 136.664 258.008C136.824 258.242 137.02 258.42 137.25 258.541C137.48 258.662 137.744 258.723 138.041 258.723C138.338 258.723 138.602 258.662 138.832 258.541C139.062 258.42 139.256 258.242 139.412 258.008C139.568 257.77 139.688 257.479 139.77 257.135C139.852 256.787 139.893 256.389 139.893 255.939ZM149.877 251.469V260H148.119L144.691 254.281V260H142.934V251.469H144.691L148.125 257.193V251.469H149.877ZM154.025 260H152.168L152.18 258.629H154.025C154.486 258.629 154.875 258.525 155.191 258.318C155.508 258.107 155.746 257.801 155.906 257.398C156.07 256.996 156.152 256.51 156.152 255.939V255.523C156.152 255.086 156.105 254.701 156.012 254.369C155.922 254.037 155.787 253.758 155.607 253.531C155.428 253.305 155.207 253.135 154.945 253.021C154.684 252.904 154.383 252.846 154.043 252.846H152.133V251.469H154.043C154.613 251.469 155.135 251.566 155.607 251.762C156.084 251.953 156.496 252.229 156.844 252.588C157.191 252.947 157.459 253.377 157.646 253.877C157.838 254.373 157.934 254.926 157.934 255.535V255.939C157.934 256.545 157.838 257.098 157.646 257.598C157.459 258.098 157.191 258.527 156.844 258.887C156.5 259.242 156.088 259.518 155.607 259.713C155.131 259.904 154.604 260 154.025 260ZM153.164 251.469V260H151.406V251.469H153.164ZM163.652 257.768C163.652 257.615 163.629 257.479 163.582 257.357C163.539 257.232 163.457 257.119 163.336 257.018C163.215 256.912 163.045 256.809 162.826 256.707C162.607 256.605 162.324 256.5 161.977 256.391C161.59 256.266 161.223 256.125 160.875 255.969C160.531 255.813 160.227 255.631 159.961 255.424C159.699 255.213 159.492 254.969 159.34 254.691C159.191 254.414 159.117 254.092 159.117 253.725C159.117 253.369 159.195 253.047 159.352 252.758C159.508 252.465 159.727 252.215 160.008 252.008C160.289 251.797 160.621 251.635 161.004 251.521C161.391 251.408 161.814 251.352 162.275 251.352C162.904 251.352 163.453 251.465 163.922 251.691C164.391 251.918 164.754 252.229 165.012 252.623C165.273 253.018 165.404 253.469 165.404 253.977H163.658C163.658 253.727 163.605 253.508 163.5 253.32C163.398 253.129 163.242 252.979 163.031 252.869C162.824 252.76 162.562 252.705 162.246 252.705C161.941 252.705 161.688 252.752 161.484 252.846C161.281 252.936 161.129 253.059 161.027 253.215C160.926 253.367 160.875 253.539 160.875 253.73C160.875 253.875 160.91 254.006 160.98 254.123C161.055 254.24 161.164 254.35 161.309 254.451C161.453 254.553 161.631 254.648 161.842 254.738C162.053 254.828 162.297 254.916 162.574 255.002C163.039 255.143 163.447 255.301 163.799 255.477C164.154 255.652 164.451 255.85 164.689 256.068C164.928 256.287 165.107 256.535 165.229 256.813C165.35 257.09 165.41 257.404 165.41 257.756C165.41 258.127 165.338 258.459 165.193 258.752C165.049 259.045 164.84 259.293 164.566 259.496C164.293 259.699 163.967 259.854 163.588 259.959C163.209 260.064 162.785 260.117 162.316 260.117C161.895 260.117 161.479 260.063 161.068 259.953C160.658 259.84 160.285 259.67 159.949 259.443C159.617 259.217 159.352 258.928 159.152 258.576C158.953 258.225 158.854 257.809 158.854 257.328H160.617C160.617 257.594 160.658 257.818 160.74 258.002C160.822 258.186 160.938 258.334 161.086 258.447C161.238 258.561 161.418 258.643 161.625 258.693C161.836 258.744 162.066 258.77 162.316 258.77C162.621 258.77 162.871 258.727 163.066 258.641C163.266 258.555 163.412 258.436 163.506 258.283C163.604 258.131 163.652 257.959 163.652 257.768ZM101.982 267.535V267.939C101.982 268.588 101.895 269.17 101.719 269.686C101.543 270.201 101.295 270.641 100.975 271.004C100.654 271.363 100.271 271.639 99.8262 271.83C99.3848 272.021 98.8945 272.117 98.3555 272.117C97.8203 272.117 97.3301 272.021 96.8848 271.83C96.4434 271.639 96.0605 271.363 95.7363 271.004C95.4121 270.641 95.1602 270.201 94.9805 269.686C94.8047 269.17 94.7168 268.588 94.7168 267.939V267.535C94.7168 266.883 94.8047 266.301 94.9805 265.789C95.1562 265.273 95.4043 264.834 95.7246 264.471C96.0488 264.107 96.4316 263.83 96.873 263.639C97.3184 263.447 97.8086 263.352 98.3438 263.352C98.8828 263.352 99.373 263.447 99.8145 263.639C100.26 263.83 100.643 264.107 100.963 264.471C101.287 264.834 101.537 265.273 101.713 265.789C101.893 266.301 101.982 266.883 101.982 267.535ZM100.207 267.939V267.523C100.207 267.07 100.166 266.672 100.084 266.328C100.002 265.984 99.8809 265.695 99.7207 265.461C99.5605 265.227 99.3652 265.051 99.1348 264.934C98.9043 264.813 98.6406 264.752 98.3438 264.752C98.0469 264.752 97.7832 264.813 97.5527 264.934C97.3262 265.051 97.1328 265.227 96.9727 265.461C96.8164 265.695 96.6973 265.984 96.6152 266.328C96.5332 266.672 96.4922 267.07 96.4922 267.523V267.939C96.4922 268.389 96.5332 268.787 96.6152 269.135C96.6973 269.479 96.8184 269.77 96.9785 270.008C97.1387 270.242 97.334 270.42 97.5645 270.541C97.7949 270.662 98.0586 270.723 98.3555 270.723C98.6523 270.723 98.916 270.662 99.1465 270.541C99.377 270.42 99.5703 270.242 99.7266 270.008C99.8828 269.77 100.002 269.479 100.084 269.135C100.166 268.787 100.207 268.389 100.207 267.939ZM103.248 263.469H106.43C107.082 263.469 107.643 263.566 108.111 263.762C108.584 263.957 108.947 264.246 109.201 264.629C109.455 265.012 109.582 265.482 109.582 266.041C109.582 266.498 109.504 266.891 109.348 267.219C109.195 267.543 108.979 267.814 108.697 268.033C108.42 268.248 108.094 268.42 107.719 268.549L107.162 268.842H104.396L104.385 267.471H106.441C106.75 267.471 107.006 267.416 107.209 267.307C107.412 267.197 107.564 267.045 107.666 266.85C107.771 266.654 107.824 266.428 107.824 266.17C107.824 265.896 107.773 265.66 107.672 265.461C107.57 265.262 107.416 265.109 107.209 265.004C107.002 264.898 106.742 264.846 106.43 264.846H105.006V272H103.248V263.469ZM108.018 272L106.072 268.197L107.93 268.186L109.898 271.918V272H108.018ZM118.635 263.469H120.387V269.105C120.387 269.762 120.246 270.314 119.965 270.764C119.688 271.213 119.303 271.551 118.811 271.777C118.322 272.004 117.76 272.117 117.123 272.117C116.486 272.117 115.92 272.004 115.424 271.777C114.932 271.551 114.545 271.213 114.264 270.764C113.986 270.314 113.848 269.762 113.848 269.105V263.469H115.605V269.105C115.605 269.488 115.666 269.801 115.787 270.043C115.908 270.285 116.082 270.463 116.309 270.576C116.539 270.689 116.811 270.746 117.123 270.746C117.443 270.746 117.715 270.689 117.938 270.576C118.164 270.463 118.336 270.285 118.453 270.043C118.574 269.801 118.635 269.488 118.635 269.105V263.469ZM128.777 263.469V272H127.02L123.592 266.281V272H121.834V263.469H123.592L127.025 269.193V263.469H128.777ZM132.926 272H131.068L131.08 270.629H132.926C133.387 270.629 133.775 270.525 134.092 270.318C134.408 270.107 134.646 269.801 134.807 269.398C134.971 268.996 135.053 268.51 135.053 267.939V267.523C135.053 267.086 135.006 266.701 134.912 266.369C134.822 266.037 134.688 265.758 134.508 265.531C134.328 265.305 134.107 265.135 133.846 265.021C133.584 264.904 133.283 264.846 132.943 264.846H131.033V263.469H132.943C133.514 263.469 134.035 263.566 134.508 263.762C134.984 263.953 135.396 264.229 135.744 264.588C136.092 264.947 136.359 265.377 136.547 265.877C136.738 266.373 136.834 266.926 136.834 267.535V267.939C136.834 268.545 136.738 269.098 136.547 269.598C136.359 270.098 136.092 270.527 135.744 270.887C135.4 271.242 134.988 271.518 134.508 271.713C134.031 271.904 133.504 272 132.926 272ZM132.064 263.469V272H130.307V263.469H132.064ZM143.836 270.629V272H139.295V270.629H143.836ZM139.869 263.469V272H138.111V263.469H139.869ZM143.244 266.943V268.279H139.295V266.943H143.244ZM143.83 263.469V264.846H139.295V263.469H143.83ZM144.861 263.469H148.043C148.695 263.469 149.256 263.566 149.725 263.762C150.197 263.957 150.561 264.246 150.814 264.629C151.068 265.012 151.195 265.482 151.195 266.041C151.195 266.498 151.117 266.891 150.961 267.219C150.809 267.543 150.592 267.814 150.311 268.033C150.033 268.248 149.707 268.42 149.332 268.549L148.775 268.842H146.01L145.998 267.471H148.055C148.363 267.471 148.619 267.416 148.822 267.307C149.025 267.197 149.178 267.045 149.279 266.85C149.385 266.654 149.438 266.428 149.438 266.17C149.438 265.896 149.387 265.66 149.285 265.461C149.184 265.262 149.029 265.109 148.822 265.004C148.615 264.898 148.355 264.846 148.043 264.846H146.619V272H144.861V263.469ZM149.631 272L147.686 268.197L149.543 268.186L151.512 271.918V272H149.631Z" fill="#2AC77B"/>
<path d="M10.0742 193.535V193.939C10.0742 194.588 9.98633 195.17 9.81055 195.686C9.63477 196.201 9.38672 196.641 9.06641 197.004C8.74609 197.363 8.36328 197.639 7.91797 197.83C7.47656 198.021 6.98633 198.117 6.44727 198.117C5.91211 198.117 5.42188 198.021 4.97656 197.83C4.53516 197.639 4.15234 197.363 3.82812 197.004C3.50391 196.641 3.25195 196.201 3.07227 195.686C2.89648 195.17 2.80859 194.588 2.80859 193.939V193.535C2.80859 192.883 2.89648 192.301 3.07227 191.789C3.24805 191.273 3.49609 190.834 3.81641 190.471C4.14062 190.107 4.52344 189.83 4.96484 189.639C5.41016 189.447 5.90039 189.352 6.43555 189.352C6.97461 189.352 7.46484 189.447 7.90625 189.639C8.35156 189.83 8.73438 190.107 9.05469 190.471C9.37891 190.834 9.62891 191.273 9.80469 191.789C9.98438 192.301 10.0742 192.883 10.0742 193.535ZM8.29883 193.939V193.523C8.29883 193.07 8.25781 192.672 8.17578 192.328C8.09375 191.984 7.97266 191.695 7.8125 191.461C7.65234 191.227 7.45703 191.051 7.22656 190.934C6.99609 190.812 6.73242 190.752 6.43555 190.752C6.13867 190.752 5.875 190.812 5.64453 190.934C5.41797 191.051 5.22461 191.227 5.06445 191.461C4.9082 191.695 4.78906 191.984 4.70703 192.328C4.625 192.672 4.58398 193.07 4.58398 193.523V193.939C4.58398 194.389 4.625 194.787 4.70703 195.135C4.78906 195.479 4.91016 195.77 5.07031 196.008C5.23047 196.242 5.42578 196.42 5.65625 196.541C5.88672 196.662 6.15039 196.723 6.44727 196.723C6.74414 196.723 7.00781 196.662 7.23828 196.541C7.46875 196.42 7.66211 196.242 7.81836 196.008C7.97461 195.77 8.09375 195.479 8.17578 195.135C8.25781 194.787 8.29883 194.389 8.29883 193.939ZM16.0508 189.469H17.8027V195.105C17.8027 195.762 17.6621 196.314 17.3809 196.764C17.1035 197.213 16.7188 197.551 16.2266 197.777C15.7383 198.004 15.1758 198.117 14.5391 198.117C13.9023 198.117 13.3359 198.004 12.8398 197.777C12.3477 197.551 11.9609 197.213 11.6797 196.764C11.4023 196.314 11.2637 195.762 11.2637 195.105V189.469H13.0215V195.105C13.0215 195.488 13.082 195.801 13.2031 196.043C13.3242 196.285 13.498 196.463 13.7246 196.576C13.9551 196.689 14.2266 196.746 14.5391 196.746C14.8594 196.746 15.1309 196.689 15.3535 196.576C15.5801 196.463 15.752 196.285 15.8691 196.043C15.9902 195.801 16.0508 195.488 16.0508 195.105V189.469ZM23.0645 189.469V198H21.3125V189.469H23.0645ZM25.6895 189.469V190.846H18.7285V189.469H25.6895ZM31.0391 195.768C31.0391 195.615 31.0156 195.479 30.9688 195.357C30.9258 195.232 30.8438 195.119 30.7227 195.018C30.6016 194.912 30.4316 194.809 30.2129 194.707C29.9941 194.605 29.7109 194.5 29.3633 194.391C28.9766 194.266 28.6094 194.125 28.2617 193.969C27.918 193.812 27.6133 193.631 27.3477 193.424C27.0859 193.213 26.8789 192.969 26.7266 192.691C26.5781 192.414 26.5039 192.092 26.5039 191.725C26.5039 191.369 26.582 191.047 26.7383 190.758C26.8945 190.465 27.1133 190.215 27.3945 190.008C27.6758 189.797 28.0078 189.635 28.3906 189.521C28.7773 189.408 29.2012 189.352 29.6621 189.352C30.291 189.352 30.8398 189.465 31.3086 189.691C31.7773 189.918 32.1406 190.229 32.3984 190.623C32.6602 191.018 32.791 191.469 32.791 191.977H31.0449C31.0449 191.727 30.9922 191.508 30.8867 191.32C30.7852 191.129 30.6289 190.979 30.418 190.869C30.2109 190.76 29.9492 190.705 29.6328 190.705C29.3281 190.705 29.0742 190.752 28.8711 190.846C28.668 190.936 28.5156 191.059 28.4141 191.215C28.3125 191.367 28.2617 191.539 28.2617 191.73C28.2617 191.875 28.2969 192.006 28.3672 192.123C28.4414 192.24 28.5508 192.35 28.6953 192.451C28.8398 192.553 29.0176 192.648 29.2285 192.738C29.4395 192.828 29.6836 192.916 29.9609 193.002C30.4258 193.143 30.834 193.301 31.1855 193.477C31.541 193.652 31.8379 193.85 32.0762 194.068C32.3145 194.287 32.4941 194.535 32.6152 194.812C32.7363 195.09 32.7969 195.404 32.7969 195.756C32.7969 196.127 32.7246 196.459 32.5801 196.752C32.4355 197.045 32.2266 197.293 31.9531 197.496C31.6797 197.699 31.3535 197.854 30.9746 197.959C30.5957 198.064 30.1719 198.117 29.7031 198.117C29.2812 198.117 28.8652 198.062 28.4551 197.953C28.0449 197.84 27.6719 197.67 27.3359 197.443C27.0039 197.217 26.7383 196.928 26.5391 196.576C26.3398 196.225 26.2402 195.809 26.2402 195.328H28.0039C28.0039 195.594 28.0449 195.818 28.127 196.002C28.209 196.186 28.3242 196.334 28.4727 196.447C28.625 196.561 28.8047 196.643 29.0117 196.693C29.2227 196.744 29.4531 196.77 29.7031 196.77C30.0078 196.77 30.2578 196.727 30.4531 196.641C30.6523 196.555 30.7988 196.436 30.8926 196.283C30.9902 196.131 31.0391 195.959 31.0391 195.768ZM35.8613 189.469V198H34.1094V189.469H35.8613ZM40.127 198H38.2695L38.2812 196.629H40.127C40.5879 196.629 40.9766 196.525 41.293 196.318C41.6094 196.107 41.8477 195.801 42.0078 195.398C42.1719 194.996 42.2539 194.51 42.2539 193.939V193.523C42.2539 193.086 42.207 192.701 42.1133 192.369C42.0234 192.037 41.8887 191.758 41.709 191.531C41.5293 191.305 41.3086 191.135 41.0469 191.021C40.7852 190.904 40.4844 190.846 40.1445 190.846H38.2344V189.469H40.1445C40.7148 189.469 41.2363 189.566 41.709 189.762C42.1855 189.953 42.5977 190.229 42.9453 190.588C43.293 190.947 43.5605 191.377 43.748 191.877C43.9395 192.373 44.0352 192.926 44.0352 193.535V193.939C44.0352 194.545 43.9395 195.098 43.748 195.598C43.5605 196.098 43.293 196.527 42.9453 196.887C42.6016 197.242 42.1895 197.518 41.709 197.713C41.2324 197.904 40.7051 198 40.127 198ZM39.2656 189.469V198H37.5078V189.469H39.2656ZM51.0371 196.629V198H46.4961V196.629H51.0371ZM47.0703 189.469V198H45.3125V189.469H47.0703ZM50.4453 192.943V194.279H46.4961V192.943H50.4453ZM51.0312 189.469V190.846H46.4961V189.469H51.0312ZM59.9961 195.17H61.748C61.7129 195.744 61.5547 196.254 61.2734 196.699C60.9961 197.145 60.6074 197.492 60.1074 197.742C59.6113 197.992 59.0137 198.117 58.3145 198.117C57.7676 198.117 57.2773 198.023 56.8438 197.836C56.4102 197.645 56.0391 197.371 55.7305 197.016C55.4258 196.66 55.1934 196.23 55.0332 195.727C54.873 195.223 54.793 194.658 54.793 194.033V193.441C54.793 192.816 54.875 192.252 55.0391 191.748C55.207 191.24 55.4453 190.809 55.7539 190.453C56.0664 190.098 56.4395 189.824 56.873 189.633C57.3066 189.441 57.791 189.346 58.3262 189.346C59.0371 189.346 59.6367 189.475 60.125 189.732C60.6172 189.99 60.998 190.346 61.2676 190.799C61.541 191.252 61.7051 191.768 61.7598 192.346H60.002C59.9824 192.002 59.9141 191.711 59.7969 191.473C59.6797 191.23 59.502 191.049 59.2637 190.928C59.0293 190.803 58.7168 190.74 58.3262 190.74C58.0332 190.74 57.7773 190.795 57.5586 190.904C57.3398 191.014 57.1562 191.18 57.0078 191.402C56.8594 191.625 56.748 191.906 56.6738 192.246C56.6035 192.582 56.5684 192.977 56.5684 193.43V194.033C56.5684 194.475 56.6016 194.863 56.668 195.199C56.7344 195.531 56.8359 195.812 56.9727 196.043C57.1133 196.27 57.293 196.441 57.5117 196.559C57.7344 196.672 58.002 196.729 58.3145 196.729C58.6816 196.729 58.9844 196.67 59.2227 196.553C59.4609 196.436 59.6426 196.262 59.7676 196.031C59.8965 195.801 59.9727 195.514 59.9961 195.17ZM66.3711 190.928L64.0508 198H62.1816L65.3516 189.469H66.541L66.3711 190.928ZM68.2988 198L65.9727 190.928L65.7852 189.469H66.9863L70.1738 198H68.2988ZM68.1934 194.824V196.201H63.6875V194.824H68.1934ZM70.9648 189.469H74.1465C74.7988 189.469 75.3594 189.566 75.8281 189.762C76.3008 189.957 76.6641 190.246 76.918 190.629C77.1719 191.012 77.2988 191.482 77.2988 192.041C77.2988 192.498 77.2207 192.891 77.0645 193.219C76.9121 193.543 76.6953 193.814 76.4141 194.033C76.1367 194.248 75.8105 194.42 75.4355 194.549L74.8789 194.842H72.1133L72.1016 193.471H74.1582C74.4668 193.471 74.7227 193.416 74.9258 193.307C75.1289 193.197 75.2812 193.045 75.3828 192.85C75.4883 192.654 75.541 192.428 75.541 192.17C75.541 191.896 75.4902 191.66 75.3887 191.461C75.2871 191.262 75.1328 191.109 74.9258 191.004C74.7188 190.898 74.459 190.846 74.1465 190.846H72.7227V198H70.9648V189.469ZM75.7344 198L73.7891 194.197L75.6465 194.186L77.6152 197.918V198H75.7344ZM81.2715 198H79.4141L79.4258 196.629H81.2715C81.7324 196.629 82.1211 196.525 82.4375 196.318C82.7539 196.107 82.9922 195.801 83.1523 195.398C83.3164 194.996 83.3984 194.51 83.3984 193.939V193.523C83.3984 193.086 83.3516 192.701 83.2578 192.369C83.168 192.037 83.0332 191.758 82.8535 191.531C82.6738 191.305 82.4531 191.135 82.1914 191.021C81.9297 190.904 81.6289 190.846 81.2891 190.846H79.3789V189.469H81.2891C81.8594 189.469 82.3809 189.566 82.8535 189.762C83.3301 189.953 83.7422 190.229 84.0898 190.588C84.4375 190.947 84.7051 191.377 84.8926 191.877C85.084 192.373 85.1797 192.926 85.1797 193.535V193.939C85.1797 194.545 85.084 195.098 84.8926 195.598C84.7051 196.098 84.4375 196.527 84.0898 196.887C83.7461 197.242 83.334 197.518 82.8535 197.713C82.377 197.904 81.8496 198 81.2715 198ZM80.4102 189.469V198H78.6523V189.469H80.4102ZM19.5254 201.469V210H17.7676L14.3398 204.281V210H12.582V201.469H14.3398L17.7734 207.193V201.469H19.5254ZM26.7793 208.629V210H22.2383V208.629H26.7793ZM22.8125 201.469V210H21.0547V201.469H22.8125ZM26.1875 204.943V206.279H22.2383V204.943H26.1875ZM26.7734 201.469V202.846H22.2383V201.469H26.7734ZM31.7363 201.469V210H29.9844V201.469H31.7363ZM34.3613 201.469V202.846H27.4004V201.469H34.3613ZM37.5137 208.646L39.2129 201.469H40.1621L40.3789 202.664L38.5684 210H37.5488L37.5137 208.646ZM36.6406 201.469L38.0469 208.646L37.9297 210H36.793L34.9004 201.469H36.6406ZM41.873 208.617L43.2617 201.469H45.002L43.1152 210H41.9785L41.873 208.617ZM40.6953 201.469L42.4062 208.676L42.3594 210H41.3398L39.5176 202.658L39.752 201.469H40.6953ZM52.9648 205.535V205.939C52.9648 206.588 52.877 207.17 52.7012 207.686C52.5254 208.201 52.2773 208.641 51.957 209.004C51.6367 209.363 51.2539 209.639 50.8086 209.83C50.3672 210.021 49.877 210.117 49.3379 210.117C48.8027 210.117 48.3125 210.021 47.8672 209.83C47.4258 209.639 47.043 209.363 46.7188 209.004C46.3945 208.641 46.1426 208.201 45.9629 207.686C45.7871 207.17 45.6992 206.588 45.6992 205.939V205.535C45.6992 204.883 45.7871 204.301 45.9629 203.789C46.1387 203.273 46.3867 202.834 46.707 202.471C47.0312 202.107 47.4141 201.83 47.8555 201.639C48.3008 201.447 48.791 201.352 49.3262 201.352C49.8652 201.352 50.3555 201.447 50.7969 201.639C51.2422 201.83 51.625 202.107 51.9453 202.471C52.2695 202.834 52.5195 203.273 52.6953 203.789C52.875 204.301 52.9648 204.883 52.9648 205.535ZM51.1895 205.939V205.523C51.1895 205.07 51.1484 204.672 51.0664 204.328C50.9844 203.984 50.8633 203.695 50.7031 203.461C50.543 203.227 50.3477 203.051 50.1172 202.934C49.8867 202.812 49.623 202.752 49.3262 202.752C49.0293 202.752 48.7656 202.812 48.5352 202.934C48.3086 203.051 48.1152 203.227 47.9551 203.461C47.7988 203.695 47.6797 203.984 47.5977 204.328C47.5156 204.672 47.4746 205.07 47.4746 205.523V205.939C47.4746 206.389 47.5156 206.787 47.5977 207.135C47.6797 207.479 47.8008 207.77 47.9609 208.008C48.1211 208.242 48.3164 208.42 48.5469 208.541C48.7773 208.662 49.041 208.723 49.3379 208.723C49.6348 208.723 49.8984 208.662 50.1289 208.541C50.3594 208.42 50.5527 208.242 50.709 208.008C50.8652 207.77 50.9844 207.479 51.0664 207.135C51.1484 206.787 51.1895 206.389 51.1895 205.939ZM54.2305 201.469H57.4121C58.0645 201.469 58.625 201.566 59.0938 201.762C59.5664 201.957 59.9297 202.246 60.1836 202.629C60.4375 203.012 60.5645 203.482 60.5645 204.041C60.5645 204.498 60.4863 204.891 60.3301 205.219C60.1777 205.543 59.9609 205.814 59.6797 206.033C59.4023 206.248 59.0762 206.42 58.7012 206.549L58.1445 206.842H55.3789L55.3672 205.471H57.4238C57.7324 205.471 57.9883 205.416 58.1914 205.307C58.3945 205.197 58.5469 205.045 58.6484 204.85C58.7539 204.654 58.8066 204.428 58.8066 204.17C58.8066 203.896 58.7559 203.66 58.6543 203.461C58.5527 203.262 58.3984 203.109 58.1914 203.004C57.9844 202.898 57.7246 202.846 57.4121 202.846H55.9883V210H54.2305V201.469ZM59 210L57.0547 206.197L58.9121 206.186L60.8809 209.918V210H59ZM63.6758 201.469V210H61.918V201.469H63.6758ZM68.7852 201.469L65.4043 205.682L63.4531 207.779L63.1367 206.115L64.4551 204.311L66.6289 201.469H68.7852ZM66.7871 210L64.2734 206.057L65.5742 204.967L68.8672 210H66.7871ZM73.9883 207.768C73.9883 207.615 73.9648 207.479 73.918 207.357C73.875 207.232 73.793 207.119 73.6719 207.018C73.5508 206.912 73.3809 206.809 73.1621 206.707C72.9434 206.605 72.6602 206.5 72.3125 206.391C71.9258 206.266 71.5586 206.125 71.2109 205.969C70.8672 205.812 70.5625 205.631 70.2969 205.424C70.0352 205.213 69.8281 204.969 69.6758 204.691C69.5273 204.414 69.4531 204.092 69.4531 203.725C69.4531 203.369 69.5312 203.047 69.6875 202.758C69.8438 202.465 70.0625 202.215 70.3438 202.008C70.625 201.797 70.957 201.635 71.3398 201.521C71.7266 201.408 72.1504 201.352 72.6113 201.352C73.2402 201.352 73.7891 201.465 74.2578 201.691C74.7266 201.918 75.0898 202.229 75.3477 202.623C75.6094 203.018 75.7402 203.469 75.7402 203.977H73.9941C73.9941 203.727 73.9414 203.508 73.8359 203.32C73.7344 203.129 73.5781 202.979 73.3672 202.869C73.1602 202.76 72.8984 202.705 72.582 202.705C72.2773 202.705 72.0234 202.752 71.8203 202.846C71.6172 202.936 71.4648 203.059 71.3633 203.215C71.2617 203.367 71.2109 203.539 71.2109 203.73C71.2109 203.875 71.2461 204.006 71.3164 204.123C71.3906 204.24 71.5 204.35 71.6445 204.451C71.7891 204.553 71.9668 204.648 72.1777 204.738C72.3887 204.828 72.6328 204.916 72.9102 205.002C73.375 205.143 73.7832 205.301 74.1348 205.477C74.4902 205.652 74.7871 205.85 75.0254 206.068C75.2637 206.287 75.4434 206.535 75.5645 206.812C75.6855 207.09 75.7461 207.404 75.7461 207.756C75.7461 208.127 75.6738 208.459 75.5293 208.752C75.3848 209.045 75.1758 209.293 74.9023 209.496C74.6289 209.699 74.3027 209.854 73.9238 209.959C73.5449 210.064 73.1211 210.117 72.6523 210.117C72.2305 210.117 71.8145 210.062 71.4043 209.953C70.9941 209.84 70.6211 209.67 70.2852 209.443C69.9531 209.217 69.6875 208.928 69.4883 208.576C69.2891 208.225 69.1895 207.809 69.1895 207.328H70.9531C70.9531 207.594 70.9941 207.818 71.0762 208.002C71.1582 208.186 71.2734 208.334 71.4219 208.447C71.5742 208.561 71.7539 208.643 71.9609 208.693C72.1719 208.744 72.4023 208.77 72.6523 208.77C72.957 208.77 73.207 208.727 73.4023 208.641C73.6016 208.555 73.748 208.436 73.8418 208.283C73.9395 208.131 73.9883 207.959 73.9883 207.768ZM28.1855 213.469H31.3672C32.0195 213.469 32.5801 213.566 33.0488 213.762C33.5215 213.957 33.8848 214.246 34.1387 214.629C34.3926 215.012 34.5195 215.482 34.5195 216.041C34.5195 216.498 34.4414 216.891 34.2852 217.219C34.1328 217.543 33.916 217.814 33.6348 218.033C33.3574 218.248 33.0312 218.42 32.6562 218.549L32.0996 218.842H29.334L29.3223 217.471H31.3789C31.6875 217.471 31.9434 217.416 32.1465 217.307C32.3496 217.197 32.502 217.045 32.6035 216.85C32.709 216.654 32.7617 216.428 32.7617 216.17C32.7617 215.896 32.7109 215.66 32.6094 215.461C32.5078 215.262 32.3535 215.109 32.1465 215.004C31.9395 214.898 31.6797 214.846 31.3672 214.846H29.9434V222H28.1855V213.469ZM32.9551 222L31.0098 218.197L32.8672 218.186L34.8359 221.918V222H32.9551ZM39.3418 214.928L37.0215 222H35.1523L38.3223 213.469H39.5117L39.3418 214.928ZM41.2695 222L38.9434 214.928L38.7559 213.469H39.957L43.1445 222H41.2695ZM41.1641 218.824V220.201H36.6582V218.824H41.1641ZM45.8047 213.469V222H44.0527V213.469H45.8047ZM52.9355 220.629V222H48.6406V220.629H52.9355ZM49.209 213.469V222H47.4512V213.469H49.209ZM58.3848 219.768C58.3848 219.615 58.3613 219.479 58.3145 219.357C58.2715 219.232 58.1895 219.119 58.0684 219.018C57.9473 218.912 57.7773 218.809 57.5586 218.707C57.3398 218.605 57.0566 218.5 56.709 218.391C56.3223 218.266 55.9551 218.125 55.6074 217.969C55.2637 217.812 54.959 217.631 54.6934 217.424C54.4316 217.213 54.2246 216.969 54.0723 216.691C53.9238 216.414 53.8496 216.092 53.8496 215.725C53.8496 215.369 53.9277 215.047 54.084 214.758C54.2402 214.465 54.459 214.215 54.7402 214.008C55.0215 213.797 55.3535 213.635 55.7363 213.521C56.123 213.408 56.5469 213.352 57.0078 213.352C57.6367 213.352 58.1855 213.465 58.6543 213.691C59.123 213.918 59.4863 214.229 59.7441 214.623C60.0059 215.018 60.1367 215.469 60.1367 215.977H58.3906C58.3906 215.727 58.3379 215.508 58.2324 215.32C58.1309 215.129 57.9746 214.979 57.7637 214.869C57.5566 214.76 57.2949 214.705 56.9785 214.705C56.6738 214.705 56.4199 214.752 56.2168 214.846C56.0137 214.936 55.8613 215.059 55.7598 215.215C55.6582 215.367 55.6074 215.539 55.6074 215.73C55.6074 215.875 55.6426 216.006 55.7129 216.123C55.7871 216.24 55.8965 216.35 56.041 216.451C56.1855 216.553 56.3633 216.648 56.5742 216.738C56.7852 216.828 57.0293 216.916 57.3066 217.002C57.7715 217.143 58.1797 217.301 58.5312 217.477C58.8867 217.652 59.1836 217.85 59.4219 218.068C59.6602 218.287 59.8398 218.535 59.9609 218.812C60.082 219.09 60.1426 219.404 60.1426 219.756C60.1426 220.127 60.0703 220.459 59.9258 220.752C59.7812 221.045 59.5723 221.293 59.2988 221.496C59.0254 221.699 58.6992 221.854 58.3203 221.959C57.9414 222.064 57.5176 222.117 57.0488 222.117C56.627 222.117 56.2109 222.062 55.8008 221.953C55.3906 221.84 55.0176 221.67 54.6816 221.443C54.3496 221.217 54.084 220.928 53.8848 220.576C53.6855 220.225 53.5859 219.809 53.5859 219.328H55.3496C55.3496 219.594 55.3906 219.818 55.4727 220.002C55.5547 220.186 55.6699 220.334 55.8184 220.447C55.9707 220.561 56.1504 220.643 56.3574 220.693C56.5684 220.744 56.7988 220.77 57.0488 220.77C57.3535 220.77 57.6035 220.727 57.7988 220.641C57.998 220.555 58.1445 220.436 58.2383 220.283C58.3359 220.131 58.3848 219.959 58.3848 219.768Z" fill="#2AC77B"/>
<path d="M180.797 196.682V198H174.961V196.875L177.721 193.916C177.998 193.607 178.217 193.336 178.377 193.102C178.537 192.863 178.652 192.65 178.723 192.463C178.797 192.271 178.834 192.09 178.834 191.918C178.834 191.66 178.791 191.439 178.705 191.256C178.619 191.068 178.492 190.924 178.324 190.822C178.16 190.721 177.957 190.67 177.715 190.67C177.457 190.67 177.234 190.732 177.047 190.857C176.863 190.982 176.723 191.156 176.625 191.379C176.531 191.602 176.484 191.854 176.484 192.135H174.791C174.791 191.627 174.912 191.162 175.154 190.74C175.396 190.314 175.738 189.977 176.18 189.727C176.621 189.473 177.145 189.346 177.75 189.346C178.348 189.346 178.852 189.443 179.262 189.639C179.676 189.83 179.988 190.107 180.199 190.471C180.414 190.83 180.521 191.26 180.521 191.76C180.521 192.041 180.477 192.316 180.387 192.586C180.297 192.852 180.168 193.117 180 193.383C179.836 193.645 179.637 193.91 179.402 194.18C179.168 194.449 178.908 194.729 178.623 195.018L177.141 196.682H180.797ZM187.828 194.812V196.137H181.682L181.6 195.111L185.156 189.469H186.498L185.045 191.9L183.275 194.812H187.828ZM186.861 189.469V198H185.174V189.469H186.861ZM192.457 189.469L189.328 198.732H188.074L191.203 189.469H192.457ZM198.99 189.469V190.377L195.691 198H193.91L197.209 190.787H192.961V189.469H198.99ZM203.801 189.469L200.672 198.732H199.418L202.547 189.469H203.801ZM206.268 193.002H207.17C207.459 193.002 207.697 192.953 207.885 192.855C208.072 192.754 208.211 192.613 208.301 192.434C208.395 192.25 208.441 192.037 208.441 191.795C208.441 191.576 208.398 191.383 208.312 191.215C208.23 191.043 208.104 190.91 207.932 190.816C207.76 190.719 207.543 190.67 207.281 190.67C207.074 190.67 206.883 190.711 206.707 190.793C206.531 190.875 206.391 190.99 206.285 191.139C206.18 191.287 206.127 191.467 206.127 191.678H204.434C204.434 191.209 204.559 190.801 204.809 190.453C205.062 190.105 205.402 189.834 205.828 189.639C206.254 189.443 206.723 189.346 207.234 189.346C207.812 189.346 208.318 189.439 208.752 189.627C209.186 189.811 209.523 190.082 209.766 190.441C210.008 190.801 210.129 191.246 210.129 191.777C210.129 192.047 210.066 192.309 209.941 192.562C209.816 192.812 209.637 193.039 209.402 193.242C209.172 193.441 208.891 193.602 208.559 193.723C208.227 193.84 207.854 193.898 207.439 193.898H206.268V193.002ZM206.268 194.285V193.412H207.439C207.904 193.412 208.312 193.465 208.664 193.57C209.016 193.676 209.311 193.828 209.549 194.027C209.787 194.223 209.967 194.455 210.088 194.725C210.209 194.99 210.27 195.285 210.27 195.609C210.27 196.008 210.193 196.363 210.041 196.676C209.889 196.984 209.674 197.246 209.396 197.461C209.123 197.676 208.803 197.84 208.436 197.953C208.068 198.062 207.668 198.117 207.234 198.117C206.875 198.117 206.521 198.068 206.174 197.971C205.83 197.869 205.518 197.719 205.236 197.52C204.959 197.316 204.736 197.062 204.568 196.758C204.404 196.449 204.322 196.084 204.322 195.662H206.016C206.016 195.881 206.07 196.076 206.18 196.248C206.289 196.42 206.439 196.555 206.631 196.652C206.826 196.75 207.043 196.799 207.281 196.799C207.551 196.799 207.781 196.75 207.973 196.652C208.168 196.551 208.316 196.41 208.418 196.23C208.523 196.047 208.576 195.834 208.576 195.592C208.576 195.279 208.52 195.029 208.406 194.842C208.293 194.65 208.131 194.51 207.92 194.42C207.709 194.33 207.459 194.285 207.17 194.285H206.268ZM215.783 189.381H216.029V190.729H215.93C215.484 190.729 215.088 190.795 214.74 190.928C214.393 191.061 214.098 191.25 213.855 191.496C213.617 191.738 213.434 192.031 213.305 192.375C213.18 192.719 213.117 193.104 213.117 193.529V194.947C213.117 195.252 213.146 195.521 213.205 195.756C213.268 195.986 213.355 196.18 213.469 196.336C213.586 196.488 213.723 196.604 213.879 196.682C214.035 196.756 214.211 196.793 214.406 196.793C214.59 196.793 214.756 196.754 214.904 196.676C215.057 196.598 215.186 196.488 215.291 196.348C215.4 196.203 215.482 196.035 215.537 195.844C215.596 195.648 215.625 195.436 215.625 195.205C215.625 194.975 215.596 194.762 215.537 194.566C215.482 194.371 215.4 194.203 215.291 194.062C215.182 193.918 215.049 193.807 214.893 193.729C214.736 193.65 214.561 193.611 214.365 193.611C214.1 193.611 213.865 193.674 213.662 193.799C213.463 193.92 213.307 194.076 213.193 194.268C213.08 194.459 213.02 194.66 213.012 194.871L212.502 194.543C212.514 194.242 212.576 193.957 212.689 193.688C212.807 193.418 212.967 193.18 213.17 192.973C213.377 192.762 213.625 192.598 213.914 192.48C214.203 192.359 214.529 192.299 214.893 192.299C215.291 192.299 215.641 192.375 215.941 192.527C216.246 192.68 216.5 192.889 216.703 193.154C216.906 193.42 217.059 193.727 217.16 194.074C217.262 194.422 217.312 194.793 217.312 195.188C217.312 195.602 217.244 195.986 217.107 196.342C216.975 196.697 216.781 197.008 216.527 197.273C216.277 197.539 215.977 197.746 215.625 197.895C215.273 198.043 214.879 198.117 214.441 198.117C213.988 198.117 213.576 198.035 213.205 197.871C212.838 197.703 212.521 197.469 212.256 197.168C211.99 196.867 211.785 196.51 211.641 196.096C211.5 195.682 211.43 195.229 211.43 194.736V194.08C211.43 193.393 211.529 192.764 211.729 192.193C211.932 191.619 212.223 191.123 212.602 190.705C212.98 190.283 213.438 189.957 213.973 189.727C214.508 189.496 215.111 189.381 215.783 189.381ZM219.908 194.115L218.561 193.793L219.047 189.469H223.84V190.834H220.436L220.225 192.727C220.338 192.66 220.51 192.59 220.74 192.516C220.971 192.438 221.229 192.398 221.514 192.398C221.928 192.398 222.295 192.463 222.615 192.592C222.936 192.721 223.207 192.908 223.43 193.154C223.656 193.4 223.828 193.701 223.945 194.057C224.062 194.412 224.121 194.814 224.121 195.264C224.121 195.643 224.062 196.004 223.945 196.348C223.828 196.688 223.65 196.992 223.412 197.262C223.174 197.527 222.875 197.736 222.516 197.889C222.156 198.041 221.73 198.117 221.238 198.117C220.871 198.117 220.516 198.062 220.172 197.953C219.832 197.844 219.525 197.682 219.252 197.467C218.982 197.252 218.766 196.992 218.602 196.688C218.441 196.379 218.357 196.027 218.35 195.633H220.025C220.049 195.875 220.111 196.084 220.213 196.26C220.318 196.432 220.457 196.564 220.629 196.658C220.801 196.752 221.002 196.799 221.232 196.799C221.447 196.799 221.631 196.758 221.783 196.676C221.936 196.594 222.059 196.48 222.152 196.336C222.246 196.188 222.314 196.016 222.357 195.82C222.404 195.621 222.428 195.406 222.428 195.176C222.428 194.945 222.4 194.736 222.346 194.549C222.291 194.361 222.207 194.199 222.094 194.062C221.98 193.926 221.836 193.82 221.66 193.746C221.488 193.672 221.287 193.635 221.057 193.635C220.744 193.635 220.502 193.684 220.33 193.781C220.162 193.879 220.021 193.99 219.908 194.115ZM163.717 204.58L162.293 206.941L160.992 206.936V206.859L162.633 204.58H163.717ZM162.293 206.889L163.717 209.256H162.633L160.992 206.971V206.895L162.293 206.889ZM165.984 204.58L164.561 206.941L163.26 206.936V206.859L164.9 204.58H165.984ZM164.561 206.889L165.984 209.256H164.9L163.26 206.971V206.895L164.561 206.889ZM170.777 202.928L168.457 210H166.588L169.758 201.469H170.947L170.777 202.928ZM172.705 210L170.379 202.928L170.191 201.469H171.393L174.58 210H172.705ZM172.6 206.824V208.201H168.094V206.824H172.6ZM180.855 208.629V210H176.561V208.629H180.855ZM177.129 201.469V210H175.371V201.469H177.129ZM183.275 208.646L184.975 201.469H185.924L186.141 202.664L184.33 210H183.311L183.275 208.646ZM182.402 201.469L183.809 208.646L183.691 210H182.555L180.662 201.469H182.402ZM187.635 208.617L189.023 201.469H190.764L188.877 210H187.74L187.635 208.617ZM186.457 201.469L188.168 208.676L188.121 210H187.102L185.279 202.658L185.514 201.469H186.457ZM194.93 202.928L192.609 210H190.74L193.91 201.469H195.1L194.93 202.928ZM196.857 210L194.531 202.928L194.344 201.469H195.545L198.732 210H196.857ZM196.752 206.824V208.201H192.246V206.824H196.752ZM199.922 201.469L201.703 205.359L203.484 201.469H205.4L202.594 206.895V210H200.812V206.895L198 201.469H199.922ZM210.527 207.768C210.527 207.615 210.504 207.479 210.457 207.357C210.414 207.232 210.332 207.119 210.211 207.018C210.09 206.912 209.92 206.809 209.701 206.707C209.482 206.605 209.199 206.5 208.852 206.391C208.465 206.266 208.098 206.125 207.75 205.969C207.406 205.812 207.102 205.631 206.836 205.424C206.574 205.213 206.367 204.969 206.215 204.691C206.066 204.414 205.992 204.092 205.992 203.725C205.992 203.369 206.07 203.047 206.227 202.758C206.383 202.465 206.602 202.215 206.883 202.008C207.164 201.797 207.496 201.635 207.879 201.521C208.266 201.408 208.689 201.352 209.15 201.352C209.779 201.352 210.328 201.465 210.797 201.691C211.266 201.918 211.629 202.229 211.887 202.623C212.148 203.018 212.279 203.469 212.279 203.977H210.533C210.533 203.727 210.48 203.508 210.375 203.32C210.273 203.129 210.117 202.979 209.906 202.869C209.699 202.76 209.438 202.705 209.121 202.705C208.816 202.705 208.562 202.752 208.359 202.846C208.156 202.936 208.004 203.059 207.902 203.215C207.801 203.367 207.75 203.539 207.75 203.73C207.75 203.875 207.785 204.006 207.855 204.123C207.93 204.24 208.039 204.35 208.184 204.451C208.328 204.553 208.506 204.648 208.717 204.738C208.928 204.828 209.172 204.916 209.449 205.002C209.914 205.143 210.322 205.301 210.674 205.477C211.029 205.652 211.326 205.85 211.564 206.068C211.803 206.287 211.982 206.535 212.104 206.812C212.225 207.09 212.285 207.404 212.285 207.756C212.285 208.127 212.213 208.459 212.068 208.752C211.924 209.045 211.715 209.293 211.441 209.496C211.168 209.699 210.842 209.854 210.463 209.959C210.084 210.064 209.66 210.117 209.191 210.117C208.77 210.117 208.354 210.062 207.943 209.953C207.533 209.84 207.16 209.67 206.824 209.443C206.492 209.217 206.227 208.928 206.027 208.576C205.828 208.225 205.729 207.809 205.729 207.328H207.492C207.492 207.594 207.533 207.818 207.615 208.002C207.697 208.186 207.812 208.334 207.961 208.447C208.113 208.561 208.293 208.643 208.5 208.693C208.711 208.744 208.941 208.77 209.191 208.77C209.496 208.77 209.746 208.727 209.941 208.641C210.141 208.555 210.287 208.436 210.381 208.283C210.479 208.131 210.527 207.959 210.527 207.768ZM223.477 205.535V205.939C223.477 206.588 223.389 207.17 223.213 207.686C223.037 208.201 222.789 208.641 222.469 209.004C222.148 209.363 221.766 209.639 221.32 209.83C220.879 210.021 220.389 210.117 219.85 210.117C219.314 210.117 218.824 210.021 218.379 209.83C217.938 209.639 217.555 209.363 217.23 209.004C216.906 208.641 216.654 208.201 216.475 207.686C216.299 207.17 216.211 206.588 216.211 205.939V205.535C216.211 204.883 216.299 204.301 216.475 203.789C216.65 203.273 216.898 202.834 217.219 202.471C217.543 202.107 217.926 201.83 218.367 201.639C218.812 201.447 219.303 201.352 219.838 201.352C220.377 201.352 220.867 201.447 221.309 201.639C221.754 201.83 222.137 202.107 222.457 202.471C222.781 202.834 223.031 203.273 223.207 203.789C223.387 204.301 223.477 204.883 223.477 205.535ZM221.701 205.939V205.523C221.701 205.07 221.66 204.672 221.578 204.328C221.496 203.984 221.375 203.695 221.215 203.461C221.055 203.227 220.859 203.051 220.629 202.934C220.398 202.812 220.135 202.752 219.838 202.752C219.541 202.752 219.277 202.812 219.047 202.934C218.82 203.051 218.627 203.227 218.467 203.461C218.311 203.695 218.191 203.984 218.109 204.328C218.027 204.672 217.986 205.07 217.986 205.523V205.939C217.986 206.389 218.027 206.787 218.109 207.135C218.191 207.479 218.312 207.77 218.473 208.008C218.633 208.242 218.828 208.42 219.059 208.541C219.289 208.662 219.553 208.723 219.85 208.723C220.146 208.723 220.41 208.662 220.641 208.541C220.871 208.42 221.064 208.242 221.221 208.008C221.377 207.77 221.496 207.479 221.578 207.135C221.66 206.787 221.701 206.389 221.701 205.939ZM231.686 201.469V210H229.928L226.5 204.281V210H224.742V201.469H226.5L229.934 207.193V201.469H231.686ZM232.957 209.256L234.381 206.889L235.688 206.895V206.971L234.047 209.256H232.957ZM232.957 204.58H234.047L235.688 206.859V206.936L234.381 206.941L232.957 204.58ZM235.254 209.256L236.678 206.889L237.984 206.895V206.971L236.344 209.256H235.254ZM235.254 204.58H236.344L237.984 206.859V206.936L236.678 206.941L235.254 204.58ZM172.189 214.928L169.869 222H168L171.17 213.469H172.359L172.189 214.928ZM174.117 222L171.791 214.928L171.604 213.469H172.805L175.992 222H174.117ZM174.012 218.824V220.201H169.506V218.824H174.012ZM179.379 220.219L181.389 213.469H183.346L180.375 222H179.086L179.379 220.219ZM177.527 213.469L179.531 220.219L179.836 222H178.535L175.582 213.469H177.527ZM186.012 213.469V222H184.26V213.469H186.012ZM191.232 214.928L188.912 222H187.043L190.213 213.469H191.402L191.232 214.928ZM193.16 222L190.834 214.928L190.646 213.469H191.848L195.035 222H193.16ZM193.055 218.824V220.201H188.549V218.824H193.055ZM199.166 218.256H196.975L196.963 217.049H198.803C199.127 217.049 199.393 217.008 199.6 216.926C199.807 216.84 199.961 216.717 200.062 216.557C200.168 216.393 200.221 216.193 200.221 215.959C200.221 215.693 200.17 215.479 200.068 215.314C199.971 215.15 199.816 215.031 199.605 214.957C199.398 214.883 199.131 214.846 198.803 214.846H197.584V222H195.826V213.469H198.803C199.299 213.469 199.742 213.516 200.133 213.609C200.527 213.703 200.861 213.846 201.135 214.037C201.408 214.229 201.617 214.471 201.762 214.764C201.906 215.053 201.979 215.396 201.979 215.795C201.979 216.146 201.898 216.471 201.738 216.768C201.582 217.064 201.334 217.307 200.994 217.494C200.658 217.682 200.219 217.785 199.676 217.805L199.166 218.256ZM199.09 222H196.494L197.18 220.629H199.09C199.398 220.629 199.65 220.58 199.846 220.482C200.041 220.381 200.186 220.244 200.279 220.072C200.373 219.9 200.42 219.703 200.42 219.48C200.42 219.23 200.377 219.014 200.291 218.83C200.209 218.646 200.076 218.506 199.893 218.408C199.709 218.307 199.467 218.256 199.166 218.256H197.473L197.484 217.049H199.594L199.998 217.523C200.518 217.516 200.936 217.607 201.252 217.799C201.572 217.986 201.805 218.23 201.949 218.531C202.098 218.832 202.172 219.154 202.172 219.498C202.172 220.045 202.053 220.506 201.814 220.881C201.576 221.252 201.227 221.531 200.766 221.719C200.309 221.906 199.75 222 199.09 222ZM205.359 213.469V222H203.607V213.469H205.359ZM212.49 220.629V222H208.195V220.629H212.49ZM208.764 213.469V222H207.006V213.469H208.764ZM215.367 213.469V222H213.615V213.469H215.367ZM220.652 213.469V222H218.9V213.469H220.652ZM223.277 213.469V214.846H216.316V213.469H223.277ZM225.545 213.469L227.326 217.359L229.107 213.469H231.023L228.217 218.895V222H226.436V218.895L223.623 213.469H225.545Z" fill="#2AC77B"/>
<circle cx="121" cy="105" r="53" fill="#3D4255"/>
<path d="M134.005 104.493C134.005 108.133 131.054 111.084 127.414 111.084C123.774 111.084 120.823 108.133 120.823 104.493C120.823 100.853 123.774 97.9019 127.414 97.9019C131.054 97.9019 134.005 100.853 134.005 104.493Z" fill="#2AC77B"/>
<path fill-rule="evenodd" clip-rule="evenodd" d="M127.416 94.228H114.234C108.565 94.228 103.97 98.8237 103.97 104.493C103.97 110.162 108.565 114.757 114.234 114.757H127.416C133.085 114.757 137.681 110.162 137.681 104.493C137.681 98.8237 133.085 94.228 127.416 94.228ZM114.234 90.5543C106.536 90.5543 100.296 96.7948 100.296 104.493C100.296 112.191 106.536 118.431 114.234 118.431H127.416C135.114 118.431 141.355 112.191 141.355 104.493C141.355 96.7948 135.114 90.5543 127.416 90.5543H114.234Z" fill="#F7FAFB"/>
<circle cx="123" cy="208" r="7" fill="#2AC77B"/>
<circle cx="44" cy="174" r="7" fill="#2AC77B"/>
<circle cx="199" cy="174" r="7" fill="#2AC77B"/>
<defs>
<linearGradient id="paint0_linear_7169_2201" x1="121" y1="44.2088" x2="121" y2="136.76" gradientUnits="userSpaceOnUse">
<stop stop-color="#2AC77B"/>
<stop offset="1" stop-color="#2AC77B" stop-opacity="0"/>
</linearGradient>
<linearGradient id="paint1_linear_7169_2201" x1="121" y1="66.9272" x2="121" y2="113.169" gradientUnits="userSpaceOnUse">
<stop stop-color="#2AC77B"/>
<stop offset="1" stop-color="#2AC77B" stop-opacity="0"/>
</linearGradient>
</defs>
</svg>
