<svg width="579" height="345" viewBox="0 0 579 345" fill="none" xmlns="http://www.w3.org/2000/svg">
<ellipse cx="268" cy="152.5" rx="152" ry="152" transform="rotate(-180 268 152.5)" stroke="url(#paint0_linear_7169_2200)" stroke-opacity="0.56"/>
<ellipse cx="268" cy="152" rx="110" ry="110.5" transform="rotate(180 268 152)" stroke="url(#paint1_linear_7169_2200)" stroke-opacity="0.56"/>
<ellipse cx="268" cy="152" rx="67" ry="66.5" transform="rotate(180 268 152)" stroke="url(#paint2_linear_7169_2200)" stroke-opacity="0.56"/>
<path d="M209.729 323.969V332.5H207.971V323.969H209.729ZM213.127 327.613V328.984H209.248V327.613H213.127ZM213.537 323.969V325.346H209.248V323.969H213.537ZM219.268 323.969H221.02V329.605C221.02 330.262 220.879 330.814 220.598 331.264C220.32 331.713 219.936 332.051 219.443 332.277C218.955 332.504 218.393 332.617 217.756 332.617C217.119 332.617 216.553 332.504 216.057 332.277C215.564 332.051 215.178 331.713 214.896 331.264C214.619 330.814 214.48 330.262 214.48 329.605V323.969H216.238V329.605C216.238 329.988 216.299 330.301 216.42 330.543C216.541 330.785 216.715 330.963 216.941 331.076C217.172 331.189 217.443 331.246 217.756 331.246C218.076 331.246 218.348 331.189 218.57 331.076C218.797 330.963 218.969 330.785 219.086 330.543C219.207 330.301 219.268 329.988 219.268 329.605V323.969ZM229.41 323.969V332.5H227.652L224.225 326.781V332.5H222.467V323.969H224.225L227.658 329.693V323.969H229.41ZM233.559 332.5H231.701L231.713 331.129H233.559C234.02 331.129 234.408 331.025 234.725 330.818C235.041 330.607 235.279 330.301 235.439 329.898C235.604 329.496 235.686 329.01 235.686 328.439V328.023C235.686 327.586 235.639 327.201 235.545 326.869C235.455 326.537 235.32 326.258 235.141 326.031C234.961 325.805 234.74 325.635 234.479 325.521C234.217 325.404 233.916 325.346 233.576 325.346H231.666V323.969H233.576C234.146 323.969 234.668 324.066 235.141 324.262C235.617 324.453 236.029 324.729 236.377 325.088C236.725 325.447 236.992 325.877 237.18 326.377C237.371 326.873 237.467 327.426 237.467 328.035V328.439C237.467 329.045 237.371 329.598 237.18 330.098C236.992 330.598 236.725 331.027 236.377 331.387C236.033 331.742 235.621 332.018 235.141 332.213C234.664 332.404 234.137 332.5 233.559 332.5ZM232.697 323.969V332.5H230.939V323.969H232.697ZM243.186 330.268C243.186 330.115 243.162 329.979 243.115 329.857C243.072 329.732 242.99 329.619 242.869 329.518C242.748 329.412 242.578 329.309 242.359 329.207C242.141 329.105 241.857 329 241.51 328.891C241.123 328.766 240.756 328.625 240.408 328.469C240.064 328.312 239.76 328.131 239.494 327.924C239.232 327.713 239.025 327.469 238.873 327.191C238.725 326.914 238.65 326.592 238.65 326.225C238.65 325.869 238.729 325.547 238.885 325.258C239.041 324.965 239.26 324.715 239.541 324.508C239.822 324.297 240.154 324.135 240.537 324.021C240.924 323.908 241.348 323.852 241.809 323.852C242.438 323.852 242.986 323.965 243.455 324.191C243.924 324.418 244.287 324.729 244.545 325.123C244.807 325.518 244.938 325.969 244.938 326.477H243.191C243.191 326.227 243.139 326.008 243.033 325.82C242.932 325.629 242.775 325.479 242.564 325.369C242.357 325.26 242.096 325.205 241.779 325.205C241.475 325.205 241.221 325.252 241.018 325.346C240.814 325.436 240.662 325.559 240.561 325.715C240.459 325.867 240.408 326.039 240.408 326.23C240.408 326.375 240.443 326.506 240.514 326.623C240.588 326.74 240.697 326.85 240.842 326.951C240.986 327.053 241.164 327.148 241.375 327.238C241.586 327.328 241.83 327.416 242.107 327.502C242.572 327.643 242.98 327.801 243.332 327.977C243.688 328.152 243.984 328.35 244.223 328.568C244.461 328.787 244.641 329.035 244.762 329.312C244.883 329.59 244.943 329.904 244.943 330.256C244.943 330.627 244.871 330.959 244.727 331.252C244.582 331.545 244.373 331.793 244.1 331.996C243.826 332.199 243.5 332.354 243.121 332.459C242.742 332.564 242.318 332.617 241.85 332.617C241.428 332.617 241.012 332.562 240.602 332.453C240.191 332.34 239.818 332.17 239.482 331.943C239.15 331.717 238.885 331.428 238.686 331.076C238.486 330.725 238.387 330.309 238.387 329.828H240.15C240.15 330.094 240.191 330.318 240.273 330.502C240.355 330.686 240.471 330.834 240.619 330.947C240.771 331.061 240.951 331.143 241.158 331.193C241.369 331.244 241.6 331.27 241.85 331.27C242.154 331.27 242.404 331.227 242.6 331.141C242.799 331.055 242.945 330.936 243.039 330.783C243.137 330.631 243.186 330.459 243.186 330.268ZM252.596 325.428L250.275 332.5H248.406L251.576 323.969H252.766L252.596 325.428ZM254.523 332.5L252.197 325.428L252.01 323.969H253.211L256.398 332.5H254.523ZM254.418 329.324V330.701H249.912V329.324H254.418ZM257.189 323.969H260.371C261.023 323.969 261.584 324.066 262.053 324.262C262.525 324.457 262.889 324.746 263.143 325.129C263.396 325.512 263.523 325.982 263.523 326.541C263.523 326.998 263.445 327.391 263.289 327.719C263.137 328.043 262.92 328.314 262.639 328.533C262.361 328.748 262.035 328.92 261.66 329.049L261.104 329.342H258.338L258.326 327.971H260.383C260.691 327.971 260.947 327.916 261.15 327.807C261.354 327.697 261.506 327.545 261.607 327.35C261.713 327.154 261.766 326.928 261.766 326.67C261.766 326.396 261.715 326.16 261.613 325.961C261.512 325.762 261.357 325.609 261.15 325.504C260.943 325.398 260.684 325.346 260.371 325.346H258.947V332.5H257.189V323.969ZM261.959 332.5L260.014 328.697L261.871 328.686L263.84 332.418V332.5H261.959ZM270.602 331.129V332.5H266.061V331.129H270.602ZM266.635 323.969V332.5H264.877V323.969H266.635ZM270.01 327.443V328.779H266.061V327.443H270.01ZM270.596 323.969V325.346H266.061V323.969H270.596ZM274.615 323.969H277.797C278.449 323.969 279.01 324.066 279.479 324.262C279.951 324.457 280.314 324.746 280.568 325.129C280.822 325.512 280.949 325.982 280.949 326.541C280.949 326.998 280.871 327.391 280.715 327.719C280.562 328.043 280.346 328.314 280.064 328.533C279.787 328.748 279.461 328.92 279.086 329.049L278.529 329.342H275.764L275.752 327.971H277.809C278.117 327.971 278.373 327.916 278.576 327.807C278.779 327.697 278.932 327.545 279.033 327.35C279.139 327.154 279.191 326.928 279.191 326.67C279.191 326.396 279.141 326.16 279.039 325.961C278.938 325.762 278.783 325.609 278.576 325.504C278.369 325.398 278.109 325.346 277.797 325.346H276.373V332.5H274.615V323.969ZM279.385 332.5L277.439 328.697L279.297 328.686L281.266 332.418V332.5H279.385ZM288.027 331.129V332.5H283.486V331.129H288.027ZM284.061 323.969V332.5H282.303V323.969H284.061ZM287.436 327.443V328.779H283.486V327.443H287.436ZM288.021 323.969V325.346H283.486V323.969H288.021ZM293.998 329.67H295.75C295.715 330.244 295.557 330.754 295.275 331.199C294.998 331.645 294.609 331.992 294.109 332.242C293.613 332.492 293.016 332.617 292.316 332.617C291.77 332.617 291.279 332.523 290.846 332.336C290.412 332.145 290.041 331.871 289.732 331.516C289.428 331.16 289.195 330.73 289.035 330.227C288.875 329.723 288.795 329.158 288.795 328.533V327.941C288.795 327.316 288.877 326.752 289.041 326.248C289.209 325.74 289.447 325.309 289.756 324.953C290.068 324.598 290.441 324.324 290.875 324.133C291.309 323.941 291.793 323.846 292.328 323.846C293.039 323.846 293.639 323.975 294.127 324.232C294.619 324.49 295 324.846 295.27 325.299C295.543 325.752 295.707 326.268 295.762 326.846H294.004C293.984 326.502 293.916 326.211 293.799 325.973C293.682 325.73 293.504 325.549 293.266 325.428C293.031 325.303 292.719 325.24 292.328 325.24C292.035 325.24 291.779 325.295 291.561 325.404C291.342 325.514 291.158 325.68 291.01 325.902C290.861 326.125 290.75 326.406 290.676 326.746C290.605 327.082 290.57 327.477 290.57 327.93V328.533C290.57 328.975 290.604 329.363 290.67 329.699C290.736 330.031 290.838 330.312 290.975 330.543C291.115 330.77 291.295 330.941 291.514 331.059C291.736 331.172 292.004 331.229 292.316 331.229C292.684 331.229 292.986 331.17 293.225 331.053C293.463 330.936 293.645 330.762 293.77 330.531C293.898 330.301 293.975 330.014 293.998 329.67ZM302.629 331.129V332.5H298.088V331.129H302.629ZM298.662 323.969V332.5H296.904V323.969H298.662ZM302.037 327.443V328.779H298.088V327.443H302.037ZM302.623 323.969V325.346H298.088V323.969H302.623ZM305.523 323.969V332.5H303.771V323.969H305.523ZM310.246 330.719L312.256 323.969H314.213L311.242 332.5H309.953L310.246 330.719ZM308.395 323.969L310.398 330.719L310.703 332.5H309.402L306.449 323.969H308.395ZM320.734 331.129V332.5H316.193V331.129H320.734ZM316.768 323.969V332.5H315.01V323.969H316.768ZM320.143 327.443V328.779H316.193V327.443H320.143ZM320.729 323.969V325.346H316.193V323.969H320.729ZM324.379 332.5H322.521L322.533 331.129H324.379C324.84 331.129 325.229 331.025 325.545 330.818C325.861 330.607 326.1 330.301 326.26 329.898C326.424 329.496 326.506 329.01 326.506 328.439V328.023C326.506 327.586 326.459 327.201 326.365 326.869C326.275 326.537 326.141 326.258 325.961 326.031C325.781 325.805 325.561 325.635 325.299 325.521C325.037 325.404 324.736 325.346 324.396 325.346H322.486V323.969H324.396C324.967 323.969 325.488 324.066 325.961 324.262C326.438 324.453 326.85 324.729 327.197 325.088C327.545 325.447 327.812 325.877 328 326.377C328.191 326.873 328.287 327.426 328.287 328.035V328.439C328.287 329.045 328.191 329.598 328 330.098C327.812 330.598 327.545 331.027 327.197 331.387C326.854 331.742 326.441 332.018 325.961 332.213C325.484 332.404 324.957 332.5 324.379 332.5ZM323.518 323.969V332.5H321.76V323.969H323.518ZM199.006 335.969V344.5H197.254V335.969H199.006ZM207.596 335.969V344.5H205.838L202.41 338.781V344.5H200.652V335.969H202.41L205.844 341.693V335.969H207.596ZM216.051 335.951V344.5H214.363V337.896L212.336 338.541V337.211L215.869 335.951H216.051ZM224.57 339.484V340.961C224.57 341.602 224.502 342.154 224.365 342.619C224.229 343.08 224.031 343.459 223.773 343.756C223.52 344.049 223.217 344.266 222.865 344.406C222.514 344.547 222.123 344.617 221.693 344.617C221.35 344.617 221.029 344.574 220.732 344.488C220.436 344.398 220.168 344.26 219.93 344.072C219.695 343.885 219.492 343.648 219.32 343.363C219.152 343.074 219.023 342.73 218.934 342.332C218.844 341.934 218.799 341.477 218.799 340.961V339.484C218.799 338.844 218.867 338.295 219.004 337.838C219.145 337.377 219.342 337 219.596 336.707C219.854 336.414 220.158 336.199 220.51 336.062C220.861 335.922 221.252 335.852 221.682 335.852C222.025 335.852 222.344 335.896 222.637 335.986C222.934 336.072 223.201 336.207 223.439 336.391C223.678 336.574 223.881 336.811 224.049 337.1C224.217 337.385 224.346 337.727 224.436 338.125C224.525 338.52 224.57 338.973 224.57 339.484ZM222.877 341.184V339.256C222.877 338.947 222.859 338.678 222.824 338.447C222.793 338.217 222.744 338.021 222.678 337.861C222.611 337.697 222.529 337.564 222.432 337.463C222.334 337.361 222.223 337.287 222.098 337.24C221.973 337.193 221.834 337.17 221.682 337.17C221.49 337.17 221.32 337.207 221.172 337.281C221.027 337.355 220.904 337.475 220.803 337.639C220.701 337.799 220.623 338.014 220.568 338.283C220.518 338.549 220.492 338.873 220.492 339.256V341.184C220.492 341.492 220.508 341.764 220.539 341.998C220.574 342.232 220.625 342.434 220.691 342.602C220.762 342.766 220.844 342.9 220.938 343.006C221.035 343.107 221.146 343.182 221.271 343.229C221.4 343.275 221.541 343.299 221.693 343.299C221.881 343.299 222.047 343.262 222.191 343.188C222.34 343.109 222.465 342.988 222.566 342.824C222.672 342.656 222.75 342.438 222.801 342.168C222.852 341.898 222.877 341.57 222.877 341.184ZM233.324 342.268C233.324 342.115 233.301 341.979 233.254 341.857C233.211 341.732 233.129 341.619 233.008 341.518C232.887 341.412 232.717 341.309 232.498 341.207C232.279 341.105 231.996 341 231.648 340.891C231.262 340.766 230.895 340.625 230.547 340.469C230.203 340.312 229.898 340.131 229.633 339.924C229.371 339.713 229.164 339.469 229.012 339.191C228.863 338.914 228.789 338.592 228.789 338.225C228.789 337.869 228.867 337.547 229.023 337.258C229.18 336.965 229.398 336.715 229.68 336.508C229.961 336.297 230.293 336.135 230.676 336.021C231.062 335.908 231.486 335.852 231.947 335.852C232.576 335.852 233.125 335.965 233.594 336.191C234.062 336.418 234.426 336.729 234.684 337.123C234.945 337.518 235.076 337.969 235.076 338.477H233.33C233.33 338.227 233.277 338.008 233.172 337.82C233.07 337.629 232.914 337.479 232.703 337.369C232.496 337.26 232.234 337.205 231.918 337.205C231.613 337.205 231.359 337.252 231.156 337.346C230.953 337.436 230.801 337.559 230.699 337.715C230.598 337.867 230.547 338.039 230.547 338.23C230.547 338.375 230.582 338.506 230.652 338.623C230.727 338.74 230.836 338.85 230.98 338.951C231.125 339.053 231.303 339.148 231.514 339.238C231.725 339.328 231.969 339.416 232.246 339.502C232.711 339.643 233.119 339.801 233.471 339.977C233.826 340.152 234.123 340.35 234.361 340.568C234.6 340.787 234.779 341.035 234.9 341.312C235.021 341.59 235.082 341.904 235.082 342.256C235.082 342.627 235.01 342.959 234.865 343.252C234.721 343.545 234.512 343.793 234.238 343.996C233.965 344.199 233.639 344.354 233.26 344.459C232.881 344.564 232.457 344.617 231.988 344.617C231.566 344.617 231.15 344.562 230.74 344.453C230.33 344.34 229.957 344.17 229.621 343.943C229.289 343.717 229.023 343.428 228.824 343.076C228.625 342.725 228.525 342.309 228.525 341.828H230.289C230.289 342.094 230.33 342.318 230.412 342.502C230.494 342.686 230.609 342.834 230.758 342.947C230.91 343.061 231.09 343.143 231.297 343.193C231.508 343.244 231.738 343.27 231.988 343.27C232.293 343.27 232.543 343.227 232.738 343.141C232.938 343.055 233.084 342.936 233.178 342.783C233.275 342.631 233.324 342.459 233.324 342.268ZM242.002 343.129V344.5H237.461V343.129H242.002ZM238.035 335.969V344.5H236.277V335.969H238.035ZM241.41 339.443V340.779H237.461V339.443H241.41ZM241.996 335.969V337.346H237.461V335.969H241.996ZM247.973 341.67H249.725C249.689 342.244 249.531 342.754 249.25 343.199C248.973 343.645 248.584 343.992 248.084 344.242C247.588 344.492 246.99 344.617 246.291 344.617C245.744 344.617 245.254 344.523 244.82 344.336C244.387 344.145 244.016 343.871 243.707 343.516C243.402 343.16 243.17 342.73 243.01 342.227C242.85 341.723 242.77 341.158 242.77 340.533V339.941C242.77 339.316 242.852 338.752 243.016 338.248C243.184 337.74 243.422 337.309 243.73 336.953C244.043 336.598 244.416 336.324 244.85 336.133C245.283 335.941 245.768 335.846 246.303 335.846C247.014 335.846 247.613 335.975 248.102 336.232C248.594 336.49 248.975 336.846 249.244 337.299C249.518 337.752 249.682 338.268 249.736 338.846H247.979C247.959 338.502 247.891 338.211 247.773 337.973C247.656 337.73 247.479 337.549 247.24 337.428C247.006 337.303 246.693 337.24 246.303 337.24C246.01 337.24 245.754 337.295 245.535 337.404C245.316 337.514 245.133 337.68 244.984 337.902C244.836 338.125 244.725 338.406 244.65 338.746C244.58 339.082 244.545 339.477 244.545 339.93V340.533C244.545 340.975 244.578 341.363 244.645 341.699C244.711 342.031 244.812 342.312 244.949 342.543C245.09 342.77 245.27 342.941 245.488 343.059C245.711 343.172 245.979 343.229 246.291 343.229C246.658 343.229 246.961 343.17 247.199 343.053C247.438 342.936 247.619 342.762 247.744 342.531C247.873 342.301 247.949 342.014 247.973 341.67ZM257.887 340.035V340.439C257.887 341.088 257.799 341.67 257.623 342.186C257.447 342.701 257.199 343.141 256.879 343.504C256.559 343.863 256.176 344.139 255.73 344.33C255.289 344.521 254.799 344.617 254.26 344.617C253.725 344.617 253.234 344.521 252.789 344.33C252.348 344.139 251.965 343.863 251.641 343.504C251.316 343.141 251.064 342.701 250.885 342.186C250.709 341.67 250.621 341.088 250.621 340.439V340.035C250.621 339.383 250.709 338.801 250.885 338.289C251.061 337.773 251.309 337.334 251.629 336.971C251.953 336.607 252.336 336.33 252.777 336.139C253.223 335.947 253.713 335.852 254.248 335.852C254.787 335.852 255.277 335.947 255.719 336.139C256.164 336.33 256.547 336.607 256.867 336.971C257.191 337.334 257.441 337.773 257.617 338.289C257.797 338.801 257.887 339.383 257.887 340.035ZM256.111 340.439V340.023C256.111 339.57 256.07 339.172 255.988 338.828C255.906 338.484 255.785 338.195 255.625 337.961C255.465 337.727 255.27 337.551 255.039 337.434C254.809 337.312 254.545 337.252 254.248 337.252C253.951 337.252 253.688 337.312 253.457 337.434C253.23 337.551 253.037 337.727 252.877 337.961C252.721 338.195 252.602 338.484 252.52 338.828C252.438 339.172 252.396 339.57 252.396 340.023V340.439C252.396 340.889 252.438 341.287 252.52 341.635C252.602 341.979 252.723 342.27 252.883 342.508C253.043 342.742 253.238 342.92 253.469 343.041C253.699 343.162 253.963 343.223 254.26 343.223C254.557 343.223 254.82 343.162 255.051 343.041C255.281 342.92 255.475 342.742 255.631 342.508C255.787 342.27 255.906 341.979 255.988 341.635C256.07 341.287 256.111 340.889 256.111 340.439ZM266.096 335.969V344.5H264.338L260.91 338.781V344.5H259.152V335.969H260.91L264.344 341.693V335.969H266.096ZM270.244 344.5H268.387L268.398 343.129H270.244C270.705 343.129 271.094 343.025 271.41 342.818C271.727 342.607 271.965 342.301 272.125 341.898C272.289 341.496 272.371 341.01 272.371 340.439V340.023C272.371 339.586 272.324 339.201 272.23 338.869C272.141 338.537 272.006 338.258 271.826 338.031C271.646 337.805 271.426 337.635 271.164 337.521C270.902 337.404 270.602 337.346 270.262 337.346H268.352V335.969H270.262C270.832 335.969 271.354 336.066 271.826 336.262C272.303 336.453 272.715 336.729 273.062 337.088C273.41 337.447 273.678 337.877 273.865 338.377C274.057 338.873 274.152 339.426 274.152 340.035V340.439C274.152 341.045 274.057 341.598 273.865 342.098C273.678 342.598 273.41 343.027 273.062 343.387C272.719 343.742 272.307 344.018 271.826 344.213C271.35 344.404 270.822 344.5 270.244 344.5ZM269.383 335.969V344.5H267.625V335.969H269.383ZM279.871 342.268C279.871 342.115 279.848 341.979 279.801 341.857C279.758 341.732 279.676 341.619 279.555 341.518C279.434 341.412 279.264 341.309 279.045 341.207C278.826 341.105 278.543 341 278.195 340.891C277.809 340.766 277.441 340.625 277.094 340.469C276.75 340.312 276.445 340.131 276.18 339.924C275.918 339.713 275.711 339.469 275.559 339.191C275.41 338.914 275.336 338.592 275.336 338.225C275.336 337.869 275.414 337.547 275.57 337.258C275.727 336.965 275.945 336.715 276.227 336.508C276.508 336.297 276.84 336.135 277.223 336.021C277.609 335.908 278.033 335.852 278.494 335.852C279.123 335.852 279.672 335.965 280.141 336.191C280.609 336.418 280.973 336.729 281.23 337.123C281.492 337.518 281.623 337.969 281.623 338.477H279.877C279.877 338.227 279.824 338.008 279.719 337.82C279.617 337.629 279.461 337.479 279.25 337.369C279.043 337.26 278.781 337.205 278.465 337.205C278.16 337.205 277.906 337.252 277.703 337.346C277.5 337.436 277.348 337.559 277.246 337.715C277.145 337.867 277.094 338.039 277.094 338.23C277.094 338.375 277.129 338.506 277.199 338.623C277.273 338.74 277.383 338.85 277.527 338.951C277.672 339.053 277.85 339.148 278.061 339.238C278.271 339.328 278.516 339.416 278.793 339.502C279.258 339.643 279.666 339.801 280.018 339.977C280.373 340.152 280.67 340.35 280.908 340.568C281.146 340.787 281.326 341.035 281.447 341.312C281.568 341.59 281.629 341.904 281.629 342.256C281.629 342.627 281.557 342.959 281.412 343.252C281.268 343.545 281.059 343.793 280.785 343.996C280.512 344.199 280.186 344.354 279.807 344.459C279.428 344.564 279.004 344.617 278.535 344.617C278.113 344.617 277.697 344.562 277.287 344.453C276.877 344.34 276.504 344.17 276.168 343.943C275.836 343.717 275.57 343.428 275.371 343.076C275.172 342.725 275.072 342.309 275.072 341.828H276.836C276.836 342.094 276.877 342.318 276.959 342.502C277.041 342.686 277.156 342.834 277.305 342.947C277.457 343.061 277.637 343.143 277.844 343.193C278.055 343.244 278.285 343.27 278.535 343.27C278.84 343.27 279.09 343.227 279.285 343.141C279.484 343.055 279.631 342.936 279.725 342.783C279.822 342.631 279.871 342.459 279.871 342.268ZM292.82 340.035V340.439C292.82 341.088 292.732 341.67 292.557 342.186C292.381 342.701 292.133 343.141 291.812 343.504C291.492 343.863 291.109 344.139 290.664 344.33C290.223 344.521 289.732 344.617 289.193 344.617C288.658 344.617 288.168 344.521 287.723 344.33C287.281 344.139 286.898 343.863 286.574 343.504C286.25 343.141 285.998 342.701 285.818 342.186C285.643 341.67 285.555 341.088 285.555 340.439V340.035C285.555 339.383 285.643 338.801 285.818 338.289C285.994 337.773 286.242 337.334 286.562 336.971C286.887 336.607 287.27 336.33 287.711 336.139C288.156 335.947 288.646 335.852 289.182 335.852C289.721 335.852 290.211 335.947 290.652 336.139C291.098 336.33 291.48 336.607 291.801 336.971C292.125 337.334 292.375 337.773 292.551 338.289C292.73 338.801 292.82 339.383 292.82 340.035ZM291.045 340.439V340.023C291.045 339.57 291.004 339.172 290.922 338.828C290.84 338.484 290.719 338.195 290.559 337.961C290.398 337.727 290.203 337.551 289.973 337.434C289.742 337.312 289.479 337.252 289.182 337.252C288.885 337.252 288.621 337.312 288.391 337.434C288.164 337.551 287.971 337.727 287.811 337.961C287.654 338.195 287.535 338.484 287.453 338.828C287.371 339.172 287.33 339.57 287.33 340.023V340.439C287.33 340.889 287.371 341.287 287.453 341.635C287.535 341.979 287.656 342.27 287.816 342.508C287.977 342.742 288.172 342.92 288.402 343.041C288.633 343.162 288.896 343.223 289.193 343.223C289.49 343.223 289.754 343.162 289.984 343.041C290.215 342.92 290.408 342.742 290.564 342.508C290.721 342.27 290.84 341.979 290.922 341.635C291.004 341.287 291.045 340.889 291.045 340.439ZM294.086 335.969H297.268C297.92 335.969 298.48 336.066 298.949 336.262C299.422 336.457 299.785 336.746 300.039 337.129C300.293 337.512 300.42 337.982 300.42 338.541C300.42 338.998 300.342 339.391 300.186 339.719C300.033 340.043 299.816 340.314 299.535 340.533C299.258 340.748 298.932 340.92 298.557 341.049L298 341.342H295.234L295.223 339.971H297.279C297.588 339.971 297.844 339.916 298.047 339.807C298.25 339.697 298.402 339.545 298.504 339.35C298.609 339.154 298.662 338.928 298.662 338.67C298.662 338.396 298.611 338.16 298.51 337.961C298.408 337.762 298.254 337.609 298.047 337.504C297.84 337.398 297.58 337.346 297.268 337.346H295.844V344.5H294.086V335.969ZM298.855 344.5L296.91 340.697L298.768 340.686L300.736 344.418V344.5H298.855ZM309.473 335.969H311.225V341.605C311.225 342.262 311.084 342.814 310.803 343.264C310.525 343.713 310.141 344.051 309.648 344.277C309.16 344.504 308.598 344.617 307.961 344.617C307.324 344.617 306.758 344.504 306.262 344.277C305.77 344.051 305.383 343.713 305.102 343.264C304.824 342.814 304.686 342.262 304.686 341.605V335.969H306.443V341.605C306.443 341.988 306.504 342.301 306.625 342.543C306.746 342.785 306.92 342.963 307.146 343.076C307.377 343.189 307.648 343.246 307.961 343.246C308.281 343.246 308.553 343.189 308.775 343.076C309.002 342.963 309.174 342.785 309.291 342.543C309.412 342.301 309.473 341.988 309.473 341.605V335.969ZM319.615 335.969V344.5H317.857L314.43 338.781V344.5H312.672V335.969H314.43L317.863 341.693V335.969H319.615ZM323.764 344.5H321.906L321.918 343.129H323.764C324.225 343.129 324.613 343.025 324.93 342.818C325.246 342.607 325.484 342.301 325.645 341.898C325.809 341.496 325.891 341.01 325.891 340.439V340.023C325.891 339.586 325.844 339.201 325.75 338.869C325.66 338.537 325.525 338.258 325.346 338.031C325.166 337.805 324.945 337.635 324.684 337.521C324.422 337.404 324.121 337.346 323.781 337.346H321.871V335.969H323.781C324.352 335.969 324.873 336.066 325.346 336.262C325.822 336.453 326.234 336.729 326.582 337.088C326.93 337.447 327.197 337.877 327.385 338.377C327.576 338.873 327.672 339.426 327.672 340.035V340.439C327.672 341.045 327.576 341.598 327.385 342.098C327.197 342.598 326.93 343.027 326.582 343.387C326.238 343.742 325.826 344.018 325.346 344.213C324.869 344.404 324.342 344.5 323.764 344.5ZM322.902 335.969V344.5H321.145V335.969H322.902ZM334.674 343.129V344.5H330.133V343.129H334.674ZM330.707 335.969V344.5H328.949V335.969H330.707ZM334.082 339.443V340.779H330.133V339.443H334.082ZM334.668 335.969V337.346H330.133V335.969H334.668ZM335.699 335.969H338.881C339.533 335.969 340.094 336.066 340.562 336.262C341.035 336.457 341.398 336.746 341.652 337.129C341.906 337.512 342.033 337.982 342.033 338.541C342.033 338.998 341.955 339.391 341.799 339.719C341.646 340.043 341.43 340.314 341.148 340.533C340.871 340.748 340.545 340.92 340.17 341.049L339.613 341.342H336.848L336.836 339.971H338.893C339.201 339.971 339.457 339.916 339.66 339.807C339.863 339.697 340.016 339.545 340.117 339.35C340.223 339.154 340.275 338.928 340.275 338.67C340.275 338.396 340.225 338.16 340.123 337.961C340.021 337.762 339.867 337.609 339.66 337.504C339.453 337.398 339.193 337.346 338.881 337.346H337.457V344.5H335.699V335.969ZM340.469 344.5L338.523 340.697L340.381 340.686L342.35 344.418V344.5H340.469Z" fill="#2AC77B"/>
<path d="M73.3789 260.035V260.439C73.3789 261.088 73.291 261.67 73.1152 262.186C72.9395 262.701 72.6914 263.141 72.3711 263.504C72.0508 263.863 71.668 264.139 71.2227 264.33C70.7812 264.521 70.291 264.617 69.752 264.617C69.2168 264.617 68.7266 264.521 68.2812 264.33C67.8398 264.139 67.457 263.863 67.1328 263.504C66.8086 263.141 66.5566 262.701 66.377 262.186C66.2012 261.67 66.1133 261.088 66.1133 260.439V260.035C66.1133 259.383 66.2012 258.801 66.377 258.289C66.5527 257.773 66.8008 257.334 67.1211 256.971C67.4453 256.607 67.8281 256.33 68.2695 256.139C68.7148 255.947 69.2051 255.852 69.7402 255.852C70.2793 255.852 70.7695 255.947 71.2109 256.139C71.6562 256.33 72.0391 256.607 72.3594 256.971C72.6836 257.334 72.9336 257.773 73.1094 258.289C73.2891 258.801 73.3789 259.383 73.3789 260.035ZM71.6035 260.439V260.023C71.6035 259.57 71.5625 259.172 71.4805 258.828C71.3984 258.484 71.2773 258.195 71.1172 257.961C70.957 257.727 70.7617 257.551 70.5312 257.434C70.3008 257.312 70.0371 257.252 69.7402 257.252C69.4434 257.252 69.1797 257.312 68.9492 257.434C68.7227 257.551 68.5293 257.727 68.3691 257.961C68.2129 258.195 68.0938 258.484 68.0117 258.828C67.9297 259.172 67.8887 259.57 67.8887 260.023V260.439C67.8887 260.889 67.9297 261.287 68.0117 261.635C68.0938 261.979 68.2148 262.27 68.375 262.508C68.5352 262.742 68.7305 262.92 68.9609 263.041C69.1914 263.162 69.4551 263.223 69.752 263.223C70.0488 263.223 70.3125 263.162 70.543 263.041C70.7734 262.92 70.9668 262.742 71.123 262.508C71.2793 262.27 71.3984 261.979 71.4805 261.635C71.5625 261.287 71.6035 260.889 71.6035 260.439ZM79.3555 255.969H81.1074V261.605C81.1074 262.262 80.9668 262.814 80.6855 263.264C80.4082 263.713 80.0234 264.051 79.5312 264.277C79.043 264.504 78.4805 264.617 77.8438 264.617C77.207 264.617 76.6406 264.504 76.1445 264.277C75.6523 264.051 75.2656 263.713 74.9844 263.264C74.707 262.814 74.5684 262.262 74.5684 261.605V255.969H76.3262V261.605C76.3262 261.988 76.3867 262.301 76.5078 262.543C76.6289 262.785 76.8027 262.963 77.0293 263.076C77.2598 263.189 77.5312 263.246 77.8438 263.246C78.1641 263.246 78.4355 263.189 78.6582 263.076C78.8848 262.963 79.0566 262.785 79.1738 262.543C79.2949 262.301 79.3555 261.988 79.3555 261.605V255.969ZM86.3691 255.969V264.5H84.6172V255.969H86.3691ZM88.9941 255.969V257.346H82.0332V255.969H88.9941ZM94.3438 262.268C94.3438 262.115 94.3203 261.979 94.2734 261.857C94.2305 261.732 94.1484 261.619 94.0273 261.518C93.9062 261.412 93.7363 261.309 93.5176 261.207C93.2988 261.105 93.0156 261 92.668 260.891C92.2812 260.766 91.9141 260.625 91.5664 260.469C91.2227 260.312 90.918 260.131 90.6523 259.924C90.3906 259.713 90.1836 259.469 90.0312 259.191C89.8828 258.914 89.8086 258.592 89.8086 258.225C89.8086 257.869 89.8867 257.547 90.043 257.258C90.1992 256.965 90.418 256.715 90.6992 256.508C90.9805 256.297 91.3125 256.135 91.6953 256.021C92.082 255.908 92.5059 255.852 92.9668 255.852C93.5957 255.852 94.1445 255.965 94.6133 256.191C95.082 256.418 95.4453 256.729 95.7031 257.123C95.9648 257.518 96.0957 257.969 96.0957 258.477H94.3496C94.3496 258.227 94.2969 258.008 94.1914 257.82C94.0898 257.629 93.9336 257.479 93.7227 257.369C93.5156 257.26 93.2539 257.205 92.9375 257.205C92.6328 257.205 92.3789 257.252 92.1758 257.346C91.9727 257.436 91.8203 257.559 91.7188 257.715C91.6172 257.867 91.5664 258.039 91.5664 258.23C91.5664 258.375 91.6016 258.506 91.6719 258.623C91.7461 258.74 91.8555 258.85 92 258.951C92.1445 259.053 92.3223 259.148 92.5332 259.238C92.7441 259.328 92.9883 259.416 93.2656 259.502C93.7305 259.643 94.1387 259.801 94.4902 259.977C94.8457 260.152 95.1426 260.35 95.3809 260.568C95.6191 260.787 95.7988 261.035 95.9199 261.312C96.041 261.59 96.1016 261.904 96.1016 262.256C96.1016 262.627 96.0293 262.959 95.8848 263.252C95.7402 263.545 95.5312 263.793 95.2578 263.996C94.9844 264.199 94.6582 264.354 94.2793 264.459C93.9004 264.564 93.4766 264.617 93.0078 264.617C92.5859 264.617 92.1699 264.562 91.7598 264.453C91.3496 264.34 90.9766 264.17 90.6406 263.943C90.3086 263.717 90.043 263.428 89.8438 263.076C89.6445 262.725 89.5449 262.309 89.5449 261.828H91.3086C91.3086 262.094 91.3496 262.318 91.4316 262.502C91.5137 262.686 91.6289 262.834 91.7773 262.947C91.9297 263.061 92.1094 263.143 92.3164 263.193C92.5273 263.244 92.7578 263.27 93.0078 263.27C93.3125 263.27 93.5625 263.227 93.7578 263.141C93.957 263.055 94.1035 262.936 94.1973 262.783C94.2949 262.631 94.3438 262.459 94.3438 262.268ZM99.166 255.969V264.5H97.4141V255.969H99.166ZM103.432 264.5H101.574L101.586 263.129H103.432C103.893 263.129 104.281 263.025 104.598 262.818C104.914 262.607 105.152 262.301 105.312 261.898C105.477 261.496 105.559 261.01 105.559 260.439V260.023C105.559 259.586 105.512 259.201 105.418 258.869C105.328 258.537 105.193 258.258 105.014 258.031C104.834 257.805 104.613 257.635 104.352 257.521C104.09 257.404 103.789 257.346 103.449 257.346H101.539V255.969H103.449C104.02 255.969 104.541 256.066 105.014 256.262C105.49 256.453 105.902 256.729 106.25 257.088C106.598 257.447 106.865 257.877 107.053 258.377C107.244 258.873 107.34 259.426 107.34 260.035V260.439C107.34 261.045 107.244 261.598 107.053 262.098C106.865 262.598 106.598 263.027 106.25 263.387C105.906 263.742 105.494 264.018 105.014 264.213C104.537 264.404 104.01 264.5 103.432 264.5ZM102.57 255.969V264.5H100.812V255.969H102.57ZM114.342 263.129V264.5H109.801V263.129H114.342ZM110.375 255.969V264.5H108.617V255.969H110.375ZM113.75 259.443V260.779H109.801V259.443H113.75ZM114.336 255.969V257.346H109.801V255.969H114.336ZM123.301 261.67H125.053C125.018 262.244 124.859 262.754 124.578 263.199C124.301 263.645 123.912 263.992 123.412 264.242C122.916 264.492 122.318 264.617 121.619 264.617C121.072 264.617 120.582 264.523 120.148 264.336C119.715 264.145 119.344 263.871 119.035 263.516C118.73 263.16 118.498 262.73 118.338 262.227C118.178 261.723 118.098 261.158 118.098 260.533V259.941C118.098 259.316 118.18 258.752 118.344 258.248C118.512 257.74 118.75 257.309 119.059 256.953C119.371 256.598 119.744 256.324 120.178 256.133C120.611 255.941 121.096 255.846 121.631 255.846C122.342 255.846 122.941 255.975 123.43 256.232C123.922 256.49 124.303 256.846 124.572 257.299C124.846 257.752 125.01 258.268 125.064 258.846H123.307C123.287 258.502 123.219 258.211 123.102 257.973C122.984 257.73 122.807 257.549 122.568 257.428C122.334 257.303 122.021 257.24 121.631 257.24C121.338 257.24 121.082 257.295 120.863 257.404C120.645 257.514 120.461 257.68 120.312 257.902C120.164 258.125 120.053 258.406 119.979 258.746C119.908 259.082 119.873 259.477 119.873 259.93V260.533C119.873 260.975 119.906 261.363 119.973 261.699C120.039 262.031 120.141 262.312 120.277 262.543C120.418 262.77 120.598 262.941 120.816 263.059C121.039 263.172 121.307 263.229 121.619 263.229C121.986 263.229 122.289 263.17 122.527 263.053C122.766 262.936 122.947 262.762 123.072 262.531C123.201 262.301 123.277 262.014 123.301 261.67ZM129.676 257.428L127.355 264.5H125.486L128.656 255.969H129.846L129.676 257.428ZM131.604 264.5L129.277 257.428L129.09 255.969H130.291L133.479 264.5H131.604ZM131.498 261.324V262.701H126.992V261.324H131.498ZM134.27 255.969H137.451C138.104 255.969 138.664 256.066 139.133 256.262C139.605 256.457 139.969 256.746 140.223 257.129C140.477 257.512 140.604 257.982 140.604 258.541C140.604 258.998 140.525 259.391 140.369 259.719C140.217 260.043 140 260.314 139.719 260.533C139.441 260.748 139.115 260.92 138.74 261.049L138.184 261.342H135.418L135.406 259.971H137.463C137.771 259.971 138.027 259.916 138.23 259.807C138.434 259.697 138.586 259.545 138.688 259.35C138.793 259.154 138.846 258.928 138.846 258.67C138.846 258.396 138.795 258.16 138.693 257.961C138.592 257.762 138.438 257.609 138.23 257.504C138.023 257.398 137.764 257.346 137.451 257.346H136.027V264.5H134.27V255.969ZM139.039 264.5L137.094 260.697L138.951 260.686L140.92 264.418V264.5H139.039ZM144.576 264.5H142.719L142.73 263.129H144.576C145.037 263.129 145.426 263.025 145.742 262.818C146.059 262.607 146.297 262.301 146.457 261.898C146.621 261.496 146.703 261.01 146.703 260.439V260.023C146.703 259.586 146.656 259.201 146.562 258.869C146.473 258.537 146.338 258.258 146.158 258.031C145.979 257.805 145.758 257.635 145.496 257.521C145.234 257.404 144.934 257.346 144.594 257.346H142.684V255.969H144.594C145.164 255.969 145.686 256.066 146.158 256.262C146.635 256.453 147.047 256.729 147.395 257.088C147.742 257.447 148.01 257.877 148.197 258.377C148.389 258.873 148.484 259.426 148.484 260.035V260.439C148.484 261.045 148.389 261.598 148.197 262.098C148.01 262.598 147.742 263.027 147.395 263.387C147.051 263.742 146.639 264.018 146.158 264.213C145.682 264.404 145.154 264.5 144.576 264.5ZM143.715 255.969V264.5H141.957V255.969H143.715ZM56.2051 267.969V276.5H54.4473L51.0195 270.781V276.5H49.2617V267.969H51.0195L54.4531 273.693V267.969H56.2051ZM63.459 275.129V276.5H58.918V275.129H63.459ZM59.4922 267.969V276.5H57.7344V267.969H59.4922ZM62.8672 271.443V272.779H58.918V271.443H62.8672ZM63.4531 267.969V269.346H58.918V267.969H63.4531ZM68.416 267.969V276.5H66.6641V267.969H68.416ZM71.041 267.969V269.346H64.0801V267.969H71.041ZM74.1934 275.146L75.8926 267.969H76.8418L77.0586 269.164L75.248 276.5H74.2285L74.1934 275.146ZM73.3203 267.969L74.7266 275.146L74.6094 276.5H73.4727L71.5801 267.969H73.3203ZM78.5527 275.117L79.9414 267.969H81.6816L79.7949 276.5H78.6582L78.5527 275.117ZM77.375 267.969L79.0859 275.176L79.0391 276.5H78.0195L76.1973 269.158L76.4316 267.969H77.375ZM89.6445 272.035V272.439C89.6445 273.088 89.5566 273.67 89.3809 274.186C89.2051 274.701 88.957 275.141 88.6367 275.504C88.3164 275.863 87.9336 276.139 87.4883 276.33C87.0469 276.521 86.5566 276.617 86.0176 276.617C85.4824 276.617 84.9922 276.521 84.5469 276.33C84.1055 276.139 83.7227 275.863 83.3984 275.504C83.0742 275.141 82.8223 274.701 82.6426 274.186C82.4668 273.67 82.3789 273.088 82.3789 272.439V272.035C82.3789 271.383 82.4668 270.801 82.6426 270.289C82.8184 269.773 83.0664 269.334 83.3867 268.971C83.7109 268.607 84.0938 268.33 84.5352 268.139C84.9805 267.947 85.4707 267.852 86.0059 267.852C86.5449 267.852 87.0352 267.947 87.4766 268.139C87.9219 268.33 88.3047 268.607 88.625 268.971C88.9492 269.334 89.1992 269.773 89.375 270.289C89.5547 270.801 89.6445 271.383 89.6445 272.035ZM87.8691 272.439V272.023C87.8691 271.57 87.8281 271.172 87.7461 270.828C87.6641 270.484 87.543 270.195 87.3828 269.961C87.2227 269.727 87.0273 269.551 86.7969 269.434C86.5664 269.312 86.3027 269.252 86.0059 269.252C85.709 269.252 85.4453 269.312 85.2148 269.434C84.9883 269.551 84.7949 269.727 84.6348 269.961C84.4785 270.195 84.3594 270.484 84.2773 270.828C84.1953 271.172 84.1543 271.57 84.1543 272.023V272.439C84.1543 272.889 84.1953 273.287 84.2773 273.635C84.3594 273.979 84.4805 274.27 84.6406 274.508C84.8008 274.742 84.9961 274.92 85.2266 275.041C85.457 275.162 85.7207 275.223 86.0176 275.223C86.3145 275.223 86.5781 275.162 86.8086 275.041C87.0391 274.92 87.2324 274.742 87.3887 274.508C87.5449 274.27 87.6641 273.979 87.7461 273.635C87.8281 273.287 87.8691 272.889 87.8691 272.439ZM90.9102 267.969H94.0918C94.7441 267.969 95.3047 268.066 95.7734 268.262C96.2461 268.457 96.6094 268.746 96.8633 269.129C97.1172 269.512 97.2441 269.982 97.2441 270.541C97.2441 270.998 97.166 271.391 97.0098 271.719C96.8574 272.043 96.6406 272.314 96.3594 272.533C96.082 272.748 95.7559 272.92 95.3809 273.049L94.8242 273.342H92.0586L92.0469 271.971H94.1035C94.4121 271.971 94.668 271.916 94.8711 271.807C95.0742 271.697 95.2266 271.545 95.3281 271.35C95.4336 271.154 95.4863 270.928 95.4863 270.67C95.4863 270.396 95.4355 270.16 95.334 269.961C95.2324 269.762 95.0781 269.609 94.8711 269.504C94.6641 269.398 94.4043 269.346 94.0918 269.346H92.668V276.5H90.9102V267.969ZM95.6797 276.5L93.7344 272.697L95.5918 272.686L97.5605 276.418V276.5H95.6797ZM100.355 267.969V276.5H98.5977V267.969H100.355ZM105.465 267.969L102.084 272.182L100.133 274.279L99.8164 272.615L101.135 270.811L103.309 267.969H105.465ZM103.467 276.5L100.953 272.557L102.254 271.467L105.547 276.5H103.467ZM110.668 274.268C110.668 274.115 110.645 273.979 110.598 273.857C110.555 273.732 110.473 273.619 110.352 273.518C110.23 273.412 110.061 273.309 109.842 273.207C109.623 273.105 109.34 273 108.992 272.891C108.605 272.766 108.238 272.625 107.891 272.469C107.547 272.312 107.242 272.131 106.977 271.924C106.715 271.713 106.508 271.469 106.355 271.191C106.207 270.914 106.133 270.592 106.133 270.225C106.133 269.869 106.211 269.547 106.367 269.258C106.523 268.965 106.742 268.715 107.023 268.508C107.305 268.297 107.637 268.135 108.02 268.021C108.406 267.908 108.83 267.852 109.291 267.852C109.92 267.852 110.469 267.965 110.938 268.191C111.406 268.418 111.77 268.729 112.027 269.123C112.289 269.518 112.42 269.969 112.42 270.477H110.674C110.674 270.227 110.621 270.008 110.516 269.82C110.414 269.629 110.258 269.479 110.047 269.369C109.84 269.26 109.578 269.205 109.262 269.205C108.957 269.205 108.703 269.252 108.5 269.346C108.297 269.436 108.145 269.559 108.043 269.715C107.941 269.867 107.891 270.039 107.891 270.23C107.891 270.375 107.926 270.506 107.996 270.623C108.07 270.74 108.18 270.85 108.324 270.951C108.469 271.053 108.646 271.148 108.857 271.238C109.068 271.328 109.312 271.416 109.59 271.502C110.055 271.643 110.463 271.801 110.814 271.977C111.17 272.152 111.467 272.35 111.705 272.568C111.943 272.787 112.123 273.035 112.244 273.312C112.365 273.59 112.426 273.904 112.426 274.256C112.426 274.627 112.354 274.959 112.209 275.252C112.064 275.545 111.855 275.793 111.582 275.996C111.309 276.199 110.982 276.354 110.604 276.459C110.225 276.564 109.801 276.617 109.332 276.617C108.91 276.617 108.494 276.562 108.084 276.453C107.674 276.34 107.301 276.17 106.965 275.943C106.633 275.717 106.367 275.428 106.168 275.076C105.969 274.725 105.869 274.309 105.869 273.828H107.633C107.633 274.094 107.674 274.318 107.756 274.502C107.838 274.686 107.953 274.834 108.102 274.947C108.254 275.061 108.434 275.143 108.641 275.193C108.852 275.244 109.082 275.27 109.332 275.27C109.637 275.27 109.887 275.227 110.082 275.141C110.281 275.055 110.428 274.936 110.521 274.783C110.619 274.631 110.668 274.459 110.668 274.268ZM116.609 267.969H119.791C120.443 267.969 121.004 268.066 121.473 268.262C121.945 268.457 122.309 268.746 122.562 269.129C122.816 269.512 122.943 269.982 122.943 270.541C122.943 270.998 122.865 271.391 122.709 271.719C122.557 272.043 122.34 272.314 122.059 272.533C121.781 272.748 121.455 272.92 121.08 273.049L120.523 273.342H117.758L117.746 271.971H119.803C120.111 271.971 120.367 271.916 120.57 271.807C120.773 271.697 120.926 271.545 121.027 271.35C121.133 271.154 121.186 270.928 121.186 270.67C121.186 270.396 121.135 270.16 121.033 269.961C120.932 269.762 120.777 269.609 120.57 269.504C120.363 269.398 120.104 269.346 119.791 269.346H118.367V276.5H116.609V267.969ZM121.379 276.5L119.434 272.697L121.291 272.686L123.26 276.418V276.5H121.379ZM127.766 269.428L125.445 276.5H123.576L126.746 267.969H127.936L127.766 269.428ZM129.693 276.5L127.367 269.428L127.18 267.969H128.381L131.568 276.5H129.693ZM129.588 273.324V274.701H125.082V273.324H129.588ZM134.229 267.969V276.5H132.477V267.969H134.229ZM141.359 275.129V276.5H137.064V275.129H141.359ZM137.633 267.969V276.5H135.875V267.969H137.633ZM146.809 274.268C146.809 274.115 146.785 273.979 146.738 273.857C146.695 273.732 146.613 273.619 146.492 273.518C146.371 273.412 146.201 273.309 145.982 273.207C145.764 273.105 145.48 273 145.133 272.891C144.746 272.766 144.379 272.625 144.031 272.469C143.688 272.312 143.383 272.131 143.117 271.924C142.855 271.713 142.648 271.469 142.496 271.191C142.348 270.914 142.273 270.592 142.273 270.225C142.273 269.869 142.352 269.547 142.508 269.258C142.664 268.965 142.883 268.715 143.164 268.508C143.445 268.297 143.777 268.135 144.16 268.021C144.547 267.908 144.971 267.852 145.432 267.852C146.061 267.852 146.609 267.965 147.078 268.191C147.547 268.418 147.91 268.729 148.168 269.123C148.43 269.518 148.561 269.969 148.561 270.477H146.814C146.814 270.227 146.762 270.008 146.656 269.82C146.555 269.629 146.398 269.479 146.188 269.369C145.98 269.26 145.719 269.205 145.402 269.205C145.098 269.205 144.844 269.252 144.641 269.346C144.438 269.436 144.285 269.559 144.184 269.715C144.082 269.867 144.031 270.039 144.031 270.23C144.031 270.375 144.066 270.506 144.137 270.623C144.211 270.74 144.32 270.85 144.465 270.951C144.609 271.053 144.787 271.148 144.998 271.238C145.209 271.328 145.453 271.416 145.73 271.502C146.195 271.643 146.604 271.801 146.955 271.977C147.311 272.152 147.607 272.35 147.846 272.568C148.084 272.787 148.264 273.035 148.385 273.312C148.506 273.59 148.566 273.904 148.566 274.256C148.566 274.627 148.494 274.959 148.35 275.252C148.205 275.545 147.996 275.793 147.723 275.996C147.449 276.199 147.123 276.354 146.744 276.459C146.365 276.564 145.941 276.617 145.473 276.617C145.051 276.617 144.635 276.562 144.225 276.453C143.814 276.34 143.441 276.17 143.105 275.943C142.773 275.717 142.508 275.428 142.309 275.076C142.109 274.725 142.01 274.309 142.01 273.828H143.773C143.773 274.094 143.814 274.318 143.896 274.502C143.979 274.686 144.094 274.834 144.242 274.947C144.395 275.061 144.574 275.143 144.781 275.193C144.992 275.244 145.223 275.27 145.473 275.27C145.777 275.27 146.027 275.227 146.223 275.141C146.422 275.055 146.568 274.936 146.662 274.783C146.76 274.631 146.809 274.459 146.809 274.268Z" fill="#2AC77B"/>
<path d="M393.422 264.182V265.5H387.586V264.375L390.346 261.416C390.623 261.107 390.842 260.836 391.002 260.602C391.162 260.363 391.277 260.15 391.348 259.963C391.422 259.771 391.459 259.59 391.459 259.418C391.459 259.16 391.416 258.939 391.33 258.756C391.244 258.568 391.117 258.424 390.949 258.322C390.785 258.221 390.582 258.17 390.34 258.17C390.082 258.17 389.859 258.232 389.672 258.357C389.488 258.482 389.348 258.656 389.25 258.879C389.156 259.102 389.109 259.354 389.109 259.635H387.416C387.416 259.127 387.537 258.662 387.779 258.24C388.021 257.814 388.363 257.477 388.805 257.227C389.246 256.973 389.77 256.846 390.375 256.846C390.973 256.846 391.477 256.943 391.887 257.139C392.301 257.33 392.613 257.607 392.824 257.971C393.039 258.33 393.146 258.76 393.146 259.26C393.146 259.541 393.102 259.816 393.012 260.086C392.922 260.352 392.793 260.617 392.625 260.883C392.461 261.145 392.262 261.41 392.027 261.68C391.793 261.949 391.533 262.229 391.248 262.518L389.766 264.182H393.422ZM400.453 262.312V263.637H394.307L394.225 262.611L397.781 256.969H399.123L397.67 259.4L395.9 262.312H400.453ZM399.486 256.969V265.5H397.799V256.969H399.486ZM405.082 256.969L401.953 266.232H400.699L403.828 256.969H405.082ZM411.615 256.969V257.877L408.316 265.5H406.535L409.834 258.287H405.586V256.969H411.615ZM416.426 256.969L413.297 266.232H412.043L415.172 256.969H416.426ZM418.893 260.502H419.795C420.084 260.502 420.322 260.453 420.51 260.355C420.697 260.254 420.836 260.113 420.926 259.934C421.02 259.75 421.066 259.537 421.066 259.295C421.066 259.076 421.023 258.883 420.938 258.715C420.855 258.543 420.729 258.41 420.557 258.316C420.385 258.219 420.168 258.17 419.906 258.17C419.699 258.17 419.508 258.211 419.332 258.293C419.156 258.375 419.016 258.49 418.91 258.639C418.805 258.787 418.752 258.967 418.752 259.178H417.059C417.059 258.709 417.184 258.301 417.434 257.953C417.688 257.605 418.027 257.334 418.453 257.139C418.879 256.943 419.348 256.846 419.859 256.846C420.438 256.846 420.943 256.939 421.377 257.127C421.811 257.311 422.148 257.582 422.391 257.941C422.633 258.301 422.754 258.746 422.754 259.277C422.754 259.547 422.691 259.809 422.566 260.062C422.441 260.312 422.262 260.539 422.027 260.742C421.797 260.941 421.516 261.102 421.184 261.223C420.852 261.34 420.479 261.398 420.064 261.398H418.893V260.502ZM418.893 261.785V260.912H420.064C420.529 260.912 420.938 260.965 421.289 261.07C421.641 261.176 421.936 261.328 422.174 261.527C422.412 261.723 422.592 261.955 422.713 262.225C422.834 262.49 422.895 262.785 422.895 263.109C422.895 263.508 422.818 263.863 422.666 264.176C422.514 264.484 422.299 264.746 422.021 264.961C421.748 265.176 421.428 265.34 421.061 265.453C420.693 265.562 420.293 265.617 419.859 265.617C419.5 265.617 419.146 265.568 418.799 265.471C418.455 265.369 418.143 265.219 417.861 265.02C417.584 264.816 417.361 264.562 417.193 264.258C417.029 263.949 416.947 263.584 416.947 263.162H418.641C418.641 263.381 418.695 263.576 418.805 263.748C418.914 263.92 419.064 264.055 419.256 264.152C419.451 264.25 419.668 264.299 419.906 264.299C420.176 264.299 420.406 264.25 420.598 264.152C420.793 264.051 420.941 263.91 421.043 263.73C421.148 263.547 421.201 263.334 421.201 263.092C421.201 262.779 421.145 262.529 421.031 262.342C420.918 262.15 420.756 262.01 420.545 261.92C420.334 261.83 420.084 261.785 419.795 261.785H418.893ZM428.408 256.881H428.654V258.229H428.555C428.109 258.229 427.713 258.295 427.365 258.428C427.018 258.561 426.723 258.75 426.48 258.996C426.242 259.238 426.059 259.531 425.93 259.875C425.805 260.219 425.742 260.604 425.742 261.029V262.447C425.742 262.752 425.771 263.021 425.83 263.256C425.893 263.486 425.98 263.68 426.094 263.836C426.211 263.988 426.348 264.104 426.504 264.182C426.66 264.256 426.836 264.293 427.031 264.293C427.215 264.293 427.381 264.254 427.529 264.176C427.682 264.098 427.811 263.988 427.916 263.848C428.025 263.703 428.107 263.535 428.162 263.344C428.221 263.148 428.25 262.936 428.25 262.705C428.25 262.475 428.221 262.262 428.162 262.066C428.107 261.871 428.025 261.703 427.916 261.562C427.807 261.418 427.674 261.307 427.518 261.229C427.361 261.15 427.186 261.111 426.99 261.111C426.725 261.111 426.49 261.174 426.287 261.299C426.088 261.42 425.932 261.576 425.818 261.768C425.705 261.959 425.645 262.16 425.637 262.371L425.127 262.043C425.139 261.742 425.201 261.457 425.314 261.188C425.432 260.918 425.592 260.68 425.795 260.473C426.002 260.262 426.25 260.098 426.539 259.98C426.828 259.859 427.154 259.799 427.518 259.799C427.916 259.799 428.266 259.875 428.566 260.027C428.871 260.18 429.125 260.389 429.328 260.654C429.531 260.92 429.684 261.227 429.785 261.574C429.887 261.922 429.938 262.293 429.938 262.688C429.938 263.102 429.869 263.486 429.732 263.842C429.6 264.197 429.406 264.508 429.152 264.773C428.902 265.039 428.602 265.246 428.25 265.395C427.898 265.543 427.504 265.617 427.066 265.617C426.613 265.617 426.201 265.535 425.83 265.371C425.463 265.203 425.146 264.969 424.881 264.668C424.615 264.367 424.41 264.01 424.266 263.596C424.125 263.182 424.055 262.729 424.055 262.236V261.58C424.055 260.893 424.154 260.264 424.354 259.693C424.557 259.119 424.848 258.623 425.227 258.205C425.605 257.783 426.062 257.457 426.598 257.227C427.133 256.996 427.736 256.881 428.408 256.881ZM432.533 261.615L431.186 261.293L431.672 256.969H436.465V258.334H433.061L432.85 260.227C432.963 260.16 433.135 260.09 433.365 260.016C433.596 259.938 433.854 259.898 434.139 259.898C434.553 259.898 434.92 259.963 435.24 260.092C435.561 260.221 435.832 260.408 436.055 260.654C436.281 260.9 436.453 261.201 436.57 261.557C436.688 261.912 436.746 262.314 436.746 262.764C436.746 263.143 436.688 263.504 436.57 263.848C436.453 264.188 436.275 264.492 436.037 264.762C435.799 265.027 435.5 265.236 435.141 265.389C434.781 265.541 434.355 265.617 433.863 265.617C433.496 265.617 433.141 265.562 432.797 265.453C432.457 265.344 432.15 265.182 431.877 264.967C431.607 264.752 431.391 264.492 431.227 264.188C431.066 263.879 430.982 263.527 430.975 263.133H432.65C432.674 263.375 432.736 263.584 432.838 263.76C432.943 263.932 433.082 264.064 433.254 264.158C433.426 264.252 433.627 264.299 433.857 264.299C434.072 264.299 434.256 264.258 434.408 264.176C434.561 264.094 434.684 263.98 434.777 263.836C434.871 263.688 434.939 263.516 434.982 263.32C435.029 263.121 435.053 262.906 435.053 262.676C435.053 262.445 435.025 262.236 434.971 262.049C434.916 261.861 434.832 261.699 434.719 261.562C434.605 261.426 434.461 261.32 434.285 261.246C434.113 261.172 433.912 261.135 433.682 261.135C433.369 261.135 433.127 261.184 432.955 261.281C432.787 261.379 432.646 261.49 432.533 261.615ZM443.408 260.08L441.984 262.441L440.684 262.436V262.359L442.324 260.08H443.408ZM441.984 262.389L443.408 264.756H442.324L440.684 262.471V262.395L441.984 262.389ZM445.676 260.08L444.252 262.441L442.951 262.436V262.359L444.592 260.08H445.676ZM444.252 262.389L445.676 264.756H444.592L442.951 262.471V262.395L444.252 262.389ZM450.469 258.428L448.148 265.5H446.279L449.449 256.969H450.639L450.469 258.428ZM452.396 265.5L450.07 258.428L449.883 256.969H451.084L454.271 265.5H452.396ZM452.291 262.324V263.701H447.785V262.324H452.291ZM460.547 264.129V265.5H456.252V264.129H460.547ZM456.82 256.969V265.5H455.062V256.969H456.82ZM462.967 264.146L464.666 256.969H465.615L465.832 258.164L464.021 265.5H463.002L462.967 264.146ZM462.094 256.969L463.5 264.146L463.383 265.5H462.246L460.354 256.969H462.094ZM467.326 264.117L468.715 256.969H470.455L468.568 265.5H467.432L467.326 264.117ZM466.148 256.969L467.859 264.176L467.812 265.5H466.793L464.971 258.158L465.205 256.969H466.148ZM474.621 258.428L472.301 265.5H470.432L473.602 256.969H474.791L474.621 258.428ZM476.549 265.5L474.223 258.428L474.035 256.969H475.236L478.424 265.5H476.549ZM476.443 262.324V263.701H471.938V262.324H476.443ZM479.613 256.969L481.395 260.859L483.176 256.969H485.092L482.285 262.395V265.5H480.504V262.395L477.691 256.969H479.613ZM490.219 263.268C490.219 263.115 490.195 262.979 490.148 262.857C490.105 262.732 490.023 262.619 489.902 262.518C489.781 262.412 489.611 262.309 489.393 262.207C489.174 262.105 488.891 262 488.543 261.891C488.156 261.766 487.789 261.625 487.441 261.469C487.098 261.312 486.793 261.131 486.527 260.924C486.266 260.713 486.059 260.469 485.906 260.191C485.758 259.914 485.684 259.592 485.684 259.225C485.684 258.869 485.762 258.547 485.918 258.258C486.074 257.965 486.293 257.715 486.574 257.508C486.855 257.297 487.188 257.135 487.57 257.021C487.957 256.908 488.381 256.852 488.842 256.852C489.471 256.852 490.02 256.965 490.488 257.191C490.957 257.418 491.32 257.729 491.578 258.123C491.84 258.518 491.971 258.969 491.971 259.477H490.225C490.225 259.227 490.172 259.008 490.066 258.82C489.965 258.629 489.809 258.479 489.598 258.369C489.391 258.26 489.129 258.205 488.812 258.205C488.508 258.205 488.254 258.252 488.051 258.346C487.848 258.436 487.695 258.559 487.594 258.715C487.492 258.867 487.441 259.039 487.441 259.23C487.441 259.375 487.477 259.506 487.547 259.623C487.621 259.74 487.73 259.85 487.875 259.951C488.02 260.053 488.197 260.148 488.408 260.238C488.619 260.328 488.863 260.416 489.141 260.502C489.605 260.643 490.014 260.801 490.365 260.977C490.721 261.152 491.018 261.35 491.256 261.568C491.494 261.787 491.674 262.035 491.795 262.312C491.916 262.59 491.977 262.904 491.977 263.256C491.977 263.627 491.904 263.959 491.76 264.252C491.615 264.545 491.406 264.793 491.133 264.996C490.859 265.199 490.533 265.354 490.154 265.459C489.775 265.564 489.352 265.617 488.883 265.617C488.461 265.617 488.045 265.562 487.635 265.453C487.225 265.34 486.852 265.17 486.516 264.943C486.184 264.717 485.918 264.428 485.719 264.076C485.52 263.725 485.42 263.309 485.42 262.828H487.184C487.184 263.094 487.225 263.318 487.307 263.502C487.389 263.686 487.504 263.834 487.652 263.947C487.805 264.061 487.984 264.143 488.191 264.193C488.402 264.244 488.633 264.27 488.883 264.27C489.188 264.27 489.438 264.227 489.633 264.141C489.832 264.055 489.979 263.936 490.072 263.783C490.17 263.631 490.219 263.459 490.219 263.268ZM503.168 261.035V261.439C503.168 262.088 503.08 262.67 502.904 263.186C502.729 263.701 502.48 264.141 502.16 264.504C501.84 264.863 501.457 265.139 501.012 265.33C500.57 265.521 500.08 265.617 499.541 265.617C499.006 265.617 498.516 265.521 498.07 265.33C497.629 265.139 497.246 264.863 496.922 264.504C496.598 264.141 496.346 263.701 496.166 263.186C495.99 262.67 495.902 262.088 495.902 261.439V261.035C495.902 260.383 495.99 259.801 496.166 259.289C496.342 258.773 496.59 258.334 496.91 257.971C497.234 257.607 497.617 257.33 498.059 257.139C498.504 256.947 498.994 256.852 499.529 256.852C500.068 256.852 500.559 256.947 501 257.139C501.445 257.33 501.828 257.607 502.148 257.971C502.473 258.334 502.723 258.773 502.898 259.289C503.078 259.801 503.168 260.383 503.168 261.035ZM501.393 261.439V261.023C501.393 260.57 501.352 260.172 501.27 259.828C501.188 259.484 501.066 259.195 500.906 258.961C500.746 258.727 500.551 258.551 500.32 258.434C500.09 258.312 499.826 258.252 499.529 258.252C499.232 258.252 498.969 258.312 498.738 258.434C498.512 258.551 498.318 258.727 498.158 258.961C498.002 259.195 497.883 259.484 497.801 259.828C497.719 260.172 497.678 260.57 497.678 261.023V261.439C497.678 261.889 497.719 262.287 497.801 262.635C497.883 262.979 498.004 263.27 498.164 263.508C498.324 263.742 498.52 263.92 498.75 264.041C498.98 264.162 499.244 264.223 499.541 264.223C499.838 264.223 500.102 264.162 500.332 264.041C500.562 263.92 500.756 263.742 500.912 263.508C501.068 263.27 501.188 262.979 501.27 262.635C501.352 262.287 501.393 261.889 501.393 261.439ZM511.377 256.969V265.5H509.619L506.191 259.781V265.5H504.434V256.969H506.191L509.625 262.693V256.969H511.377ZM512.648 264.756L514.072 262.389L515.379 262.395V262.471L513.738 264.756H512.648ZM512.648 260.08H513.738L515.379 262.359V262.436L514.072 262.441L512.648 260.08ZM514.945 264.756L516.369 262.389L517.676 262.395V262.471L516.035 264.756H514.945ZM514.945 260.08H516.035L517.676 262.359V262.436L516.369 262.441L514.945 260.08ZM391.23 270.428L388.91 277.5H387.041L390.211 268.969H391.4L391.23 270.428ZM393.158 277.5L390.832 270.428L390.645 268.969H391.846L395.033 277.5H393.158ZM393.053 274.324V275.701H388.547V274.324H393.053ZM398.42 275.719L400.43 268.969H402.387L399.416 277.5H398.127L398.42 275.719ZM396.568 268.969L398.572 275.719L398.877 277.5H397.576L394.623 268.969H396.568ZM405.053 268.969V277.5H403.301V268.969H405.053ZM410.273 270.428L407.953 277.5H406.084L409.254 268.969H410.443L410.273 270.428ZM412.201 277.5L409.875 270.428L409.688 268.969H410.889L414.076 277.5H412.201ZM412.096 274.324V275.701H407.59V274.324H412.096ZM418.207 273.756H416.016L416.004 272.549H417.844C418.168 272.549 418.434 272.508 418.641 272.426C418.848 272.34 419.002 272.217 419.104 272.057C419.209 271.893 419.262 271.693 419.262 271.459C419.262 271.193 419.211 270.979 419.109 270.814C419.012 270.65 418.857 270.531 418.646 270.457C418.439 270.383 418.172 270.346 417.844 270.346H416.625V277.5H414.867V268.969H417.844C418.34 268.969 418.783 269.016 419.174 269.109C419.568 269.203 419.902 269.346 420.176 269.537C420.449 269.729 420.658 269.971 420.803 270.264C420.947 270.553 421.02 270.896 421.02 271.295C421.02 271.646 420.939 271.971 420.779 272.268C420.623 272.564 420.375 272.807 420.035 272.994C419.699 273.182 419.26 273.285 418.717 273.305L418.207 273.756ZM418.131 277.5H415.535L416.221 276.129H418.131C418.439 276.129 418.691 276.08 418.887 275.982C419.082 275.881 419.227 275.744 419.32 275.572C419.414 275.4 419.461 275.203 419.461 274.98C419.461 274.73 419.418 274.514 419.332 274.33C419.25 274.146 419.117 274.006 418.934 273.908C418.75 273.807 418.508 273.756 418.207 273.756H416.514L416.525 272.549H418.635L419.039 273.023C419.559 273.016 419.977 273.107 420.293 273.299C420.613 273.486 420.846 273.73 420.99 274.031C421.139 274.332 421.213 274.654 421.213 274.998C421.213 275.545 421.094 276.006 420.855 276.381C420.617 276.752 420.268 277.031 419.807 277.219C419.35 277.406 418.791 277.5 418.131 277.5ZM424.4 268.969V277.5H422.648V268.969H424.4ZM431.531 276.129V277.5H427.236V276.129H431.531ZM427.805 268.969V277.5H426.047V268.969H427.805ZM434.408 268.969V277.5H432.656V268.969H434.408ZM439.693 268.969V277.5H437.941V268.969H439.693ZM442.318 268.969V270.346H435.357V268.969H442.318ZM444.586 268.969L446.367 272.859L448.148 268.969H450.064L447.258 274.395V277.5H445.477V274.395L442.664 268.969H444.586Z" fill="#2AC77B"/>
<circle cx="268" cy="152.5" r="53" fill="#3D4255"/>
<path d="M281.005 151.993C281.005 155.633 278.054 158.584 274.414 158.584C270.774 158.584 267.823 155.633 267.823 151.993C267.823 148.353 270.774 145.402 274.414 145.402C278.054 145.402 281.005 148.353 281.005 151.993Z" fill="#2AC77B"/>
<path fill-rule="evenodd" clip-rule="evenodd" d="M274.416 141.728H261.234C255.565 141.728 250.97 146.324 250.97 151.993C250.97 157.662 255.565 162.257 261.234 162.257H274.416C280.085 162.257 284.681 157.662 284.681 151.993C284.681 146.324 280.085 141.728 274.416 141.728ZM261.234 138.054C253.536 138.054 247.296 144.295 247.296 151.993C247.296 159.691 253.536 165.931 261.234 165.931H274.416C282.114 165.931 288.355 159.691 288.355 151.993C288.355 144.295 282.114 138.054 274.416 138.054H261.234Z" fill="#F7FAFB"/>
<circle cx="270" cy="304.5" r="7" fill="#2AC77B"/>
<circle cx="168" cy="266.5" r="7" fill="#2AC77B"/>
<circle cx="368" cy="266.5" r="7" fill="#2AC77B"/>
<defs>
<linearGradient id="paint0_linear_7169_2200" x1="268" y1="-0.57547" x2="268" y2="206.274" gradientUnits="userSpaceOnUse">
<stop stop-color="#2AC77B"/>
<stop offset="1" stop-color="#2AC77B" stop-opacity="0"/>
</linearGradient>
<linearGradient id="paint1_linear_7169_2200" x1="268" y1="87.6311" x2="268" y2="186.442" gradientUnits="userSpaceOnUse">
<stop stop-color="#2AC77B"/>
<stop offset="1" stop-color="#2AC77B" stop-opacity="0"/>
</linearGradient>
<linearGradient id="paint2_linear_7169_2200" x1="268" y1="113.262" x2="268" y2="160.938" gradientUnits="userSpaceOnUse">
<stop stop-color="#2AC77B"/>
<stop offset="1" stop-color="#2AC77B" stop-opacity="0"/>
</linearGradient>
</defs>
</svg>
