<svg width="62" height="57" viewBox="0 0 62 57" fill="none" xmlns="http://www.w3.org/2000/svg">
<path d="M61 18.4349C61 16.208 59.2351 14.3859 57.078 14.3859H51.1948C50.5085 14.3859 50.1163 13.5762 50.5085 12.9688C51.0968 11.9566 51.3909 10.7419 51.0968 9.42598C50.7046 7.4015 49.2338 5.78192 47.3708 5.37703C44.1351 4.66846 41.3896 7.19905 41.3896 10.337C41.3896 11.3492 41.6838 12.159 42.076 12.9688C42.4682 13.5762 42.076 14.3859 41.2916 14.3859H35.4085C33.2513 14.3859 31.4864 16.208 31.4864 18.4349V25.5206C31.4864 26.2291 32.2708 26.634 32.8591 26.2291C33.8396 25.6218 35.0163 25.3181 36.2909 25.6218C38.252 26.0267 39.8208 27.545 40.213 29.4683C40.8994 32.7075 38.4481 35.643 35.4085 35.643C34.4279 35.643 33.6435 35.3393 32.8591 34.9344C32.3689 34.5295 31.5844 34.9344 31.5844 35.643V41.7164C31.5844 43.9433 33.3494 45.7653 35.5065 45.7653H57.078C59.2351 45.7653 61 43.9433 61 41.7164V18.4349Z" fill="#2C3246" stroke="#2AC77B" stroke-width="1.5"/>
<path d="M27.474 15.2929C29.6312 15.2929 31.3961 17.1149 31.3961 19.3418L31.3961 25.4152C31.3961 26.1238 32.1805 26.5287 32.7688 26.1238C33.7494 25.5165 34.926 25.2128 36.2007 25.5165C38.1617 25.9214 39.7305 27.4397 40.1227 29.363C40.8091 32.7034 38.3578 35.5376 35.3182 35.5376C34.3377 35.5376 33.5533 35.2339 32.7688 34.8291C32.1805 34.4242 31.3961 34.8291 31.3961 35.6388L31.3961 41.7123C31.3961 43.9392 29.6312 45.7612 27.474 45.7612L20.6104 45.7612C19.924 45.7612 19.5318 44.9514 19.924 44.3441C20.5123 43.3319 20.8065 42.1172 20.5123 40.8013C20.1201 38.7768 18.6494 37.1572 16.7864 36.7523C13.6487 36.0437 10.8052 38.5743 10.8052 41.7123C10.8052 42.7245 11.0994 43.5343 11.4916 44.3441C11.8838 44.8502 11.4916 45.66 10.8052 45.66L4.92208 45.66C2.76494 45.66 1 43.838 1 41.6111L1 19.3418C1 17.1149 2.76494 15.2929 4.92208 15.2929L27.474 15.2929Z" fill="#2C3246" stroke="#2AC77B" stroke-width="1.5"/>
</svg>
