<svg width="56" height="59" viewBox="0 0 56 59" fill="none" xmlns="http://www.w3.org/2000/svg">
<path d="M30.2633 46.0285C30.5653 46.3406 30.8049 46.7114 30.9684 47.1197C31.1319 47.5279 31.2161 47.9656 31.2161 48.4077C31.2161 48.8498 31.1319 49.2875 30.9684 49.6958C30.8049 50.1041 30.5653 50.4748 30.2633 50.7869L28.6597 52.4495C25.6211 55.6 21.4998 57.37 17.2026 57.37C12.9053 57.37 8.78407 55.6 5.74545 52.4495C2.70683 49.299 0.999756 45.0259 0.999756 40.5704C0.999756 36.1149 2.70683 31.8419 5.74545 28.6913L12.2569 21.9429C15.1765 18.9083 19.1047 17.146 23.2368 17.0169C27.369 16.8878 31.3923 18.4018 34.4828 21.2487C34.8018 21.5428 35.0619 21.8991 35.2482 22.2974C35.4344 22.6957 35.5432 23.1281 35.5682 23.5699C35.5933 24.0118 35.5342 24.4544 35.3943 24.8726C35.2543 25.2907 35.0363 25.6762 34.7527 26.0071C34.4691 26.3379 34.1254 26.6075 33.7413 26.8006C33.3572 26.9937 32.9401 27.1065 32.514 27.1325C32.0878 27.1585 31.6609 27.0972 31.2576 26.9521C30.8543 26.807 30.4825 26.581 30.1634 26.287C28.3102 24.5805 25.8981 23.6726 23.4206 23.7491C20.9431 23.8256 18.5875 24.8806 16.8354 26.6984L10.3294 33.4385C8.5065 35.3285 7.48241 37.8919 7.48241 40.5648C7.48241 43.2377 8.5065 45.8011 10.3294 47.6912C12.1523 49.5812 14.6246 50.643 17.2026 50.643C19.7805 50.643 22.2529 49.5812 24.0758 47.6912L25.6793 46.0285C25.9802 45.7162 26.3375 45.4685 26.7308 45.2995C27.124 45.1304 27.5456 45.0434 27.9713 45.0434C28.397 45.0434 28.8186 45.1304 29.2119 45.2995C29.6051 45.4685 29.9624 45.7162 30.2633 46.0285ZM50.262 6.28229C47.2209 3.1366 43.1005 1.37 38.8048 1.37C34.5091 1.37 30.3888 3.1366 27.3477 6.28229L25.7441 7.94491C25.1356 8.57591 24.7937 9.43172 24.7937 10.3241C24.7937 11.2165 25.1356 12.0723 25.7441 12.7033C26.3527 13.3343 27.1781 13.6888 28.0388 13.6888C28.8995 13.6888 29.7249 13.3343 30.3335 12.7033L31.937 11.0406C33.7599 9.15062 36.2323 8.08882 38.8102 8.08882C41.3882 8.08882 43.8605 9.15062 45.6834 11.0406C47.5063 12.9307 48.5304 15.4941 48.5304 18.167C48.5304 20.8399 47.5063 23.4033 45.6834 25.2933L39.1747 32.0446C37.4211 33.8616 35.0641 34.9151 32.586 34.9895C30.1079 35.0639 27.6961 34.1536 25.844 32.4448C25.525 32.1508 25.1532 31.9248 24.7498 31.7797C24.3465 31.6346 23.9196 31.5733 23.4934 31.5993C23.0673 31.6253 22.6502 31.7381 22.2661 31.9312C21.882 32.1243 21.5383 32.3939 21.2547 32.7247C20.9711 33.0556 20.7531 33.4411 20.6132 33.8592C20.4732 34.2774 20.4141 34.72 20.4392 35.1619C20.4643 35.6037 20.573 36.0361 20.7593 36.4344C20.9455 36.8327 21.2056 37.189 21.5247 37.4831C24.613 40.3293 28.6336 41.8443 32.7638 41.7178C36.894 41.5914 40.8215 39.8331 43.7424 36.8029L50.2539 30.0545C53.2914 26.9021 54.9982 22.6289 54.9998 18.1729C55.0013 13.7169 53.2973 9.44244 50.262 6.28788V6.28229Z" fill="#2C3246" stroke="#2AC77B" stroke-width="1.5"/>
</svg>
