<svg width="58" height="57" viewBox="0 0 58 57" fill="none" xmlns="http://www.w3.org/2000/svg">
<path d="M51.4087 7.96179H6.60096C3.52043 7.96179 1 10.5922 1 13.807V43.0332C1 46.2481 3.52043 48.8785 6.60096 48.8785H51.4087C54.4892 48.8785 57.0096 46.2481 57.0096 43.0332V13.807C57.0096 10.5922 54.4892 7.96179 51.4087 7.96179Z" fill="#2C3246" stroke="#2AC77B" stroke-width="1.5"/>
<path d="M1 16.2471H56.9306V23.5536H1V16.2471Z" fill="#2C3246" stroke="#2AC77B" stroke-width="1.5"/>
<path fill-rule="evenodd" clip-rule="evenodd" d="M7.89317 34.9889H14.2122C14.7087 34.9889 15.1149 34.5673 15.1149 34.052V29.3672C15.1149 28.8519 14.7087 28.4303 14.2122 28.4303H7.89317C7.39667 28.4303 6.99045 28.8519 6.99045 29.3672V34.052C6.99045 34.5673 7.39667 34.9889 7.89317 34.9889ZM19.5159 34.989H25.8349C26.3314 34.989 26.7376 34.5674 26.7376 34.0521V29.3673C26.7376 28.852 26.3314 28.4304 25.8349 28.4304H19.5159C19.0194 28.4304 18.6132 28.852 18.6132 29.3673V34.0521C18.6132 34.5674 19.0194 34.989 19.5159 34.989Z" fill="#2C3246"/>
<path d="M14.2122 34.2389H7.89317V35.7389H14.2122V34.2389ZM14.3649 34.052C14.3649 34.1796 14.2684 34.2389 14.2122 34.2389V35.7389C15.149 35.7389 15.8649 34.9549 15.8649 34.052H14.3649ZM14.3649 29.3672V34.052H15.8649V29.3672H14.3649ZM14.2122 29.1803C14.2684 29.1803 14.3649 29.2396 14.3649 29.3672H15.8649C15.8649 28.4643 15.149 27.6803 14.2122 27.6803V29.1803ZM7.89317 29.1803H14.2122V27.6803H7.89317V29.1803ZM7.74045 29.3672C7.74045 29.2396 7.83694 29.1803 7.89317 29.1803V27.6803C6.9564 27.6803 6.24045 28.4643 6.24045 29.3672H7.74045ZM7.74045 34.052V29.3672H6.24045V34.052H7.74045ZM7.89317 34.2389C7.83694 34.2389 7.74045 34.1796 7.74045 34.052H6.24045C6.24045 34.9549 6.9564 35.7389 7.89317 35.7389V34.2389ZM25.8349 34.239H19.5159V35.739H25.8349V34.239ZM25.9876 34.0521C25.9876 34.1797 25.8911 34.239 25.8349 34.239V35.739C26.7717 35.739 27.4876 34.955 27.4876 34.0521H25.9876ZM25.9876 29.3673V34.0521H27.4876V29.3673H25.9876ZM25.8349 29.1804C25.8911 29.1804 25.9876 29.2397 25.9876 29.3673H27.4876C27.4876 28.4644 26.7717 27.6804 25.8349 27.6804V29.1804ZM19.5159 29.1804H25.8349V27.6804H19.5159V29.1804ZM19.3632 29.3673C19.3632 29.2397 19.4597 29.1804 19.5159 29.1804V27.6804C18.5791 27.6804 17.8632 28.4644 17.8632 29.3673H19.3632ZM19.3632 34.0521V29.3673H17.8632V34.0521H19.3632ZM19.5159 34.239C19.4597 34.239 19.3632 34.1797 19.3632 34.0521H17.8632C17.8632 34.955 18.5791 35.739 19.5159 35.739V34.239Z" fill="#2AC77B"/>
</svg>
