<svg width="431" height="343" viewBox="0 0 431 343" fill="none" xmlns="http://www.w3.org/2000/svg">
<path d="M415.884 184.825L266.076 98.1362C258.725 93.8804 246.811 93.8804 239.459 98.1362L22.5435 226.046H3.16062V239.152C3.04515 242.026 4.86837 244.914 8.65035 247.102L167.136 338.817C174.484 343.069 186.402 343.069 193.753 338.817L424.558 205.248C428.236 203.124 430.071 200.337 430.071 197.55V184.825L415.884 184.825Z" fill="#F7FAFB" stroke="#2C3246"/>
<path d="M368.541 119.556C368.541 119.556 368.514 129.988 368.541 133.606C368.569 137.266 366.178 140.931 361.368 143.724L352.45 148.9" stroke="#2C3246"/>
<path d="M167.148 325.563L8.66849 233.853C1.31779 229.597 1.31779 222.701 8.66849 218.45L239.467 84.8838C246.819 80.6281 258.732 80.6281 266.083 84.8838L318.245 115.237L327.007 110.185C336.471 104.728 351.814 104.728 361.278 110.185C370.741 115.642 370.741 124.49 361.278 129.947L352.454 135.035L424.558 176.597C431.908 180.849 431.908 187.745 424.558 192L193.763 325.563C186.413 329.817 174.495 329.817 167.148 325.563Z" fill="#F7FAFB" stroke="#2C3246" stroke-linejoin="round"/>
<path d="M348.476 123.041C345.704 124.705 341.208 124.705 338.436 123.041C335.663 121.378 335.663 118.681 338.436 117.017C341.208 115.354 345.704 115.354 348.476 117.017C351.249 118.681 351.249 121.378 348.476 123.041Z" fill="#F7FAFB" stroke="#2C3246"/>
<path d="M180.989 322.713L1.13313 218.882L247.49 76.6599L369.533 147.115V214.297L180.989 322.713Z" fill="#F7FAFB" stroke="#2C3246" stroke-linejoin="round"/>
<path d="M369.532 214.291L311.364 180.71L369.532 147.129V214.291Z" fill="#F7FAFB" stroke="#2C3246" stroke-linejoin="round"/>
<path d="M180.989 316.025L1.13313 212.194L247.49 69.9719L369.533 140.427V207.609L180.989 316.025Z" fill="#F7FAFB" stroke="#2C3246" stroke-linejoin="round"/>
<path d="M369.532 207.603L311.364 174.022L369.532 140.441V207.603Z" fill="#F7FAFB" stroke="#2C3246" stroke-linejoin="round"/>
<path d="M180.989 309.337L1.13313 205.506L247.49 63.2839L369.533 133.739V200.921L180.989 309.337Z" fill="#F7FAFB" stroke="#2C3246" stroke-linejoin="round"/>
<path d="M369.532 200.915L311.364 167.334L369.532 133.753V200.915Z" fill="#F7FAFB" stroke="#2C3246" stroke-linejoin="round"/>
<path d="M176.871 136.706L299.049 207.811M284.048 216.541L161.87 145.436M146.869 154.166L240.299 208.54M225.299 217.27L131.868 162.896M116.868 171.626L239.046 242.731M224.045 251.461L101.867 180.356M86.8662 189.087L180.296 243.461M165.296 252.191L71.8654 197.817" stroke="#2C3246"/>
<path d="M122.092 154.43L103.101 165.471L14.912 12.9543L33.891 1.92135C36.0139 0.688421 38.9492 0.861922 42.1923 2.7332L114.079 44.2174C120.524 47.9341 125.729 56.951 125.711 64.3541L125.493 146.949C125.484 150.625 124.188 153.213 122.092 154.43Z" fill="#F7FAFB" stroke="#2C3246"/>
<path d="M94.8022 164.688C101.246 168.407 106.484 165.42 106.503 158.017L106.72 75.4222C106.739 68.0188 101.533 59.0029 95.0889 55.2845L23.2009 13.8004C16.7572 10.082 11.5191 13.0707 11.4997 20.4739L11.2832 103.069C11.2638 110.472 16.4705 119.486 22.9142 123.204L94.8022 164.688Z" fill="#F7FAFB" stroke="#2C3246"/>
<path d="M59 87.7682C52.5479 84.0428 47.3172 74.983 47.3169 67.5326C47.3166 60.0822 52.5468 57.0625 58.9989 60.7879C65.451 64.5134 70.6817 73.5732 70.682 81.0236C70.6823 88.474 65.4521 91.4937 59 87.7682Z" fill="#F7FAFB"/>
<path d="M59.0011 94.5136C70.707 101.273 80.2403 115.842 80.2408 127.012C80.2408 127.768 79.7268 128.064 79.0726 127.687L38.9313 104.509C38.2771 104.131 37.763 103.241 37.763 102.485C37.7626 91.3156 47.2952 87.7546 59.0011 94.5136Z" fill="#F7FAFB"/>
<path d="M59 87.7682C52.5479 84.0428 47.3172 74.983 47.3169 67.5326C47.3166 60.0822 52.5468 57.0625 58.9989 60.7879C65.451 64.5134 70.6817 73.5732 70.682 81.0236C70.6823 88.474 65.4521 91.4937 59 87.7682Z" stroke="#2C3246"/>
<path d="M59.0011 94.5136C70.707 101.273 80.2403 115.842 80.2408 127.012C80.2408 127.768 79.7268 128.064 79.0726 127.687L38.9313 104.509C38.2771 104.131 37.763 103.241 37.763 102.485C37.7626 91.3156 47.2952 87.7546 59.0011 94.5136Z" stroke="#2C3246"/>
<path d="M223.567 123.913L236.656 116.304C238.1 115.465 238.994 113.682 238.999 111.148L239.15 54.2267C239.162 49.1247 235.575 42.9106 231.134 40.3492L181.592 11.7598C179.357 10.4701 177.334 10.3506 175.871 11.2003L162.791 18.8038C164.251 17.9605 218.044 47.9559 218.044 47.9559C222.485 50.52 226.074 56.7331 226.06 61.8361C226.06 61.8361 225.01 123.075 223.567 123.913Z" fill="#F7FAFB" stroke="#2C3246"/>
<path d="M217.849 123.374C222.29 125.936 225.9 123.878 225.913 118.776L226.062 61.8545C226.076 56.7523 222.488 50.5389 218.047 47.9763L168.504 19.3869C164.063 16.8243 160.453 18.884 160.44 23.9861L160.291 80.9074C160.278 86.0095 163.866 92.2215 168.307 94.7841L217.849 123.374Z" fill="#F7FAFB" stroke="#2C3246"/>
<path d="M193.167 70.3773C188.323 67.5804 184.397 60.7788 184.396 55.1854C184.396 49.5921 188.323 47.3251 193.167 50.1219C198.01 52.9188 201.937 59.7204 201.938 65.3138C201.938 70.9071 198.011 73.1741 193.167 70.3773Z" fill="#F7FAFB"/>
<path d="M193.168 75.4413C201.956 80.5156 209.113 91.4538 209.114 99.8395C209.114 100.407 208.728 100.629 208.237 100.346L178.101 82.9454C177.61 82.6618 177.224 81.9933 177.224 81.4262C177.223 73.0405 184.38 70.367 193.168 75.4413Z" fill="#F7FAFB"/>
<path d="M193.167 70.3773C188.323 67.5804 184.397 60.7788 184.396 55.1854C184.396 49.5921 188.323 47.3251 193.167 50.1219C198.01 52.9188 201.937 59.7204 201.938 65.3138C201.938 70.9071 198.011 73.1741 193.167 70.3773Z" stroke="#2C3246"/>
<path d="M193.168 75.4413C201.956 80.5156 209.113 91.4538 209.114 99.8395C209.114 100.407 208.728 100.629 208.237 100.346L178.101 82.9454C177.61 82.6618 177.224 81.9933 177.224 81.4262C177.223 73.0405 184.38 70.367 193.168 75.4413Z" stroke="#2C3246"/>
<path d="M319.767 332.401L330.065 326.415C331.201 325.755 331.905 324.351 331.909 322.358L332.028 277.569C332.037 273.555 329.215 268.665 325.72 266.65L286.738 244.154C284.98 243.139 283.388 243.045 282.237 243.714L271.945 249.697C273.094 249.033 315.421 272.635 315.421 272.635C318.915 274.653 321.739 279.541 321.728 283.557C321.728 283.557 320.902 331.742 319.767 332.401Z" fill="#F7FAFB" stroke="#2C3246"/>
<path d="M315.266 331.977C318.76 333.993 321.6 332.374 321.611 328.359L321.728 283.571C321.739 279.556 318.916 274.667 315.421 272.651L276.439 250.156C272.945 248.139 270.104 249.76 270.094 253.774L269.976 298.563C269.966 302.577 272.789 307.465 276.283 309.482L315.266 331.977Z" fill="#F7FAFB" stroke="#2C3246"/>
<path d="M295.85 288.133C292.559 286.232 289.891 281.611 289.891 277.811C289.891 274.01 292.559 272.47 295.85 274.37C299.141 276.271 301.809 280.892 301.809 284.692C301.809 288.493 299.141 290.033 295.85 288.133Z" fill="#F7FAFB"/>
<path d="M295.851 291.573C301.822 295.021 306.685 302.453 306.685 308.15C306.685 308.536 306.423 308.687 306.089 308.494L285.613 296.672C285.28 296.479 285.017 296.025 285.017 295.64C285.017 289.942 289.88 288.126 295.851 291.573Z" fill="#F7FAFB"/>
<path d="M295.85 288.133C292.559 286.232 289.891 281.611 289.891 277.811C289.891 274.01 292.559 272.47 295.85 274.37C299.141 276.271 301.809 280.892 301.809 284.692C301.809 288.493 299.141 290.033 295.85 288.133Z" stroke="#2C3246"/>
<path d="M295.851 291.573C301.822 295.021 306.685 302.453 306.685 308.15C306.685 308.536 306.423 308.687 306.089 308.494L285.613 296.672C285.28 296.479 285.017 296.025 285.017 295.64C285.017 289.942 289.88 288.126 295.851 291.573Z" stroke="#2C3246"/>
</svg>
