<svg width="585" height="442" viewBox="0 0 585 442" fill="none" xmlns="http://www.w3.org/2000/svg">
<path d="M483.883 243.825L334.076 157.136C326.725 152.88 314.811 152.88 307.459 157.136L90.5435 285.046H71.1606V298.152C71.0451 301.026 72.8684 303.914 76.6504 306.102L235.136 397.817C242.484 402.069 254.402 402.069 261.753 397.817L492.558 264.248C496.236 262.124 498.071 259.337 498.071 256.55V243.825L483.883 243.825Z" fill="#F7FAFB" stroke="#2C3246"/>
<path d="M436.541 178.556C436.541 178.556 436.514 188.988 436.541 192.606C436.569 196.266 434.178 199.931 429.368 202.724L420.45 207.9" stroke="#2C3246"/>
<path d="M235.148 384.563L76.6685 292.853C69.3178 288.597 69.3178 281.701 76.6685 277.45L307.467 143.884C314.819 139.628 326.732 139.628 334.083 143.884L386.245 174.237L395.007 169.185C404.471 163.728 419.814 163.728 429.278 169.185C438.741 174.642 438.741 183.49 429.278 188.947L420.454 194.035L492.558 235.597C499.908 239.849 499.908 246.745 492.558 251L261.763 384.563C254.413 388.817 242.495 388.817 235.148 384.563Z" fill="#F7FAFB" stroke="#2C3246" stroke-linejoin="round"/>
<path d="M416.476 182.041C413.704 183.705 409.208 183.705 406.436 182.041C403.663 180.378 403.663 177.681 406.436 176.017C409.208 174.354 413.704 174.354 416.476 176.017C419.249 177.681 419.249 180.378 416.476 182.041Z" fill="#F7FAFB" stroke="#2C3246"/>
<path d="M248.989 381.713L69.1331 277.882L315.49 135.66L437.533 206.115V273.297L248.989 381.713Z" fill="#F7FAFB" stroke="#2C3246" stroke-linejoin="round"/>
<path d="M437.532 273.291L379.364 239.71L437.532 206.129V273.291Z" fill="#F7FAFB" stroke="#2C3246" stroke-linejoin="round"/>
<path d="M248.989 375.025L69.1331 271.194L315.49 128.972L437.533 199.427V266.609L248.989 375.025Z" fill="#F7FAFB" stroke="#2C3246" stroke-linejoin="round"/>
<path d="M437.532 266.603L379.364 233.022L437.532 199.441V266.603Z" fill="#F7FAFB" stroke="#2C3246" stroke-linejoin="round"/>
<path d="M248.989 368.337L69.1331 264.506L315.49 122.284L437.533 192.739V259.921L248.989 368.337Z" fill="#F7FAFB" stroke="#2C3246" stroke-linejoin="round"/>
<path d="M437.532 259.915L379.364 226.334L437.532 192.753V259.915Z" fill="#F7FAFB" stroke="#2C3246" stroke-linejoin="round"/>
<path d="M244.871 195.706L367.049 266.811M352.048 275.541L229.87 204.436M214.869 213.166L308.299 267.54M293.299 276.27L199.868 221.896M184.868 230.626L307.046 301.731M292.045 310.461L169.867 239.356M154.866 248.087L248.296 302.461M233.296 311.191L139.865 256.817" stroke="#2C3246"/>
<path d="M190.092 213.43L171.101 224.471L82.912 71.9543L101.891 60.9213C104.014 59.6884 106.949 59.8619 110.192 61.7332L182.079 103.217C188.524 106.934 193.729 115.951 193.711 123.354L193.493 205.949C193.484 209.625 192.188 212.213 190.092 213.43Z" fill="#F7FAFB" stroke="#2C3246"/>
<path d="M162.802 223.688C169.246 227.407 174.484 224.42 174.503 217.017L174.72 134.422C174.739 127.019 169.533 118.003 163.089 114.284L91.2009 72.8004C84.7572 69.082 79.5191 72.0707 79.4997 79.4739L79.2832 162.069C79.2638 169.472 84.4705 178.486 90.9142 182.204L162.802 223.688Z" fill="#F7FAFB" stroke="#2C3246"/>
<path d="M127 146.768C120.548 143.043 115.317 133.983 115.317 126.533C115.317 119.082 120.547 116.062 126.999 119.788C133.451 123.513 138.682 132.573 138.682 140.024C138.682 147.474 133.452 150.494 127 146.768Z" fill="#F7FAFB"/>
<path d="M127.001 153.514C138.707 160.273 148.24 174.842 148.241 186.012C148.241 186.768 147.727 187.064 147.073 186.687L106.931 163.509C106.277 163.131 105.763 162.241 105.763 161.485C105.763 150.316 115.295 146.755 127.001 153.514Z" fill="#F7FAFB"/>
<path d="M127 146.768C120.548 143.043 115.317 133.983 115.317 126.533C115.317 119.082 120.547 116.062 126.999 119.788C133.451 123.513 138.682 132.573 138.682 140.024C138.682 147.474 133.452 150.494 127 146.768Z" stroke="#2C3246"/>
<path d="M127.001 153.514C138.707 160.273 148.24 174.842 148.241 186.012C148.241 186.768 147.727 187.064 147.073 186.687L106.931 163.509C106.277 163.131 105.763 162.241 105.763 161.485C105.763 150.316 115.295 146.755 127.001 153.514Z" stroke="#2C3246"/>
<path d="M291.567 182.913L304.656 175.304C306.1 174.465 306.994 172.682 306.999 170.148L307.15 113.227C307.162 108.125 303.575 101.911 299.134 99.3492L249.592 70.7598C247.357 69.4701 245.334 69.3506 243.871 70.2003L230.791 77.8038C232.251 76.9605 286.044 106.956 286.044 106.956C290.485 109.52 294.074 115.733 294.06 120.836C294.06 120.836 293.01 182.075 291.567 182.913Z" fill="#F7FAFB" stroke="#2C3246"/>
<path d="M285.849 182.374C290.29 184.936 293.9 182.878 293.913 177.776L294.062 120.854C294.076 115.752 290.488 109.539 286.047 106.976L236.504 78.3869C232.063 75.8243 228.453 77.884 228.44 82.9861L228.291 139.907C228.278 145.01 231.866 151.221 236.307 153.784L285.849 182.374Z" fill="#F7FAFB" stroke="#2C3246"/>
<path d="M261.167 129.377C256.323 126.58 252.397 119.779 252.396 114.185C252.396 108.592 256.323 106.325 261.167 109.122C266.01 111.919 269.937 118.72 269.938 124.314C269.938 129.907 266.011 132.174 261.167 129.377Z" fill="#F7FAFB"/>
<path d="M261.168 134.441C269.956 139.516 277.113 150.454 277.114 158.839C277.114 159.407 276.728 159.629 276.237 159.346L246.101 141.945C245.61 141.662 245.224 140.993 245.224 140.426C245.223 132.04 252.38 129.367 261.168 134.441Z" fill="#F7FAFB"/>
<path d="M261.167 129.377C256.323 126.58 252.397 119.779 252.396 114.185C252.396 108.592 256.323 106.325 261.167 109.122C266.01 111.919 269.937 118.72 269.938 124.314C269.938 129.907 266.011 132.174 261.167 129.377Z" stroke="#2C3246"/>
<path d="M261.168 134.441C269.956 139.516 277.113 150.454 277.114 158.839C277.114 159.407 276.728 159.629 276.237 159.346L246.101 141.945C245.61 141.662 245.224 140.993 245.224 140.426C245.223 132.04 252.38 129.367 261.168 134.441Z" stroke="#2C3246"/>
<path d="M387.767 391.401L398.065 385.415C399.201 384.755 399.905 383.351 399.909 381.358L400.028 336.569C400.037 332.555 397.215 327.665 393.72 325.65L354.738 303.154C352.98 302.139 351.388 302.045 350.237 302.714L339.945 308.697C341.094 308.033 383.421 331.635 383.421 331.635C386.915 333.653 389.739 338.541 389.728 342.557C389.728 342.557 388.902 390.742 387.767 391.401Z" fill="#F7FAFB" stroke="#2C3246"/>
<path d="M383.266 390.977C386.76 392.993 389.6 391.374 389.611 387.359L389.728 342.571C389.739 338.556 386.916 333.667 383.421 331.651L344.439 309.156C340.945 307.139 338.104 308.76 338.094 312.774L337.976 357.563C337.966 361.577 340.789 366.465 344.283 368.482L383.266 390.977Z" fill="#F7FAFB" stroke="#2C3246"/>
<path d="M363.85 347.133C360.559 345.232 357.891 340.611 357.891 336.811C357.891 333.01 360.559 331.47 363.85 333.37C367.141 335.271 369.809 339.892 369.809 343.692C369.809 347.493 367.141 349.033 363.85 347.133Z" fill="#F7FAFB"/>
<path d="M363.851 350.573C369.822 354.021 374.685 361.453 374.685 367.15C374.685 367.536 374.423 367.687 374.089 367.494L353.613 355.672C353.28 355.479 353.017 355.025 353.017 354.64C353.017 348.942 357.88 347.126 363.851 350.573Z" fill="#F7FAFB"/>
<path d="M363.85 347.133C360.559 345.232 357.891 340.611 357.891 336.811C357.891 333.01 360.559 331.47 363.85 333.37C367.141 335.271 369.809 339.892 369.809 343.692C369.809 347.493 367.141 349.033 363.85 347.133Z" stroke="#2C3246"/>
<path d="M363.851 350.573C369.822 354.021 374.685 361.453 374.685 367.15C374.685 367.536 374.423 367.687 374.089 367.494L353.613 355.672C353.28 355.479 353.017 355.025 353.017 354.64C353.017 348.942 357.88 347.126 363.851 350.573Z" stroke="#2C3246"/>
</svg>
