<svg width="297" height="488" viewBox="0 0 297 488" fill="none" xmlns="http://www.w3.org/2000/svg">
<path d="M80.5037 164.975L80.1095 164.294L79.8252 164.682L75.7913 170.192L76.3855 171.219L83.1729 170.472L83.6514 170.419L83.2572 169.738L80.5037 164.975Z" fill="#F7FAFB" stroke="#2C3246"/>
<path d="M77.0258 293.171L77.0254 292.671L76.9974 251.73L76.997 251.23L77.4302 251.48L78.8159 252.279L78.6675 35.6992C78.6668 34.7053 78.631 33.5902 78.5931 32.412L78.5831 32.0992C78.5419 30.8101 78.502 29.4573 78.5078 28.1392C78.5179 25.8414 78.6661 23.6003 79.2114 21.9528C78.925 21.9271 78.5956 21.9053 78.244 21.882C77.8891 21.8585 77.5116 21.8334 77.133 21.8015C76.7252 21.767 76.3237 21.7248 75.9719 21.6679C75.6308 21.6127 75.3002 21.5385 75.0486 21.4244C74.939 21.3747 74.7506 21.2779 74.5818 21.0775C74.4807 20.9575 74.3834 20.7961 74.3317 20.6107C74.2833 20.4369 74.2922 20.3038 74.3117 20.2151C74.3479 20.0513 74.4438 19.9344 74.538 19.8455C74.6405 19.7487 74.7797 19.651 74.9541 19.5502C75.6489 19.1485 77.1416 18.6385 79.0169 18.1068C80.9015 17.5726 83.1973 17.0098 85.5176 16.5064C87.8378 16.0031 90.1855 15.5586 92.1737 15.2614C94.1345 14.9682 95.7756 14.8132 96.694 14.8985C96.6975 14.8984 96.7013 14.8983 96.7053 14.8982C96.7278 14.8975 96.7589 14.8974 96.7999 14.8988C96.882 14.9017 97.0041 14.9106 97.1759 14.934C97.5194 14.9809 98.064 15.0857 98.8889 15.3162C100.538 15.777 103.317 16.7427 107.867 18.7618L107.892 18.7728L107.916 18.7871L213.483 79.6502C217.327 81.8664 221.134 84.9348 224.687 88.6804C228.239 92.426 231.468 96.7754 234.188 101.48C236.909 106.185 239.067 111.153 240.541 116.1C242.015 121.048 242.775 125.878 242.778 130.315L242.995 445.851C242.998 450.288 242.243 454.246 240.775 457.497C239.474 460.379 237.018 462.601 234.071 464.307C231.12 466.016 227.654 467.219 224.303 468.041C220.95 468.863 217.705 469.305 215.191 469.487C213.935 469.579 212.857 469.605 212.039 469.582C211.63 469.57 211.281 469.545 211.003 469.509C210.785 469.48 210.571 469.44 210.399 469.371C210.195 469.347 210.009 469.308 209.851 469.241C209.765 469.204 209.653 469.145 209.538 469.04C209.409 468.922 209.273 468.742 209.198 468.514C209.132 468.313 209.143 468.16 209.159 468.07C209.176 467.975 209.21 467.896 209.244 467.833C209.314 467.705 209.418 467.581 209.537 467.46C209.885 467.11 210.478 466.679 211.115 466.216C211.341 466.052 211.572 465.884 211.8 465.714C212.694 465.047 213.535 464.352 213.927 463.708C214.023 463.55 214.083 463.409 214.112 463.288C214.143 463.163 214.133 463.091 214.128 463.07L214.126 463.065L214.126 463.065M77.0258 293.171L213.483 80.1502C217.271 82.3336 221.021 85.3566 224.521 89.0468C228.021 92.7369 231.202 97.022 233.882 101.657C236.562 106.292 238.689 111.186 240.141 116.061C241.593 120.935 242.342 125.694 242.345 130.065L242.561 445.601C242.564 449.973 241.821 453.872 240.375 457.075C235.294 468.326 211.953 469.679 210.291 468.819C208.775 468.67 209.933 467.829 211.423 466.746C213.373 465.33 215.891 463.501 213.745 462.263L108.179 401.4C104.391 399.217 100.641 396.194 97.1407 392.504C93.6407 388.813 90.4598 384.528 87.7798 379.893C85.0997 375.258 82.9729 370.364 81.5208 365.49C80.0688 360.615 79.3199 355.856 79.3169 351.485L79.2778 294.469L78.8446 294.219M77.0258 293.171L77.4589 293.421L78.8446 294.219M77.0258 293.171L78.8446 294.219M214.126 463.065L214.126 463.065C214.126 463.065 214.126 463.065 214.126 463.065ZM214.126 463.065C214.126 463.065 214.125 463.062 214.121 463.057C214.117 463.051 214.111 463.042 214.1 463.03C214.053 462.976 213.947 462.879 213.746 462.763L108.179 401.9C104.335 399.684 100.528 396.616 96.9753 392.87C93.4227 389.124 90.194 384.775 87.4737 380.07C84.7534 375.366 82.5946 370.398 81.1208 365.45C79.6469 360.503 78.8867 355.672 78.8837 351.235L78.8446 294.219" fill="#F7FAFB" stroke="#2C3246"/>
<path d="M222.694 445.583L222.694 445.583C222.692 449.339 221.968 452.632 220.576 455.224C219.184 457.817 217.157 459.645 214.641 460.578L214.366 460.033L214.64 460.578C214.083 460.784 213.502 460.942 212.899 461.051C209.3 461.745 205.068 460.779 200.74 458.276L94.667 397.121C92.9126 396.113 91.1642 394.863 89.4598 393.399C89.4597 393.399 89.4595 393.399 89.4594 393.399L89.5621 392.973L222.694 445.583ZM222.694 445.583L222.478 130.513C222.473 123.787 220.154 116.002 216.03 108.871C211.907 101.74 206.317 95.8459 200.49 92.4859L186.714 84.5436L186.071 84.1728M222.694 445.583L186.071 84.1728M186.071 84.1728L186.313 85.0003M186.071 84.1728L186.313 85.0003M186.313 85.0003C186.919 87.0665 187.149 89.0616 186.985 90.8103C186.82 92.559 186.266 94.0078 185.371 95.0294C184.475 96.051 183.266 96.6142 181.85 96.6694C180.433 96.7247 178.852 96.2704 177.246 95.3463L186.313 85.0003Z" fill="#F7FAFB" stroke="#2C3246"/>
<rect x="-0.433508" y="-0.749736" width="31.6955" height="10.3421" transform="matrix(0.86633 0.499472 0.000685263 1 127.318 51.0207)" fill="#F7FAFB" stroke="#2C3246"/>
<path d="M164.351 81.9777C166.826 83.4042 168.83 82.2454 168.828 79.3893C168.826 76.5333 166.819 73.0616 164.344 71.6351C161.87 70.2086 159.866 71.3674 159.868 74.2235C159.87 77.0795 161.877 80.5512 164.351 81.9777Z" fill="#F7FAFB" stroke="#2C3246"/>
<path d="M228.182 133.527C228.179 129.156 227.43 124.397 225.978 119.523C224.526 114.648 222.399 109.754 219.719 105.119C217.039 100.484 213.858 96.1988 210.358 92.5087C206.858 88.8185 203.107 85.7954 199.32 83.612L93.7535 22.7489C89.9663 20.5655 86.2168 19.2644 82.7191 18.9201C79.2213 18.5757 76.0438 19.1948 73.368 20.742C70.6921 22.2892 68.5704 24.7342 67.1239 27.9374C65.6773 31.1406 64.9344 35.0392 64.9374 39.4107L65.1536 354.947C65.1694 379.049 78.3265 392.403 86.2073 398.246C86.2073 398.246 162.45 444.317 199.582 465.725C203.369 467.908 207.119 469.209 210.616 469.554C214.114 469.898 217.292 469.279 219.967 467.732C222.643 466.185 224.765 463.74 226.212 460.537C227.658 457.333 228.401 453.435 228.398 449.063L228.182 133.527Z" fill="#F7FAFB" stroke="#2C3246"/>
<path d="M220.234 134.444L221.73 416.76C221.728 420.442 221.019 423.67 219.654 426.212C218.289 428.753 216.302 430.546 213.835 431.46C213.29 431.662 212.721 431.816 212.131 431.923C208.602 432.604 204.453 431.657 200.21 429.204L94.1355 368.048C92.4159 367.06 81.6487 360.651 79.9782 359.216C71.1601 353.636 72.1474 342.768 72.1467 341.631L71.0846 48.4537C71.0806 41.8607 73.3456 36.846 77.3813 34.5125C81.4171 32.179 86.8932 32.7177 92.6051 36.0103L105.476 43.431C104.844 44.8588 104.603 46.6648 104.776 48.69C104.948 50.7152 105.529 52.8974 106.466 55.0443C107.403 57.1912 108.668 59.2368 110.149 61.001C111.63 62.7652 113.283 64.1937 114.961 65.1607L175.436 100.027C177.113 100.992 178.764 101.466 180.243 101.408C181.722 101.351 182.985 100.763 183.92 99.696C184.855 98.6292 185.433 97.1165 185.605 95.2905C185.777 93.4646 185.536 91.3814 184.904 89.2239L198.68 97.1661C204.392 100.46 209.871 106.238 213.913 113.228C217.956 120.219 220.229 127.85 220.234 134.444Z" fill="#F7FAFB" stroke="#2C3246" stroke-linejoin="round"/>
<mask id="path-8-outside-1_2309_214" maskUnits="userSpaceOnUse" x="128.276" y="54.5842" width="30.0149" height="23.0194" fill="black">
<rect fill="white" x="128.276" y="54.5842" width="30.0149" height="23.0194"/>
<path fill-rule="evenodd" clip-rule="evenodd" d="M132.057 63.3909C133.591 64.2751 134.833 63.5568 134.832 61.7866C134.831 60.0164 133.586 57.8646 132.053 56.9804C130.519 56.0962 129.277 56.8145 129.278 58.5847C129.279 60.3549 130.524 62.5067 132.057 63.3909ZM141.163 61.7902C139.63 60.9061 138.387 61.6243 138.389 63.3944C138.39 65.1646 139.634 67.3163 141.167 68.2004L153.861 75.5186C155.394 76.4027 156.636 75.6844 156.635 73.9143C156.634 72.1442 155.39 69.9925 153.856 69.1084L141.163 61.7902Z"/>
</mask>
<path fill-rule="evenodd" clip-rule="evenodd" d="M132.057 63.3909C133.591 64.2751 134.833 63.5568 134.832 61.7866C134.831 60.0164 133.586 57.8646 132.053 56.9804C130.519 56.0962 129.277 56.8145 129.278 58.5847C129.279 60.3549 130.524 62.5067 132.057 63.3909ZM141.163 61.7902C139.63 60.9061 138.387 61.6243 138.389 63.3944C138.39 65.1646 139.634 67.3163 141.167 68.2004L153.861 75.5186C155.394 76.4027 156.636 75.6844 156.635 73.9143C156.634 72.1442 155.39 69.9925 153.856 69.1084L141.163 61.7902Z" fill="#F7FAFB"/>
<path d="M134.832 61.7866L133.832 61.7873L134.832 61.7866ZM132.053 56.9804L131.553 57.8467L132.053 56.9804ZM129.278 58.5847L128.278 58.5854L129.278 58.5847ZM138.389 63.3944L137.389 63.3951L137.389 63.3951L138.389 63.3944ZM141.163 61.7902L140.664 62.6565L140.664 62.6565L141.163 61.7902ZM141.167 68.2004L140.668 69.0667L141.167 68.2004ZM153.861 75.5186L153.361 76.3849L153.861 75.5186ZM156.635 73.9143L157.635 73.9136L156.635 73.9143ZM153.856 69.1084L154.356 68.2421L153.856 69.1084ZM133.832 61.7873C133.832 62.4621 133.603 62.67 133.52 62.7185C133.436 62.7669 133.141 62.8616 132.557 62.5246L131.558 64.2572C132.507 64.8044 133.6 64.9821 134.521 64.4499C135.441 63.9176 135.833 62.8814 135.832 61.7859L133.832 61.7873ZM131.553 57.8467C132.132 58.1805 132.713 58.7937 133.151 59.5518C133.59 60.3099 133.831 61.119 133.832 61.7873L135.832 61.7859C135.831 60.684 135.45 59.5321 134.883 58.5507C134.315 57.5692 133.507 56.6644 132.552 56.114L131.553 57.8467ZM130.278 58.584C130.278 57.9092 130.507 57.7013 130.591 57.6528C130.674 57.6044 130.969 57.5097 131.553 57.8467L132.552 56.114C131.603 55.5669 130.51 55.3892 129.589 55.9214C128.669 56.4537 128.277 57.4899 128.278 58.5854L130.278 58.584ZM132.557 62.5246C131.978 62.1908 131.397 61.5776 130.959 60.8195C130.52 60.0614 130.279 59.2523 130.278 58.584L128.278 58.5854C128.279 59.6873 128.66 60.8392 129.227 61.8206C129.795 62.8021 130.603 63.7069 131.558 64.2572L132.557 62.5246ZM139.389 63.3938C139.388 62.719 139.617 62.5111 139.701 62.4627C139.785 62.4143 140.079 62.3195 140.664 62.6565L141.663 60.9239C140.714 60.3767 139.62 60.1991 138.7 60.7313C137.779 61.2635 137.388 62.2997 137.389 63.3951L139.389 63.3938ZM141.667 67.334C141.088 67.0003 140.507 66.3871 140.069 65.6291C139.631 64.8711 139.389 64.062 139.389 63.3938L137.389 63.3951C137.389 64.497 137.77 65.6488 138.338 66.6302C138.905 67.6116 139.713 68.5163 140.668 69.0667L141.667 67.334ZM154.36 74.6522L141.667 67.334L140.668 69.0667L153.361 76.3849L154.36 74.6522ZM155.635 73.915C155.636 74.5897 155.407 74.7977 155.323 74.8461C155.239 74.8945 154.945 74.9892 154.36 74.6522L153.361 76.3849C154.31 76.932 155.404 77.1097 156.324 76.5775C157.245 76.0453 157.636 75.009 157.635 73.9136L155.635 73.915ZM153.357 69.9747C153.936 70.3085 154.516 70.9216 154.955 71.6797C155.393 72.4377 155.635 73.2468 155.635 73.915L157.635 73.9136C157.634 72.8118 157.254 71.6599 156.686 70.6785C156.119 69.6972 155.31 68.7924 154.356 68.2421L153.357 69.9747ZM140.664 62.6565L153.357 69.9747L154.356 68.2421L141.663 60.9239L140.664 62.6565Z" fill="#2C3246" mask="url(#path-8-outside-1_2309_214)"/>
<path d="M136.423 415.82C139.167 417.401 141.388 416.117 141.386 412.95C141.384 409.784 139.158 405.935 136.415 404.354C133.672 402.772 131.45 404.057 131.452 407.223C131.455 410.39 133.68 414.239 136.423 415.82Z" fill="#F7FAFB" stroke="#2C3246"/>
<path d="M125.079 198.798L185.623 234.07C186.231 234.424 186.836 234.863 187.425 235.378L188.252 236.101C190.122 237.737 191.631 240.206 192.276 242.689C192.495 243.532 192.608 244.352 192.609 245.113L192.825 366.316C192.836 372.788 188.914 376.101 183.45 374.233C182.674 373.968 181.884 373.602 181.091 373.143L70.4134 308.93C69.7055 308.519 69.0009 308.048 68.3055 307.521L7.7618 272.249C7.15378 271.894 6.54841 271.455 5.9594 270.94L5.13265 270.217C3.26265 268.581 1.75391 266.112 1.1087 263.629C0.889478 262.786 0.776781 261.966 0.775429 261.205L0.559792 140.002C0.548294 133.53 4.47077 130.218 9.93459 132.085C10.7109 132.35 11.5011 132.716 12.2932 133.175L122.971 197.388C123.679 197.799 124.384 198.27 125.079 198.798Z" fill="#F7FAFB" stroke="#2C3246"/>
<path d="M19.6545 222.647L19.6545 221.499L21.9601 222.862L22.0566 214.166L21.9876 214.126L19.9582 215.425L19.185 214.118L21.891 212.747L23.1335 213.576L23.1336 223.54L25.163 224.68L25.1631 225.828L19.6545 222.647Z" fill="#F7FAFB"/>
<path d="M19.6545 222.647L19.6545 221.499L21.9601 222.862L22.0566 214.166L21.9876 214.126L19.9582 215.425L19.185 214.118L21.891 212.747L23.1335 213.576L23.1336 223.54L25.163 224.68L25.1631 225.828L19.6545 222.647Z" fill="#2C3246"/>
<path d="M26.6518 226.687L26.6518 225.539L28.9574 226.903L29.0539 218.206L28.9849 218.166L26.9555 219.466L26.1823 218.158L28.8882 216.787L30.1308 217.616L30.1309 227.58L32.1603 228.72L32.1603 229.868L26.6518 226.687Z" fill="#F7FAFB"/>
<path d="M26.6518 226.687L26.6518 225.539L28.9574 226.903L29.0539 218.206L28.9849 218.166L26.9555 219.466L26.1823 218.158L28.8882 216.787L30.1308 217.616L30.1309 227.58L32.1603 228.72L32.1603 229.868L26.6518 226.687Z" fill="#2C3246"/>
<path d="M33.6491 230.728L33.6491 229.58L35.9547 230.943L36.0512 222.247L35.9822 222.207L33.9528 223.506L33.1796 222.199L35.8855 220.828L37.1281 221.657L37.1282 231.621L39.1576 232.761L39.1576 233.909L33.6491 230.728Z" fill="#F7FAFB"/>
<path d="M33.6491 230.728L33.6491 229.58L35.9547 230.943L36.0512 222.247L35.9822 222.207L33.9528 223.506L33.1796 222.199L35.8855 220.828L37.1281 221.657L37.1282 231.621L39.1576 232.761L39.1576 233.909L33.6491 230.728Z" fill="#2C3246"/>
<path d="M40.6464 234.768L40.6464 233.62L42.952 234.984L43.0485 226.287L42.9795 226.247L40.95 227.547L40.1769 226.239L42.8828 224.868L44.1253 225.697L44.1254 235.661L46.1549 236.801L46.1549 237.949L40.6464 234.768Z" fill="#F7FAFB"/>
<path d="M40.6464 234.768L40.6464 233.62L42.952 234.984L43.0485 226.287L42.9795 226.247L40.95 227.547L40.1769 226.239L42.8828 224.868L44.1253 225.697L44.1254 235.661L46.1549 236.801L46.1549 237.949L40.6464 234.768Z" fill="#2C3246"/>
<path d="M57.3037 244.387L57.3036 243.351C57.3036 243.351 57.5153 243.186 57.9387 242.856C58.3621 242.527 58.9787 242.001 59.7887 241.278C60.3685 240.763 60.8425 240.282 61.2106 239.836C61.5788 239.379 61.7628 238.842 61.7628 238.225C61.7628 237.822 61.6662 237.442 61.4729 237.086C61.2888 236.724 60.9621 236.408 60.4927 236.137C60.0509 235.882 59.5769 235.714 59.0707 235.635C58.5645 235.555 58.1135 235.55 57.7177 235.619L57.2345 234.335C57.3818 234.271 57.6027 234.224 57.8972 234.192C58.2009 234.165 58.5553 234.195 58.9602 234.28C59.3652 234.365 59.7886 234.535 60.2304 234.79C60.7458 235.087 61.2014 235.462 61.5971 235.914C62.0021 236.371 62.3197 236.868 62.5498 237.404C62.7799 237.941 62.8949 238.481 62.8949 239.023C62.8949 239.48 62.8121 239.894 62.6464 240.266C62.49 240.633 62.2875 240.968 62.039 241.27C61.7997 241.568 61.5466 241.842 61.2797 242.091C61.1784 242.192 61.0358 242.328 60.8517 242.498C60.6676 242.657 60.4698 242.835 60.2581 243.032C60.0464 243.229 59.8439 243.414 59.6506 243.59C59.4573 243.755 59.2963 243.89 59.1674 243.996C59.0478 244.108 58.988 244.164 58.988 244.164L58.988 244.243L63.1021 246.539L63.1021 247.735L57.3037 244.387Z" fill="#F7FAFB"/>
<path d="M57.3037 244.387L57.3036 243.351C57.3036 243.351 57.5153 243.186 57.9387 242.856C58.3621 242.527 58.9787 242.001 59.7887 241.278C60.3685 240.763 60.8425 240.282 61.2106 239.836C61.5788 239.379 61.7628 238.842 61.7628 238.225C61.7628 237.822 61.6662 237.442 61.4729 237.086C61.2888 236.724 60.9621 236.408 60.4927 236.137C60.0509 235.882 59.5769 235.714 59.0707 235.635C58.5645 235.555 58.1135 235.55 57.7177 235.619L57.2345 234.335C57.3818 234.271 57.6027 234.224 57.8972 234.192C58.2009 234.165 58.5553 234.195 58.9602 234.28C59.3652 234.365 59.7886 234.535 60.2304 234.79C60.7458 235.087 61.2014 235.462 61.5971 235.914C62.0021 236.371 62.3197 236.868 62.5498 237.404C62.7799 237.941 62.8949 238.481 62.8949 239.023C62.8949 239.48 62.8121 239.894 62.6464 240.266C62.49 240.633 62.2875 240.968 62.039 241.27C61.7997 241.568 61.5466 241.842 61.2797 242.091C61.1784 242.192 61.0358 242.328 60.8517 242.498C60.6676 242.657 60.4698 242.835 60.2581 243.032C60.0464 243.229 59.8439 243.414 59.6506 243.59C59.4573 243.755 59.2963 243.89 59.1674 243.996C59.0478 244.108 58.988 244.164 58.988 244.164L58.988 244.243L63.1021 246.539L63.1021 247.735L57.3037 244.387Z" fill="#2C3246"/>
<path d="M64.7593 248.692L64.7593 247.656C64.7593 247.656 64.971 247.491 65.3944 247.162C65.8178 246.832 66.4344 246.306 67.2443 245.583C67.8242 245.068 68.2982 244.587 68.6663 244.141C69.0345 243.684 69.2185 243.147 69.2185 242.531C69.2185 242.127 69.1219 241.747 68.9286 241.391C68.7445 241.029 68.4178 240.713 67.9484 240.442C67.5066 240.187 67.0326 240.02 66.5264 239.94C66.0202 239.86 65.5692 239.855 65.1734 239.924L64.6902 238.64C64.8375 238.577 65.0583 238.529 65.3529 238.497C65.6566 238.47 66.0109 238.5 66.4159 238.585C66.8209 238.67 67.2443 238.84 67.686 239.095C68.2015 239.393 68.6571 239.767 69.0528 240.219C69.4578 240.676 69.7753 241.173 70.0054 241.71C70.2355 242.246 70.3506 242.786 70.3506 243.328C70.3506 243.785 70.2678 244.199 70.1021 244.571C69.9457 244.938 69.7432 245.273 69.4947 245.576C69.2554 245.873 69.0023 246.147 68.7354 246.397C68.6341 246.498 68.4915 246.633 68.3074 246.803C68.1233 246.962 67.9254 247.14 67.7137 247.337C67.5021 247.534 67.2996 247.72 67.1063 247.895C66.913 248.06 66.752 248.195 66.6231 248.302C66.5035 248.413 66.4436 248.469 66.4436 248.469L66.4436 248.549L70.5578 250.845L70.5578 252.04L64.7593 248.692Z" fill="#F7FAFB"/>
<path d="M64.7593 248.692L64.7593 247.656C64.7593 247.656 64.971 247.491 65.3944 247.162C65.8178 246.832 66.4344 246.306 67.2443 245.583C67.8242 245.068 68.2982 244.587 68.6663 244.141C69.0345 243.684 69.2185 243.147 69.2185 242.531C69.2185 242.127 69.1219 241.747 68.9286 241.391C68.7445 241.029 68.4178 240.713 67.9484 240.442C67.5066 240.187 67.0326 240.02 66.5264 239.94C66.0202 239.86 65.5692 239.855 65.1734 239.924L64.6902 238.64C64.8375 238.577 65.0583 238.529 65.3529 238.497C65.6566 238.47 66.0109 238.5 66.4159 238.585C66.8209 238.67 67.2443 238.84 67.686 239.095C68.2015 239.393 68.6571 239.767 69.0528 240.219C69.4578 240.676 69.7753 241.173 70.0054 241.71C70.2355 242.246 70.3506 242.786 70.3506 243.328C70.3506 243.785 70.2678 244.199 70.1021 244.571C69.9457 244.938 69.7432 245.273 69.4947 245.576C69.2554 245.873 69.0023 246.147 68.7354 246.397C68.6341 246.498 68.4915 246.633 68.3074 246.803C68.1233 246.962 67.9254 247.14 67.7137 247.337C67.5021 247.534 67.2996 247.72 67.1063 247.895C66.913 248.06 66.752 248.195 66.6231 248.302C66.5035 248.413 66.4436 248.469 66.4436 248.469L66.4436 248.549L70.5578 250.845L70.5578 252.04L64.7593 248.692Z" fill="#2C3246"/>
<path d="M72.215 252.997L72.215 251.961C72.215 251.961 72.4267 251.796 72.8501 251.467C73.2734 251.137 73.8901 250.611 74.7 249.889C75.2799 249.373 75.7538 248.892 76.122 248.446C76.4901 247.989 76.6742 247.452 76.6742 246.836C76.6742 246.432 76.5776 246.052 76.3843 245.696C76.2002 245.335 75.8735 245.018 75.4041 244.747C74.9623 244.492 74.4883 244.325 73.9821 244.245C73.4758 244.165 73.0249 244.16 72.6291 244.229L72.1459 242.946C72.2931 242.882 72.514 242.834 72.8086 242.802C73.1123 242.776 73.4666 242.805 73.8716 242.89C74.2766 242.975 74.6999 243.145 75.1417 243.4C75.6571 243.698 76.1127 244.072 76.5085 244.524C76.9135 244.981 77.231 245.478 77.4611 246.015C77.6912 246.552 77.8063 247.091 77.8063 247.633C77.8063 248.09 77.7235 248.504 77.5578 248.876C77.4013 249.243 77.1989 249.578 76.9504 249.881C76.7111 250.178 76.458 250.452 76.1911 250.702C76.0898 250.803 75.9471 250.938 75.7631 251.108C75.579 251.268 75.3811 251.446 75.1694 251.642C74.9577 251.839 74.7553 252.025 74.562 252.2C74.3687 252.365 74.2076 252.5 74.0788 252.607C73.9591 252.718 73.8993 252.774 73.8993 252.774L73.8993 252.854L78.0135 255.15L78.0135 256.345L72.215 252.997Z" fill="#F7FAFB"/>
<path d="M72.215 252.997L72.215 251.961C72.215 251.961 72.4267 251.796 72.8501 251.467C73.2734 251.137 73.8901 250.611 74.7 249.889C75.2799 249.373 75.7538 248.892 76.122 248.446C76.4901 247.989 76.6742 247.452 76.6742 246.836C76.6742 246.432 76.5776 246.052 76.3843 245.696C76.2002 245.335 75.8735 245.018 75.4041 244.747C74.9623 244.492 74.4883 244.325 73.9821 244.245C73.4758 244.165 73.0249 244.16 72.6291 244.229L72.1459 242.946C72.2931 242.882 72.514 242.834 72.8086 242.802C73.1123 242.776 73.4666 242.805 73.8716 242.89C74.2766 242.975 74.6999 243.145 75.1417 243.4C75.6571 243.698 76.1127 244.072 76.5085 244.524C76.9135 244.981 77.231 245.478 77.4611 246.015C77.6912 246.552 77.8063 247.091 77.8063 247.633C77.8063 248.09 77.7235 248.504 77.5578 248.876C77.4013 249.243 77.1989 249.578 76.9504 249.881C76.7111 250.178 76.458 250.452 76.1911 250.702C76.0898 250.803 75.9471 250.938 75.7631 251.108C75.579 251.268 75.3811 251.446 75.1694 251.642C74.9577 251.839 74.7553 252.025 74.562 252.2C74.3687 252.365 74.2076 252.5 74.0788 252.607C73.9591 252.718 73.8993 252.774 73.8993 252.774L73.8993 252.854L78.0135 255.15L78.0135 256.345L72.215 252.997Z" fill="#2C3246"/>
<path d="M79.6707 257.302L79.6707 256.266C79.6707 256.266 79.8824 256.101 80.3057 255.772C80.7291 255.442 81.3458 254.916 82.1557 254.194C82.7355 253.678 83.2095 253.197 83.5777 252.751C83.9458 252.294 84.1299 251.757 84.1299 251.141C84.1299 250.737 84.0332 250.357 83.84 250.001C83.6559 249.64 83.3291 249.324 82.8597 249.052C82.418 248.797 81.944 248.63 81.4377 248.55C80.9315 248.47 80.4805 248.465 80.0848 248.534L79.6016 247.251C79.7488 247.187 79.9697 247.139 80.2642 247.107C80.568 247.081 80.9223 247.11 81.3273 247.195C81.7323 247.28 82.1556 247.45 82.5974 247.705C83.1128 248.003 83.5684 248.378 83.9642 248.829C84.3692 249.286 84.6867 249.783 84.9168 250.32C85.1469 250.857 85.262 251.396 85.262 251.938C85.262 252.395 85.1792 252.81 85.0135 253.182C84.857 253.548 84.6545 253.883 84.406 254.186C84.1667 254.484 83.9136 254.757 83.6467 255.007C83.5455 255.108 83.4028 255.243 83.2188 255.413C83.0347 255.573 82.8368 255.751 82.6251 255.947C82.4134 256.144 82.2109 256.33 82.0177 256.505C81.8244 256.67 81.6633 256.806 81.5345 256.912C81.4148 257.023 81.355 257.079 81.355 257.079L81.355 257.159L85.4691 259.455L85.4692 260.651L79.6707 257.302Z" fill="#F7FAFB"/>
<path d="M79.6707 257.302L79.6707 256.266C79.6707 256.266 79.8824 256.101 80.3057 255.772C80.7291 255.442 81.3458 254.916 82.1557 254.194C82.7355 253.678 83.2095 253.197 83.5777 252.751C83.9458 252.294 84.1299 251.757 84.1299 251.141C84.1299 250.737 84.0332 250.357 83.84 250.001C83.6559 249.64 83.3291 249.324 82.8597 249.052C82.418 248.797 81.944 248.63 81.4377 248.55C80.9315 248.47 80.4805 248.465 80.0848 248.534L79.6016 247.251C79.7488 247.187 79.9697 247.139 80.2642 247.107C80.568 247.081 80.9223 247.11 81.3273 247.195C81.7323 247.28 82.1556 247.45 82.5974 247.705C83.1128 248.003 83.5684 248.378 83.9642 248.829C84.3692 249.286 84.6867 249.783 84.9168 250.32C85.1469 250.857 85.262 251.396 85.262 251.938C85.262 252.395 85.1792 252.81 85.0135 253.182C84.857 253.548 84.6545 253.883 84.406 254.186C84.1667 254.484 83.9136 254.757 83.6467 255.007C83.5455 255.108 83.4028 255.243 83.2188 255.413C83.0347 255.573 82.8368 255.751 82.6251 255.947C82.4134 256.144 82.2109 256.33 82.0177 256.505C81.8244 256.67 81.6633 256.806 81.5345 256.912C81.4148 257.023 81.355 257.079 81.355 257.079L81.355 257.159L85.4691 259.455L85.4692 260.651L79.6707 257.302Z" fill="#2C3246"/>
<path d="M99.7822 269.123C99.2484 268.814 98.7698 268.469 98.3464 268.086C97.9322 267.72 97.5917 267.385 97.3248 267.082C97.0671 266.774 96.8922 266.566 96.8002 266.46L97.2419 265.695C97.3248 265.785 97.5042 265.974 97.7804 266.261C98.0565 266.548 98.3878 266.856 98.7744 267.186C99.161 267.515 99.5567 267.797 99.9617 268.031C100.532 268.36 100.919 268.424 101.121 268.222C101.333 268.015 101.439 267.571 101.439 266.891C101.439 265.998 101.287 265.294 100.983 264.779C100.68 264.263 100.206 263.819 99.5613 263.447L98.2773 262.706L98.2773 261.654C98.8388 261.925 99.3082 262.143 99.6855 262.307C100.063 262.472 100.362 262.56 100.583 262.571C100.804 262.581 100.96 262.496 101.052 262.315C101.144 262.124 101.19 261.821 101.19 261.407C101.19 260.727 101.094 260.208 100.9 259.852C100.781 259.624 100.587 259.401 100.321 259.183C100.054 258.965 99.7269 258.744 99.3403 258.521C99.1747 258.425 99.009 258.335 98.8433 258.25C98.6869 258.17 98.4982 258.083 98.2773 257.987C98.0656 257.886 97.7895 257.764 97.4489 257.62L97.3109 256.456C97.4765 256.499 97.679 256.573 97.9183 256.68C98.1668 256.781 98.4245 256.898 98.6914 257.031C98.9676 257.169 99.2161 257.302 99.437 257.429C99.9984 257.753 100.5 258.128 100.942 258.553C101.384 258.978 101.733 259.467 101.991 260.02C102.249 260.573 102.378 261.205 102.378 261.917C102.378 262.438 102.313 262.826 102.184 263.081C102.056 263.325 101.899 263.485 101.715 263.559C101.54 263.628 101.37 263.652 101.204 263.631C101.038 263.599 100.914 263.57 100.831 263.543L100.831 263.607C101.015 263.745 101.209 263.92 101.411 264.133C101.623 264.351 101.825 264.622 102.019 264.946C102.212 265.26 102.368 265.626 102.488 266.046C102.608 266.466 102.668 266.947 102.668 267.489C102.668 268.084 102.576 268.578 102.392 268.971C102.207 269.365 101.904 269.593 101.48 269.657C101.057 269.71 100.491 269.532 99.7822 269.123Z" fill="#F7FAFB"/>
<path d="M99.7822 269.123C99.2484 268.814 98.7698 268.469 98.3464 268.086C97.9322 267.72 97.5917 267.385 97.3248 267.082C97.0671 266.774 96.8922 266.566 96.8002 266.46L97.2419 265.695C97.3248 265.785 97.5042 265.974 97.7804 266.261C98.0565 266.548 98.3878 266.856 98.7744 267.186C99.161 267.515 99.5567 267.797 99.9617 268.031C100.532 268.36 100.919 268.424 101.121 268.222C101.333 268.015 101.439 267.571 101.439 266.891C101.439 265.998 101.287 265.294 100.983 264.779C100.68 264.263 100.206 263.819 99.5613 263.447L98.2773 262.706L98.2773 261.654C98.8388 261.925 99.3082 262.143 99.6855 262.307C100.063 262.472 100.362 262.56 100.583 262.571C100.804 262.581 100.96 262.496 101.052 262.315C101.144 262.124 101.19 261.821 101.19 261.407C101.19 260.727 101.094 260.208 100.9 259.852C100.781 259.624 100.587 259.401 100.321 259.183C100.054 258.965 99.7269 258.744 99.3403 258.521C99.1747 258.425 99.009 258.335 98.8433 258.25C98.6869 258.17 98.4982 258.083 98.2773 257.987C98.0656 257.886 97.7895 257.764 97.4489 257.62L97.3109 256.456C97.4765 256.499 97.679 256.573 97.9183 256.68C98.1668 256.781 98.4245 256.898 98.6914 257.031C98.9676 257.169 99.2161 257.302 99.437 257.429C99.9984 257.753 100.5 258.128 100.942 258.553C101.384 258.978 101.733 259.467 101.991 260.02C102.249 260.573 102.378 261.205 102.378 261.917C102.378 262.438 102.313 262.826 102.184 263.081C102.056 263.325 101.899 263.485 101.715 263.559C101.54 263.628 101.37 263.652 101.204 263.631C101.038 263.599 100.914 263.57 100.831 263.543L100.831 263.607C101.015 263.745 101.209 263.92 101.411 264.133C101.623 264.351 101.825 264.622 102.019 264.946C102.212 265.26 102.368 265.626 102.488 266.046C102.608 266.466 102.668 266.947 102.668 267.489C102.668 268.084 102.576 268.578 102.392 268.971C102.207 269.365 101.904 269.593 101.48 269.657C101.057 269.71 100.491 269.532 99.7822 269.123Z" fill="#2C3246"/>
<path d="M107.305 273.467C106.771 273.159 106.293 272.813 105.87 272.43C105.455 272.064 105.115 271.729 104.848 271.426C104.59 271.118 104.415 270.911 104.323 270.804L104.765 270.039C104.848 270.129 105.027 270.318 105.303 270.605C105.58 270.892 105.911 271.2 106.297 271.53C106.684 271.859 107.08 272.141 107.485 272.375C108.055 272.704 108.442 272.768 108.644 272.566C108.856 272.359 108.962 271.915 108.962 271.235C108.962 270.342 108.81 269.638 108.506 269.123C108.203 268.607 107.729 268.163 107.084 267.791L105.8 267.05L105.8 265.998C106.362 266.269 106.831 266.487 107.209 266.652C107.586 266.816 107.885 266.904 108.106 266.915C108.327 266.925 108.483 266.84 108.575 266.66C108.667 266.468 108.713 266.165 108.713 265.751C108.713 265.071 108.617 264.553 108.423 264.197C108.304 263.968 108.111 263.745 107.844 263.527C107.577 263.309 107.25 263.088 106.863 262.865C106.698 262.77 106.532 262.679 106.366 262.594C106.21 262.514 106.021 262.427 105.8 262.331C105.589 262.23 105.313 262.108 104.972 261.964L104.834 260.801C105 260.843 105.202 260.918 105.441 261.024C105.69 261.125 105.948 261.242 106.215 261.375C106.491 261.513 106.739 261.646 106.96 261.773C107.521 262.097 108.023 262.472 108.465 262.897C108.907 263.322 109.256 263.811 109.514 264.364C109.772 264.917 109.901 265.549 109.901 266.261C109.901 266.782 109.836 267.17 109.707 267.425C109.579 267.669 109.422 267.829 109.238 267.903C109.063 267.972 108.893 267.996 108.727 267.975C108.562 267.943 108.437 267.914 108.355 267.887L108.354 267.951C108.539 268.089 108.732 268.264 108.934 268.477C109.146 268.695 109.349 268.966 109.542 269.29C109.735 269.604 109.892 269.97 110.011 270.39C110.131 270.81 110.191 271.291 110.191 271.833C110.191 272.428 110.099 272.922 109.915 273.316C109.731 273.709 109.427 273.937 109.003 274.001C108.58 274.054 108.014 273.876 107.305 273.467Z" fill="#F7FAFB"/>
<path d="M107.305 273.467C106.771 273.159 106.293 272.813 105.87 272.43C105.455 272.064 105.115 271.729 104.848 271.426C104.59 271.118 104.415 270.911 104.323 270.804L104.765 270.039C104.848 270.129 105.027 270.318 105.303 270.605C105.58 270.892 105.911 271.2 106.297 271.53C106.684 271.859 107.08 272.141 107.485 272.375C108.055 272.704 108.442 272.768 108.644 272.566C108.856 272.359 108.962 271.915 108.962 271.235C108.962 270.342 108.81 269.638 108.506 269.123C108.203 268.607 107.729 268.163 107.084 267.791L105.8 267.05L105.8 265.998C106.362 266.269 106.831 266.487 107.209 266.652C107.586 266.816 107.885 266.904 108.106 266.915C108.327 266.925 108.483 266.84 108.575 266.66C108.667 266.468 108.713 266.165 108.713 265.751C108.713 265.071 108.617 264.553 108.423 264.197C108.304 263.968 108.111 263.745 107.844 263.527C107.577 263.309 107.25 263.088 106.863 262.865C106.698 262.77 106.532 262.679 106.366 262.594C106.21 262.514 106.021 262.427 105.8 262.331C105.589 262.23 105.313 262.108 104.972 261.964L104.834 260.801C105 260.843 105.202 260.918 105.441 261.024C105.69 261.125 105.948 261.242 106.215 261.375C106.491 261.513 106.739 261.646 106.96 261.773C107.521 262.097 108.023 262.472 108.465 262.897C108.907 263.322 109.256 263.811 109.514 264.364C109.772 264.917 109.901 265.549 109.901 266.261C109.901 266.782 109.836 267.17 109.707 267.425C109.579 267.669 109.422 267.829 109.238 267.903C109.063 267.972 108.893 267.996 108.727 267.975C108.562 267.943 108.437 267.914 108.355 267.887L108.354 267.951C108.539 268.089 108.732 268.264 108.934 268.477C109.146 268.695 109.349 268.966 109.542 269.29C109.735 269.604 109.892 269.97 110.011 270.39C110.131 270.81 110.191 271.291 110.191 271.833C110.191 272.428 110.099 272.922 109.915 273.316C109.731 273.709 109.427 273.937 109.003 274.001C108.58 274.054 108.014 273.876 107.305 273.467Z" fill="#2C3246"/>
<path d="M114.828 277.811C114.295 277.503 113.816 277.157 113.393 276.775C112.978 276.408 112.638 276.073 112.371 275.77C112.113 275.462 111.938 275.255 111.846 275.148L112.288 274.383C112.371 274.474 112.55 274.662 112.827 274.949C113.103 275.236 113.434 275.544 113.821 275.874C114.207 276.203 114.603 276.485 115.008 276.719C115.579 277.048 115.965 277.112 116.168 276.91C116.379 276.703 116.485 276.259 116.485 275.579C116.485 274.686 116.333 273.982 116.029 273.467C115.726 272.951 115.252 272.508 114.607 272.135L113.324 271.394L113.324 270.342C113.885 270.613 114.354 270.831 114.732 270.996C115.109 271.16 115.408 271.248 115.629 271.259C115.85 271.269 116.006 271.184 116.098 271.004C116.191 270.812 116.237 270.51 116.237 270.095C116.237 269.415 116.14 268.897 115.947 268.541C115.827 268.312 115.634 268.089 115.367 267.871C115.1 267.653 114.773 267.433 114.387 267.209C114.221 267.114 114.055 267.023 113.89 266.938C113.733 266.859 113.544 266.771 113.323 266.675C113.112 266.574 112.836 266.452 112.495 266.308L112.357 265.145C112.523 265.187 112.725 265.262 112.965 265.368C113.213 265.469 113.471 265.586 113.738 265.719C114.014 265.857 114.262 265.99 114.483 266.117C115.045 266.442 115.546 266.816 115.988 267.241C116.43 267.666 116.78 268.155 117.037 268.708C117.295 269.261 117.424 269.893 117.424 270.605C117.424 271.126 117.359 271.514 117.231 271.769C117.102 272.013 116.945 272.173 116.761 272.247C116.586 272.316 116.416 272.34 116.25 272.319C116.085 272.287 115.96 272.258 115.878 272.231L115.878 272.295C116.062 272.433 116.255 272.609 116.457 272.821C116.669 273.039 116.872 273.31 117.065 273.634C117.258 273.948 117.415 274.314 117.534 274.734C117.654 275.154 117.714 275.635 117.714 276.177C117.714 276.772 117.622 277.266 117.438 277.66C117.254 278.053 116.95 278.281 116.527 278.345C116.103 278.398 115.537 278.22 114.828 277.811Z" fill="#F7FAFB"/>
<path d="M114.828 277.811C114.295 277.503 113.816 277.157 113.393 276.775C112.978 276.408 112.638 276.073 112.371 275.77C112.113 275.462 111.938 275.255 111.846 275.148L112.288 274.383C112.371 274.474 112.55 274.662 112.827 274.949C113.103 275.236 113.434 275.544 113.821 275.874C114.207 276.203 114.603 276.485 115.008 276.719C115.579 277.048 115.965 277.112 116.168 276.91C116.379 276.703 116.485 276.259 116.485 275.579C116.485 274.686 116.333 273.982 116.029 273.467C115.726 272.951 115.252 272.508 114.607 272.135L113.324 271.394L113.324 270.342C113.885 270.613 114.354 270.831 114.732 270.996C115.109 271.16 115.408 271.248 115.629 271.259C115.85 271.269 116.006 271.184 116.098 271.004C116.191 270.812 116.237 270.51 116.237 270.095C116.237 269.415 116.14 268.897 115.947 268.541C115.827 268.312 115.634 268.089 115.367 267.871C115.1 267.653 114.773 267.433 114.387 267.209C114.221 267.114 114.055 267.023 113.89 266.938C113.733 266.859 113.544 266.771 113.323 266.675C113.112 266.574 112.836 266.452 112.495 266.308L112.357 265.145C112.523 265.187 112.725 265.262 112.965 265.368C113.213 265.469 113.471 265.586 113.738 265.719C114.014 265.857 114.262 265.99 114.483 266.117C115.045 266.442 115.546 266.816 115.988 267.241C116.43 267.666 116.78 268.155 117.037 268.708C117.295 269.261 117.424 269.893 117.424 270.605C117.424 271.126 117.359 271.514 117.231 271.769C117.102 272.013 116.945 272.173 116.761 272.247C116.586 272.316 116.416 272.34 116.25 272.319C116.085 272.287 115.96 272.258 115.878 272.231L115.878 272.295C116.062 272.433 116.255 272.609 116.457 272.821C116.669 273.039 116.872 273.31 117.065 273.634C117.258 273.948 117.415 274.314 117.534 274.734C117.654 275.154 117.714 275.635 117.714 276.177C117.714 276.772 117.622 277.266 117.438 277.66C117.254 278.053 116.95 278.281 116.527 278.345C116.103 278.398 115.537 278.22 114.828 277.811Z" fill="#2C3246"/>
<path d="M122.352 282.155C121.818 281.847 121.339 281.501 120.916 281.119C120.502 280.752 120.161 280.417 119.894 280.114C119.636 279.806 119.461 279.599 119.369 279.492L119.811 278.727C119.894 278.818 120.074 279.006 120.35 279.293C120.626 279.58 120.957 279.889 121.344 280.218C121.73 280.547 122.126 280.829 122.531 281.063C123.102 281.393 123.488 281.456 123.691 281.254C123.902 281.047 124.008 280.603 124.008 279.923C124.008 279.03 123.856 278.326 123.553 277.811C123.249 277.295 122.775 276.852 122.131 276.48L120.847 275.738L120.847 274.686C121.408 274.957 121.877 275.175 122.255 275.34C122.632 275.505 122.931 275.592 123.152 275.603C123.373 275.613 123.53 275.528 123.622 275.348C123.714 275.157 123.76 274.854 123.76 274.439C123.76 273.759 123.663 273.241 123.47 272.885C123.35 272.656 123.157 272.433 122.89 272.215C122.623 271.997 122.296 271.777 121.91 271.553C121.744 271.458 121.578 271.367 121.413 271.282C121.256 271.203 121.067 271.115 120.847 271.019C120.635 270.918 120.359 270.796 120.018 270.653L119.88 269.489C120.046 269.531 120.248 269.606 120.488 269.712C120.736 269.813 120.994 269.93 121.261 270.063C121.537 270.201 121.785 270.334 122.006 270.461C122.568 270.786 123.069 271.16 123.511 271.585C123.953 272.011 124.303 272.5 124.56 273.052C124.818 273.605 124.947 274.237 124.947 274.949C124.947 275.47 124.883 275.858 124.754 276.113C124.625 276.358 124.468 276.517 124.284 276.591C124.109 276.66 123.939 276.684 123.773 276.663C123.608 276.631 123.484 276.602 123.401 276.575L123.401 276.639C123.585 276.777 123.778 276.953 123.981 277.165C124.192 277.383 124.395 277.654 124.588 277.978C124.781 278.292 124.938 278.659 125.057 279.078C125.177 279.498 125.237 279.979 125.237 280.521C125.237 281.116 125.145 281.611 124.961 282.004C124.777 282.397 124.473 282.625 124.05 282.689C123.626 282.742 123.06 282.564 122.352 282.155Z" fill="#F7FAFB"/>
<path d="M122.352 282.155C121.818 281.847 121.339 281.501 120.916 281.119C120.502 280.752 120.161 280.417 119.894 280.114C119.636 279.806 119.461 279.599 119.369 279.492L119.811 278.727C119.894 278.818 120.074 279.006 120.35 279.293C120.626 279.58 120.957 279.889 121.344 280.218C121.73 280.547 122.126 280.829 122.531 281.063C123.102 281.393 123.488 281.456 123.691 281.254C123.902 281.047 124.008 280.603 124.008 279.923C124.008 279.03 123.856 278.326 123.553 277.811C123.249 277.295 122.775 276.852 122.131 276.48L120.847 275.738L120.847 274.686C121.408 274.957 121.877 275.175 122.255 275.34C122.632 275.505 122.931 275.592 123.152 275.603C123.373 275.613 123.53 275.528 123.622 275.348C123.714 275.157 123.76 274.854 123.76 274.439C123.76 273.759 123.663 273.241 123.47 272.885C123.35 272.656 123.157 272.433 122.89 272.215C122.623 271.997 122.296 271.777 121.91 271.553C121.744 271.458 121.578 271.367 121.413 271.282C121.256 271.203 121.067 271.115 120.847 271.019C120.635 270.918 120.359 270.796 120.018 270.653L119.88 269.489C120.046 269.531 120.248 269.606 120.488 269.712C120.736 269.813 120.994 269.93 121.261 270.063C121.537 270.201 121.785 270.334 122.006 270.461C122.568 270.786 123.069 271.16 123.511 271.585C123.953 272.011 124.303 272.5 124.56 273.052C124.818 273.605 124.947 274.237 124.947 274.949C124.947 275.47 124.883 275.858 124.754 276.113C124.625 276.358 124.468 276.517 124.284 276.591C124.109 276.66 123.939 276.684 123.773 276.663C123.608 276.631 123.484 276.602 123.401 276.575L123.401 276.639C123.585 276.777 123.778 276.953 123.981 277.165C124.192 277.383 124.395 277.654 124.588 277.978C124.781 278.292 124.938 278.659 125.057 279.078C125.177 279.498 125.237 279.979 125.237 280.521C125.237 281.116 125.145 281.611 124.961 282.004C124.777 282.397 124.473 282.625 124.05 282.689C123.626 282.742 123.06 282.564 122.352 282.155Z" fill="#2C3246"/>
<path d="M141.039 292.739L141.081 290.18L136.746 287.677L136.746 286.673L138.927 280.264L140.059 281.093L137.974 287.191L137.974 287.27L141.081 289L141.343 284.863L142.199 285.358L142.199 289.646L143.083 290.124L143.083 291.336L142.199 290.826L142.213 293.416L141.039 292.739Z" fill="#F7FAFB"/>
<path d="M141.039 292.739L141.081 290.18L136.746 287.677L136.746 286.673L138.927 280.264L140.059 281.093L137.974 287.191L137.974 287.27L141.081 289L141.343 284.863L142.199 285.358L142.199 289.646L143.083 290.124L143.083 291.336L142.199 290.826L142.213 293.416L141.039 292.739Z" fill="#2C3246"/>
<path d="M148.589 297.099L148.631 294.54L144.296 292.037L144.296 291.032L146.477 284.624L147.609 285.453L145.525 291.55L145.525 291.63L148.631 293.36L148.893 289.223L149.749 289.717L149.749 294.006L150.633 294.484L150.633 295.696L149.749 295.186L149.763 297.776L148.589 297.099Z" fill="#F7FAFB"/>
<path d="M148.589 297.099L148.631 294.54L144.296 292.037L144.296 291.032L146.477 284.624L147.609 285.453L145.525 291.55L145.525 291.63L148.631 293.36L148.893 289.223L149.749 289.717L149.749 294.006L150.633 294.484L150.633 295.696L149.749 295.186L149.763 297.776L148.589 297.099Z" fill="#2C3246"/>
<path d="M156.14 301.458L156.181 298.899L151.846 296.396L151.846 295.392L154.027 288.983L155.159 289.812L153.075 295.91L153.075 295.99L156.181 297.72L156.443 293.583L157.299 294.077L157.299 298.366L158.183 298.844L158.183 300.055L157.299 299.545L157.313 302.136L156.14 301.458Z" fill="#F7FAFB"/>
<path d="M156.14 301.458L156.181 298.899L151.846 296.396L151.846 295.392L154.027 288.983L155.159 289.812L153.075 295.91L153.075 295.99L156.181 297.72L156.443 293.583L157.299 294.077L157.299 298.366L158.183 298.844L158.183 300.055L157.299 299.545L157.313 302.136L156.14 301.458Z" fill="#2C3246"/>
<path d="M163.69 305.818L163.731 303.259L159.396 300.756L159.396 299.752L161.577 293.343L162.709 294.172L160.625 300.27L160.625 300.35L163.731 302.079L163.993 297.942L164.849 298.437L164.849 302.725L165.733 303.203L165.733 304.415L164.849 303.905L164.863 306.496L163.69 305.818Z" fill="#F7FAFB"/>
<path d="M163.69 305.818L163.731 303.259L159.396 300.756L159.396 299.752L161.577 293.343L162.709 294.172L160.625 300.27L160.625 300.35L163.731 302.079L163.993 297.942L164.849 298.437L164.849 302.725L165.733 303.203L165.733 304.415L164.849 303.905L164.863 306.496L163.69 305.818Z" fill="#2C3246"/>
<path d="M19.17 238.918L19.17 238.28L20.4508 239.038L20.5044 234.206L20.4661 234.184L19.3387 234.906L18.9091 234.18L20.4124 233.418L21.1027 233.879L21.1027 239.414L22.2302 240.047L22.2302 240.685L19.17 238.918Z" fill="#2C3246"/>
<path d="M23.0573 241.163L23.0573 240.525L24.3381 241.282L24.3917 236.451L24.3534 236.429L23.226 237.151L22.7964 236.424L24.2997 235.663L24.99 236.123L24.99 241.659L26.1175 242.292L26.1175 242.93L23.0573 241.163Z" fill="#2C3246"/>
<path d="M26.3847 243.952L27.6885 241.012L28.8006 238.324L29.4832 238.718L28.21 241.587L27.0596 244.342L26.3847 243.952Z" fill="#2C3246"/>
<path d="M31.8431 246.351C31.5977 246.209 31.3702 246.031 31.1605 245.815C30.9509 245.6 30.7668 245.331 30.6083 245.009C30.4549 244.685 30.3322 244.289 30.2401 243.822C30.1532 243.353 30.1097 242.794 30.1097 242.144C30.1097 241.501 30.1532 240.997 30.2401 240.634C30.3321 240.274 30.4548 240.023 30.6082 239.881C30.7667 239.737 30.9508 239.681 31.1605 239.713C31.3701 239.74 31.5976 239.824 31.8431 239.966C32.0885 240.107 32.316 240.286 32.5257 240.501C32.7353 240.711 32.9194 240.98 33.0779 241.307C33.2364 241.629 33.3591 242.022 33.4461 242.485C33.533 242.949 33.5764 243.502 33.5765 244.146C33.5765 244.795 33.533 245.305 33.4461 245.674C33.3592 246.037 33.2365 246.291 33.0779 246.435C32.9194 246.574 32.7354 246.63 32.5257 246.604C32.3161 246.577 32.0886 246.493 31.8431 246.351ZM31.8508 245.682C32.086 245.818 32.2803 245.863 32.4337 245.815C32.5922 245.765 32.7124 245.581 32.7942 245.262C32.876 244.943 32.9169 244.444 32.9169 243.765C32.9168 243.24 32.8913 242.797 32.8401 242.437C32.7941 242.079 32.7251 241.786 32.6331 241.555C32.541 241.325 32.4285 241.139 32.2956 240.997C32.1626 240.85 32.0118 240.727 31.8431 240.63C31.6743 240.532 31.5235 240.478 31.3906 240.466C31.2576 240.454 31.1451 240.51 31.0531 240.634C30.9611 240.758 30.892 240.972 30.846 241.276C30.8 241.574 30.777 241.986 30.777 242.512C30.777 243.191 30.8154 243.738 30.8921 244.155C30.9739 244.568 31.094 244.891 31.2525 245.124C31.4162 245.361 31.6156 245.547 31.8508 245.682Z" fill="#2C3246"/>
<path d="M35.9715 248.735C35.6749 248.564 35.409 248.372 35.1738 248.159C34.9437 247.956 34.7545 247.77 34.6063 247.601C34.4631 247.43 34.3659 247.315 34.3148 247.256L34.5602 246.831C34.6063 246.881 34.706 246.986 34.8594 247.145C35.0128 247.305 35.1968 247.476 35.4116 247.659C35.6263 247.842 35.8462 247.998 36.0712 248.128C36.3882 248.311 36.603 248.347 36.7154 248.235C36.833 248.12 36.8918 247.873 36.8918 247.495C36.8918 246.999 36.8075 246.608 36.6387 246.322C36.47 246.035 36.2067 245.789 35.8487 245.582L35.1354 245.17L35.1354 244.586C35.4473 244.736 35.7081 244.857 35.9178 244.949C36.1274 245.04 36.2936 245.089 36.4163 245.095C36.539 245.101 36.6259 245.054 36.6771 244.953C36.7282 244.847 36.7537 244.679 36.7537 244.448C36.7537 244.071 36.7 243.783 36.5927 243.585C36.5262 243.458 36.4188 243.334 36.2705 243.213C36.1223 243.092 35.9407 242.969 35.726 242.845C35.634 242.792 35.5419 242.742 35.4499 242.695C35.363 242.65 35.2581 242.602 35.1354 242.549C35.0178 242.493 34.8644 242.425 34.6752 242.345L34.5985 241.698C34.6906 241.722 34.8031 241.763 34.936 241.822C35.0741 241.878 35.2172 241.943 35.3655 242.017C35.5189 242.094 35.657 242.168 35.7797 242.239C36.0916 242.419 36.3702 242.627 36.6157 242.863C36.8611 243.099 37.0554 243.371 37.1986 243.678C37.3417 243.985 37.4133 244.336 37.4133 244.732C37.4133 245.021 37.3776 245.237 37.306 245.378C37.2344 245.514 37.1475 245.603 37.0452 245.644C36.9481 245.682 36.8535 245.696 36.7614 245.684C36.6694 245.666 36.6004 245.65 36.5543 245.635L36.5543 245.671C36.6566 245.747 36.764 245.845 36.8765 245.963C36.9941 246.084 37.1066 246.235 37.2139 246.415C37.3213 246.589 37.4083 246.793 37.4747 247.026C37.5412 247.259 37.5744 247.526 37.5744 247.827C37.5744 248.158 37.5233 248.433 37.4211 248.651C37.3188 248.869 37.1501 248.996 36.9149 249.032C36.6797 249.061 36.3652 248.962 35.9715 248.735Z" fill="#2C3246"/>
<path d="M142.758 242.084C142.297 241.818 141.842 241.534 141.391 241.231C140.949 240.933 140.576 240.67 140.273 240.442C139.969 240.224 139.799 240.099 139.762 240.067L139.817 235.014L139.748 229.011C139.794 229.027 139.969 229.112 140.272 229.267C140.585 229.415 140.958 229.599 141.391 229.817C141.823 230.035 142.247 230.263 142.661 230.502C143.167 230.795 143.623 231.148 144.027 231.562C144.432 231.977 144.755 232.471 144.994 233.045C145.242 233.614 145.367 234.275 145.367 235.03C145.367 235.551 145.302 235.939 145.173 236.194C145.054 236.454 144.902 236.621 144.718 236.696C144.543 236.765 144.368 236.786 144.193 236.76C144.028 236.738 143.903 236.709 143.82 236.672L143.82 236.736C143.959 236.826 144.129 236.972 144.331 237.174C144.534 237.365 144.732 237.607 144.925 237.899C145.127 238.186 145.293 238.532 145.422 238.936C145.551 239.329 145.615 239.775 145.615 240.275C145.615 240.966 145.532 241.492 145.367 241.853C145.21 242.209 144.994 242.435 144.718 242.531C144.442 242.626 144.133 242.623 143.793 242.522C143.462 242.437 143.116 242.291 142.758 242.084ZM142.716 235.556C143.287 235.885 143.669 235.952 143.862 235.755C144.064 235.553 144.166 235.096 144.166 234.384C144.166 233.63 144.046 233.034 143.807 232.599C143.567 232.163 143.167 231.783 142.606 231.459C142.21 231.23 141.86 231.044 141.556 230.901C141.262 230.763 141.046 230.664 140.907 230.606L140.907 234.496L142.716 235.556ZM142.909 241.135C143.508 241.481 143.903 241.518 144.097 241.247C144.29 240.976 144.387 240.442 144.387 239.645C144.387 238.848 144.225 238.208 143.903 237.724C143.59 237.246 143.158 236.847 142.606 236.528L140.908 235.548L140.935 239.836C141.027 239.9 141.253 240.062 141.612 240.322C141.98 240.577 142.412 240.848 142.909 241.135Z" fill="#2C3246"/>
<path d="M146.433 243.983L149.042 234.41L150.672 235.351L153.281 247.937L152.094 247.252L151.445 243.944L148.269 242.11L147.621 244.669L146.433 243.983ZM148.518 241.074L151.196 242.621L149.912 236.092L149.802 236.029L148.518 241.074Z" fill="#2C3246"/>
<path d="M154.383 248.574L154.383 237.494L155.943 238.395L159.85 250.121L159.892 250.145L159.712 240.572L160.872 241.241L160.872 252.321L159.312 251.42L155.405 239.694L155.363 239.671L155.543 249.244L154.383 248.574Z" fill="#2C3246"/>
<path d="M168.599 256.782L164.554 248.756L168.253 245.504L169.717 246.349L165.92 249.433L165.92 249.529L170.145 257.675L168.599 256.782ZM163.353 253.753L163.394 248.15L163.353 242.674L164.512 243.343L164.512 254.423L163.353 253.753Z" fill="#2C3246"/>
<ellipse cx="9.453" cy="9.45301" rx="9.453" ry="9.45301" transform="matrix(0.865993 0.500056 1.10109e-05 1 140.262 306.8)" fill="#F7FAFB" stroke="#2C3246"/>
<ellipse cx="9.453" cy="9.45301" rx="9.453" ry="9.45301" transform="matrix(0.865993 0.500056 1.10109e-05 1 151.06 313.038)" fill="#F7FAFB" stroke="#2C3246"/>
<rect width="17.8577" height="13.1529" transform="matrix(0.865993 0.500056 1.10109e-05 1 18.5808 190.425)" fill="#F7FAFB" stroke="#2C3246"/>
<rect width="0.612833" height="13.1529" transform="matrix(0.865993 0.500056 1.10109e-05 1 23.5586 193.314)" fill="#2AC77B"/>
<rect width="0.612833" height="13.1529" transform="matrix(0.865993 0.500056 1.10109e-05 1 23.5586 193.314)" fill="#2C3246"/>
<rect width="0.612833" height="13.1529" transform="matrix(0.865993 0.500056 1.10109e-05 1 28.6071 196.222)" fill="#2AC77B"/>
<rect width="0.612833" height="13.1529" transform="matrix(0.865993 0.500056 1.10109e-05 1 28.6071 196.222)" fill="#2C3246"/>
<rect width="0.612832" height="6.28198" transform="matrix(1.09317e-05 1 -0.865993 -0.500056 34.0485 203.637)" fill="#2AC77B"/>
<rect width="0.612832" height="6.28198" transform="matrix(1.09317e-05 1 -0.865993 -0.500056 34.0485 203.637)" fill="#2C3246"/>
<rect width="0.612832" height="6.28198" transform="matrix(1.09317e-05 1 -0.865993 -0.500056 24.0197 197.853)" fill="#2AC77B"/>
<rect width="0.612832" height="6.28198" transform="matrix(1.09317e-05 1 -0.865993 -0.500056 24.0197 197.853)" fill="#2C3246"/>
<rect width="0.612832" height="6.28198" transform="matrix(1.09317e-05 1 -0.865993 -0.500056 34.0523 207.827)" fill="#2AC77B"/>
<rect width="0.612832" height="6.28198" transform="matrix(1.09317e-05 1 -0.865993 -0.500056 34.0523 207.827)" fill="#2C3246"/>
<rect width="0.612832" height="6.28198" transform="matrix(1.09317e-05 1 -0.865993 -0.500056 24.0197 202.043)" fill="#2AC77B"/>
<rect width="0.612832" height="6.28198" transform="matrix(1.09317e-05 1 -0.865993 -0.500056 24.0197 202.043)" fill="#2C3246"/>
<path d="M68.2768 278.7L83.2026 293.773C86.0521 296.672 88.3861 301.905 88.3591 305.43L88.36 330.813C88.3601 333.351 90.2961 337.229 73.5048 342.026L71.0291 339.683C68.3969 340.45 64.082 337.959 61.4496 334.151L46.5235 312.654C44.7595 310.132 43.3211 305.948 43.321 303.41L36.0844 278.7C41.8414 274.862 44.8574 272.886 47.7339 273.293L62.6593 275.456C64.2061 275.691 66.7299 277.149 68.2768 278.7Z" fill="#F7FAFB" stroke="#2C3246"/>
<path d="M74.4045 298.592L59.4787 283.519C57.9318 281.968 55.408 280.511 53.8612 280.275L38.9358 278.113C36.0593 277.705 33.7256 280.243 33.7258 283.784L33.7267 309.167C33.7268 311.705 35.1652 315.889 36.9292 318.411L51.8553 339.908C54.4877 343.716 58.8026 346.207 61.4349 345.44L76.36 341.179C78.1239 340.662 79.562 338.17 79.5619 335.632L79.561 310.25C79.588 306.724 77.254 301.491 74.4045 298.592Z" fill="#F7FAFB" stroke="#2C3246"/>
<path d="M65.7921 311.334L54.5053 317.85C54.1116 318.077 53.6128 318.001 53.1141 317.714C52.6154 317.426 52.1166 316.925 51.7229 316.243L47.5228 308.908C46.7615 307.589 46.7614 306.135 47.5226 305.695C48.2838 305.256 49.5438 305.983 50.3051 307.302L53.1401 312.212L63.0357 306.499C63.7969 306.059 65.0569 306.787 65.8182 308.105C66.5794 309.424 66.5795 310.909 65.7921 311.334Z" fill="#F7FAFB" stroke="#2C3246" stroke-linejoin="round"/>
<path d="M247.479 253.544C247.49 253.527 247.526 253.481 247.594 253.441L247.594 253.441L247.843 253.875L248.091 254.309C248.092 254.309 248.092 254.309 248.093 254.308L262.703 245.949C264.523 244.908 265.573 242.727 265.6 239.804C265.6 239.803 265.6 239.803 265.6 239.803L266.201 176.508C266.228 173.562 265.222 170.323 263.596 167.463C261.97 164.603 259.698 162.074 257.145 160.579L202.272 128.41L202.272 128.41C199.706 126.905 197.257 126.687 195.414 127.741L195.413 127.741L180.812 136.096L180.811 136.097L181.306 136.966C181.237 137.005 181.179 137.012 181.159 137.012M247.479 253.544C247.485 253.533 247.498 253.502 247.518 253.443C247.558 253.318 247.604 253.125 247.653 252.859C247.749 252.329 247.848 251.566 247.947 250.595C248.145 248.656 248.34 245.93 248.53 242.675C248.909 236.168 249.264 227.575 249.569 219.007C249.874 210.44 250.128 201.902 250.306 195.505C250.396 192.306 250.466 189.643 250.514 187.78C250.537 186.848 250.556 186.116 250.568 185.618L250.582 185.048L250.586 184.902L250.587 184.865L250.587 184.86C250.587 184.859 250.587 184.858 250.587 184.857C250.612 182.13 249.675 179.065 248.113 176.318C246.552 173.572 244.394 171.19 242.03 169.802C242.028 169.802 242.027 169.801 242.026 169.8L242.022 169.798L241.99 169.78L241.862 169.707L241.363 169.425C240.927 169.178 240.286 168.816 239.47 168.356C237.837 167.434 235.504 166.119 232.698 164.544C227.087 161.393 219.588 157.202 212.039 153.04C204.489 148.878 196.892 144.747 191.081 141.714C188.175 140.198 185.721 138.959 183.946 138.129C183.057 137.713 182.347 137.405 181.84 137.216C181.585 137.12 181.395 137.061 181.267 137.031C181.205 137.017 181.172 137.013 181.159 137.012M247.479 253.544C247.474 253.552 247.474 253.554 247.478 253.546C247.478 253.546 247.479 253.545 247.479 253.544ZM181.159 137.012C181.158 137.012 181.158 137.012 181.157 137.012L181.159 137.012Z" fill="#F7FAFB" stroke="#2C3246"/>
<path d="M241.487 253.232C246.405 256.115 250.435 253.854 250.489 248.18L251.088 184.885C251.142 179.211 247.199 172.274 242.281 169.391L187.407 137.222C182.488 134.339 178.458 136.602 178.404 142.275L177.805 205.571C177.751 211.244 181.694 218.179 186.613 221.063L241.487 253.232Z" fill="#F7FAFB" stroke="#2C3246"/>
<path d="M212.8 191.42C207.973 188.633 204.059 181.853 204.058 176.278C204.058 170.704 207.972 168.444 212.8 171.232C217.628 174.019 221.542 180.798 221.542 186.373C221.542 191.948 217.628 194.208 212.8 191.42Z" fill="#F7FAFB" stroke="#2C3246" stroke-width="1.12147"/>
<path d="M212.801 196.468C221.56 201.525 228.694 212.427 228.694 220.785C228.694 221.351 228.309 221.573 227.82 221.29L197.783 203.947C197.294 203.664 196.909 202.998 196.909 202.433C196.909 194.075 204.042 191.41 212.801 196.468Z" fill="#F7FAFB" stroke="#2C3246" stroke-width="1.12147"/>
</svg>
