<svg width="453" height="356" viewBox="0 0 453 356" fill="none" xmlns="http://www.w3.org/2000/svg">
<path d="M173.577 116.943L173.272 116.416L173.053 116.716L169.934 120.976L170.393 121.771L175.641 121.193L176.011 121.152L175.706 120.625L173.577 116.943Z" fill="#F7FAFB" stroke="#2C3246" stroke-width="0.77316"/>
<path d="M170.888 216.058L170.888 215.672L170.866 184.018L170.866 183.632L171.201 183.825L172.272 184.442L172.157 16.9918C172.157 16.2233 172.129 15.3611 172.1 14.45L172.092 14.2085C172.06 13.2117 172.03 12.1658 172.034 11.1467C172.042 9.37014 172.156 7.63747 172.578 6.36362C172.356 6.34374 172.102 6.32685 171.83 6.30885C171.555 6.29067 171.264 6.27134 170.971 6.24663C170.656 6.22002 170.345 6.18738 170.073 6.14337C169.81 6.10068 169.554 6.04334 169.359 5.95509C169.275 5.91667 169.129 5.84181 168.999 5.68688C168.92 5.59413 168.845 5.46932 168.805 5.32597C168.768 5.1916 168.775 5.08868 168.79 5.02011C168.818 4.89346 168.892 4.8031 168.965 4.73434C169.044 4.65954 169.152 4.58399 169.286 4.50605C169.824 4.19543 170.978 3.80113 172.428 3.39009C173.885 2.97699 175.66 2.54189 177.454 2.15273C179.248 1.76359 181.063 1.41992 182.6 1.19009C184.116 0.963446 185.385 0.843623 186.095 0.909611C186.098 0.909503 186.1 0.909394 186.104 0.909293C186.121 0.908794 186.145 0.908726 186.177 0.909821C186.24 0.911995 186.335 0.918933 186.467 0.937033C186.733 0.973225 187.154 1.05428 187.792 1.2325C189.067 1.58878 191.216 2.33539 194.733 3.89653L194.752 3.90499L194.772 3.91606L276.391 50.9729C279.363 52.6864 282.307 55.0588 285.054 57.9548C287.8 60.8506 290.297 64.2134 292.4 67.8509C294.503 71.4884 296.172 75.3293 297.312 79.1545C298.451 82.9798 299.039 86.7144 299.041 90.1451L299.209 334.105C299.211 337.535 298.628 340.595 297.493 343.109C296.486 345.337 294.588 347.055 292.309 348.374C290.028 349.695 287.348 350.626 284.757 351.261C282.165 351.896 279.656 352.238 277.712 352.379C276.741 352.45 275.908 352.471 275.275 352.452C274.959 352.443 274.689 352.424 274.474 352.396C274.305 352.374 274.14 352.343 274.007 352.289C273.849 352.271 273.705 352.241 273.583 352.189C273.517 352.16 273.43 352.114 273.342 352.033C273.242 351.942 273.137 351.803 273.079 351.627C273.028 351.471 273.036 351.353 273.048 351.283C273.062 351.21 273.088 351.149 273.114 351.1C273.168 351.001 273.249 350.905 273.341 350.812C273.609 350.541 274.068 350.208 274.56 349.85C274.735 349.723 274.914 349.593 275.09 349.462C275.782 348.946 276.432 348.409 276.735 347.911C276.809 347.789 276.855 347.68 276.878 347.586C276.901 347.489 276.894 347.434 276.89 347.418L276.889 347.414L276.889 347.414M170.888 216.058L276.392 51.3595C279.32 53.0477 282.22 55.3849 284.926 58.238C287.632 61.0911 290.091 64.4041 292.163 67.9877C294.235 71.5714 295.88 75.3555 297.002 79.1241C298.125 82.8928 298.704 86.5721 298.706 89.952L298.874 333.912C298.876 337.292 298.301 340.306 297.183 342.782C293.255 351.481 275.209 352.528 273.924 351.863C272.752 351.747 273.647 351.097 274.799 350.26C276.306 349.165 278.253 347.751 276.594 346.794L194.974 299.737C192.046 298.049 189.146 295.712 186.44 292.859C183.734 290.005 181.275 286.692 179.203 283.109C177.131 279.525 175.486 275.741 174.364 271.972C173.241 268.204 172.662 264.524 172.66 261.145L172.629 217.062L172.294 216.869M170.888 216.058L171.223 216.252L172.294 216.869M170.888 216.058L172.294 216.869M276.889 347.414L276.889 347.413C276.889 347.414 276.889 347.414 276.889 347.414ZM276.889 347.414C276.889 347.413 276.888 347.411 276.885 347.407C276.882 347.403 276.877 347.396 276.868 347.387C276.832 347.345 276.75 347.27 276.594 347.18L194.975 300.124C192.003 298.41 189.059 296.038 186.312 293.142C183.566 290.246 181.069 286.883 178.966 283.246C176.863 279.608 175.194 275.767 174.054 271.942C172.915 268.117 172.327 264.382 172.325 260.951L172.294 216.869" fill="#F7FAFB" stroke="#2C3246" stroke-width="0.77316"/>
<path d="M283.513 333.897L283.513 333.898C283.511 336.802 282.952 339.347 281.875 341.352C280.799 343.356 279.232 344.77 277.286 345.491L277.074 345.069L277.286 345.491C276.856 345.65 276.407 345.772 275.942 345.856C273.159 346.393 269.886 345.647 266.539 343.711L184.528 296.428C183.171 295.649 181.819 294.683 180.502 293.551C180.502 293.551 180.501 293.551 180.501 293.551L180.581 293.221L283.513 333.897ZM283.513 333.897L283.346 90.2984C283.342 85.0979 281.549 79.079 278.361 73.5653C275.173 68.0517 270.851 63.4948 266.346 60.897L255.695 54.7564L255.198 54.4696M283.513 333.897L255.198 54.4696M255.198 54.4696L255.385 55.1094M255.198 54.4696L255.385 55.1094M255.385 55.1094C255.853 56.7069 256.031 58.2494 255.904 59.6015C255.777 60.9535 255.348 62.0736 254.656 62.8635C253.964 63.6534 253.029 64.0888 251.934 64.1315C250.838 64.1743 249.616 63.823 248.374 63.1086L255.385 55.1094Z" fill="#F7FAFB" stroke="#2C3246" stroke-width="0.77316"/>
<rect x="-0.335171" y="-0.579665" width="24.5057" height="7.9961" transform="matrix(0.86633 0.499472 0.000685263 1 209.772 28.8378)" fill="#F7FAFB" stroke="#2C3246" stroke-width="0.77316"/>
<path d="M238.405 52.7725C240.318 53.8754 241.867 52.9794 241.866 50.7713C241.864 48.5631 240.312 45.8789 238.399 44.776C236.486 43.6731 234.937 44.569 234.938 46.7772C234.94 48.9854 236.492 51.6696 238.405 52.7725Z" fill="#F7FAFB" stroke="#2C3246" stroke-width="0.77316"/>
<path d="M287.756 92.6286C287.754 89.2487 287.175 85.5694 286.052 81.8007C284.929 78.0321 283.285 74.2479 281.213 70.6643C279.141 67.0806 276.681 63.7677 273.975 60.9146C271.269 58.0615 268.369 55.7242 265.441 54.0361L183.821 6.97918C180.893 5.29101 177.994 4.2851 175.29 4.01886C172.586 3.75262 170.129 4.23128 168.06 5.42751C165.991 6.62373 164.351 8.51411 163.232 10.9907C162.114 13.4673 161.54 16.4815 161.542 19.8614L161.709 263.821C161.721 282.456 171.894 292.781 177.987 297.298C177.987 297.298 236.935 332.918 265.644 349.47C268.572 351.158 271.471 352.164 274.175 352.431C276.879 352.697 279.336 352.218 281.405 351.022C283.474 349.826 285.114 347.935 286.233 345.459C287.351 342.982 287.926 339.968 287.923 336.588L287.756 92.6286Z" fill="#F7FAFB" stroke="#2C3246" stroke-width="0.77316"/>
<path d="M281.611 93.3373L282.768 311.613C282.766 314.46 282.218 316.955 281.163 318.92C280.107 320.885 278.571 322.271 276.664 322.978C276.242 323.134 275.802 323.253 275.346 323.336C272.618 323.862 269.41 323.131 266.129 321.233L184.117 273.95C182.787 273.186 174.462 268.231 173.171 267.122C166.353 262.808 167.116 254.405 167.116 253.526L166.295 26.8531C166.292 21.7557 168.043 17.8785 171.163 16.0743C174.283 14.2701 178.517 14.6866 182.934 17.2323L192.885 22.9697C192.396 24.0736 192.21 25.47 192.343 27.0358C192.477 28.6016 192.925 30.2888 193.65 31.9487C194.374 33.6085 195.352 35.1901 196.498 36.5541C197.643 37.9181 198.921 39.0226 200.218 39.7702L246.975 66.7274C248.272 67.4734 249.548 67.8402 250.692 67.7955C251.835 67.7509 252.811 67.2963 253.534 66.4715C254.257 65.6468 254.705 64.4771 254.837 63.0654C254.97 61.6537 254.784 60.043 254.295 58.375L264.946 64.5156C269.362 67.0622 273.599 71.5292 276.724 76.9342C279.849 82.3392 281.607 88.2394 281.611 93.3373Z" fill="#F7FAFB" stroke="#2C3246" stroke-width="0.77316" stroke-linejoin="round"/>
<mask id="path-8-outside-1_2868_2852" maskUnits="userSpaceOnUse" x="210.286" y="32.1395" width="23.011" height="17.0149" fill="black">
<rect fill="white" x="210.286" y="32.1395" width="23.011" height="17.0149"/>
<path fill-rule="evenodd" clip-rule="evenodd" d="M213.436 38.4019C214.622 39.0855 215.582 38.5302 215.582 37.1615C215.581 35.7929 214.619 34.1292 213.433 33.4456C212.247 32.7619 211.287 33.3173 211.288 34.686C211.289 36.0546 212.251 37.7183 213.436 38.4019ZM220.477 37.1643C219.291 36.4807 218.331 37.0361 218.331 38.4046C218.332 39.7732 219.294 41.4368 220.48 42.1204L230.294 47.7785C231.48 48.4621 232.44 47.9068 232.439 46.5382C232.438 45.1696 231.476 43.506 230.291 42.8224L220.477 37.1643Z"/>
</mask>
<path fill-rule="evenodd" clip-rule="evenodd" d="M213.436 38.4019C214.622 39.0855 215.582 38.5302 215.582 37.1615C215.581 35.7929 214.619 34.1292 213.433 33.4456C212.247 32.7619 211.287 33.3173 211.288 34.686C211.289 36.0546 212.251 37.7183 213.436 38.4019ZM220.477 37.1643C219.291 36.4807 218.331 37.0361 218.331 38.4046C218.332 39.7732 219.294 41.4368 220.48 42.1204L230.294 47.7785C231.48 48.4621 232.44 47.9068 232.439 46.5382C232.438 45.1696 231.476 43.506 230.291 42.8224L220.477 37.1643Z" fill="#F7FAFB"/>
<path d="M213.436 38.4019L213.822 37.7321L213.822 37.7321L213.436 38.4019ZM213.433 33.4456L213.819 32.7757L213.819 32.7757L213.433 33.4456ZM211.288 34.686L212.061 34.6854L211.288 34.686ZM218.331 38.4046L217.558 38.4052L218.331 38.4046ZM220.477 37.1643L220.09 37.8341L220.477 37.1643ZM220.48 42.1204L220.094 42.7902L220.48 42.1204ZM230.294 47.7785L230.68 47.1087L230.68 47.1087L230.294 47.7785ZM230.291 42.8224L229.904 43.4923L230.291 42.8224ZM214.808 37.1621C214.809 37.6838 214.632 37.8446 214.567 37.882C214.502 37.9195 214.274 37.9927 213.822 37.7321L213.05 39.0717C213.784 39.4948 214.629 39.6321 215.341 39.2207C216.053 38.8092 216.355 38.008 216.355 37.161L214.808 37.1621ZM213.047 34.1154C213.494 34.3734 213.943 34.8475 214.282 35.4337C214.621 36.0198 214.808 36.6454 214.808 37.1621L216.355 37.161C216.354 36.309 216.06 35.4184 215.621 34.6596C215.182 33.9008 214.557 33.2013 213.819 32.7757L213.047 34.1154ZM212.061 34.6854C212.06 34.1637 212.238 34.0029 212.302 33.9655C212.367 33.928 212.595 33.8548 213.047 34.1154L213.819 32.7757C213.085 32.3527 212.24 32.2153 211.528 32.6268C210.817 33.0383 210.514 33.8395 210.515 34.6865L212.061 34.6854ZM213.822 37.7321C213.375 37.474 212.926 36.9999 212.587 36.4138C212.248 35.8277 212.061 35.2021 212.061 34.6854L210.515 34.6865C210.515 35.5385 210.81 36.429 211.248 37.1879C211.687 37.9467 212.312 38.6462 213.05 39.0717L213.822 37.7321ZM219.105 38.4041C219.104 37.8824 219.281 37.7217 219.346 37.6842C219.411 37.6468 219.638 37.5736 220.09 37.8341L220.863 36.4945C220.129 36.0715 219.284 35.9341 218.572 36.3456C217.86 36.7571 217.558 37.5583 217.558 38.4052L219.105 38.4041ZM220.866 41.4506C220.419 41.1925 219.97 40.7185 219.631 40.1324C219.292 39.5463 219.105 38.9208 219.105 38.4041L217.558 38.4052C217.559 39.2571 217.853 40.1477 218.292 40.9064C218.731 41.6652 219.356 42.3647 220.094 42.7902L220.866 41.4506ZM230.68 47.1087L220.866 41.4506L220.094 42.7902L229.908 48.4483L230.68 47.1087ZM231.666 46.5387C231.666 47.0604 231.489 47.2212 231.424 47.2586C231.36 47.296 231.132 47.3693 230.68 47.1087L229.908 48.4483C230.641 48.8714 231.487 49.0087 232.198 48.5973C232.91 48.1858 233.213 47.3846 233.212 46.5377L231.666 46.5387ZM229.904 43.4923C230.352 43.7503 230.801 44.2244 231.14 44.8105C231.479 45.3965 231.666 46.0221 231.666 46.5387L233.212 46.5377C233.212 45.6857 232.917 44.7952 232.478 44.0364C232.04 43.2777 231.415 42.5781 230.677 42.1526L229.904 43.4923ZM220.09 37.8341L229.904 43.4923L230.677 42.1526L220.863 36.4945L220.09 37.8341Z" fill="#2C3246" mask="url(#path-8-outside-1_2868_2852)"/>
<path d="M216.812 310.886C218.933 312.108 220.651 311.115 220.649 308.667C220.647 306.219 218.926 303.243 216.806 302.02C214.685 300.798 212.967 301.791 212.969 304.239C212.97 306.687 214.691 309.663 216.812 310.886Z" fill="#F7FAFB" stroke="#2C3246" stroke-width="0.77316"/>
<path d="M208.041 143.093L254.851 170.364C255.321 170.638 255.789 170.978 256.245 171.376L256.884 171.935C258.33 173.199 259.496 175.109 259.995 177.028C260.165 177.68 260.252 178.314 260.253 178.902L260.419 272.612C260.428 277.615 257.396 280.176 253.171 278.732C252.571 278.527 251.96 278.245 251.348 277.89L165.776 228.243C165.228 227.925 164.684 227.561 164.146 227.153L117.336 199.882C116.866 199.608 116.398 199.268 115.943 198.87L115.303 198.311C113.858 197.047 112.691 195.137 112.192 193.218C112.023 192.566 111.936 191.932 111.935 191.344L111.768 97.6344C111.759 92.6306 114.792 90.0696 119.016 91.5135C119.616 91.7186 120.227 92.001 120.84 92.3563L206.411 142.003C206.959 142.321 207.503 142.685 208.041 143.093Z" fill="#F7FAFB" stroke="#2C3246" stroke-width="0.77316"/>
<path d="M126.531 161.532L126.531 160.645L128.314 161.699L128.388 154.975L128.335 154.944L126.766 155.949L126.168 154.938L128.26 153.878L129.221 154.519L129.221 162.223L130.79 163.104L130.79 163.991L126.531 161.532Z" fill="#F7FAFB"/>
<path d="M126.531 161.532L126.531 160.645L128.314 161.699L128.388 154.975L128.335 154.944L126.766 155.949L126.168 154.938L128.26 153.878L129.221 154.519L129.221 162.223L130.79 163.104L130.79 163.991L126.531 161.532Z" fill="#2C3246"/>
<path d="M131.941 164.656L131.941 163.769L133.724 164.823L133.798 158.099L133.745 158.068L132.176 159.073L131.578 158.062L133.67 157.002L134.631 157.643L134.631 165.347L136.2 166.228L136.2 167.115L131.941 164.656Z" fill="#F7FAFB"/>
<path d="M131.941 164.656L131.941 163.769L133.724 164.823L133.798 158.099L133.745 158.068L132.176 159.073L131.578 158.062L133.67 157.002L134.631 157.643L134.631 165.347L136.2 166.228L136.2 167.115L131.941 164.656Z" fill="#2C3246"/>
<path d="M137.351 167.78L137.351 166.893L139.134 167.947L139.208 161.223L139.155 161.192L137.586 162.196L136.988 161.186L139.08 160.126L140.041 160.767L140.041 168.47L141.61 169.352L141.61 170.239L137.351 167.78Z" fill="#F7FAFB"/>
<path d="M137.351 167.78L137.351 166.893L139.134 167.947L139.208 161.223L139.155 161.192L137.586 162.196L136.988 161.186L139.08 160.126L140.041 160.767L140.041 168.47L141.61 169.352L141.61 170.239L137.351 167.78Z" fill="#2C3246"/>
<path d="M142.761 170.904L142.761 170.017L144.544 171.071L144.618 164.347L144.565 164.316L142.996 165.32L142.398 164.31L144.49 163.25L145.451 163.891L145.451 171.594L147.02 172.476L147.02 173.363L142.761 170.904Z" fill="#F7FAFB"/>
<path d="M142.761 170.904L142.761 170.017L144.544 171.071L144.618 164.347L144.565 164.316L142.996 165.32L142.398 164.31L144.49 163.25L145.451 163.891L145.451 171.594L147.02 172.476L147.02 173.363L142.761 170.904Z" fill="#2C3246"/>
<path d="M155.64 178.341L155.64 177.539C155.64 177.539 155.803 177.412 156.131 177.157C156.458 176.903 156.935 176.496 157.561 175.937C158.009 175.539 158.376 175.167 158.661 174.822C158.945 174.468 159.087 174.054 159.087 173.577C159.087 173.265 159.013 172.971 158.863 172.696C158.721 172.416 158.468 172.172 158.105 171.962C157.764 171.765 157.397 171.635 157.006 171.574C156.615 171.512 156.266 171.508 155.96 171.561L155.586 170.569C155.7 170.52 155.871 170.483 156.099 170.458C156.334 170.438 156.608 170.46 156.921 170.526C157.234 170.592 157.561 170.723 157.903 170.921C158.301 171.151 158.653 171.44 158.959 171.79C159.272 172.143 159.518 172.527 159.696 172.942C159.874 173.357 159.963 173.774 159.963 174.193C159.963 174.547 159.899 174.867 159.771 175.155C159.65 175.438 159.493 175.697 159.301 175.931C159.116 176.161 158.92 176.373 158.714 176.566C158.636 176.644 158.525 176.749 158.383 176.88C158.241 177.003 158.088 177.141 157.924 177.293C157.76 177.445 157.604 177.589 157.454 177.724C157.305 177.852 157.18 177.957 157.081 178.039C156.988 178.125 156.942 178.168 156.942 178.168L156.942 178.23L160.123 180.005L160.123 180.929L155.64 178.341Z" fill="#F7FAFB"/>
<path d="M155.64 178.341L155.64 177.539C155.64 177.539 155.803 177.412 156.131 177.157C156.458 176.903 156.935 176.496 157.561 175.937C158.009 175.539 158.376 175.167 158.661 174.822C158.945 174.468 159.087 174.054 159.087 173.577C159.087 173.265 159.013 172.971 158.863 172.696C158.721 172.416 158.468 172.172 158.105 171.962C157.764 171.765 157.397 171.635 157.006 171.574C156.615 171.512 156.266 171.508 155.96 171.561L155.586 170.569C155.7 170.52 155.871 170.483 156.099 170.458C156.334 170.438 156.608 170.46 156.921 170.526C157.234 170.592 157.561 170.723 157.903 170.921C158.301 171.151 158.653 171.44 158.959 171.79C159.272 172.143 159.518 172.527 159.696 172.942C159.874 173.357 159.963 173.774 159.963 174.193C159.963 174.547 159.899 174.867 159.771 175.155C159.65 175.438 159.493 175.697 159.301 175.931C159.116 176.161 158.92 176.373 158.714 176.566C158.636 176.644 158.525 176.749 158.383 176.88C158.241 177.003 158.088 177.141 157.924 177.293C157.76 177.445 157.604 177.589 157.454 177.724C157.305 177.852 157.18 177.957 157.081 178.039C156.988 178.125 156.942 178.168 156.942 178.168L156.942 178.23L160.123 180.005L160.123 180.929L155.64 178.341Z" fill="#2C3246"/>
<path d="M161.404 181.669L161.404 180.868C161.404 180.868 161.568 180.741 161.895 180.486C162.223 180.231 162.699 179.825 163.326 179.266C163.774 178.867 164.14 178.495 164.425 178.15C164.71 177.797 164.852 177.382 164.852 176.906C164.852 176.593 164.777 176.299 164.628 176.024C164.485 175.745 164.233 175.5 163.87 175.291C163.528 175.094 163.162 174.964 162.77 174.902C162.379 174.841 162.03 174.837 161.724 174.89L161.351 173.898C161.465 173.848 161.635 173.812 161.863 173.787C162.098 173.766 162.372 173.789 162.685 173.855C162.998 173.92 163.326 174.052 163.667 174.249C164.066 174.479 164.418 174.769 164.724 175.118C165.037 175.472 165.282 175.856 165.46 176.271C165.638 176.686 165.727 177.103 165.727 177.522C165.727 177.875 165.663 178.196 165.535 178.483C165.414 178.767 165.258 179.026 165.065 179.26C164.88 179.49 164.685 179.701 164.478 179.895C164.4 179.973 164.29 180.077 164.147 180.209C164.005 180.332 163.852 180.47 163.688 180.622C163.525 180.774 163.368 180.917 163.219 181.053C163.069 181.18 162.945 181.285 162.845 181.367C162.753 181.454 162.706 181.497 162.706 181.497L162.706 181.558L165.887 183.334L165.887 184.258L161.404 181.669Z" fill="#F7FAFB"/>
<path d="M161.404 181.669L161.404 180.868C161.404 180.868 161.568 180.741 161.895 180.486C162.223 180.231 162.699 179.825 163.326 179.266C163.774 178.867 164.14 178.495 164.425 178.15C164.71 177.797 164.852 177.382 164.852 176.906C164.852 176.593 164.777 176.299 164.628 176.024C164.485 175.745 164.233 175.5 163.87 175.291C163.528 175.094 163.162 174.964 162.77 174.902C162.379 174.841 162.03 174.837 161.724 174.89L161.351 173.898C161.465 173.848 161.635 173.812 161.863 173.787C162.098 173.766 162.372 173.789 162.685 173.855C162.998 173.92 163.326 174.052 163.667 174.249C164.066 174.479 164.418 174.769 164.724 175.118C165.037 175.472 165.282 175.856 165.46 176.271C165.638 176.686 165.727 177.103 165.727 177.522C165.727 177.875 165.663 178.196 165.535 178.483C165.414 178.767 165.258 179.026 165.065 179.26C164.88 179.49 164.685 179.701 164.478 179.895C164.4 179.973 164.29 180.077 164.147 180.209C164.005 180.332 163.852 180.47 163.688 180.622C163.525 180.774 163.368 180.917 163.219 181.053C163.069 181.18 162.945 181.285 162.845 181.367C162.753 181.454 162.706 181.497 162.706 181.497L162.706 181.558L165.887 183.334L165.887 184.258L161.404 181.669Z" fill="#2C3246"/>
<path d="M167.169 184.998L167.169 184.197C167.169 184.197 167.332 184.069 167.66 183.815C167.987 183.56 168.464 183.153 169.09 182.594C169.538 182.196 169.905 181.824 170.189 181.479C170.474 181.126 170.616 180.711 170.616 180.234C170.616 179.922 170.542 179.628 170.392 179.353C170.25 179.073 169.997 178.829 169.634 178.619C169.293 178.422 168.926 178.293 168.535 178.231C168.144 178.169 167.795 178.165 167.489 178.219L167.115 177.226C167.229 177.177 167.4 177.14 167.628 177.115C167.862 177.095 168.136 177.118 168.449 177.183C168.763 177.249 169.09 177.381 169.432 177.578C169.83 177.808 170.182 178.098 170.488 178.447C170.801 178.8 171.047 179.184 171.225 179.599C171.403 180.014 171.492 180.431 171.492 180.85C171.492 181.204 171.428 181.524 171.3 181.812C171.179 182.095 171.022 182.354 170.83 182.588C170.645 182.818 170.449 183.03 170.243 183.223C170.165 183.301 170.054 183.406 169.912 183.537C169.77 183.661 169.617 183.798 169.453 183.95C169.289 184.102 169.133 184.246 168.983 184.382C168.834 184.509 168.709 184.614 168.61 184.696C168.517 184.782 168.471 184.825 168.471 184.825L168.471 184.887L171.652 186.662L171.652 187.587L167.169 184.998Z" fill="#F7FAFB"/>
<path d="M167.169 184.998L167.169 184.197C167.169 184.197 167.332 184.069 167.66 183.815C167.987 183.56 168.464 183.153 169.09 182.594C169.538 182.196 169.905 181.824 170.189 181.479C170.474 181.126 170.616 180.711 170.616 180.234C170.616 179.922 170.542 179.628 170.392 179.353C170.25 179.073 169.997 178.829 169.634 178.619C169.293 178.422 168.926 178.293 168.535 178.231C168.144 178.169 167.795 178.165 167.489 178.219L167.115 177.226C167.229 177.177 167.4 177.14 167.628 177.115C167.862 177.095 168.136 177.118 168.449 177.183C168.763 177.249 169.09 177.381 169.432 177.578C169.83 177.808 170.182 178.098 170.488 178.447C170.801 178.8 171.047 179.184 171.225 179.599C171.403 180.014 171.492 180.431 171.492 180.85C171.492 181.204 171.428 181.524 171.3 181.812C171.179 182.095 171.022 182.354 170.83 182.588C170.645 182.818 170.449 183.03 170.243 183.223C170.165 183.301 170.054 183.406 169.912 183.537C169.77 183.661 169.617 183.798 169.453 183.95C169.289 184.102 169.133 184.246 168.983 184.382C168.834 184.509 168.709 184.614 168.61 184.696C168.517 184.782 168.471 184.825 168.471 184.825L168.471 184.887L171.652 186.662L171.652 187.587L167.169 184.998Z" fill="#2C3246"/>
<path d="M172.933 188.326L172.933 187.525C172.933 187.525 173.097 187.398 173.424 187.143C173.751 186.888 174.228 186.482 174.854 185.923C175.303 185.524 175.669 185.153 175.954 184.808C176.238 184.454 176.381 184.039 176.381 183.563C176.381 183.25 176.306 182.957 176.157 182.681C176.014 182.402 175.762 182.158 175.399 181.948C175.057 181.751 174.691 181.621 174.299 181.56C173.908 181.498 173.559 181.494 173.253 181.547L172.88 180.555C172.994 180.506 173.164 180.469 173.392 180.444C173.627 180.424 173.901 180.446 174.214 180.512C174.527 180.578 174.854 180.709 175.196 180.906C175.594 181.137 175.947 181.426 176.253 181.775C176.566 182.129 176.811 182.513 176.989 182.928C177.167 183.343 177.256 183.76 177.256 184.179C177.256 184.532 177.192 184.853 177.064 185.14C176.943 185.424 176.786 185.683 176.594 185.917C176.409 186.147 176.214 186.359 176.007 186.552C175.929 186.63 175.819 186.735 175.676 186.866C175.534 186.989 175.381 187.127 175.217 187.279C175.054 187.431 174.897 187.575 174.748 187.71C174.598 187.838 174.474 187.942 174.374 188.025C174.282 188.111 174.235 188.154 174.235 188.154L174.235 188.216L177.416 189.991L177.416 190.915L172.933 188.326Z" fill="#F7FAFB"/>
<path d="M172.933 188.326L172.933 187.525C172.933 187.525 173.097 187.398 173.424 187.143C173.751 186.888 174.228 186.482 174.854 185.923C175.303 185.524 175.669 185.153 175.954 184.808C176.238 184.454 176.381 184.039 176.381 183.563C176.381 183.25 176.306 182.957 176.157 182.681C176.014 182.402 175.762 182.158 175.399 181.948C175.057 181.751 174.691 181.621 174.299 181.56C173.908 181.498 173.559 181.494 173.253 181.547L172.88 180.555C172.994 180.506 173.164 180.469 173.392 180.444C173.627 180.424 173.901 180.446 174.214 180.512C174.527 180.578 174.854 180.709 175.196 180.906C175.594 181.137 175.947 181.426 176.253 181.775C176.566 182.129 176.811 182.513 176.989 182.928C177.167 183.343 177.256 183.76 177.256 184.179C177.256 184.532 177.192 184.853 177.064 185.14C176.943 185.424 176.786 185.683 176.594 185.917C176.409 186.147 176.214 186.359 176.007 186.552C175.929 186.63 175.819 186.735 175.676 186.866C175.534 186.989 175.381 187.127 175.217 187.279C175.054 187.431 174.897 187.575 174.748 187.71C174.598 187.838 174.474 187.942 174.374 188.025C174.282 188.111 174.235 188.154 174.235 188.154L174.235 188.216L177.416 189.991L177.416 190.915L172.933 188.326Z" fill="#2C3246"/>
<path d="M188.483 197.465C188.07 197.227 187.7 196.96 187.372 196.664C187.052 196.381 186.789 196.122 186.583 195.888C186.383 195.649 186.248 195.489 186.177 195.407L186.518 194.815C186.583 194.885 186.721 195.031 186.935 195.253C187.148 195.475 187.404 195.713 187.703 195.968C188.002 196.223 188.308 196.44 188.621 196.621C189.062 196.876 189.361 196.925 189.518 196.769C189.682 196.609 189.763 196.266 189.763 195.74C189.763 195.05 189.646 194.505 189.411 194.107C189.176 193.708 188.81 193.365 188.312 193.077L187.319 192.504L187.319 191.691C187.753 191.9 188.116 192.069 188.408 192.196C188.7 192.324 188.931 192.391 189.102 192.4C189.272 192.408 189.393 192.342 189.464 192.202C189.536 192.054 189.571 191.82 189.571 191.5C189.571 190.974 189.496 190.573 189.347 190.298C189.255 190.121 189.105 189.949 188.899 189.78C188.692 189.612 188.44 189.441 188.141 189.269C188.013 189.195 187.885 189.125 187.757 189.059C187.636 188.998 187.49 188.93 187.319 188.856C187.155 188.778 186.942 188.683 186.679 188.572L186.572 187.672C186.7 187.705 186.856 187.763 187.041 187.845C187.234 187.923 187.433 188.013 187.639 188.116C187.853 188.223 188.045 188.326 188.216 188.424C188.65 188.675 189.037 188.965 189.379 189.293C189.721 189.622 189.991 190 190.19 190.427C190.39 190.855 190.489 191.344 190.489 191.894C190.489 192.297 190.439 192.597 190.34 192.794C190.24 192.983 190.119 193.106 189.977 193.164C189.842 193.217 189.71 193.236 189.582 193.219C189.454 193.195 189.358 193.172 189.294 193.151L189.294 193.201C189.436 193.308 189.585 193.443 189.742 193.608C189.906 193.776 190.062 193.986 190.212 194.236C190.361 194.479 190.482 194.762 190.575 195.087C190.667 195.411 190.713 195.783 190.713 196.202C190.713 196.662 190.642 197.044 190.5 197.348C190.358 197.653 190.123 197.829 189.795 197.878C189.468 197.92 189.03 197.782 188.483 197.465Z" fill="#F7FAFB"/>
<path d="M188.483 197.465C188.07 197.227 187.7 196.96 187.372 196.664C187.052 196.381 186.789 196.122 186.583 195.888C186.383 195.649 186.248 195.489 186.177 195.407L186.518 194.815C186.583 194.885 186.721 195.031 186.935 195.253C187.148 195.475 187.404 195.713 187.703 195.968C188.002 196.223 188.308 196.44 188.621 196.621C189.062 196.876 189.361 196.925 189.518 196.769C189.682 196.609 189.763 196.266 189.763 195.74C189.763 195.05 189.646 194.505 189.411 194.107C189.176 193.708 188.81 193.365 188.312 193.077L187.319 192.504L187.319 191.691C187.753 191.9 188.116 192.069 188.408 192.196C188.7 192.324 188.931 192.391 189.102 192.4C189.272 192.408 189.393 192.342 189.464 192.202C189.536 192.054 189.571 191.82 189.571 191.5C189.571 190.974 189.496 190.573 189.347 190.298C189.255 190.121 189.105 189.949 188.899 189.78C188.692 189.612 188.44 189.441 188.141 189.269C188.013 189.195 187.885 189.125 187.757 189.059C187.636 188.998 187.49 188.93 187.319 188.856C187.155 188.778 186.942 188.683 186.679 188.572L186.572 187.672C186.7 187.705 186.856 187.763 187.041 187.845C187.234 187.923 187.433 188.013 187.639 188.116C187.853 188.223 188.045 188.326 188.216 188.424C188.65 188.675 189.037 188.965 189.379 189.293C189.721 189.622 189.991 190 190.19 190.427C190.39 190.855 190.489 191.344 190.489 191.894C190.489 192.297 190.439 192.597 190.34 192.794C190.24 192.983 190.119 193.106 189.977 193.164C189.842 193.217 189.71 193.236 189.582 193.219C189.454 193.195 189.358 193.172 189.294 193.151L189.294 193.201C189.436 193.308 189.585 193.443 189.742 193.608C189.906 193.776 190.062 193.986 190.212 194.236C190.361 194.479 190.482 194.762 190.575 195.087C190.667 195.411 190.713 195.783 190.713 196.202C190.713 196.662 190.642 197.044 190.5 197.348C190.358 197.653 190.123 197.829 189.795 197.878C189.468 197.92 189.03 197.782 188.483 197.465Z" fill="#2C3246"/>
<path d="M194.299 200.824C193.886 200.586 193.516 200.319 193.189 200.023C192.869 199.739 192.605 199.48 192.399 199.246C192.2 199.008 192.065 198.848 191.993 198.766L192.335 198.174C192.399 198.244 192.538 198.39 192.751 198.612C192.965 198.833 193.221 199.072 193.52 199.326C193.819 199.581 194.125 199.799 194.438 199.98C194.879 200.235 195.178 200.284 195.334 200.128C195.498 199.968 195.58 199.624 195.58 199.099C195.58 198.408 195.463 197.864 195.228 197.465C194.993 197.067 194.626 196.724 194.128 196.436L193.136 195.863L193.136 195.049C193.57 195.259 193.933 195.427 194.224 195.555C194.516 195.682 194.747 195.75 194.918 195.758C195.089 195.766 195.21 195.701 195.281 195.561C195.352 195.413 195.388 195.179 195.388 194.858C195.388 194.333 195.313 193.932 195.164 193.657C195.071 193.48 194.922 193.307 194.715 193.139C194.509 192.971 194.256 192.8 193.957 192.627C193.829 192.553 193.701 192.484 193.573 192.418C193.452 192.356 193.306 192.288 193.136 192.214C192.972 192.136 192.758 192.042 192.495 191.931L192.388 191.031C192.516 191.064 192.673 191.122 192.858 191.204C193.05 191.282 193.249 191.372 193.456 191.475C193.669 191.582 193.861 191.684 194.032 191.783C194.466 192.034 194.854 192.323 195.196 192.652C195.537 192.981 195.808 193.359 196.007 193.786C196.206 194.213 196.306 194.702 196.306 195.253C196.306 195.656 196.256 195.956 196.156 196.153C196.057 196.342 195.936 196.465 195.793 196.523C195.658 196.576 195.527 196.594 195.398 196.578C195.27 196.553 195.174 196.531 195.11 196.51L195.11 196.559C195.253 196.666 195.402 196.802 195.559 196.966C195.722 197.135 195.879 197.344 196.028 197.595C196.178 197.837 196.299 198.121 196.391 198.445C196.484 198.77 196.53 199.142 196.53 199.561C196.53 200.021 196.459 200.403 196.316 200.707C196.174 201.011 195.939 201.188 195.612 201.237C195.285 201.278 194.847 201.141 194.299 200.824Z" fill="#F7FAFB"/>
<path d="M194.299 200.824C193.886 200.586 193.516 200.319 193.189 200.023C192.869 199.739 192.605 199.48 192.399 199.246C192.2 199.008 192.065 198.848 191.993 198.766L192.335 198.174C192.399 198.244 192.538 198.39 192.751 198.612C192.965 198.833 193.221 199.072 193.52 199.326C193.819 199.581 194.125 199.799 194.438 199.98C194.879 200.235 195.178 200.284 195.334 200.128C195.498 199.968 195.58 199.624 195.58 199.099C195.58 198.408 195.463 197.864 195.228 197.465C194.993 197.067 194.626 196.724 194.128 196.436L193.136 195.863L193.136 195.049C193.57 195.259 193.933 195.427 194.224 195.555C194.516 195.682 194.747 195.75 194.918 195.758C195.089 195.766 195.21 195.701 195.281 195.561C195.352 195.413 195.388 195.179 195.388 194.858C195.388 194.333 195.313 193.932 195.164 193.657C195.071 193.48 194.922 193.307 194.715 193.139C194.509 192.971 194.256 192.8 193.957 192.627C193.829 192.553 193.701 192.484 193.573 192.418C193.452 192.356 193.306 192.288 193.136 192.214C192.972 192.136 192.758 192.042 192.495 191.931L192.388 191.031C192.516 191.064 192.673 191.122 192.858 191.204C193.05 191.282 193.249 191.372 193.456 191.475C193.669 191.582 193.861 191.684 194.032 191.783C194.466 192.034 194.854 192.323 195.196 192.652C195.537 192.981 195.808 193.359 196.007 193.786C196.206 194.213 196.306 194.702 196.306 195.253C196.306 195.656 196.256 195.956 196.156 196.153C196.057 196.342 195.936 196.465 195.793 196.523C195.658 196.576 195.527 196.594 195.398 196.578C195.27 196.553 195.174 196.531 195.11 196.51L195.11 196.559C195.253 196.666 195.402 196.802 195.559 196.966C195.722 197.135 195.879 197.344 196.028 197.595C196.178 197.837 196.299 198.121 196.391 198.445C196.484 198.77 196.53 199.142 196.53 199.561C196.53 200.021 196.459 200.403 196.316 200.707C196.174 201.011 195.939 201.188 195.612 201.237C195.285 201.278 194.847 201.141 194.299 200.824Z" fill="#2C3246"/>
<path d="M200.116 204.183C199.703 203.944 199.333 203.677 199.006 203.382C198.685 203.098 198.422 202.839 198.216 202.605C198.016 202.367 197.881 202.206 197.81 202.124L198.152 201.533C198.216 201.602 198.354 201.748 198.568 201.97C198.781 202.192 199.038 202.43 199.336 202.685C199.635 202.94 199.941 203.158 200.254 203.339C200.696 203.593 200.994 203.643 201.151 203.486C201.315 203.326 201.397 202.983 201.397 202.457C201.397 201.767 201.279 201.223 201.044 200.824C200.809 200.426 200.443 200.082 199.945 199.795L198.952 199.222L198.952 198.408C199.386 198.618 199.749 198.786 200.041 198.914C200.333 199.041 200.564 199.109 200.735 199.117C200.905 199.125 201.026 199.059 201.098 198.92C201.169 198.772 201.204 198.538 201.204 198.217C201.204 197.691 201.13 197.291 200.98 197.015C200.888 196.839 200.738 196.666 200.532 196.498C200.325 196.329 200.073 196.159 199.774 195.986C199.646 195.912 199.518 195.842 199.39 195.777C199.269 195.715 199.123 195.647 198.952 195.573C198.788 195.495 198.575 195.401 198.312 195.29L198.205 194.39C198.333 194.423 198.49 194.48 198.675 194.562C198.867 194.64 199.066 194.731 199.272 194.834C199.486 194.94 199.678 195.043 199.849 195.142C200.283 195.392 200.671 195.682 201.012 196.011C201.354 196.34 201.624 196.718 201.823 197.145C202.023 197.572 202.122 198.061 202.122 198.612C202.122 199.014 202.072 199.314 201.973 199.511C201.873 199.7 201.752 199.824 201.61 199.881C201.475 199.935 201.343 199.953 201.215 199.937C201.087 199.912 200.991 199.889 200.927 199.869L200.927 199.918C201.069 200.025 201.219 200.161 201.375 200.325C201.539 200.493 201.695 200.703 201.845 200.954C201.994 201.196 202.115 201.479 202.208 201.804C202.3 202.129 202.347 202.5 202.347 202.92C202.347 203.38 202.275 203.762 202.133 204.066C201.991 204.37 201.756 204.547 201.429 204.596C201.101 204.637 200.664 204.499 200.116 204.183Z" fill="#F7FAFB"/>
<path d="M200.116 204.183C199.703 203.944 199.333 203.677 199.006 203.382C198.685 203.098 198.422 202.839 198.216 202.605C198.016 202.367 197.881 202.206 197.81 202.124L198.152 201.533C198.216 201.602 198.354 201.748 198.568 201.97C198.781 202.192 199.038 202.43 199.336 202.685C199.635 202.94 199.941 203.158 200.254 203.339C200.696 203.593 200.994 203.643 201.151 203.486C201.315 203.326 201.397 202.983 201.397 202.457C201.397 201.767 201.279 201.223 201.044 200.824C200.809 200.426 200.443 200.082 199.945 199.795L198.952 199.222L198.952 198.408C199.386 198.618 199.749 198.786 200.041 198.914C200.333 199.041 200.564 199.109 200.735 199.117C200.905 199.125 201.026 199.059 201.098 198.92C201.169 198.772 201.204 198.538 201.204 198.217C201.204 197.691 201.13 197.291 200.98 197.015C200.888 196.839 200.738 196.666 200.532 196.498C200.325 196.329 200.073 196.159 199.774 195.986C199.646 195.912 199.518 195.842 199.39 195.777C199.269 195.715 199.123 195.647 198.952 195.573C198.788 195.495 198.575 195.401 198.312 195.29L198.205 194.39C198.333 194.423 198.49 194.48 198.675 194.562C198.867 194.64 199.066 194.731 199.272 194.834C199.486 194.94 199.678 195.043 199.849 195.142C200.283 195.392 200.671 195.682 201.012 196.011C201.354 196.34 201.624 196.718 201.823 197.145C202.023 197.572 202.122 198.061 202.122 198.612C202.122 199.014 202.072 199.314 201.973 199.511C201.873 199.7 201.752 199.824 201.61 199.881C201.475 199.935 201.343 199.953 201.215 199.937C201.087 199.912 200.991 199.889 200.927 199.869L200.927 199.918C201.069 200.025 201.219 200.161 201.375 200.325C201.539 200.493 201.695 200.703 201.845 200.954C201.994 201.196 202.115 201.479 202.208 201.804C202.3 202.129 202.347 202.5 202.347 202.92C202.347 203.38 202.275 203.762 202.133 204.066C201.991 204.37 201.756 204.547 201.429 204.596C201.101 204.637 200.664 204.499 200.116 204.183Z" fill="#2C3246"/>
<path d="M205.932 207.542C205.519 207.303 205.149 207.036 204.822 206.74C204.502 206.457 204.239 206.198 204.032 205.964C203.833 205.725 203.698 205.565 203.627 205.483L203.968 204.891C204.032 204.961 204.171 205.107 204.384 205.329C204.598 205.551 204.854 205.789 205.153 206.044C205.452 206.299 205.758 206.516 206.071 206.697C206.512 206.952 206.811 207.001 206.968 206.845C207.131 206.685 207.213 206.342 207.213 205.816C207.213 205.126 207.096 204.581 206.861 204.183C206.626 203.784 206.259 203.441 205.761 203.153L204.769 202.58L204.769 201.767C205.203 201.976 205.566 202.145 205.857 202.272C206.149 202.4 206.38 202.467 206.551 202.476C206.722 202.484 206.843 202.418 206.914 202.278C206.985 202.131 207.021 201.896 207.021 201.576C207.021 201.05 206.946 200.649 206.797 200.374C206.704 200.197 206.555 200.025 206.348 199.856C206.142 199.688 205.889 199.517 205.591 199.345C205.462 199.271 205.334 199.201 205.206 199.135C205.085 199.074 204.939 199.006 204.769 198.932C204.605 198.854 204.391 198.759 204.128 198.648L204.021 197.748C204.15 197.781 204.306 197.839 204.491 197.921C204.683 197.999 204.882 198.09 205.089 198.192C205.302 198.299 205.494 198.402 205.665 198.5C206.099 198.751 206.487 199.041 206.829 199.37C207.17 199.698 207.441 200.076 207.64 200.504C207.839 200.931 207.939 201.42 207.939 201.97C207.939 202.373 207.889 202.673 207.789 202.87C207.69 203.059 207.569 203.182 207.427 203.24C207.291 203.293 207.16 203.312 207.032 203.295C206.903 203.271 206.807 203.248 206.743 203.228L206.743 203.277C206.886 203.384 207.035 203.519 207.192 203.684C207.355 203.852 207.512 204.062 207.661 204.312C207.811 204.555 207.932 204.838 208.024 205.163C208.117 205.487 208.163 205.859 208.163 206.278C208.163 206.738 208.092 207.121 207.95 207.425C207.807 207.729 207.572 207.905 207.245 207.954C206.918 207.996 206.48 207.858 205.932 207.542Z" fill="#F7FAFB"/>
<path d="M205.932 207.542C205.519 207.303 205.149 207.036 204.822 206.74C204.502 206.457 204.239 206.198 204.032 205.964C203.833 205.725 203.698 205.565 203.627 205.483L203.968 204.891C204.032 204.961 204.171 205.107 204.384 205.329C204.598 205.551 204.854 205.789 205.153 206.044C205.452 206.299 205.758 206.516 206.071 206.697C206.512 206.952 206.811 207.001 206.968 206.845C207.131 206.685 207.213 206.342 207.213 205.816C207.213 205.126 207.096 204.581 206.861 204.183C206.626 203.784 206.259 203.441 205.761 203.153L204.769 202.58L204.769 201.767C205.203 201.976 205.566 202.145 205.857 202.272C206.149 202.4 206.38 202.467 206.551 202.476C206.722 202.484 206.843 202.418 206.914 202.278C206.985 202.131 207.021 201.896 207.021 201.576C207.021 201.05 206.946 200.649 206.797 200.374C206.704 200.197 206.555 200.025 206.348 199.856C206.142 199.688 205.889 199.517 205.591 199.345C205.462 199.271 205.334 199.201 205.206 199.135C205.085 199.074 204.939 199.006 204.769 198.932C204.605 198.854 204.391 198.759 204.128 198.648L204.021 197.748C204.15 197.781 204.306 197.839 204.491 197.921C204.683 197.999 204.882 198.09 205.089 198.192C205.302 198.299 205.494 198.402 205.665 198.5C206.099 198.751 206.487 199.041 206.829 199.37C207.17 199.698 207.441 200.076 207.64 200.504C207.839 200.931 207.939 201.42 207.939 201.97C207.939 202.373 207.889 202.673 207.789 202.87C207.69 203.059 207.569 203.182 207.427 203.24C207.291 203.293 207.16 203.312 207.032 203.295C206.903 203.271 206.807 203.248 206.743 203.228L206.743 203.277C206.886 203.384 207.035 203.519 207.192 203.684C207.355 203.852 207.512 204.062 207.661 204.312C207.811 204.555 207.932 204.838 208.024 205.163C208.117 205.487 208.163 205.859 208.163 206.278C208.163 206.738 208.092 207.121 207.95 207.425C207.807 207.729 207.572 207.905 207.245 207.954C206.918 207.996 206.48 207.858 205.932 207.542Z" fill="#2C3246"/>
<path d="M220.381 215.724L220.413 213.746L217.061 211.811L217.061 211.034L218.748 206.079L219.623 206.72L218.011 211.435L218.011 211.497L220.413 212.834L220.616 209.636L221.277 210.018L221.278 213.333L221.961 213.703L221.961 214.64L221.278 214.245L221.288 216.248L220.381 215.724Z" fill="#F7FAFB"/>
<path d="M220.381 215.724L220.413 213.746L217.061 211.811L217.061 211.034L218.748 206.079L219.623 206.72L218.011 211.435L218.011 211.497L220.413 212.834L220.616 209.636L221.277 210.018L221.278 213.333L221.961 213.703L221.961 214.64L221.278 214.245L221.288 216.248L220.381 215.724Z" fill="#2C3246"/>
<path d="M226.218 219.095L226.25 217.117L222.899 215.182L222.899 214.405L224.585 209.45L225.46 210.091L223.849 214.806L223.849 214.867L226.25 216.205L226.453 213.006L227.115 213.388L227.115 216.704L227.798 217.074L227.798 218.011L227.115 217.616L227.126 219.619L226.218 219.095Z" fill="#F7FAFB"/>
<path d="M226.218 219.095L226.25 217.117L222.899 215.182L222.899 214.405L224.585 209.45L225.46 210.091L223.849 214.806L223.849 214.867L226.25 216.205L226.453 213.006L227.115 213.388L227.115 216.704L227.798 217.074L227.798 218.011L227.115 217.616L227.126 219.619L226.218 219.095Z" fill="#2C3246"/>
<path d="M232.056 222.466L232.088 220.488L228.736 218.552L228.736 217.776L230.422 212.821L231.298 213.462L229.686 218.176L229.686 218.238L232.088 219.576L232.29 216.377L232.952 216.759L232.952 220.075L233.635 220.445L233.635 221.381L232.952 220.987L232.963 222.99L232.056 222.466Z" fill="#F7FAFB"/>
<path d="M232.056 222.466L232.088 220.488L228.736 218.552L228.736 217.776L230.422 212.821L231.298 213.462L229.686 218.176L229.686 218.238L232.088 219.576L232.29 216.377L232.952 216.759L232.952 220.075L233.635 220.445L233.635 221.381L232.952 220.987L232.963 222.99L232.056 222.466Z" fill="#2C3246"/>
<path d="M237.893 225.837L237.925 223.858L234.573 221.923L234.573 221.146L236.26 216.192L237.135 216.833L235.523 221.547L235.523 221.609L237.925 222.946L238.128 219.748L238.79 220.13L238.79 223.446L239.473 223.815L239.473 224.752L238.79 224.358L238.8 226.361L237.893 225.837Z" fill="#F7FAFB"/>
<path d="M237.893 225.837L237.925 223.858L234.573 221.923L234.573 221.146L236.26 216.192L237.135 216.833L235.523 221.547L235.523 221.609L237.925 222.946L238.128 219.748L238.79 220.13L238.79 223.446L239.473 223.815L239.473 224.752L238.79 224.358L238.8 226.361L237.893 225.837Z" fill="#2C3246"/>
<path d="M126.156 174.112L126.156 173.619L127.147 174.205L127.188 170.47L127.159 170.452L126.287 171.01L125.955 170.449L127.117 169.86L127.651 170.216L127.651 174.496L128.522 174.986L128.522 175.479L126.156 174.112Z" fill="#2C3246"/>
<path d="M129.162 175.848L129.162 175.355L130.152 175.94L130.194 172.205L130.164 172.188L129.292 172.746L128.96 172.184L130.123 171.596L130.656 171.952L130.656 176.231L131.528 176.721L131.528 177.214L129.162 175.848Z" fill="#2C3246"/>
<path d="M131.735 178.004L132.743 175.731L133.602 173.653L134.13 173.958L133.146 176.176L132.256 178.306L131.735 178.004Z" fill="#2C3246"/>
<path d="M135.955 179.859C135.765 179.75 135.589 179.612 135.427 179.445C135.265 179.278 135.123 179.071 135 178.822C134.881 178.571 134.787 178.265 134.715 177.904C134.648 177.541 134.615 177.109 134.615 176.607C134.615 176.109 134.648 175.72 134.715 175.439C134.787 175.161 134.881 174.967 135 174.857C135.123 174.745 135.265 174.702 135.427 174.727C135.589 174.748 135.765 174.813 135.955 174.922C136.145 175.032 136.32 175.17 136.483 175.337C136.645 175.499 136.787 175.706 136.909 175.96C137.032 176.209 137.127 176.512 137.194 176.871C137.261 177.229 137.295 177.657 137.295 178.154C137.295 178.657 137.261 179.05 137.194 179.336C137.127 179.616 137.032 179.813 136.91 179.924C136.787 180.032 136.645 180.075 136.483 180.055C136.32 180.034 136.145 179.969 135.955 179.859ZM135.961 179.342C136.143 179.447 136.293 179.482 136.411 179.445C136.534 179.406 136.627 179.264 136.69 179.017C136.753 178.771 136.785 178.385 136.785 177.86C136.785 177.454 136.765 177.111 136.726 176.833C136.69 176.557 136.637 176.33 136.566 176.151C136.494 175.973 136.407 175.83 136.305 175.72C136.202 175.606 136.085 175.511 135.955 175.436C135.824 175.361 135.708 175.318 135.605 175.309C135.502 175.3 135.415 175.343 135.344 175.439C135.273 175.535 135.219 175.701 135.184 175.936C135.148 176.166 135.131 176.485 135.131 176.891C135.131 177.416 135.16 177.839 135.219 178.161C135.283 178.481 135.376 178.731 135.498 178.911C135.625 179.094 135.779 179.237 135.961 179.342Z" fill="#2C3246"/>
<path d="M139.147 181.702C138.917 181.57 138.712 181.422 138.53 181.257C138.352 181.1 138.206 180.956 138.091 180.826C137.98 180.694 137.905 180.605 137.866 180.559L138.056 180.23C138.091 180.269 138.168 180.35 138.287 180.473C138.405 180.597 138.548 180.729 138.714 180.87C138.88 181.012 139.05 181.133 139.224 181.233C139.469 181.375 139.635 181.402 139.722 181.316C139.813 181.227 139.858 181.036 139.858 180.744C139.858 180.36 139.793 180.058 139.663 179.837C139.532 179.615 139.329 179.425 139.052 179.265L138.5 178.946L138.5 178.494C138.741 178.611 138.943 178.704 139.105 178.775C139.267 178.846 139.396 178.884 139.491 178.888C139.585 178.893 139.653 178.856 139.692 178.779C139.732 178.696 139.752 178.566 139.751 178.388C139.751 178.096 139.71 177.874 139.627 177.721C139.576 177.623 139.493 177.527 139.378 177.433C139.263 177.339 139.123 177.245 138.957 177.149C138.886 177.108 138.815 177.069 138.743 177.032C138.676 176.998 138.595 176.961 138.5 176.919C138.409 176.876 138.291 176.824 138.144 176.762L138.085 176.262C138.156 176.28 138.243 176.312 138.346 176.358C138.453 176.401 138.564 176.452 138.678 176.509C138.797 176.568 138.904 176.625 138.998 176.68C139.24 176.819 139.455 176.98 139.645 177.163C139.835 177.345 139.985 177.555 140.095 177.793C140.206 178.03 140.261 178.302 140.261 178.607C140.261 178.831 140.234 178.998 140.178 179.107C140.123 179.212 140.056 179.281 139.977 179.313C139.902 179.342 139.829 179.353 139.757 179.344C139.686 179.33 139.633 179.317 139.597 179.306L139.597 179.333C139.676 179.393 139.759 179.468 139.846 179.559C139.937 179.653 140.024 179.769 140.107 179.908C140.19 180.043 140.258 180.201 140.309 180.381C140.36 180.561 140.386 180.768 140.386 181.001C140.386 181.256 140.347 181.469 140.267 181.638C140.188 181.806 140.058 181.905 139.876 181.932C139.694 181.955 139.451 181.878 139.147 181.702Z" fill="#2C3246"/>
<path d="M221.709 176.56C221.353 176.355 221.001 176.135 220.653 175.901C220.311 175.671 220.023 175.467 219.788 175.291C219.553 175.122 219.421 175.026 219.393 175.001L219.436 171.094L219.382 166.453C219.418 166.465 219.553 166.531 219.788 166.65C220.03 166.765 220.318 166.907 220.652 167.076C220.987 167.244 221.314 167.421 221.634 167.606C222.026 167.832 222.378 168.105 222.691 168.425C223.004 168.746 223.253 169.128 223.438 169.572C223.63 170.011 223.727 170.523 223.727 171.106C223.727 171.509 223.677 171.809 223.577 172.006C223.485 172.207 223.367 172.337 223.225 172.394C223.09 172.448 222.954 172.464 222.819 172.444C222.691 172.427 222.595 172.404 222.531 172.376L222.531 172.425C222.638 172.495 222.769 172.608 222.926 172.764C223.083 172.912 223.236 173.099 223.385 173.325C223.542 173.547 223.67 173.814 223.769 174.126C223.869 174.43 223.919 174.775 223.919 175.161C223.919 175.695 223.855 176.102 223.727 176.382C223.606 176.657 223.438 176.831 223.225 176.905C223.011 176.979 222.773 176.977 222.51 176.899C222.254 176.833 221.987 176.72 221.709 176.56ZM221.677 171.513C222.118 171.768 222.414 171.819 222.563 171.667C222.72 171.511 222.798 171.158 222.798 170.607C222.798 170.024 222.705 169.563 222.52 169.227C222.335 168.89 222.026 168.596 221.592 168.345C221.286 168.168 221.015 168.025 220.781 167.914C220.553 167.807 220.386 167.731 220.279 167.686L220.279 170.693L221.677 171.513ZM221.827 175.827C222.289 176.094 222.595 176.123 222.745 175.913C222.894 175.704 222.969 175.291 222.969 174.674C222.969 174.058 222.844 173.563 222.595 173.189C222.353 172.819 222.019 172.511 221.592 172.265L220.279 171.507L220.3 174.822C220.371 174.872 220.546 174.997 220.823 175.198C221.108 175.395 221.442 175.605 221.827 175.827Z" fill="#2C3246"/>
<path d="M224.551 178.029L226.569 170.627L227.828 171.355L229.846 181.086L228.928 180.556L228.426 177.998L225.971 176.581L225.469 178.559L224.551 178.029ZM226.163 175.779L228.234 176.975L227.241 171.928L227.156 171.878L226.163 175.779Z" fill="#2C3246"/>
<path d="M230.698 181.578L230.698 173.012L231.904 173.708L234.925 182.774L234.957 182.792L234.818 175.391L235.715 175.909L235.715 184.475L234.508 183.778L231.488 174.713L231.456 174.694L231.595 182.096L230.698 181.578Z" fill="#2C3246"/>
<path d="M241.689 187.924L238.561 181.718L241.422 179.204L242.553 179.857L239.618 182.242L239.618 182.316L242.884 188.615L241.689 187.924ZM237.633 185.582L237.665 181.25L237.633 177.016L238.529 177.534L238.529 186.1L237.633 185.582Z" fill="#2C3246"/>
<ellipse cx="7.30868" cy="7.30868" rx="7.30868" ry="7.30868" transform="matrix(0.865993 0.500056 1.10109e-05 1 219.78 226.596)" fill="#F7FAFB" stroke="#2C3246" stroke-width="0.77316"/>
<ellipse cx="7.30868" cy="7.30868" rx="7.30868" ry="7.30868" transform="matrix(0.865993 0.500056 1.10109e-05 1 228.129 231.419)" fill="#F7FAFB" stroke="#2C3246" stroke-width="0.77316"/>
<rect width="13.8068" height="10.1693" transform="matrix(0.865993 0.500056 1.10109e-05 1 125.701 136.62)" fill="#F7FAFB" stroke="#2C3246" stroke-width="0.77316"/>
<rect width="0.473817" height="10.1693" transform="matrix(0.865993 0.500056 1.10109e-05 1 129.549 138.853)" fill="#2AC77B"/>
<rect width="0.473817" height="10.1693" transform="matrix(0.865993 0.500056 1.10109e-05 1 129.549 138.853)" fill="#2C3246"/>
<rect width="0.473817" height="10.1693" transform="matrix(0.865993 0.500056 1.10109e-05 1 133.453 141.101)" fill="#2AC77B"/>
<rect width="0.473817" height="10.1693" transform="matrix(0.865993 0.500056 1.10109e-05 1 133.453 141.101)" fill="#2C3246"/>
<rect width="0.473817" height="4.85698" transform="matrix(1.09317e-05 1 -0.865993 -0.500056 137.66 146.834)" fill="#2AC77B"/>
<rect width="0.473817" height="4.85698" transform="matrix(1.09317e-05 1 -0.865993 -0.500056 137.66 146.834)" fill="#2C3246"/>
<rect width="0.473817" height="4.85698" transform="matrix(1.09317e-05 1 -0.865993 -0.500056 129.906 142.363)" fill="#2AC77B"/>
<rect width="0.473817" height="4.85698" transform="matrix(1.09317e-05 1 -0.865993 -0.500056 129.906 142.363)" fill="#2C3246"/>
<rect width="0.473817" height="4.85698" transform="matrix(1.09317e-05 1 -0.865993 -0.500056 137.663 150.074)" fill="#2AC77B"/>
<rect width="0.473817" height="4.85698" transform="matrix(1.09317e-05 1 -0.865993 -0.500056 137.663 150.074)" fill="#2C3246"/>
<rect width="0.473817" height="4.85698" transform="matrix(1.09317e-05 1 -0.865993 -0.500056 129.906 145.602)" fill="#2AC77B"/>
<rect width="0.473817" height="4.85698" transform="matrix(1.09317e-05 1 -0.865993 -0.500056 129.906 145.602)" fill="#2C3246"/>
<path d="M164.124 204.87L175.664 216.524C177.867 218.765 179.672 222.811 179.651 225.537L179.651 245.162C179.651 247.124 181.148 250.123 168.166 253.832L166.252 252.02C164.217 252.613 160.881 250.687 158.845 247.743L147.305 231.122C145.941 229.172 144.829 225.937 144.829 223.975L139.234 204.87C143.685 201.903 146.017 200.375 148.241 200.69L159.781 202.362C160.977 202.544 162.928 203.671 164.124 204.87Z" fill="#F7FAFB" stroke="#2C3246" stroke-width="0.77316"/>
<path d="M168.862 220.25L157.322 208.596C156.126 207.397 154.174 206.27 152.978 206.088L141.439 204.416C139.215 204.101 137.41 206.063 137.41 208.801L137.411 228.426C137.411 230.388 138.523 233.623 139.887 235.573L151.427 252.194C153.463 255.138 156.799 257.064 158.834 256.471L170.373 253.176C171.737 252.776 172.849 250.85 172.849 248.888L172.848 229.263C172.869 226.537 171.065 222.491 168.862 220.25Z" fill="#F7FAFB" stroke="#2C3246" stroke-width="0.77316"/>
<path d="M162.203 230.101L153.476 235.139C153.172 235.315 152.786 235.257 152.401 235.034C152.015 234.811 151.629 234.425 151.325 233.897L148.078 228.226C147.489 227.206 147.489 226.081 148.078 225.742C148.666 225.402 149.64 225.964 150.229 226.984L152.421 230.78L160.072 226.363C160.66 226.023 161.634 226.586 162.223 227.605C162.811 228.625 162.812 229.773 162.203 230.101Z" fill="#F7FAFB" stroke="#2C3246" stroke-width="0.77316" stroke-linejoin="round"/>
<path d="M302.676 185.421C302.684 185.408 302.712 185.372 302.765 185.341L302.765 185.341L302.957 185.677L303.149 186.012C303.149 186.012 303.149 186.012 303.15 186.012L314.446 179.548C315.854 178.744 316.666 177.057 316.686 174.797L317.151 125.859C317.172 123.582 316.394 121.077 315.137 118.866C313.88 116.655 312.123 114.7 310.149 113.544L267.724 88.6719L267.724 88.6719C265.739 87.5088 263.846 87.3403 262.421 88.1551L262.421 88.1552L251.132 94.6148L251.131 94.6154L251.514 95.287C251.46 95.3172 251.416 95.3225 251.4 95.3231M302.676 185.421C302.68 185.412 302.691 185.388 302.706 185.342C302.737 185.246 302.772 185.097 302.81 184.891C302.885 184.481 302.961 183.891 303.038 183.141C303.19 181.642 303.341 179.533 303.488 177.017C303.781 171.986 304.056 165.342 304.292 158.718C304.527 152.094 304.724 145.493 304.862 140.547C304.931 138.074 304.985 136.015 305.022 134.574C305.04 133.854 305.055 133.288 305.064 132.903L305.075 132.462L305.078 132.35L305.078 132.321L305.079 132.317C305.079 132.316 305.079 132.315 305.079 132.314C305.098 130.206 304.373 127.836 303.166 125.713C301.959 123.589 300.291 121.748 298.463 120.675C298.462 120.674 298.461 120.674 298.46 120.673L298.457 120.672L298.432 120.657L298.333 120.602L297.947 120.383C297.61 120.192 297.114 119.912 296.483 119.556C295.221 118.844 293.417 117.827 291.248 116.609C286.909 114.173 281.112 110.933 275.275 107.715C269.438 104.497 263.564 101.303 259.071 98.9584C256.824 97.7858 254.927 96.8279 253.555 96.1863C252.867 95.865 252.319 95.6265 251.927 95.4801C251.729 95.4064 251.583 95.3603 251.483 95.3375C251.436 95.3267 251.41 95.3237 251.4 95.3231M302.676 185.421C302.672 185.427 302.672 185.428 302.675 185.422C302.675 185.422 302.675 185.421 302.676 185.421ZM251.4 95.3231C251.399 95.3231 251.399 95.323 251.398 95.323L251.4 95.3231Z" fill="#F7FAFB" stroke="#2C3246" stroke-width="0.77316"/>
<path d="M298.043 185.179C301.846 187.408 304.961 185.66 305.003 181.274L305.466 132.336C305.508 127.949 302.459 122.586 298.657 120.357L256.23 95.4853C252.427 93.2559 249.311 95.0055 249.27 99.392L248.807 148.33C248.765 152.716 251.813 158.078 255.616 160.307L298.043 185.179Z" fill="#F7FAFB" stroke="#2C3246" stroke-width="0.77316"/>
<path d="M275.864 137.389C272.131 135.234 269.105 129.992 269.105 125.682C269.104 121.372 272.13 119.625 275.863 121.78C279.596 123.935 282.622 129.177 282.622 133.487C282.622 137.797 279.596 139.544 275.864 137.389Z" fill="#F7FAFB" stroke="#2C3246" stroke-width="0.867073"/>
<path d="M275.864 141.291C282.637 145.202 288.152 153.631 288.152 160.093C288.152 160.53 287.855 160.702 287.476 160.483L264.253 147.074C263.875 146.856 263.577 146.34 263.577 145.903C263.577 139.441 269.092 137.381 275.864 141.291Z" fill="#F7FAFB" stroke="#2C3246" stroke-width="0.867073"/>
</svg>
